<?xml version="1.0" encoding="utf-8"?>
<!-- Generator: Adobe Illustrator 21.0.0, SVG Export Plug-In . SVG Version: 6.00 Build 0)  -->
<svg version="1.1" id="Capa_1" xmlns="http://www.w3.org/2000/svg" xmlns:xlink="http://www.w3.org/1999/xlink" x="0px" y="0px"
	 viewBox="0 0 294.8 294.8" style="enable-background:new 0 0 294.8 294.8;" xml:space="preserve">
<style type="text/css">
	.st0{fill:#FF8400;}
	.st1{fill:#211F1E;}
</style>
<polygon class="st0" points="118.4,118 134.7,82.4 143.3,60 152,60 176,118 236,118 236,132.7 193.3,170.7 210,228 200,235.8 
	147.4,206 97.3,235.8 86,230 99.3,173.4 50,134.5 58.7,118.7 "/>
<g>
	<path class="st1" d="M199.6,175.5c-0.6-2,0.1-4.1,1.7-5.4l37.4-27.5c6-4.4,8.3-11.7,6-18.8c-2.3-7-8.5-11.6-15.9-11.6l-46.4-0.2
		c-2.1,0-3.9-1.3-4.6-3.3l-14.5-44.1c-2.3-7-8.6-11.5-16-11.6l0,0c-7.4,0-13.7,4.5-16,11.5l-6.6,19.9c-1,3.1,0.7,6.5,3.8,7.6
		c3.1,1,6.5-0.7,7.6-3.8l6.6-19.9c1-3.1,3.8-3.3,4.6-3.3c0.8,0,3.6,0.2,4.6,3.3l14.5,44.1c2.3,6.9,8.7,11.5,15.9,11.6l46.4,0.2
		c3.2,0,4.3,2.6,4.6,3.3c0.3,0.8,0.9,3.5-1.7,5.4l-37.4,27.5c-5.8,4.3-8.3,11.8-6.1,18.7l14.1,44.2c1,3.1-1.1,4.9-1.8,5.4
		c-0.7,0.5-3,1.9-5.7,0l-37.7-27.1c-5.9-4.2-13.8-4.2-19.7,0l-37.7,27.1c-2.6,1.9-5,0.5-5.7,0c-0.7-0.5-2.7-2.3-1.8-5.4l14.1-44.2
		c2.2-6.9-0.2-14.4-6.1-18.7L63.1,133c-2.6-1.9-2-4.6-1.7-5.4c0.3-0.8,1.3-3.3,4.6-3.3l46.4-0.2c3.3,0,6-2.7,6-6c0-3.3-2.7-6-6-6
		c0,0,0,0,0,0l-46.4,0.2c-7.4,0-13.6,4.6-15.9,11.6c-2.3,7,0.1,14.4,6,18.8l37.4,27.5c1.7,1.2,2.4,3.4,1.7,5.4l-14.1,44.2
		c-2.3,7,0.2,14.4,6.1,18.7c3,2.2,6.4,3.3,9.9,3.3c3.4,0,6.8-1.1,9.8-3.2l37.7-27.1c1.7-1.2,3.9-1.2,5.6,0l37.7,27.1
		c6,4.3,13.7,4.3,19.7,0c6-4.3,8.4-11.7,6.1-18.7L199.6,175.5z"/>
	<path class="st1" d="M147.4,0C66.1,0,0,66.1,0,147.4s66.1,147.4,147.4,147.4c3.3,0,6-2.7,6-6s-2.7-6-6-6
		C72.8,282.8,12,222.1,12,147.4S72.8,12,147.4,12s135.4,60.8,135.4,135.4c0,46.5-23.4,89.2-62.6,114.2c-2.8,1.8-3.6,5.5-1.8,8.3
		s5.5,3.6,8.3,1.8c42.7-27.3,68.2-73.7,68.2-124.3C294.8,66.1,228.7,0,147.4,0z"/>
</g>
</svg>
