<?xml version="1.0" encoding="utf-8"?>
<!-- Generator: Adobe Illustrator 21.0.0, SVG Export Plug-In . SVG Version: 6.00 Build 0)  -->
<svg version="1.1" id="Capa_1" xmlns="http://www.w3.org/2000/svg" xmlns:xlink="http://www.w3.org/1999/xlink" x="0px" y="0px"
	 viewBox="0 0 512 512" style="enable-background:new 0 0 512 512;" xml:space="preserve">
<style type="text/css">
	.st0{fill:#FF8400;}
	.st1{fill:#211F1E;}
</style>
<rect x="228.1" y="155.1" class="st0" width="38.6" height="348"/>
<path class="st1" d="M426.2,145H280.7c8-5,15.7-9.9,22.9-14.6c12.7-8.4,23.8-16.1,33.1-23c16.4,5.2,28.8,14.1,28.9,14.1
	c4,2.9,9.5,2,12.4-2c2.9-4,2-9.5-2-12.4c-1-0.7-9.9-7.1-23.1-12.7c6.3-5.5,11-10.3,14.1-14.3c7.8-10.4,11.1-23.1,9.3-36
	c-1.8-12.8-8.5-24.2-18.9-32c-21.4-16.1-51.9-11.8-68,9.6c-8.5,11.3-18.9,36.5-30.9,74.8c-2.2,7.1-4.5,14.5-6.7,22.2
	c-2.2-7.7-4.5-15.2-6.7-22.2c-12-38.3-22.3-63.4-30.9-74.8c-7.8-10.3-19.2-17-32-18.8c-12.9-1.8-25.6,1.5-36,9.3
	c-10.4,7.8-17,19.2-18.9,32c-1.8,12.8,1.5,25.6,9.3,36c3,4,7.8,8.8,14.1,14.3c-13.2,5.6-22.1,12-23.1,12.7c-4,2.9-4.8,8.5-2,12.4
	c2.9,4,8.5,4.9,12.4,2c0.1-0.1,12.5-8.9,28.9-14.1c9.2,6.9,20.3,14.6,33.1,23c7.2,4.7,14.9,9.6,22.9,14.6H77.4
	c-9.3,0-16.8,7.5-16.8,16.8v71.3c0,4.6,3.5,8.4,7.9,8.8v252.7c0,9.3,7.5,16.8,16.8,16.8h332.9c9.3,0,16.8-7.5,16.8-16.8V242
	c4.5-0.5,7.9-4.3,7.9-8.8v-71.3C443,152.6,435.5,145,426.2,145z M311.2,103.7c-5.4,3.7-11.2,7.7-17.5,11.8
	c-7.1,4.7-14.7,9.6-22.7,14.5c7.5-12.3,16.8-20.4,27.8-24v0C302.8,104.7,306.9,103.9,311.2,103.7z M328.2,20.2
	c6.4,0,12.9,2,18.5,6.2c6.6,4.9,10.8,12.1,11.9,20.3c1.1,8.1-0.9,16.2-5.9,22.8c-3.5,4.6-10.2,10.9-19.9,18.5
	c-14.3-3.1-27.5-2.7-39.4,1.2c-5.9,1.9-11.4,4.8-16.6,8.4c13.4-42.1,21.9-58.6,26.7-65.1C309.6,24.4,318.8,20.2,328.2,20.2z
	 M393.5,233.2c0,4.9,4,8.9,8.9,8.9h14.9l0,251.7H276.6V242.1h94.1c4.9,0,8.9-4,8.9-8.9s-4-8.9-8.9-8.9h-94.1v-61.5h148.6v61.5h-22.8
	C397.5,224.3,393.5,228.3,393.5,233.2z M258.8,162.8v330.9h-13.9V162.8H258.8z M124,233.2c0,4.9,4,8.9,8.9,8.9h94.1v251.7H86.3
	V242.1h14.9c4.9,0,8.9-4,8.9-8.9s-4-8.9-8.9-8.9H78.4v-61.5h148.6v61.5h-94.1C128,224.3,124,228.3,124,233.2z M145.1,46.6
	c1.1-8.1,5.4-15.3,11.9-20.3c5.4-4,11.7-6.2,18.5-6.2c9.8,0,18.7,4.5,24.6,12.2c4.9,6.4,13.4,23,26.8,65.1
	c-5.1-3.6-10.7-6.5-16.6-8.4c-6.6-2.2-13.6-3.3-21-3.3c-5.9,0-12,0.7-18.4,2.1c-9.7-7.6-16.4-13.9-19.9-18.5v0
	C146,62.8,143.9,54.7,145.1,46.6z M204.7,106c11,3.7,20.3,11.7,27.8,24c-7.9-4.9-15.5-9.8-22.6-14.5c-6.2-4.1-12.1-8.1-17.5-11.8
	C196.7,103.9,200.9,104.7,204.7,106z"/>
</svg>
