<?xml version="1.0" encoding="utf-8"?>
<!-- Generator: Adobe Illustrator 21.0.0, SVG Export Plug-In . SVG Version: 6.00 Build 0)  -->
<svg version="1.1" id="Capa_1" xmlns="http://www.w3.org/2000/svg" xmlns:xlink="http://www.w3.org/1999/xlink" x="0px" y="0px"
	 viewBox="0 0 512 512" style="enable-background:new 0 0 512 512;" xml:space="preserve">
<style type="text/css">
	.st0{fill:#211F1E;}
	.st1{fill:#FF8400;}
</style>
<circle class="st0" cx="168" cy="169" r="25"/>
<circle class="st0" cx="345" cy="342.9" r="25"/>
<g>
	<path class="st1" d="M437,75C388.7,26.6,324.4,0,256,0S123.3,26.6,75,75C26.6,123.3,0,187.6,0,256s26.6,132.7,75,181
		c48.4,48.4,112.6,75,181,75s132.7-26.6,181-75c48.4-48.4,75-112.6,75-181S485.4,123.3,437,75z M425.7,425.7
		C380.4,471,320.1,496,256,496s-124.4-25-169.7-70.3S16,320.1,16,256S41,131.6,86.3,86.3S191.9,16,256,16s124.4,25,169.7,70.3
		S496,191.9,496,256S471,380.4,425.7,425.7z"/>
	<path class="st1" d="M393,119c-4.5-4.5-10.6-7-17-7s-12.4,2.5-17,7l-12.7,12.7c-3.1,3.1-3.1,8.2,0,11.3s8.2,3.1,11.3,0l12.7-12.7
		c1.5-1.5,3.5-2.3,5.7-2.3s4.1,0.8,5.7,2.3c3.1,3.1,3.1,8.2,0,11.3l-240,240c-1.5,1.5-3.5,2.3-5.7,2.3s-4.1-0.8-5.7-2.3
		c-3.1-3.1-3.1-8.2,0-11.3L335,165.7c3.1-3.1,3.1-8.2,0-11.3s-8.2-3.1-11.3,0L119,359c-9.4,9.4-9.4,24.6,0,33.9c4.5,4.5,10.6,7,17,7
		s12.4-2.5,17-7l240-240C402.3,143.6,402.3,128.4,393,119z"/>
	<path class="st1" d="M168,240c39.7,0,72-32.3,72-72s-32.3-72-72-72s-72,32.3-72,72S128.3,240,168,240z M168,112
		c30.9,0,56,25.1,56,56s-25.1,56-56,56s-56-25.1-56-56S137.1,112,168,112z"/>
	<path class="st1" d="M344,272c-39.7,0-72,32.3-72,72s32.3,72,72,72s72-32.3,72-72S383.7,272,344,272z M344,400
		c-30.9,0-56-25.1-56-56s25.1-56,56-56s56,25.1,56,56S374.9,400,344,400z"/>
	<path class="st1" d="M168,208c22.1,0,40-17.9,40-40c0-3.4-0.4-6.8-1.3-10c-1.1-4.3-5.5-6.9-9.7-5.7c-4.3,1.1-6.8,5.5-5.7,9.7
		c0.5,2,0.8,4,0.8,6c0,13.2-10.8,24-24,24s-24-10.8-24-24s10.8-24,24-24c2,0,4.1,0.3,6,0.8c4.3,1.1,8.6-1.5,9.7-5.8
		c1.1-4.3-1.5-8.6-5.8-9.7c-3.3-0.8-6.6-1.3-10-1.3c-22.1,0-40,17.9-40,40S145.9,208,168,208z"/>
	<path class="st1" d="M373,328.2c-4.3,1.1-6.8,5.5-5.7,9.7c0.5,2,0.8,4,0.8,6c0,13.2-10.8,24-24,24s-24-10.8-24-24s10.8-24,24-24
		c2,0,4.1,0.3,6,0.8c4.3,1.1,8.6-1.5,9.7-5.8s-1.5-8.6-5.8-9.7c-3.3-0.8-6.6-1.3-10-1.3c-22.1,0-40,17.9-40,40s17.9,40,40,40
		s40-17.9,40-40c0-3.4-0.4-6.8-1.3-10C381.6,329.7,377.3,327.1,373,328.2z"/>
</g>
<path class="st0" d="M256,16c-64.1,0-124.4,25-169.7,70.3S16,191.9,16,256s25,124.4,70.3,169.7S191.9,496,256,496
	s124.4-25,169.7-70.3S496,320.1,496,256s-25-124.4-70.3-169.7S320.1,16,256,16z M168,96c39.7,0,72,32.3,72,72s-32.3,72-72,72
	s-72-32.3-72-72S128.3,96,168,96z M153,393c-4.5,4.5-10.6,7-17,7s-12.4-2.5-17-7c-9.4-9.4-9.4-24.6,0-33.9l240-240
	c4.5-4.5,10.6-7,17-7s12.4,2.5,17,7c9.4,9.4,9.4,24.6,0,33.9L153,393z M344,416c-39.7,0-72-32.3-72-72s32.3-72,72-72s72,32.3,72,72
	S383.7,416,344,416z"/>
</svg>
