<?xml version="1.0" encoding="utf-8"?>
<!-- Generator: Adobe Illustrator 21.0.0, SVG Export Plug-In . SVG Version: 6.00 Build 0)  -->
<svg version="1.1" id="Capa_1" xmlns="http://www.w3.org/2000/svg" xmlns:xlink="http://www.w3.org/1999/xlink" x="0px" y="0px"
	 viewBox="0 0 512 512" style="enable-background:new 0 0 512 512;" xml:space="preserve">
<style type="text/css">
	.st0{fill:#211F1E;}
	.st1{fill:#FF8400;}
</style>
<path class="st0" d="M437.7,74.3C389.2,25.7,324.6-1,256-1C187.4-1,122.8,25.7,74.3,74.3C25.7,122.8-1,187.4-1,256
	c0,68.6,26.7,133.2,75.3,181.7C122.8,486.3,187.4,513,256,513c68.6,0,133.2-26.7,181.7-75.3C486.3,389.2,513,324.6,513,256
	C513,187.4,486.3,122.8,437.7,74.3z M256,495c-63.8,0-123.9-24.9-169-70c-45.1-45.1-70-105.2-70-169S41.9,132.1,87,87
	c45.1-45.1,105.2-70,169-70s123.9,24.9,169,70c45.1,45.1,70,105.2,70,169s-24.9,123.9-70,169S319.8,495,256,495z"/>
<path class="st0" d="M384.8,74.6c-0.5-2.4-1.8-4.4-3.8-5.7C344,44.1,300.7,31,256,31c-60.1,0-116.6,23.4-159.1,65.9
	C54.4,139.4,31,195.9,31,256c0,55.4,20.3,108.7,57.3,150c1.7,1.9,4.1,3,6.7,3c2.2,0,4.3-0.8,6-2.3c3.7-3.3,4-9,0.7-12.7
	C67.7,356,49,307,49,256c0-114.1,92.9-207,207-207c41.2,0,80.9,12.1,115,34.9c2,1.3,4.4,1.8,6.8,1.3c2.4-0.5,4.4-1.8,5.7-3.8
	C384.8,79.4,385.3,77,384.8,74.6z"/>
<path class="st0" d="M443.1,131c-1.3-2-3.4-3.4-5.7-3.8c-2.4-0.5-4.8,0-6.8,1.3c-4.1,2.8-5.2,8.4-2.5,12.5
	c22.8,34.1,34.9,73.8,34.9,115c0,114.1-92.9,207-207,207c-47.4,0-93.6-16.4-130.3-46.2c-3.9-3.1-9.5-2.5-12.7,1.3
	c-3.1,3.9-2.5,9.5,1.3,12.7C154.2,463.2,204.5,481,256,481c60.1,0,116.6-23.4,159.1-65.9c42.5-42.5,65.9-99,65.9-159.1
	C481,211.3,467.9,168,443.1,131z"/>
<path class="st0" d="M422.7,104.8c-5.2-5.8-10.8-11.3-16.7-16.6c-1.8-1.6-4.1-2.4-6.5-2.3c-2.4,0.1-4.6,1.2-6.2,3
	c-3.3,3.7-3,9.4,0.7,12.7c5.3,4.8,10.5,9.9,15.3,15.2c1.7,1.9,4.1,3,6.7,3c2.2,0,4.4-0.8,6-2.3C425.7,114.2,426,108.5,422.7,104.8z"
	/>
<path class="st1" d="M256,63c-5,0-9,4-9,9v24c0,5,4,9,9,9c5,0,9-4,9-9V72C265,67,261,63,256,63z"/>
<path class="st1" d="M256,407c-5,0-9,4-9,9v24c0,5,4,9,9,9c5,0,9-4,9-9v-24C265,411,261,407,256,407z"/>
<path class="st1" d="M96,247H72c-5,0-9,4-9,9c0,5,4,9,9,9h24c5,0,9-4,9-9C105,251,101,247,96,247z"/>
<path class="st1" d="M440,247h-24c-5,0-9,4-9,9c0,5,4,9,9,9h24c5,0,9-4,9-9C449,251,445,247,440,247z"/>
<path class="st0" d="M183.8,112.9l-12-20.8c-2.5-4.3-8-5.8-12.3-3.3c-2.1,1.2-3.6,3.1-4.2,5.5c-0.6,2.3-0.3,4.7,0.9,6.8l12,20.8
	c1.6,2.8,4.6,4.5,7.8,4.5c1.6,0,3.1-0.4,4.5-1.2C184.8,122.7,186.3,117.2,183.8,112.9z"/>
<path class="st0" d="M355.8,410.8l-12-20.8c-2.5-4.3-8-5.8-12.3-3.3c-4.3,2.5-5.8,8-3.3,12.3l12,20.8c1.6,2.8,4.6,4.5,7.8,4.5
	c1.6,0,3.1-0.4,4.5-1.2c2.1-1.2,3.6-3.1,4.2-5.5C357.3,415.4,357,412.9,355.8,410.8z"/>
<path class="st0" d="M125.2,331.5c-2.5-4.3-8-5.8-12.3-3.3l-20.8,12c-4.3,2.5-5.8,8-3.3,12.3c1.6,2.8,4.6,4.5,7.8,4.5
	c1.6,0,3.1-0.4,4.5-1.2l20.8-12c2.1-1.2,3.6-3.1,4.2-5.5C126.8,336,126.4,333.6,125.2,331.5z"/>
<path class="st0" d="M423.1,159.5c-2.5-4.3-8-5.8-12.3-3.3l-20.8,12c-2.1,1.2-3.6,3.1-4.2,5.5c-0.6,2.3-0.3,4.7,0.9,6.8
	c1.6,2.8,4.6,4.5,7.8,4.5c1.6,0,3.1-0.4,4.5-1.2l20.8-12C424.1,169.3,425.6,163.8,423.1,159.5z"/>
<path class="st0" d="M352.5,88.9c-2.1-1.2-4.5-1.5-6.8-0.9c-2.3,0.6-4.3,2.1-5.5,4.2l-12,20.8c-1.2,2.1-1.5,4.5-0.9,6.8
	c0.6,2.3,2.1,4.3,4.2,5.5c1.4,0.8,2.9,1.2,4.5,1.2c3.2,0,6.2-1.7,7.8-4.5l12-20.8C358.3,96.9,356.8,91.3,352.5,88.9z"/>
<path class="st0" d="M180.5,386.8c-4.3-2.5-9.8-1-12.3,3.3l-12,20.8c-1.2,2.1-1.5,4.5-0.9,6.8c0.6,2.3,2.1,4.3,4.2,5.5
	c1.4,0.8,2.9,1.2,4.5,1.2c3.2,0,6.2-1.7,7.8-4.5l12-20.8C186.3,394.8,184.8,389.3,180.5,386.8z"/>
<path class="st0" d="M419.8,340.2l-20.8-12c-2.1-1.2-4.5-1.5-6.8-0.9c-2.3,0.6-4.3,2.1-5.5,4.2s-1.5,4.5-0.9,6.8s2.1,4.3,4.2,5.5
	l20.8,12c1.4,0.8,2.9,1.2,4.5,1.2c3.2,0,6.2-1.7,7.8-4.5C425.6,348.2,424.1,342.7,419.8,340.2z"/>
<path class="st0" d="M121.9,168.2l-20.8-12c-2.1-1.2-4.5-1.5-6.8-0.9c-2.3,0.6-4.3,2.1-5.5,4.2c-2.5,4.3-1,9.8,3.3,12.3l20.8,12
	c1.4,0.8,2.9,1.2,4.5,1.2c3.2,0,6.2-1.7,7.8-4.5C127.7,176.2,126.2,170.7,121.9,168.2z"/>
<path class="st1" d="M319.5,348l-44-76.3c3.6-4.4,5.6-10,5.6-15.7c0-10.3-6.4-19.6-16-23.3V128c0-5-4-9-9-9c-5,0-9,4-9,9v104.7
	c-9.6,3.7-16,13-16,23.3c0,13.8,11.2,25,25,25c1.3,0,2.6-0.1,3.9-0.3l44,76.3c1.6,2.8,4.6,4.5,7.8,4.5c1.6,0,3.1-0.4,4.5-1.2
	C320.5,357.8,322,352.2,319.5,348z M263,256c0,3.9-3.1,7-7,7c-3.9,0-7-3.1-7-7c0-3.9,3.1-7,7-7C259.9,249,263,252.1,263,256z"/>
</svg>
