<?xml version="1.0" encoding="utf-8"?>
<!-- Generator: Adobe Illustrator 21.0.0, SVG Export Plug-In . SVG Version: 6.00 Build 0)  -->
<svg version="1.1" id="Capa_1" xmlns="http://www.w3.org/2000/svg" xmlns:xlink="http://www.w3.org/1999/xlink" x="0px" y="0px"
	 viewBox="0 0 512 512" style="enable-background:new 0 0 512 512;" xml:space="preserve">
<style type="text/css">
	.st0{fill:#FF8400;}
	.st1{fill:#211F1E;}
</style>
<polygon class="st0" points="109,249.9 211,351.9 411.1,168 483.4,95.6 490,81.9 497.8,105.4 214,394.9 200,389.9 80,275.8 "/>
<path class="st1" d="M485.6,178.5c-1.6-5-7-7.7-12-6.1l0,0c-2.4,0.8-4.4,2.5-5.5,4.7c-1.1,2.3-1.3,4.8-0.6,7.2
	c7.5,23.1,11.3,47.2,11.3,71.6c0,61.6-24,119.5-67.6,163.1c-43.6,43.6-101.5,67.6-163.1,67.6s-119.5-24-163.1-67.6
	C41.5,375.5,17.5,317.6,17.5,256s24-119.5,67.6-163.1c43.6-43.6,101.5-67.6,163.1-67.6c32.7,0,64.3,6.7,93.8,19.9
	c28.6,12.8,53.9,30.9,75.3,54c1.7,1.9,4.1,2.9,6.6,3c2.6,0.1,5-0.8,6.8-2.5c3.8-3.6,4.1-9.6,0.5-13.4
	c-23.1-24.9-50.6-44.6-81.5-58.4c-32-14.3-66.2-21.5-101.6-21.5c-66.7,0-129.4,26-176.5,73.1C24.5,126.6-1.5,189.3-1.5,256
	c0,66.7,26,129.4,73.1,176.5c47.2,47.2,109.9,73.1,176.5,73.1c66.7,0,129.4-26,176.5-73.1c47.2-47.2,73.1-109.9,73.1-176.5
	C497.8,229.5,493.7,203.4,485.6,178.5z"/>
<path class="st1" d="M506,82.2c-4.8-4.8-11.2-7.5-18-7.5s-13.2,2.7-18,7.5l-7.2,7.2c-3.7,3.7-3.7,9.7,0,13.4c3.7,3.7,9.7,3.7,13.4,0
	l7.2-7.2c1.2-1.2,2.9-1.9,4.6-1.9s3.4,0.7,4.6,1.9c1.2,1.2,1.9,2.9,1.9,4.6c0,1.7-0.7,3.4-1.9,4.6L216.7,380.7
	c-1.2,1.2-2.9,1.9-4.6,1.9s-3.4-0.7-4.6-1.9L99.8,273c-1.2-1.2-1.9-2.9-1.9-4.6c0-1.7,0.7-3.4,1.9-4.6c1.2-1.2,2.9-1.9,4.6-1.9
	c1.7,0,3.4,0.7,4.6,1.9l96.4,96.4c1.8,1.8,4.2,2.8,6.7,2.8c2.5,0,4.9-1,6.7-2.8l234.8-234.8c3.7-3.7,3.7-9.7,0-13.4
	c-3.7-3.7-9.7-3.7-13.4,0L212.1,340l-89.7-89.7c-4.8-4.8-11.2-7.5-18-7.5c-6.8,0-13.2,2.7-18,7.5c-4.8,4.8-7.5,11.2-7.5,18
	s2.7,13.2,7.5,18l107.7,107.7c4.8,4.8,11.2,7.5,18,7.5c6.8,0,13.2-2.7,18-7.5L506,118.3c4.8-4.8,7.5-11.2,7.5-18
	C513.5,93.4,510.8,87,506,82.2z"/>
</svg>
