<?xml version="1.0" encoding="utf-8"?>
<!-- Generator: Adobe Illustrator 21.0.0, SVG Export Plug-In . SVG Version: 6.00 Build 0)  -->
<svg version="1.1" id="Capa_1" xmlns="http://www.w3.org/2000/svg" xmlns:xlink="http://www.w3.org/1999/xlink" x="0px" y="0px"
	 viewBox="0 0 512 512" style="enable-background:new 0 0 512 512;" xml:space="preserve">
<style type="text/css">
	.st0{fill:#FF8400;}
	.st1{fill:#211F1E;}
</style>
<g>
	<g>
		<path class="st0" d="M229.8,289.8h-19.6c14-14,29.6-34.3,29.6-54.7c0-19.8-13.3-33.2-33.2-33.2c-18.3,0-33.2,14.9-33.2,33.2
			c0,5.5,4.5,10,10,10s10-4.5,10-10c0-7.3,5.9-13.2,13.2-13.2c13.2,0,13.2,9.9,13.2,13.2c0,20.9-30.5,47.9-42.3,56.6
			c-3.5,2.6-4.9,7.1-3.6,11.2c1.3,4.1,5.2,6.9,9.5,6.9h46.3c5.5,0,10-4.5,10-10S235.3,289.8,229.8,289.8z"/>
	</g>
</g>
<g>
	<g>
		<path class="st0" d="M310,202c-5.5,0-10,4.5-10,10v88c0,5.5,4.5,10,10,10s10-4.5,10-10v-88C320,206.5,315.5,202,310,202z"/>
	</g>
</g>
<g>
	<g>
		<path class="st0" d="M326.5,245.9h-48.7v-34c0-5.5-4.5-10-10-10s-10,4.5-10,10v44c0,5.5,4.5,10,10,10h58.7c5.5,0,10-4.5,10-10
			C336.5,250.4,332.1,245.9,326.5,245.9z"/>
	</g>
</g>
<g>
	<g>
		<path class="st0" d="M255,102.6c-5.5,0-10,4.5-10,10v20.7c0,5.5,4.5,10,10,10s10-4.5,10-10v-20.7C265,107.1,260.5,102.6,255,102.6
			z"/>
	</g>
</g>
<g>
	<g>
		<path class="st0" d="M255,368.7c-5.5,0-10,4.5-10,10v20.7c0,5.5,4.5,10,10,10s10-4.5,10-10v-20.7C265,373.2,260.5,368.7,255,368.7
			z"/>
	</g>
</g>
<g>
	<g>
		<path class="st0" d="M398.3,246h-20.7c-5.5,0-10,4.5-10,10c0,5.5,4.5,10,10,10h20.7c5.5,0,10-4.5,10-10
			C408.3,250.5,403.9,246,398.3,246z"/>
	</g>
</g>
<g>
	<g>
		<path class="st0" d="M132.3,246h-20.7c-5.5,0-10,4.5-10,10c0,5.5,4.5,10,10,10h20.7c5.5,0,10-4.5,10-10
			C142.3,250.5,137.8,246,132.3,246z"/>
	</g>
</g>
<g>
	<g>
		<path class="st1" d="M501,246h-62.4c-5.5,0-10,4.5-10,10v0.4c0,95.9-78.1,174-174,174c-75.1,0-141.4-47.8-165.1-119
			c-1.5-4.5-2.8-9.1-4-13.8c-1.3-5.4-6.7-8.7-12.1-7.4c-5.4,1.3-8.7,6.7-7.4,12.1c1.3,5.2,2.7,10.3,4.4,15.4
			c26.4,79.4,100.4,132.7,184.1,132.7c103.8,0,188.8-81.9,193.8-184.4h42.4c-2.5,59.3-26.7,114.7-68.9,156.9
			C377.3,467.4,318,492,255,492s-122.3-24.5-166.9-69.1c-92-92-92-241.7,0-333.8c91.1-91.1,240-91.8,332-1.7
			c3.9,3.8,10.2,3.8,14.1-0.1l2.8-2.8v54.2h-54.2l7.1-7.1c1.9-1.9,2.9-4.4,2.9-7.1s-1.1-5.2-3-7.1l-0.1-0.1
			c-36.4-35.4-84.4-54.9-135.2-54.9c-42.7,0-83.3,13.6-117.2,39.4c-32.8,24.9-57.3,60.3-68.9,99.7c-1.6,5.3,1.5,10.9,6.8,12.4
			c5.3,1.6,10.9-1.5,12.4-6.8c21.6-73.5,90.3-124.8,166.9-124.8c42.2,0,82.2,15,113.8,42.4l-16.8,16.8c-2.9,2.9-3.7,7.2-2.2,10.9
			s5.2,6.2,9.2,6.2H447c5.5,0,10-4.5,10-10V60.3c0-4-2.4-7.7-6.2-9.2c-3.7-1.5-8-0.7-10.9,2.2l-13,13C379.4,23.2,318.3-0.3,253.7,0
			C185.8,0.3,122,27,74,75C25.6,123.3-1,187.6-1,256s26.6,132.7,75,181c48.4,48.4,112.6,75,181,75s132.7-26.6,181-75
			c48.4-48.4,75-112.6,75-181C511,250.5,506.5,246,501,246z"/>
	</g>
</g>
<g>
	<g>
		<path class="st1" d="M70.6,246.3c-5.5,0-10,4.5-10,10v0.1c0,5.5,4.5,10,10,10s10-4.5,10-10v-0.1C80.6,250.7,76.1,246.3,70.6,246.3
			z"/>
	</g>
</g>
</svg>
