<?xml version="1.0" encoding="utf-8"?>
<!-- Generator: Adobe Illustrator 21.0.0, SVG Export Plug-In . SVG Version: 6.00 Build 0)  -->
<svg version="1.1" id="Layer_1" xmlns="http://www.w3.org/2000/svg" xmlns:xlink="http://www.w3.org/1999/xlink" x="0px" y="0px"
	 viewBox="0 0 229.7 229.7" style="enable-background:new 0 0 229.7 229.7;" xml:space="preserve">
<style type="text/css">
	.st0{fill:#FF8400;}
	.st1{fill:#211F1E;}
</style>
<g>
	<path class="st0" d="M43.9,197.7c-2.6,5.1-2.2,10.7-1.6,13.9c2.8-1.5,8.3-5,11-10.3c2.6-5.1,2.2-10.7,1.6-13.9
		C52.1,188.9,46.6,192.4,43.9,197.7z"/>
</g>
<g>
	<path class="st0" d="M222.6,147.2c-1.1-2.4-2.4-5.2-3.5-7.9c-2-4.6-5.5-7.7-10.9-9.3c-7.3-2.3-15.3-1.9-24.3,1
		c-10,3.3-17.9,8.4-24,15.7c-0.7,0.8-1.3,1.6-1.9,2.5l-3.2,4.2l-2.3-3.4c-0.2-0.4-0.4-0.7-0.6-1l-12.4-20.4
		c-8.7-14.3-17.7-29.1-26.4-43.7c-4.1-6.8-9.3-12.8-15.9-18.2c-1.5-1.4-3-2-4.4-1.9c-3,0.6-4.5,1.8-4.9,4.1c0.6,1.8,1.8,3.2,4,4.5
		c6.8,3.9,12.2,9.6,17.5,18.5c8.2,13.7,16.4,27.2,24.3,40.3l0.7,1.2c6.1,10.1,12.4,20.5,18.6,30.6c2.4,4.1,4.2,8.5,5.6,12.4
		c3.4,9,10.4,14.5,22.1,17.1c7.2,1.6,14.4,1.1,21.2-1.6c8.3-3.3,14.8-9.2,19.4-17.6c2.7-5.2,4.2-10.2,4.3-15.5
		c0.1-3-0.4-5.8-1.6-8.4L222.6,147.2z M214.7,146.7c-1.2,4.8-4,9-8.9,13.3c-8.9,7.7-19.2,11.9-30.7,12.3c-0.4,0-0.8,0-1.2,0
		c-4,0-7.4-0.8-10.5-2.4c-4.4-2.3-6.2-6.1-4.9-10.8c0.7-2.7,1.7-5,3-6.7c8.4-11.5,20.5-18,36-19.1h0.1c5.2,0.2,8.8,0.7,12.2,2.5
		C214.2,138.1,215.9,142,214.7,146.7z"/>
</g>
<g>
	<path class="st1" d="M55.8,22.3c-4.5,0-8.2,4.2-8.2,9.4c0,5.2,3.7,9.4,8.2,9.4s8.2-4.2,8.2-9.4C64,26.5,60.3,22.3,55.8,22.3z
		 M58.7,31.7c0,2.2-1.4,4.1-2.9,4.1s-2.9-1.9-2.9-4.1c0-1.3,0.4-2.5,1.1-3.2c0.4-0.4,1-0.8,1.8-0.8C57.4,27.6,58.7,29.4,58.7,31.7z"
		/>
	<path class="st1" d="M229.1,148.7l-1.4-3.2c-0.3-0.7-0.6-1.4-0.9-2.1c-0.8-1.8-1.7-3.7-2.5-5.7c-2.6-6.3-7.6-10.6-14.7-12.8
		c-4.5-1.3-9.1-1.9-14-1.6l5.5-44.5l0-0.4c0-0.3,0-0.6-0.1-1l0-0.1c0-0.1,0.1-0.3,0.1-0.5c0-16.9-54.5-23-91.1-23
		c-13,0-26.1,0.7-38,1.9l0-3.3c0-0.1,0.1-0.6,0.5-1.5l0.4-1.4c1.3-4.8,3.6-13,3.5-17.4c0-11-8.9-19.9-19.9-19.9S36.5,21,36.5,32
		c0.1,3.4,1.8,10,3.7,17.1c0.3,1,0.6,2,0.9,2.9v9.2c-15,4.2-22,9.2-22,15.8c0,0.3,0,0.5,0.1,0.8c-0.1,0.3-0.1,0.7-0.1,1l10.7,85.7
		c-13.8-1.8-26.5,4.2-29,5.5l-3.2,1.7l2.4,2.7c0.1,0.1,10.6,12.4,26.6,15.2c2.1,0.4,4.5,0.6,6.9,0.6c3.8,0,7.6-0.5,11.6-1.4
		c-1.6,1.7-3.3,3.7-4.6,6.2c-4.2,8.2-2.2,17.1-1.5,19.6l0.9,3.2l3-1.3l0.1,0c2.6-1.2,11.2-5.5,15.4-13.5c1.2-2.4,2-5,2.4-7.8
		c12.9,4,29.5,6,49.3,6c22.3,0,40.4-2.5,53.9-7.3c4.2,2.9,9.1,4.9,15,6.2c8.3,1.9,16.6,1.3,24.7-1.8c9.7-3.8,17.2-10.7,22.4-20.4
		c3.2-6,4.9-12.2,5-18.1C231.3,155.7,230.6,152.1,229.1,148.7z M52.7,199.7c-2.3,4.4-6.7,7.6-9.3,9.2c-0.4-3-0.4-7.6,1.7-11.9
		c2.3-4.4,6.7-7.6,9.3-9.2C54.8,190.9,54.9,195.5,52.7,199.7z M110,136.4l-0.7,57.8c-6.1,0-11.6-0.2-16.7-0.6L92.2,136
		C97.4,136.3,103.3,136.4,110,136.4z M92,116.5c5.2,0.3,10.8,0.4,17.9,0.4h0.3l-0.2,14.2h0c-6.6,0-12.4-0.1-17.8-0.4L92,116.5z
		 M87.3,193.2c-5.8-0.6-10.7-1.3-15.1-2.2l-1.5-56.5c5,0.5,10.5,1,16.2,1.3L87.3,193.2z M46.8,177.9l-2.9-0.5l-1.6-2.4
		C43.8,175.9,45.3,176.8,46.8,177.9z M30.5,170.6c1.3,0.2,2.5,0.5,3.8,1l3.1,4.7l-4.8-0.8l-3.3-5C29.7,170.5,30.1,170.5,30.5,170.6z
		 M66,48.7l-0.1,0.5c-0.6,2.1-0.7,2.4-0.7,3v11.6l3.9-0.4c5.4-0.6,11.1-1.2,16.9-1.5c-1.9,1.3-3.2,3.2-3.8,5.5
		c-21.9,1.2-48.3,4.3-54.4,12.1c-1-0.8-1.5-1.7-1.5-2.5l0-0.1l0-0.1c0,0,0.1-4.7,19.3-9.3l2.8-0.7l-0.1-3c-0.1-0.8,0-1.3,0-1.7
		c0-0.2,0-0.4,0-0.6c0-0.2,0-0.4,0-0.6c0-0.3,0.1-0.5,0.1-0.8v-7.9c0-0.6-0.1-1-1-4.6L46.8,46c-1.1-4.2-3-11.2-3.1-13.7
		c0-7.1,5.8-12.9,12.9-12.9s12.9,5.8,12.9,13C69.6,36.3,67,45.3,66,48.7z M82.3,72.5c1.1,2.7,3.2,4.9,6.3,6.7
		c5.1,3,9.3,7.2,13.5,13.5c-30.4-0.5-57.5-4.7-70-10.7C35.1,79,49.9,74.3,82.3,72.5z M188.4,124.2L188.4,124.2
		C188.4,124.3,188.3,124.3,188.4,124.2C188.3,124.3,188.4,124.3,188.4,124.2z M187.9,82.2c-11.7,5.4-36.3,9.5-63.8,10.4l-3.4-5.7
		c-0.9-1.5-1.8-3-2.7-4.5c-2.3-3.9-4.9-7.4-7.9-10.7C150.5,71.9,179.4,77.1,187.9,82.2z M153.1,133.6l-0.2,6.7l-3.7-6.2
		C150.5,133.9,151.8,133.7,153.1,133.6z M153.6,114.2l-0.3,14.2c-1.3,0.2-2.7,0.4-4.2,0.5c-0.9,0.1-1.9,0.2-2.8,0.4L146,129
		c-0.8-1.3-1.7-2.7-2.5-4.1c-0.8-1.4-1.7-2.8-2.5-4.1c-0.7-1-1.3-2.1-2-3.2c-0.4-0.6-0.7-1.2-1.1-1.8
		C144,115.3,149.1,114.7,153.6,114.2z M171.4,130.2l0,0.3c-5.1,2.7-9.5,6-13.3,9.7l0.2-7.4C162.6,132.1,166.9,131.3,171.4,130.2z
		 M171.7,124.8c-4.6,1.1-8.9,2-13.2,2.7l0.4-14.2c5.1-0.8,9.6-1.7,13.6-2.6L171.7,124.8z M173.3,94.5l-0.6,10.9
		c-4.3,1.1-8.9,2-13.7,2.8l0.2-7.8c0-0.4-0.1-1.3-0.7-1.9c-0.5-0.5-1.2-0.8-1.8-0.8c-0.8,0-1.4,0.2-1.9,0.7
		c-0.5,0.5-0.8,1.2-0.8,1.9l-0.2,8.7c-5.9,0.8-11.3,1.4-16.6,1.7l0.1-5.8c0-1.5-1.1-2.6-2.6-2.6s-2.6,1.1-2.6,2.6v0.7
		c-0.4-0.7-0.8-1.4-1.2-2.1c-0.8-1.3-1.6-2.6-2.4-4c17.3-0.8,32.8-2.7,44.9-5.5C173.3,94.3,173.3,94.4,173.3,94.5z M177.1,123.3
		l0.7-13.9c5.5-1.6,9.9-3.4,13.2-5.3l-1.7,13.3C186.9,119.5,182.7,121.5,177.1,123.3z M178.2,103.9l0.3-9.2l0,0
		c0-0.4-0.1-1.1-0.5-1.7c6.3-1.7,11.5-3.6,15.2-5.6L192,97C190.6,98.7,186.9,101.2,178.2,103.9z M192.8,79.5
		c-10.3-8.8-48.6-12.8-82.7-12.8h-4.9c-1.3-1.3-2.7-2.5-4.2-3.7c-0.7-0.7-1.5-1.2-2.2-1.7c3.8-0.1,7.6-0.2,11.4-0.2
		c54.4,0,84.1,10.6,84.1,16C194.3,77.8,193.8,78.6,192.8,79.5z M65.3,128.5c-4.2-0.6-8.6-1.3-13.2-2.2l-0.7-14.6
		c4,0.8,8.5,1.6,13.6,2.3L65.3,128.5z M45.9,110.4l0.7,14.6c-11.8-3.1-15-6.2-15.9-8l-1.6-12.7C33.3,106.6,38.9,108.7,45.9,110.4z
		 M47,130.6l2.2,41.8c-2.9-2-7.1-4.4-12.1-6.1L32,125.1C35.4,127.2,40.4,129,47,130.6z M52.4,131.7c4.8,0.9,9,1.6,13.1,2.1l1.4,55.8
		c-1.9-0.5-3.9-1.1-6.1-1.8c-0.3-2.7-0.8-4.5-0.9-4.7l-0.5-1.6l-0.6-1.5l-0.5,0.2l-0.4-0.5c0-0.1-1.2-1.3-3.3-3.2L52.4,131.7z
		 M86.8,116.1l0.1,14.3c-5.8-0.3-11.3-0.7-16.3-1.3l-0.4-14.5C74.8,115.2,80,115.7,86.8,116.1z M86.7,107.2v3.6
		c-5.5-0.3-11-0.8-16.7-1.5l-0.2-6.9c0-1.5-1.2-2.6-2.7-2.6c-1.4,0-2.6,1.2-2.6,2.7l0.2,6.1c-5.4-0.8-9.9-1.6-13.7-2.4L50.6,97
		c0-0.7-0.3-1.4-0.8-1.9c-0.5-0.5-1.2-0.7-1.9-0.6c-0.7,0-1.3,0.3-1.8,0.8c-0.5,0.5-0.7,1.3-0.6,1.9l0.4,7.7
		c-8.3-2.2-14.5-4.9-17.3-7.6l-1.3-10.2c15.2,8.4,50.2,12.4,79.4,12.7c0.7,1.2,1.4,2.3,2.2,3.6c0.5,0.9,1.1,1.8,1.7,2.7l-0.1,5.4
		h-0.3c-5.3,0-11.1-0.1-17.9-0.5v-3.9l0-0.2c-0.3-1.2-1.4-2.4-2.9-2.4C87.8,104.6,86.7,105.7,86.7,107.2z M125,130.8
		c-3.1,0.1-6.4,0.2-9.7,0.2l0.2-14.2h1.2c1.3,2.1,2.6,4.4,3.9,6.6c0.9,1.4,1.8,2.9,2.6,4.4C123.9,128.9,124.5,129.9,125,130.8z
		 M115.2,136.3c4.3-0.1,8.7-0.2,13-0.4l1.6,2.7c0.3,0.5,0.6,1,0.9,1.5c0.3,0.4,0.6,0.9,0.8,1.3l-0.4,51.8
		c-5.1,0.4-10.7,0.7-16.6,0.8L115.2,136.3z M135,133.6l-0.7-1.2c-2.6-4.3-5.2-8.6-7.8-12.9c-5.4-8.9-11-18.2-16.5-27.4
		c-5.4-9-10.9-14.9-17.9-18.8c-1.9-1.1-2.9-2.2-3.5-3.7c0.3-1.4,1.2-2.5,4-3c1.1-0.1,2.4,0.5,3.6,1.7c6.5,5.3,11.6,11.1,15.7,17.9
		c8.9,15,18.2,30.2,26.4,43.7l12.4,20.4c0.2,0.3,0.4,0.5,0.5,0.9l3.1,4.7l4.1-5.4c0.6-0.9,1.2-1.7,1.8-2.4
		c5.9-7.1,13.6-12.1,23.5-15.4c8.9-2.9,16.7-3.2,23.7-1c5,1.5,8.4,4.3,10.3,8.7c1,2.5,2.2,5,3.2,7.2l1.7,3.9c1.1,2.4,1.6,5,1.5,8
		c-0.1,5-1.4,9.7-4.2,15c-4.5,8.2-10.8,13.9-18.9,17.2c-6.6,2.6-13.5,3.1-20.6,1.6c-11.3-2.5-18.1-7.7-21.4-16.5
		c-1.8-5-3.6-9.1-5.7-12.6C147.1,153.6,140.5,142.8,135,133.6z M136.8,150.1c1.2,2,2.4,4,3.7,6.1c2.3,3.8,4.7,7.8,7.1,11.7
		c1.8,3,3.2,6.4,4.4,9.7l-0.3,12.7c-4.8,1.1-9.9,1.9-15.2,2.6L136.8,150.1z M158,188.5l-1.1,0.3l0.1-1.6
		C157.3,187.7,157.6,188.1,158,188.5z M20.2,170.3c1-0.1,2-0.2,3-0.2l2.7,4.1l-3.6-0.6L20.2,170.3z M12.1,171.9
		c0.9-0.2,1.9-0.5,2.9-0.7l0.9,1.4L12.1,171.9z M45.8,182.6c-6.5,1.9-12.7,2.3-18.3,1.4c-6.6-1.1-12.3-4.3-16.5-7.4L45.8,182.6z"/>
	<path class="st1" d="M162.6,171.5L162.6,171.5c3.3,1.7,6.9,2.5,11,2.5l1.2,0c11.6-0.4,22.2-4.6,31.3-12.5c5-4.4,8-8.8,9.2-13.8
		c1.3-5.2-0.7-9.5-5.4-12c-3.6-1.9-7.4-2.4-12.7-2.6l-0.2,0c-15.7,1.1-28.1,7.7-36.7,19.5c-1.3,1.8-2.4,4.1-3.2,7
		C155.8,164.6,157.8,169,162.6,171.5z M162.4,161L162.4,161c0.5-2.1,1.4-3.9,2.3-5.3c7.6-10.4,18.6-16.3,32.7-17.4
		c4.4,0.2,7.4,0.6,10.1,2c2.6,1.4,3.5,3.3,2.7,6.2c-0.9,3.8-3.3,7.3-7.6,11.1c-8.2,7.1-17.6,10.9-28,11.3c-3.6,0.2-6.8-0.4-9.6-1.9
		C162.4,165.4,161.6,163.6,162.4,161z"/>
</g>
</svg>
