<?xml version="1.0" encoding="utf-8"?>
<!-- Generator: Adobe Illustrator 21.0.0, SVG Export Plug-In . SVG Version: 6.00 Build 0)  -->
<svg version="1.1" id="Layer_1" xmlns="http://www.w3.org/2000/svg" xmlns:xlink="http://www.w3.org/1999/xlink" x="0px" y="0px"
	 viewBox="0 0 258.7 258.7" style="enable-background:new 0 0 258.7 258.7;" xml:space="preserve">
<style type="text/css">
	.st0{fill:#211F1E;}
	.st1{fill:#FF8400;}
</style>
<g>
	<path class="st0" d="M82.7,104h-3.1v-2.6l0.8-0.3h-0.8V82.3l-2.9-3.1v0.5c-0.7-0.5-1.6-0.9-2.6-1.3V62.3l-0.6-0.6
		c-0.6-0.9-2.6-3.3-15.1-3.3c-4.7,0-12.8,0.4-15,3.2l-0.7,0.7v1.1H34l-2,2v9.1l2,2h8.7v1.9c-1.4,0.5-2.5,1.1-3.4,1.8h-0.1L37,82.2
		V104h-2.1c-7.6,0-13.7,6.1-13.7,13.7v13.5c-8.3,3.8-15.6,12.2-19.6,22.6c-4,10.4-4.1,21.4-0.3,29.6c2.4,5.3,6.3,9,11.3,10.7
		c2.9,1,5.8,1.3,8.7,0.8v18.1c0,13.1,11.8,23.7,26.4,23.7H70c14.6,0,26.4-10.6,26.4-23.7v-95.4C96.4,110.1,90.3,104,82.7,104z
		 M31.9,190.8v32.8c-2.8-3.1-4.3-6.8-4.3-10.6v-19.9C29.2,192.4,30.6,191.6,31.9,190.8z M37.1,71.3v-2.6h5.4v2.6H37.1z M90,145.2
		V213c0,3.6-1.3,7.1-3.7,10v-76.2C87.6,146.5,88.9,145.9,90,145.2z M47.8,79.3V67.7c4,0.9,9.4,1,10.5,1c3.1,0,7.3-0.2,10.5-1v11.5
		c-1.7,0.4-5.2,1-10.5,1C52.8,80.2,49.3,79.7,47.8,79.3z M28,163.5c4-4,7-5,9-5c0.2,0,0.3,0,0.4,0C35.7,161.9,31.5,163.1,28,163.5z
		 M26.5,168.7c1.8,0.1,4.2,0.5,6,2C29.8,170.8,27.8,170.1,26.5,168.7z M23.9,148.8c0,0,0,0.1,0.1,0.1c0.6,1.2,1,4-1.2,10
		C22.3,155.6,22.3,151.5,23.9,148.8z M19.9,170.8c-0.1,1.3-0.4,2.3-0.9,3c-0.3,0.4-0.7,0.7-1.2,0.9c0-0.5,0.1-1,0.2-1.5
		C18.4,172.2,19,171.4,19.9,170.8z M11.4,157.7c2.3,1,4.3,3.4,5.7,5.6C13.8,162,12.2,159.7,11.4,157.7z M15,168.2
		c-0.9,1-1.6,2.1-2,3.1c-1.4,3.6-0.2,6.7,0.3,7.4c0.5,1,1.7,1.4,2.4,1.4c3.2,0,5.7-1.1,7.4-3.2c0.7-0.9,1.2-1.8,1.6-3
		c2.6,1.6,5.4,2,7.5,2c1.9,0,3.7-0.3,5.5-0.8c0.7-0.2,1.3-0.7,1.7-1.3c0.3-0.6,0.3-1.3,0.2-2l0-0.1c-0.8-2.1-2-3.7-3.5-5
		c4.1-2,6.7-5.3,7.4-9.5c0.2-1-0.3-2.1-1.2-2.6l0,0c-1-0.7-5.9-3.2-12.9,1.1c0.8-3.7,0.6-6.7-0.5-9.1c-1.2-2.4-3.1-3.6-4.5-3.9
		c-0.8-0.2-1.6,0-2.2,0.5c-3.1,2.5-4.7,6.6-4.7,12.1c-3-2.6-6.2-3.7-9.4-3.2c5.2-10.7,14.2-18,22.6-18c1.5,0,3,0.3,4.5,0.8
		c0,0,0.1,0,0.1,0c-0.6,0-1.2,0.2-1.8,0.4c-1.2,0.5-2.1,1.5-2.4,2.6c-0.4,1.2-0.3,2.5,0.2,3.5c0.8,1.6,2.4,2.6,4.2,2.6
		c0.6,0,1.3-0.1,1.9-0.4c0.6-0.3,1.1-0.7,1.5-1.1c1.5,0.2,2.9,0.2,4.4,0c0.1,0.1,0.1,0.2,0.2,0.3l0,0.1c3.2,6.8,3,16.3-0.4,25.4
		c-5.7,15-18.6,24.3-28.6,20.7l0,0c-3.5-1.2-6.3-3.9-8.2-8c-3-6.4-3-15.2-0.1-23.8C6.5,160.3,8.7,165.6,15,168.2z M50.2,127.3
		c0.3,2.7,0.1,5.6-2.4,8.2c-0.6,0.6-1.2,1.1-1.9,1.4c-2.3-3.3-5.4-5.8-9-7.1c-2.1-0.7-4.1-1.1-6-1.1c-1,0-2,0.1-3.2,0.3v-11.7
		c0.1-3.9,3.4-7.1,7.3-7.1H37v10.3C37,124.1,41.4,126.3,50.2,127.3z M42.8,84.2c0.3-0.2,0.8-0.4,1.6-0.7c2.2,1.4,6.9,2.1,14.1,2.1
		c7.1,0,11.8-0.7,14-2.1c0.6,0.3,1.1,0.5,1.4,0.7c-1.7,0.9-6.6,2.8-15.6,2.8C49.1,87,44.3,85.1,42.8,84.2z M39.5,137.6
		c0.2,0.2,0.4,0.3,0.5,0.5c-0.1,0-0.3,0-0.4,0C39.6,138,39.6,137.8,39.5,137.6L39.5,137.6z M49.1,121.3l0.1,0.7
		c-4.3-0.6-6.4-1.5-7-1.9v-14.3c2.8,0.7,6.7,1.1,9.9,1.2c-1.7,1.6-3.3,3.9-3.7,7.3C48.1,116.8,48.6,119.1,49.1,121.3z M74.3,120
		c-1.1,0.7-5.9,2.5-16,2.5c-1.3,0-2.6-0.1-4.1-0.2l-0.1-0.7c-1.2-6.3-2.1-10.8,6.5-14.3c6.1-0.2,10.7-0.6,13.7-1.3V120z M63.6,101.7
		l0.4-0.8l0.2-0.4c0-0.2,0.1-0.3,0.2-0.5l0.1-0.2c1.1-2.3,1.1-4.8-0.2-6.7c-0.3-0.5-0.7-0.8-1.1-1.1c4.4-0.3,8.2-1.1,11-2.2v11.6
		c-1.6,0.4-5.1,1-11,1.2C63.4,102.3,63.5,102,63.6,101.7z M58.8,92.3L58.8,92.3c-0.6,0.5-0.9,1-1.2,1.8c-0.7-0.7-1.6-1.2-2.9-1
		c-2.5,0.4-3.4,1.8-3.7,2.6c-0.9,2.4,0.5,4.9,0.7,5.3c0.4,0.6,1,1.2,1.9,1.9c-6.5-0.2-10.3-1-11.5-1.4c0,0,0,0,0,0V89.8
		c3.8,1.6,9.5,2.4,16,2.4C58.4,92.2,58.7,92.2,58.8,92.3C58.9,92.2,58.9,92.2,58.8,92.3z M37.1,186.6c4.6-4.4,8.3-10,10.6-16.4
		c3-7.7,3.8-15.7,2.4-22.9H81v80.1c-3.3,1.9-7,2.9-11,2.9H47.6c-3.8,0-7.3-0.9-10.5-2.6V186.6z M82.7,141H48.2c0,0,0,0,0-0.1
		c2-1.1,3.6-2.7,4.8-4.7c1.8-3.1,2.1-6.1,2-8.5c1.1,0,2.3,0,3.3,0c3.6,0,21.3-0.3,21.3-7.2v-10.3h3.1c4,0,7.3,3.3,7.3,7.3v16
		C90,137.7,86.7,141,82.7,141z"/>
	<path class="st0" d="M168.3,155.8c0.1-1.1-0.2-2-1.1-2.7c-0.1-0.1-9-5.9-21.9,3.5c1.9-6.2,2-11.3,0.3-15.1
		c-1.3-2.7-3.4-4.7-6.2-5.6l-0.1,0c-0.8-0.2-1.5,0-2.1,0.5c-5.1,3.8-7.4,10.5-6.6,19.5c-5.2-5.3-10.9-7.6-16.4-6.7
		c-1.3,0.2-2.3,1.3-2.3,2.7c0,0.1,0.7,14.1,16.3,18.8c-1.9,1.6-3.2,3.4-4,5.5c-1.8,4.8,0.1,8.9,0.6,9.7c0.5,0.8,1.4,1.4,2.2,1.4h0.4
		c4.6,0,8.1-1.4,10.3-4.3c1.2-1.4,2-3.2,2.3-5.3c3.3,2.6,7.7,3.9,13,3.9c2.5,0,5.1-0.3,7.6-0.9l0.2,0c0.8-0.2,1.4-0.7,1.7-1.4
		c0.3-0.7,0.3-1.5,0-2.1c-1.4-3.4-3.6-6-6.6-7.9C163,166.7,167.1,162.3,168.3,155.8z M141.7,171.8c0.3-0.3,0.5-0.6,0.7-1
		c3.9,0.1,10,0.9,13.6,5.1C152.3,176.3,145.6,176.3,141.7,171.8z M145.5,165.7c-1-0.1-1.9-0.2-2.7-0.2c9.5-9.8,16.7-9.5,19.6-8.7
		C160.1,163.3,152,165.2,145.5,165.7z M137.1,162.8c-1.3-4.9-3.4-15.9,2-21.3c0.5,0.4,1.2,1.1,1.8,2.2
		C141.7,145.8,142.5,151.2,137.1,162.8z M133.5,179.5c-1,1.2-2.6,2-4.7,2.2c-0.2-0.9-0.3-2.3,0.2-3.9c0.8-2.1,2.7-3.9,5.8-5.4
		c0,0,0,0,0,0C135.1,174.2,135.1,177.3,133.5,179.5z M117.5,154.2c6.4,0.8,11.5,7.5,14.2,11.8C121.8,163.9,118.6,157.8,117.5,154.2z
		 M138,168.3L138,168.3l0.7,0.1l0,0L138,168.3z"/>
	<path class="st0" d="M257.6,202.7l-0.4,0.9L257.6,202.7c-2.6-1-25.5-9.7-49-2.6c-1.4,0.4-2.7,0.9-3.9,1.4
		c6.6-12.1,5.1-25.7,4.1-31.2c0-0.1,0-0.2-0.1-0.3l-0.8-3.3l-3,1c-0.2,0-15.6,5.1-24.9,17.7l-0.7-1.5v-71.1
		c0-11.1-7.9-20.1-17.7-20.5V65.1l-2-2h-0.3c-2.3-1.7-5.9-2.6-8.8-3.1l0.5-30.7c0-5.5-5.2-10-11.5-10s-11.5,4.5-11.5,10l0.4,30.6
		c-3,0.5-6.6,1.5-8.8,3.1h-0.3l-2,2v27.1c-9.8,0.3-17.7,9.1-17.7,19.9v119.4l1.5-2.6c6.7,7.4,34.7,7.6,38,7.6
		c8.5,0,20.6-0.9,29.2-3.2l1.1,0.7l0.2-0.2l0.3,0.1c1.4,0.5,13.8,5.4,29.4,5.4c6.9,0,13.4-0.9,19.5-2.7
		c24.6-7.5,39.8-29.4,39.9-29.6l2.1-3.1L257.6,202.7z M177.9,201.7c-0.1,10-5.7,19.3-8.8,23.7c-3-3.9-8.2-12.1-8.1-22
		c0.1-10,5.7-19.2,8.8-23.6C173.2,184.2,178,192.3,177.9,201.7z M142.1,217.2c0-1.6-1.3-2.9-2.9-2.9c-10.1,0-24.3,1.1-32.6,4.3
		v-30.5c7.7,11.1,20,17.6,33.5,17.6c5.2,0,10.3-1,15.1-3.1c0,0.3,0,0.5,0,0.8c-0.1,11.4,5.6,20.7,8.9,25.1c-6.5,1.4-15.3,2.2-25,2.2
		c-21.5,0-31.7-3.8-33.5-5.3c1.8-1.5,12-5.3,33.5-5.3C140.8,220.1,142.1,218.8,142.1,217.2z M140.1,200.4
		c-14.9,0-28.3-9.5-33.5-23.6v-25.1c5.2-14.1,18.6-23.6,33.5-23.6c13.6,0,26.2,8,32.2,20.5v24.9c-0.3-0.3-0.4-0.5-0.5-0.5l-2.3-2.3
		l-2.1,2.4c-0.1,0.1-9,10.2-11.6,23.4C150.7,199.1,145.4,200.4,140.1,200.4z M136.7,123v-13.8c1,0,1.9,0,2.7,0
		c1.4,0,2.9-0.1,4.4-0.1V123c-1.3-0.1-2.5-0.2-3.7-0.2C139,122.8,137.9,122.9,136.7,123z M172.3,138.8c-5.9-7.6-14-12.8-23.2-14.9
		v-15.3c8.3-1,12.5-3.2,12.5-6.5v-2.9c6,0.4,10.7,6.2,10.7,13.4V138.8z M142.3,69.4c2.3-0.2,4.6-0.7,6.9-1.4l1.2-0.3v-2.5
		c2.9,0.6,4.6,1.2,5.4,1.7C154,67.8,149.7,69.2,142.3,69.4z M122.6,72.4c4.6,1.7,11.6,2.4,16.9,2.4s12.3-0.6,16.9-2.4v29.1
		c-1.3,0.7-6.9,2.4-16.9,2.4c-10.1,0-15.7-1.7-16.9-2.3V72.4z M123.1,66.9c0.8-0.4,2.4-1.1,5.2-1.6v2.6l1.1,0.3
		c2.1,0.6,4.3,1,6.5,1.3C128.7,69.1,124.6,67.7,123.1,66.9z M131.5,108.7v15c-10.1,2.2-19,8.1-24.9,16.6V112
		c0-6.9,4.7-12.5,10.7-12.9v3C117.3,106.5,124.8,108.1,131.5,108.7z M139.5,24.5c3.4,0,6.3,2.2,6.3,4.8v34.3
		c-4.3,0.9-8.4,0.9-12.6,0V29.3C133.2,26.7,136.1,24.5,139.5,24.5z M248.8,210.2c-2.1,2.3-5.4,5.6-9.7,9l-7.1-4L248.8,210.2z
		 M225.5,217.1l9.3,5.2c-2.6,1.8-5.2,3.4-7.8,4.8l-12.1-6.8L225.5,217.1z M208.4,222.2l13.1,7.4c-1.5,0.6-2.9,1.1-4.2,1.5l0,0
		c-2.3,0.7-4.9,1.3-7.6,1.7l-12.8-7.2L208.4,222.2z M190.5,227.5l10.7,6c-8.7,0.2-16.5-1.3-21.8-2.7L190.5,227.5z M199,199.4
		c-2,3.3-4.7,6.3-8,9.1c-3.6,2.4-7,5.1-10.4,8.1c1.6-4.1,3-9.2,3.1-14.9c0-3.1-0.4-6.2-1.2-9.3l0.1-0.2c0.1-0.2,0.1-0.3,0.2-0.3
		l0.2-0.2c5.2-8.8,14.7-14.2,20.6-16.9C204.1,180.7,204.2,190.7,199,199.4z M179.7,225.7c6.3-6.6,17.1-15.9,30.7-20.1l0,0
		c5.3-1.7,11.1-2.5,17.6-2.5c6.2,0,12.7,0.8,19.3,2.5L179.7,225.7z"/>
</g>
<path class="st1" d="M42.9,143.1l0-0.1c0-0.1-0.1-0.2-0.2-0.3c-1.5,0.2-2.9,0.2-4.4,0c-0.4,0.5-0.9,0.8-1.5,1.1
	c-0.7,0.3-1.3,0.4-1.9,0.4c-1.8,0-3.4-1-4.2-2.6c-0.5-1-0.6-2.3-0.2-3.5c0.4-1.1,1.2-2.1,2.4-2.6c0.6-0.2,1.2-0.4,1.8-0.4
	c0,0-0.1,0-0.1,0c-1.5-0.5-3-0.8-4.5-0.8c-8.5,0-17.4,7.2-22.6,18c3.2-0.5,6.4,0.6,9.4,3.2c0.1-5.6,1.7-9.6,4.7-12.1
	c0.7-0.5,1.4-0.7,2.2-0.5c1.4,0.3,3.3,1.5,4.5,3.9c1.1,2.4,1.3,5.4,0.5,9.1c7-4.4,11.9-1.8,12.9-1.1l0,0c0.8,0.5,1.3,1.6,1.2,2.6
	c-0.7,4.2-3.3,7.5-7.4,9.5c1.6,1.3,2.8,3,3.5,5l0,0.1c0.2,0.7,0.1,1.4-0.2,2c-0.3,0.6-1,1.1-1.7,1.3c-1.8,0.6-3.7,0.8-5.5,0.8
	c-2.1,0-4.9-0.4-7.5-2c-0.4,1.2-0.9,2.2-1.6,3c-1.7,2.1-4.1,3.2-7.4,3.2c-0.7,0-1.9-0.4-2.4-1.4c-0.4-0.7-1.6-3.9-0.3-7.4
	c0.4-1.1,1-2.1,2-3.1c-6.4-2.6-8.5-7.9-9.3-11c-2.9,8.6-2.8,17.4,0.1,23.8c1.9,4,4.8,6.8,8.2,8l0,0c10.1,3.6,22.9-5.7,28.6-20.7
	C45.9,159.4,46,149.9,42.9,143.1z"/>
<path class="st1" d="M139.8,200.6c5.3,0,10.6-1.3,15.8-3.9c2.6-13.2,11.5-23.3,11.6-23.4l2.1-2.4l2.3,2.3c0.1,0.1,0.2,0.2,0.5,0.5
	v-24.9c-6-12.5-18.6-20.5-32.2-20.5c-14.9,0-28.3,9.5-33.5,23.6V177C111.5,191.1,124.9,200.6,139.8,200.6z M113.8,149.3
	c5.6-0.9,11.2,1.4,16.4,6.7c-0.8-8.9,1.4-15.6,6.6-19.5c0.6-0.5,1.3-0.6,2.1-0.5l0.1,0c2.7,0.9,4.9,2.9,6.2,5.6
	c1.7,3.8,1.6,8.9-0.3,15.1c12.9-9.4,21.8-3.5,21.9-3.5c0.8,0.7,1.2,1.6,1.1,2.7c-1.2,6.5-5.3,10.9-12.3,13.3c3,1.9,5.2,4.5,6.6,7.9
	c0.3,0.6,0.3,1.5,0,2.1c-0.3,0.7-0.9,1.2-1.7,1.4l-0.2,0c-2.6,0.6-5.1,0.9-7.6,0.9c-5.3,0-9.7-1.3-13-3.9c-0.4,2.1-1.1,3.9-2.3,5.3
	c-2.2,2.8-5.6,4.3-10.3,4.3h-0.4c-0.9,0-1.7-0.5-2.2-1.4c-0.5-0.8-2.4-4.9-0.6-9.7c0.7-2.1,2.1-3.9,4-5.5
	c-15.6-4.7-16.3-18.7-16.3-18.8C111.6,150.6,112.6,149.5,113.8,149.3z"/>
<path class="st1" d="M160.7,203.5c-0.1,9.9,5.1,18.1,8.1,22c3.1-4.4,8.7-13.7,8.8-23.7c0.1-9.4-4.7-17.5-8.1-22
	C166.4,184.3,160.8,193.5,160.7,203.5z"/>
<path class="st1" d="M190.7,208.7c3.4-2.8,6.1-5.9,8-9.1c5.1-8.7,5.1-18.7,4.4-24.6c-5.9,2.7-15.4,8.1-20.6,16.9l-0.2,0.2
	c0,0-0.1,0.1-0.2,0.3l-0.1,0.2c0.8,3.1,1.2,6.2,1.2,9.3c-0.1,5.7-1.5,10.8-3.1,14.9C183.6,213.8,187.1,211.1,190.7,208.7z"/>
</svg>
