<?xml version="1.0" encoding="utf-8"?>
<!-- Generator: Adobe Illustrator 21.0.0, SVG Export Plug-In . SVG Version: 6.00 Build 0)  -->
<svg version="1.1" id="Layer_1" xmlns="http://www.w3.org/2000/svg" xmlns:xlink="http://www.w3.org/1999/xlink" x="0px" y="0px"
	 viewBox="0 0 334 334" style="enable-background:new 0 0 334 334;" xml:space="preserve">
<style type="text/css">
	.st0{fill:#FF8400;}
	.st1{fill:#211F1E;}
</style>
<path class="st0" d="M52,265c0,0-6.3-28.4,14.6-36.2C70,232,71.5,243,71.5,243S63,269,52,265z"/>
<path class="st0" d="M266,136.5c0,0-10.3-15.6-5.9-25.5s10.5-11.9,10.5-11.9s5.4,0.4,5.4,6.9S277.5,129.5,266,136.5z"/>
<polygon class="st0" points="246.1,96.3 237.9,96.3 232,89.5 230.3,75.1 233.5,75.1 244,77.4 247.3,80.1 250.5,88.5 "/>
<polygon class="st0" points="234,241 242.5,250 243.9,252.8 252.5,239.3 265,246.1 274.5,242.5 281.4,239.3 277,228 275.5,221.3 
	279,216.5 287,202.5 287,193 264.7,186.9 261,185.1 243.9,165.5 227.5,187.7 209.3,188 201,193.5 207,214.5 217.7,218.8 210,233.5 
	207.5,238.7 219,245.5 "/>
<path class="st1" d="M333,124.1c-0.7-0.4-17.1-9.2-35.3-5.7c-9.2,1.7-16.9,6.2-22.3,10.3c1.8-3.3,3.4-7.1,3.9-11.4
	c1.4-11.8-6.1-21.5-6.5-21.9l-1.6-2.1l-1.9,1.8c-0.3,0.2-5.9,5.5-9.2,13.3c-2.6-5.2-5.8-10.1-9.6-14.6c1.9-2.7,3.6-7.6-2.3-14.3
	c-5.4-6.1-17.5-8.3-18.9-8.5c-0.7-0.1-1.4,0.1-2,0.6c-0.5,0.5-0.8,1.2-0.8,1.9c0.1,1.4,0.8,13.6,6.2,19.8c2.8,3.1,5.6,4.9,8.5,5.2
	c1.6,0.2,3.2-0.1,4.7-0.8c5.1,6,9.1,13,11.9,20.6c-0.2,7,2.4,12.9,4,15.9c2.1,13.4,1.8,28.8-1.1,47c-2.6-6-7-10.4-11.5-14.4
	c-1.3-1.1-2.4-1.8-3.6-2.2c-0.6-0.2-1.2-0.2-1.8,0c-1.2,0.4-2.4,1.1-3.6,2.2c-2.9,2.6-6.2,5.7-8.9,9.6c-0.1,0-0.1-0.1-0.2-0.1l0,0
	l-1.2-0.7c0,0,0,0,0,0l-0.6-0.3l0,0c-3.8-2-8-3.6-12.3-4.7c-0.4-0.1-0.9-0.2-1.3-0.3c13.8-4.6,22.5-11.7,24-19.7
	c0.9-4.7-0.3-11.7-10.7-18.3c-8.3-5.3-19.9-9.6-33.6-12.6c7.4-7.5,10.6-18.5,8.4-29.6c-2-9.9-8-17.8-16-21.2
	c-14.6-6.1-33.3-5.3-35.3-5.2c-18.4,0.5-35.3,7.1-45.2,17.6c-5.6,6-7.7,13.2-5.9,20.4c1.5,6,5.8,11.5,12,15.5
	c-6.2,0.8-11.3,1.7-15.9,2.9c-14.8,3.7-25.2,13.2-26.9,24.9c-1.5,10.2,3.9,19.8,14.9,26.4c0.4,0.2,0.7,0.4,1.1,0.6
	c-13.3,3.7-24.3,8.3-32.8,13.9c-8.3,5.4-12.7,11.6-13.2,18.3c-1.5-0.3-3-0.5-4.3-0.7c-18.3-1.7-34.3,10-34.9,10.5l-2.7,2l2.3,2.4
	c0.6,0.6,14.1,15,32.4,16.6c1.2,0.1,2.4,0.2,3.7,0.2c7.5,0,14.4-2,19.9-4.4c-2.7,3-5.3,6.7-6.9,11.2c-4.4,12.3,0.6,25.1,0.8,25.7
	l1.3,3.2l3-1.7c0.5-0.3,12.4-6.9,16.9-19.4c1.7-4.7,2.2-10.2,1.5-15.9c4,1.2,7.9,2.2,11.9,3c34.2,6.8,63.4,10.3,86.8,10.3
	c12.1,0,23.2-1,33-3v0l0.7-0.1c0.1,0,0.1,0,0.2,0l0.6-0.1c0.2,0,0.4-0.1,0.6-0.1l0,0l0.7-0.2c0,0,0,0,0.1,0l0.7-0.2
	c0.2-0.1,0.5-0.1,0.7-0.2c0.6,0.6,1.2,1,1.8,1.2c6.6,2.8,15.1,5.3,23.3,0c3.7,5,6.2,8.1,9.3,9.1c0.6,0.2,1.3,0.2,1.9,0
	c3.1-1,5.6-4.1,9.3-9.1c8.2,5.2,16.7,2.8,23.3,0c2.6-1.1,4.9-4.8,4.6-7.5c-0.6-6.3-2.5-11.4-5.7-15.5c9.1-5.1,11.6-14.2,13.6-23.9
	c0.9-4.5-0.8-7.5-5.1-8.9c-6.1-2.1-12.6-4.1-19.6-3.1c2.9-16.9,3.8-31.5,2.7-44.5c3.8,1.8,13.4,5.7,25,5.7c3,0,5.9-0.3,8.8-0.8
	c18.2-3.5,30.8-17.8,31.3-18.4l2-2.3L333,124.1z M206.4,237.9c-0.6,0.1-1.2,0.3-1.9,0.4l-0.1,0c-12.3,2.5-27.4,3.4-44.7,2.7
	c13.1-5.5,32.5-15.4,43.3-29c2.2,4.3,5.1,7.4,9,9.6c-3.2,4.1-5.1,9.2-5.7,15.5C206.3,237.4,206.4,237.7,206.4,237.9z M55.6,244.1
	c2.4-6.6,7.6-11.5,11-14c1,4.2,2,11.2-0.3,17.8c-2.3,6.6-7.5,11.4-11,14C54.2,257.6,53.3,250.6,55.6,244.1z M46.5,205.8
	c-0.2-4.6,2.7-9.2,8.4-13.4c1.6,3.3,4.7,7.4,10.1,10.6c4.9,2.9,11,4.3,17.9,4.3c5.6,0,12-1,18.8-2.9c21-5.9,29.7-15.7,33.2-23.1
	c9.1-0.1,19.4-0.8,30.6-2c-0.8,3.8-2.5,7.3-4.8,10.6c-17.5,23.8-71.5,33.1-89.1,35.5c-0.2-0.9-0.6-2-1.4-3.4
	C69.2,220.3,59.5,210.4,46.5,205.8z M130.5,92.7c-5.2,2.4-9.4,2.7-12.7,0.9c-3.6-1.9-5.3-5.9-6.1-8.5c7.6-7.9,20-13.3,34.2-15
	C145.7,75.7,143.5,86.7,130.5,92.7z M132.1,96.1c15.2-6.9,17.5-20.1,17.7-26.3c1.6-0.1,4.5-0.3,6.2-0.3c1.3,0,4,0,7.4,0.3
	c0.9,5,1.9,16.1-4,26.8c-5.3,9.7-14.9,16.8-28.6,21.3c-1.9-0.6-3.8-1.2-5.8-1.8c-9.4-3-16.1-9-17.8-16c-1-3.9-0.4-7.9,1.9-11.5
	c1.3,3,3.4,6.3,7,8.3C120.3,99.3,125.8,99,132.1,96.1z M167.3,70.2c5.1,0.5,9.7,1.4,13.7,2.6c1.5,2.8,4,8.2,4.9,15.2
	c1.6,12.9-3,24.8-13.5,35.6c-9.2,1.1-21-0.2-35.2-3.8c12-4.8,20.6-12,25.6-21.2C168.9,87.2,168.2,75.7,167.3,70.2z M238.9,233.7
	L238.9,233.7L238.9,233.7L238.9,233.7z M205.5,194.4c4.6-1.6,9.2-3,13.8-3c2.8,0,5.6,0.5,8.4,1.7c1.5,1.4,12.9,13.8,13.6,15.8
	c0,0,0,0.1,0,0.1c-0.1,0.1-0.5,0.4-0.7,0.5c-5.2,3.2-21.2,8.3-22.7,8.3c-9.1-2.3-11.4-10.3-13.7-21.3v0
	C204,195,204,194.9,205.5,194.4z M247.9,212.9c0.1,0.1,0.4,0.3,0.4,0.3c4.3,5.4,5.7,11.3,4,16.3c-2.1-1.6-3.8-3.4-4.8-5
	c-0.1-0.2-0.2-0.3-0.3-0.4c-0.1-0.1-0.2-0.2-0.3-0.3c-0.2-0.1-0.4-0.2-0.5-0.2c-0.5-0.2-0.8-0.1-1.3,0l-0.2,0l-0.2,0.1
	c-0.2,0.1-0.3,0.2-0.4,0.3c-0.1,0.1-0.2,0.2-0.3,0.4c-1,1.6-2.7,3.4-4.8,5c-1.7-5-0.3-10.8,4-16.3c0,0,0.1-0.1,0.2-0.2
	c0.6-0.5,1.1-1.1,1.4-1.6c0.3-0.5,0.6-1,0.7-1.7c0.1,0.5,0.3,1,0.6,1.4C246.6,212,247.3,212.5,247.9,212.9z M257.3,190.3
	c-0.1,0.1-10.9,13.1-11.8,17.9c-0.5-1.9-3.1-6-13-17.4c-0.2-0.2-0.3-0.3-0.4-0.5c0.8-7.9,5.3-13.3,11.8-19.1
	c0.2-0.2,0.4-0.3,0.6-0.5c0.2,0.1,0.4,0.3,0.6,0.5C252.4,177.6,258.4,188.9,257.3,190.3z M100.6,200.8c-14.2,4-25.6,3.7-33.7-1
	c-5.1-2.9-7.7-7-8.9-9.5c9.3-5.8,22.1-10.7,37.2-14.2c9.4,3.4,21.4,5.2,35.6,5.4C125.9,189.9,115.5,196.6,100.6,200.8z M217.9,143.1
	c-6.4,3.7-15.5,4-27,0.9c-11.5-3.1-19.3-7.8-23.4-14c8.5-0.3,15.7-2.2,21.4-5.6c14.5,2.7,26.8,6.9,35.5,12.1
	C223.3,138.5,221.4,141.1,217.9,143.1z M133.7,142.5c6.6,13,22.6,22.7,47.6,28.7c-23.8,3.8-44.2,5-60.5,3.7
	c-14.5-8.8-22.4-18.3-23.4-28.4c-1-10.4,5.6-18.8,8.7-22.1c5.2-1,11-1.7,17.6-2.3c1.9,0.6,4.3,1.4,7.2,2.2
	C130.1,128.8,130.1,135.4,133.7,142.5z M202.1,167.4c-3,0.6-6.6,1.3-10.7,2c-28.8-5.5-47.5-15.4-54.3-28.7c-3-5.9-3.1-11.5-2.5-15.4
	c10.5,2.9,20.2,4.4,28.6,4.6c2.9,5.6,10,13.1,26.8,17.7c12.5,3.4,22.6,3,30-1.3c4-2.3,6.4-5.3,7.7-7.7c3.4,2.5,6.9,6.3,6,10.7
	C232.2,156.9,219.9,164,202.1,167.4z M191,115.3c-3.2,3.2-7.3,5.6-12.3,7c16-19.3,11.4-38.3,7.4-47.6c5.8,2.8,10.1,8.9,11.6,16.4
	C199.5,100.2,197,109.2,191,115.3z M100,125.6c-3.4,4.6-7.4,12.2-6.5,21.2c0.9,9.7,7.3,18.8,18.8,27.1c-9.8-1.5-17.8-4.1-23.9-7.7h0
	c-8.8-5.3-13.2-12.7-12.1-20.4c1.4-9.1,10.2-16.9,22.4-19.9C99.2,125.8,99.6,125.7,100,125.6z M106.1,222.5
	c28.9-7.5,48.2-17.7,57.5-30.4c3-4.1,5-8.6,5.8-13.3c9.3-1.2,19.4-2.8,30.1-4.8c3.7,4.6,6,9.2,6.9,13.8c-1,0.3-1.9,0.6-2.9,0.9
	c-4.3,1.5-6,4.5-5.1,8.9c0.7,3.2,1.5,7,2.8,10.4c-12.5,17.2-41.6,29.1-50.7,32.4c-26.7-1.9-52-7-64.1-9.4c-3.5-0.7-7-1.6-10.4-2.6
	C83.4,227.5,94.4,225.5,106.1,222.5z M212.3,238.1c0-0.2,0-0.3,0-0.4c0.4-3.8,2.9-9.2,7.1-15.3c6.5-1.2,12.5-3.7,17.1-6
	c-2.7,6.2-2.8,12.5,0,17.4c0.3,0.5,0.8,0.9,1.4,1c0.6,0.1,1.2,0,1.7-0.3c2.5-1.6,4.6-3.5,6.3-5.4c1.7,1.9,3.8,3.8,6.3,5.4
	c0.5,0.3,1,0.4,1.7,0.3c0.6-0.1,1.1-0.5,1.4-1c2.7-4.8,2.9-10.6,0.6-16.3c4.9,2.5,9.6,4.2,14.1,5.1c1.4,2,6.4,9.4,7,15.1l0,0.2
	c0,0.4,0,0.7-1.1,1.3c-7.5,4.2-13.9,3.9-19.6-1c-0.6-0.5-1.5-0.8-2.3-0.7c-0.8,0.1-1.6,0.5-2.1,1.2c-3,4.1-5.4,7.5-7.2,8.9
	c-1.8-1.4-4.3-4.9-7.2-8.9c-0.5-0.7-1.2-1.1-2.1-1.2c-0.1,0-0.2,0-0.3,0c-0.7,0-1.4,0.3-1.9,0.7c-4.8,4.1-11.2,4.4-20.6,0.8
	C212.2,238.9,212.2,238.9,212.3,238.1z M270.5,218.3c-6.4-1.2-13.2-4.2-20.2-9c-0.1-0.1-0.5-0.3-0.6-0.4c0,0,0-0.1,0-0.2
	c0.1-1.5,6.3-10.4,10.8-15.6l0.1-0.2c0.4-0.8,2.7-1.1,5.9-1.1c4.9,0,12,0.9,17,2.6c1.5,0.5,1.5,0.6,1.2,2.1
	C283,205.4,279.5,217.2,270.5,218.3z M226.7,186.4c-6.3-1.8-12.1-0.9-16.6,0.3c-0.9-4.3-2.9-8.5-5.9-12.8c4.3,0.7,7.9,1.5,11.2,2.3
	c3.8,1,7.3,2.3,10.7,4.1l0,0c0.8,0.4,1.5,0.8,2.2,1.2C227.6,183.1,227.1,184.8,226.7,186.4z M33.8,229.1C24,228.2,15.6,223,10.4,219
	l48.2,4.4C52.8,226.4,43.6,230,33.8,229.1L33.8,229.1z M26,216.6l-4-5.7c2-0.5,4-0.9,6-1.1l5.3,7.5L26,216.6z M10.8,215.2
	c2-1,4.5-2.2,7.4-3.2l2.9,4.1L10.8,215.2z M38.2,217.7c-0.1-0.1-0.1-0.2-0.2-0.3l-5.6-8c1.1,0,2.1,0,3.1,0.1h0
	c1.5,0.1,3.1,0.4,4.9,0.8l5.7,8L38.2,217.7z M51.1,218.8l-4.6-6.5c5.1,2.1,9.3,4.9,12.3,7.2L51.1,218.8z M266.5,132.7
	c-1.8-3.1-4.7-9.2-3.9-16c0.8-6.9,5.2-12.9,7.8-16c1.8,3.1,4.7,9.2,3.9,16C273.5,123.6,269.1,129.6,266.5,132.7z M324.9,129.4
	c-1.7,1.5-4,3.2-6.7,4.9l-4-2.9L324.9,129.4z M309,132.5l5.6,4c-1.8,1-3.7,1.8-5.6,2.6l-7.5-5.2L309,132.5z M296.4,134.9
	c0.8,0.6,2.8,2,8.1,5.8c-1,0.3-2.1,0.5-3.1,0.7c-1.6,0.3-3.2,0.5-5.1,0.6l-7.7-5.6L296.4,134.9z M283.6,137.3
	c0.7,0.5,2.2,1.7,6.2,4.5c-5.6-0.5-10.5-1.8-14-3L283.6,137.3z M275,135.1c5.1-4.4,13.5-10.1,23.6-12c10-1.9,19.6,0.4,25.9,2.6
	L275,135.1z M245.4,92.1c-1.3,1.1-2.5,1.6-3.8,1.5c-1.7-0.2-3.5-1.4-5.4-3.6c-3-3.4-4.2-9.9-4.7-13.6c3.7,0.9,10,2.9,12.9,6.3
	c1.8,2,2.8,3.8,2.9,5.4C247.4,89.5,246.8,90.9,245.4,92.1z"/>
</svg>
