<?xml version="1.0" encoding="utf-8"?>
<!-- Generator: Adobe Illustrator 21.0.0, SVG Export Plug-In . SVG Version: 6.00 Build 0)  -->
<svg version="1.1" id="Capa_1" xmlns="http://www.w3.org/2000/svg" xmlns:xlink="http://www.w3.org/1999/xlink" x="0px" y="0px"
	 viewBox="0 0 512 512" style="enable-background:new 0 0 512 512;" xml:space="preserve">
<style type="text/css">
	.st0{fill:#211F1E;}
	.st1{fill:#FF8400;}
</style>
<path class="st0" d="M255.4,176.2c18.1,0,34.9,8.6,39,20.1c0.6,1.6,0.9,3.2,0.9,4.9c0,16.5,13.5,29.9,29.9,29.9
	c16.5,0,29.9-13.5,29.9-29.9c0-8.6-1.5-17-4.4-25.1c-9.8-27.3-34.2-47.7-66.1-55.7c-2.9-13.6-14.8-23.8-29.3-23.8
	c-14.3,0-26.4,10.2-29.3,23.7c-18.6,4.9-35.3,14.3-47.7,27.2c-14.6,15-22.7,34.2-22.7,53.7c0,46.7,44.8,84.8,99.7,84.8
	c18.8,0,39.9,10.7,39.9,24.9c0,14.2-21.1,24.9-39.9,24.9s-39.9-10.7-39.9-24.9c0-16.5-13.5-29.9-29.9-29.9s-29.9,13.5-29.9,29.9
	c0,19.6,8.1,38.8,22.8,53.9c12.5,12.8,29.2,22.3,47.7,27.2c2.9,13.6,15,23.7,29.3,23.7c14.3,0,26.4-10.2,29.3-23.7
	c18.6-4.9,35.3-14.3,47.7-27.2c14.7-15.1,22.8-34.3,22.8-53.9c0-46.7-44.8-84.8-99.7-84.8c-18.8,0-39.9-10.7-39.9-24.9
	S236.6,176.2,255.4,176.2z M255.4,246c44,0,79.8,29,79.8,64.8c0,29.8-25.9,56.2-61.7,63.1c-4.7,0.9-8.1,5-8.1,9.8v1.9
	c0,5.5-4.5,10-10,10c-5.5,0-10-4.5-10-10v-1.9c0-4.7-3.4-8.9-8.1-9.8c-35.8-6.9-61.7-33.3-61.7-63.1c0-5.5,4.5-10,10-10
	c5.5,0,10,4.5,10,10c0,24.8,26.8,44.9,59.8,44.9s59.8-20.1,59.8-44.9s-26.8-44.9-59.8-44.9c-44,0-79.8-29-79.8-64.8
	c0-29.8,25.9-56.2,61.7-63.1c4.7-0.9,8.1-5,8.1-9.8v-1.9c0-5.5,4.5-10,10-10c5.5,0,10,4.5,10,10v2c0,4.9,3.4,9,8.1,9.8
	c28,5.2,50.4,22.3,58.5,44.6c2.1,6,3.2,12.1,3.2,18.3c0,5.5-4.5,10-10,10c-5.5,0-10-4.5-10-10c0-4-0.7-7.9-2-11.6
	c-7.1-19.6-30.9-33.3-57.8-33.3c-33,0-59.8,20.1-59.8,44.9S222.4,246,255.4,246z"/>
<path class="st0" d="M437.3,74.3C388.8,25.7,324.3-1,255.6-1S122.3,25.7,73.9,74.3C25.3,122.7-1.4,187.3-1.4,256
	s26.7,133.3,75.3,181.7c48.6,48.6,113.1,75.3,181.7,75.3c68.7,0,133.3-26.7,181.7-75.3c48.6-48.6,75.3-113.1,75.3-181.7
	C512.6,187.3,485.8,122.7,437.3,74.3z M255.6,495c-63.8,0-123.8-24.9-169-70c-45.1-45.1-70-105.2-70-169c0-63.8,24.9-123.8,70-169
	c45.1-45.1,105.2-70,169-70s123.8,24.9,169,70c45.1,45.1,70,105.2,70,169c0,63.8-24.9,123.8-70,169C379.4,470.1,319.4,495,255.6,495
	z"/>
<path class="st1" d="M255.6,246c-33,0-59.8-20.1-59.8-44.9s26.8-44.9,59.8-44.9c26.9,0,50.7,13.7,57.8,33.3c1.2,3.7,2,7.6,2,11.6
	c0,5.5,4.5,10,10,10c5.5,0,10-4.5,10-10c0-6.2-1.1-12.3-3.2-18.3c-8.1-22.3-30.4-39.4-58.5-44.6c-4.7-0.9-8.1-5-8.1-9.8v-2
	c0-5.5-4.5-10-10-10s-10,4.5-10,10v1.9c0,4.9-3.4,9-8.1,9.8c-35.8,6.9-61.7,33.3-61.7,63.1c0,35.8,35.8,64.8,79.8,64.8
	c33,0,59.8,20.1,59.8,44.9c0,24.8-26.8,44.9-59.8,44.9c-33,0-59.8-20.1-59.8-44.9c0-5.5-4.5-10-10-10c-5.5,0-10,4.5-10,10
	c0,29.8,25.9,56.2,61.7,63.1c4.7,1,8.1,5.1,8.1,9.8v1.9c0,5.5,4.5,10,10,10s10-4.5,10-10v-1.9c0-4.9,3.4-9,8.1-9.8
	c35.8-6.9,61.7-33.3,61.7-63.1C335.3,275.1,299.6,246,255.6,246z"/>
</svg>
