<?xml version="1.0" encoding="utf-8"?>
<!-- Generator: Adobe Illustrator 21.0.0, SVG Export Plug-In . SVG Version: 6.00 Build 0)  -->
<svg version="1.1" id="Capa_1" xmlns="http://www.w3.org/2000/svg" xmlns:xlink="http://www.w3.org/1999/xlink" x="0px" y="0px"
	 viewBox="0 0 483.7 483.7" style="enable-background:new 0 0 483.7 483.7;" xml:space="preserve">
<style type="text/css">
	.st0{fill:#211F1E;}
	.st1{fill:#FF8400;}
</style>
<g>
	<path class="st0" d="M173.1,92.8c-2.9,2.9-5.2,6.1-7.1,9.7c-1.3,2.4-22.6,55-22.6,55c-16.3,39.9-40,75.5-70.5,105.9L58,278.3
		c-31,31-31.4,81.1-0.9,111.8c14.9,15,34.7,23.2,55.7,23.2c0,0,0,0,0.1,0c11.7,0,23-2.5,33.2-7.3l27.6,27.6c1.5,1.5,3.4,2.2,5.3,2.2
		c1.8,0,3.5-0.6,4.9-1.9l38.9,38.9c7.2,7.2,16.7,10.8,26.2,10.8c9.5,0,19-3.6,26.2-10.8c14.4-14.4,14.4-37.9,0-52.4l-38.9-38.9
		l5.3-5.3c1.4-1.4,2.2-3.3,2.2-5.3s-0.8-3.9-2.2-5.3l-21.9-21.9c21.6-16.1,45.1-29.3,70.3-39.6c0,0,52.5-21.1,56.7-23.4
		c4.4-2.4,8.1-6.2,8.1-6.2c28.4-26.5,9.1-88.9-41.9-139.9C262,83.7,200.5,65.3,173.1,92.8z M159.5,398.1c3.2-2.3,6.2-4.9,9-7.8
		l15.6-15.6c2.4-2.4,4.8-4.7,7.2-7l18.9,18.9l-31.1,31.1L159.5,398.1z M233.5,462.2l-38.9-38.9l14.8-14.8l38.9,38.9
		c4.2,4.2,6.5,9.7,6.5,15.6c0,0,0,0,0,0.1c0,3.1-2.7,5.6-5.8,5.6C243.4,468.6,237.8,466.5,233.5,462.2z M264.7,431.1
		c6.7,6.7,8.2,16.7,4.4,24.9c-1.4-7.2-4.9-13.8-10.2-19.1L220,398l5.8-5.8L264.7,431.1z M225.8,371l-4.9,4.9l-18.3-18.3
		c1.8-1.5,3.6-3,5.4-4.5L225.8,371z M284.4,290.3c-41.7,17.1-79,41.9-110.9,73.7l-15.6,15.6c-12,12-28,18.6-45,18.6c0,0,0,0-0.1,0
		c-17.1,0-33.1-6.7-45.1-18.8c-24.7-24.8-24.3-65.5,0.9-90.6l14.9-14.9c31.9-31.9,56.7-69.2,73.7-110.9l5.9-14.4
		c6.6,26.4,24.5,56.7,51.8,83.9c23.7,23.7,50.8,41.3,76.3,49.5c2.6,0.8,5.1,1.6,7.6,2.2L284.4,290.3z M225.6,174.8
		c0.1,0.4,0.2,0.8,0.3,1.2c3,9.4,9.4,19.2,17.9,27.7c9.3,9.3,19.5,15.6,28.9,18.3l-21.9,21.9c-8.7-6.4-17.2-13.7-25.3-21.9
		c-8.1-8.1-15.5-16.6-21.9-25.3L225.6,174.8z M287.5,207.3L287.5,207.3L287.5,207.3L287.5,207.3c-3.8,3.8-18.9,0-33-14.1
		c-6.8-6.8-12-14.7-14.3-21.8c-1.7-5.2-1.6-9.5,0.1-11.3c0.9-0.9,2.5-1.4,4.5-1.4c1.9,0,4.2,0.4,6.8,1.2c7,2.3,15,7.5,21.8,14.3
		C287.6,188.4,291.3,203.5,287.5,207.3z M344.2,263.9c-1.7,1.7-2.5,2.5-5.5,4.1s-5.8,2.5-5.8,2.5c-9.7,3-22.5,2.2-37-2.5
		c-10.6-3.4-21.5-8.7-32.4-15.4l34.6-34.6c0,0,0,0,0,0c11.4-11.4,5.4-34.8-14.1-54.3c-8.5-8.5-18.4-14.9-27.7-17.9
		c-11.1-3.6-20.5-2.2-26.5,3.8l0,0l0,0l-34.6,34.6c-6.8-10.8-12-21.8-15.4-32.3c-4.7-14.6-5.5-27.4-2.5-37.1c0,0,1-3.2,2.1-5.2
		s2.7-4.3,4.4-6c5.7-5.7,14-8.4,23.9-8.4c26,0,63.3,18.8,94.8,50.3C345.8,188.8,365,243.1,344.2,263.9z"/>
	<path class="st0" d="M441.6,176.6H373c-4.1,0-7.5,3.4-7.5,7.5s3.4,7.5,7.5,7.5h68.6c4.1,0,7.5-3.4,7.5-7.5S445.8,176.6,441.6,176.6
		z"/>
	<path class="st0" d="M341.8,145.4c1.3,2.7,4,4.3,6.8,4.3c1.1,0,2.1-0.2,3.2-0.7l75.9-35.4c3.8-1.8,5.4-6.2,3.6-10s-6.2-5.4-10-3.6
		l-75.9,35.4C341.7,137.2,340,141.6,341.8,145.4z"/>
	<path class="st0" d="M315.1,116.9c1.4,1.2,3.1,1.8,4.8,1.8c2.1,0,4.3-0.9,5.7-2.7l56.4-67.2c2.7-3.2,2.2-7.9-0.9-10.6
		c-3.2-2.7-7.9-2.2-10.6,0.9l-56.4,67.1C311.6,109.5,312,114.3,315.1,116.9z"/>
	<path class="st0" d="M283.3,92.6c0.6,0.2,1.3,0.3,1.9,0.3c3.3,0,6.3-2.2,7.2-5.6l20.9-77.9c1.1-4-1.3-8.1-5.3-9.2
		c-4-1.1-8.1,1.3-9.2,5.3L278,83.5C277,87.5,279.3,91.6,283.3,92.6z"/>
</g>
<path class="st1" d="M214.8,233c-27.2-27.2-45.2-57.5-51.8-83.9l-5.9,14.4c-17.1,41.7-41.9,79-73.7,110.9l-14.9,14.9
	c-25.2,25.2-25.5,65.8-0.9,90.6c12,12.1,28.1,18.8,45.1,18.8c0,0,0,0,0.1,0c17,0,33-6.6,45-18.6l15.6-15.6
	c31.9-31.9,69.2-56.7,110.9-73.7l14.5-5.9c-2.5-0.6-5-1.4-7.6-2.2C265.5,274.3,238.4,256.7,214.8,233z"/>
<path class="st1" d="M191.4,368.1c-2.4,2.3-4.8,4.6-7.2,7l-15.6,15.6c-2.8,2.8-5.9,5.4-9,7.8l19.6,19.6l31.1-31.1L191.4,368.1z"/>
<path class="st1" d="M203.2,358l18.3,18.3l4.9-4.9l-17.9-17.9C206.8,355,205,356.5,203.2,358z"/>
</svg>
