<?xml version="1.0" encoding="utf-8"?>
<!-- Generator: Adobe Illustrator 21.0.0, SVG Export Plug-In . SVG Version: 6.00 Build 0)  -->
<svg version="1.1" id="Layer_1" xmlns="http://www.w3.org/2000/svg" xmlns:xlink="http://www.w3.org/1999/xlink" x="0px" y="0px"
	 viewBox="0 0 271.1 271.1" style="enable-background:new 0 0 271.1 271.1;" xml:space="preserve">
<style type="text/css">
	.st0{fill:#211F1E;}
	.st1{fill:#FF8400;}
</style>
<g>
	<path class="st0" d="M225.6,142c0,0.1,0.1,0.1,0.1,0.2C225.8,142,225.9,141.9,225.6,142z"/>
	<path class="st0" d="M225.5,144.7l-1.1-1.9l-1-1.6l1.8-0.6c0.9-0.3,1.6,0.1,1.9,0.6c0.4,0.6,0.3,1.4-0.2,2L225.5,144.7z
		 M224.6,141.1c-0.3,0.4-0.5,1.1-0.1,1.7c0.4,0.6,1.1,0.8,1.6,0.6l-0.4-1.3L224.6,141.1z"/>
</g>
<path class="st0" d="M215.2,46c3.2-4.3,4.5-9.7,5.4-14.4c0.8-4.1-0.8-7-4.8-8.4c-5.3-1.8-11.3-3.6-17.8-2.1
	c-1.8-6.9-6.4-11.3-10.6-15.1c-1.1-1-2.2-1.6-3.3-2c-0.7-0.2-1.4-0.2-2.1,0c-1.1,0.3-2.2,1-3.3,2c-0.2,0.2-0.4,0.4-0.6,0.5
	c-15.5-7.9-36.4-10.1-57.8-6.1C95.9,5,75.1,16.8,64.8,32c-2.9,4.3-4.8,8.8-5.8,13.5c-20.8,25.2-27.1,64.8-15.3,96.6
	c-0.1,0.3-0.4,0.9-0.6,1.4c-1.2,2.7-3.4,7.8-3.4,13.5c0,15,7.6,26.9,17.5,27.7c5.7,22.8,15.8,44,28.4,60
	c14.6,18.4,31.3,28.1,48.4,28.1c17.2,0,33.9-9.7,48.5-28.1c12.6-15.9,22.6-37.2,28.3-59.9c0.6,0.1,1.1,0.1,1.7,0.1
	c10.4,0,18.5-12.2,18.5-27.7c0-6-1.2-11-3.7-15C236.4,118.6,237.2,73.3,215.2,46z M176.3,36.5c1,1.2,2,2.5,2.2,3.6c0,0,0,0,0,0
	c-4.4,3.2-9.6,5.4-15.1,6.4l-2-0.7c-5.3-2.8-7.4-8.3-8.9-15.6c0-0.1,0-0.2-0.1-0.3c0.1,0,0.2-0.1,0.3-0.1c6.4-2.2,11.8-3.2,17.1-1
	L176.3,36.5z M128.8,89.2c11.8,0,23.8,0.9,35.5,1.9l2.6,0.2c1.4,0.1,3.1,0.3,4.9,0.6c0.9,0.1,1.7,0.2,2.6,0.3
	c4.2,2.2,8.1,4.5,11.5,7.1c9.7,12.8,14.8,30,14.8,49.8c0,58.9-35.1,104.6-65.4,104.6S70,207.9,70,149c0-21.4,6-39.6,17.2-52.7
	C97.9,91.6,111.5,89.3,128.8,89.2z M191.3,91c0.7-0.3,1.2-0.7,1.8-1.2c3.3,4.3,6.1,9.1,8.4,14.3c-3.9-4.4-8.4-8.4-13.7-12
	C189.1,91.9,190.2,91.5,191.3,91z M207.2,63.2c-6.4,2.7-10.5,2.5-14.2-0.6c-0.7-0.6-1.6-0.9-2.7-0.8c-1,0.1-1.8,0.6-2.4,1.4
	c-1.8,2.5-3.5,4.8-4.8,6.1c-1.2-1.3-3-3.7-4.8-6.1c-0.6-0.8-1.5-1.3-2.4-1.4c-0.1,0-0.3,0-0.4,0c-0.8,0-1.6,0.3-2.3,0.8
	c-3.6,3.1-7.8,3.3-14.2,0.6c-0.1-0.1-0.2-0.3-0.3-0.4c0.5-4.5,2.2-8.2,5.1-10.9c1-0.2,2.1-0.4,3.1-0.7l0.2-0.1
	c2.2-0.6,4.4-1.3,6.5-2.3c-1.1,4-0.7,7.9,1.3,11.3c0.4,0.6,1,1.1,1.6,1.2c0.7,0.2,1.5,0.1,2.1-0.3c1.7-1.1,3.2-2.3,4.5-3.6
	c1.3,1.3,2.8,2.5,4.5,3.6c0.4,0.3,0.9,0.4,1.4,0.4c0.2,0,0.5,0,0.6-0.1c0.7-0.2,1.3-0.6,1.7-1.2c2-3.4,2.4-7.3,1.3-11.3
	c3.1,1.3,6.4,2.3,9.9,3c2.8,2.7,4.5,6.3,4.9,10.8C207.4,62.9,207.3,63,207.2,63.2z M184.4,44.4L184.4,44.4c2.9,3.5,4,7.1,3.4,10.3
	c-1-0.9-1.9-1.8-2.4-2.7c-0.2-0.4-1-1.2-2.2-1.2c0,0-0.1,0-0.1,0c-1.1,0-1.9,0.7-2.2,1.1c-0.5,0.9-1.4,1.8-2.4,2.7
	c-0.6-3.2,0.6-6.8,3.4-10.3c0.2-0.2,0.9-1.3,1.1-1.7c0,0,0,0,0,0c0,0.1,0.1,0.2,0.1,0.2C183.4,43.4,183.9,43.9,184.4,44.4z
	 M215.6,133.5c0-0.4-0.1-0.8-0.2-1.2c-1.8-20.2-8.4-37.1-19.6-50.1c0.1-3.7-0.9-7.9-1.9-11.1c6,2.1,11.9,0.2,16.1-1.6
	c2.5-1.1,4.6-4.4,4.3-7.1c-0.3-3.4-1.1-6.4-2.4-9c18.1,24.8,17.4,58.4,10.3,83C220.4,134.9,218.1,133.9,215.6,133.5z M213.8,30.2
	c-1.7,8.3-4,13.9-10.4,16.4c-5.8-1.1-11.2-3.4-15.7-6.5c0,0,0,0-0.1,0c0.2-1,1.3-2.4,2.4-3.6l7.1-7.8c5.6-2.3,10.8-0.9,16.5,1.1h0
	c0.1,0,0.2,0.1,0.3,0.1C213.9,30,213.9,30.1,213.8,30.2z M191.9,26.5l-5.7,6.2c-1,1.1-2.4,2.7-3.2,4.6c-0.7-1.8-2-3.3-2.9-4.4
	l-5.7-6.8l-0.1-0.7c0.7-4.8,3.5-9.2,8.8-13.9c5.5,4.9,8.4,9.7,9,14.8L191.9,26.5L191.9,26.5z M168.2,21c-6.1-1.4-11.7,0.1-16.6,1.7
	c-19.9-8.7-42.2-9-61.3-0.9c-5.4,2.3-10.5,5.2-15.4,8.7c10.2-11,27.5-19.6,46.8-23.2c6.6-1.2,13.2-1.8,19.6-1.8
	c12,0,23,2.1,31.9,6.2C170.7,14.7,169.1,17.7,168.2,21z M91.6,28.9c8.6-3.9,18.1-5.8,27.7-5.8c8.8,0,17.8,1.6,26.3,4.9
	c-0.2,1.1-0.2,2.3,0,3.6c1.5,7.2,3.5,14.6,10.2,19c-2.2,3.2-3.5,7.1-4,11.8c-0.3,2.6,1.8,6,4.3,7.1c5.2,2.2,11.9,4.2,18.6,0.5
	c2.6,3.6,4.7,6,7.3,6.8c0.7,0.2,1.3,0.2,2.2,0c1.1-0.4,2.1-1,3.3-2.1c0.2,0.8,0.3,1.6,0.4,2.3c0.1,0.7,0.2,1.4,0.4,2.1
	c0.7,3.6,0.8,5-1.1,5.9c-1.7,0.8-5,0.5-7.4,0.2c-0.9-0.1-1.7-0.2-2.3-0.2c-6.2-0.3-12.5-0.8-18.7-1.2c-16.3-1.2-33.2-2.5-49.9-0.4
	c-19.7,2.4-44.9,11-52.9,37.5c-1.7,4.8-2.8,9.5-3.3,13.5c-1.3,0.5-2.6,1.2-3.8,2C34.5,94.7,53.7,45.9,91.6,28.9z M56.8,140.4
	l2.5-0.6l0.1-1.1c0.3-3.1,0.8-6.3,1.7-9.9c0.1-0.4,0.4-1.1,0.9-3.1c0.3-1,0.6-2.1,0.8-2.8c0.2-0.7,0.5-1.4,0.7-2.1
	c2.5-7.1,6.7-13.1,12.4-17.8c-7.3,12.7-11.1,28.4-11.1,45.9c0,50.8,30.9,109.9,70.6,109.9c39.8,0,70.6-59.1,70.6-109.9
	c0-13.3-2.2-25.4-6.4-36c4.3,6,7.3,12.8,9,20.3l0.1,1.6l0.2,1.4l0,0c0.3,1.9,1,3.8,3.6,3.8c7.1,0,11.5,6.4,11.5,16.7
	c0,8.6-3.3,16.6-8,19.6c-2.1,1.3-4.1,1.5-6.2,0.5l-3.9-1.9l-1,4.3c-9.7,42.9-37.2,86.2-70.9,86.2c-33.4,0-60.8-43-70.7-85.4
	l-0.8-3.3l-3.3,0.6c-0.4,0.1-0.8,0.1-1.1,0.1c-6.1,0-11.5-9.7-11.5-20.7C46.7,147.5,50.1,142,56.8,140.4z M227,142.5l-1.4-0.6l0,0
	L227,142.5C227,142.5,227,142.5,227,142.5z"/>
<path class="st0" d="M103.7,110c-13.4,0-24.2,10.9-24.2,24.2c0,13.4,10.9,24.2,24.2,24.2s24.2-10.9,24.2-24.2
	C128,120.8,117.1,110,103.7,110z M103.7,152.6c-10.1,0-18.4-8.2-18.4-18.4c0-10.1,8.2-18.4,18.4-18.4c10.1,0,18.4,8.2,18.4,18.4
	C122.1,144.3,113.9,152.6,103.7,152.6z"/>
<path class="st0" d="M115.4,128c-0.1,0-2.8-0.5-5.6,0.7c-1.4,0.6-2.5,1.5-3.2,2.2c0.4-1,1-2.6,1-4.5c0-2.9-1.4-5.2-1.5-5.5l-2.2-3.6
	l-2.2,3.6c-0.2,0.3-1.5,2.5-1.5,5.5c0,1.9,0.6,3.5,1,4.5c-0.8-0.7-1.8-1.6-3.2-2.2c-2.8-1.2-5.5-0.8-5.6-0.7l-4.2,0.7l2.4,3.4
	c0,0,1.6,2.4,4.4,3.6c1.6,0.7,3.2,0.8,4.3,0.8c0.3,0,0.6,0,0.9,0c-1,0.4-2.6,1.1-3.9,2.5c-2.2,2.2-2.8,4.9-2.8,4.9l-1,4.1l4.2-1
	c0.5-0.1,2.9-0.8,4.9-2.8c1.3-1.3,2-2.7,2.4-3.7c0.4,1,1.1,2.5,2.4,3.7c2.2,2.2,4.9,2.8,4.9,2.8l4.1,1l-1-4.1c0,0-0.6-2.8-2.8-5
	c-1.3-1.3-2.9-2.1-3.9-2.5c0.2,0,0.5,0,0.9,0c1.1,0,2.7-0.1,4.3-0.8c2.6-1.1,4.1-3.1,4.4-3.5l2.4-3.5L115.4,128z"/>
<path class="st0" d="M164.3,110c-13.4,0-24.2,10.9-24.2,24.2c0,13.4,10.9,24.2,24.2,24.2s24.2-10.9,24.2-24.2
	C188.6,120.8,177.7,110,164.3,110z M182.7,134.2c0,10.1-8.2,18.4-18.4,18.4s-18.4-8.2-18.4-18.4c0-10.1,8.2-18.4,18.4-18.4
	S182.7,124.1,182.7,134.2z"/>
<path class="st0" d="M176,128c-0.1,0-2.8-0.5-5.6,0.7c-1.4,0.6-2.5,1.5-3.2,2.2c0.4-1,1-2.6,1-4.5c0-3-1.5-5.4-1.5-5.5l-2.2-3.6
	l-2.2,3.6c0,0-1.5,2.4-1.5,5.5c0,1.9,0.6,3.5,1,4.5c-0.8-0.7-1.8-1.6-3.2-2.2c-2.8-1.2-5.5-0.8-5.6-0.7l-4.2,0.7l2.4,3.4
	c0,0,1.6,2.4,4.4,3.6c1.6,0.7,3.2,0.8,4.3,0.8c0.4,0,0.6,0,0.9,0c-1,0.4-2.6,1.1-3.9,2.5c-2.2,2.2-2.8,4.9-2.8,4.9l-1,4.1l4.2-1
	c0.5-0.1,2.9-0.8,4.9-2.8c1.3-1.3,2-2.7,2.4-3.7c0.4,1,1.1,2.5,2.4,3.7c2.2,2.2,4.9,2.8,4.9,2.8l4.1,1l-1-4.1c0,0-0.6-2.8-2.8-5
	c-1.3-1.3-2.9-2.1-3.9-2.5c0.2,0,0.5,0,0.9,0c1.1,0,2.7-0.1,4.3-0.8c2.6-1.1,4.1-3.1,4.4-3.5l2.4-3.5L176,128z"/>
<path class="st0" d="M146.6,166.2c-3-3-7-4.6-11.2-4.6c-4.2,0-8.2,1.6-11.2,4.6c-1.1,1.1-1.1,3,0,4.1l0,0c1.1,1.1,3,1.1,4.1,0
	c1.8-1.8,4.4-2.8,7.1-2.8s5.3,1,7.1,2.8c0.5,0.5,1.3,0.8,2.1,0.8c0.8,0,1.5-0.3,2.1-0.9C147.7,169.2,147.7,167.3,146.6,166.2z"/>
<path class="st0" d="M135.4,205.4c-14.2,0-29.4,3.6-29.4,11.6c0,7.3,14.2,19.4,29.4,19.4c15.2,0,29.4-12.1,29.4-19.4
	C164.8,209,149.5,205.4,135.4,205.4z M124.8,221.4h22.4c-1.9,0.8-4.1,1.4-6.6,1.7c-5.2,0.6-10,0.3-14.3-1.1
	C125.7,221.8,125.2,221.6,124.8,221.4z M126.6,217.3c0.6-0.3,1.2-0.7,1.8-1l0,0c2.1-1.2,4.2-1.2,6.7-0.1l0.9,0.4l0.9-0.4
	c2.4-1.2,4.6-1,6.9,0.3c0.5,0.3,1,0.6,1.5,0.8H126.6z M135.9,212c-1.2-0.4-2.3-0.7-3.5-0.8c0.9,0,1.9-0.1,2.9-0.1
	c1.2,0,2.3,0,3.4,0.1C137.8,211.4,136.8,211.6,135.9,212z M129.9,211.4c-1.2,0.2-2.4,0.7-3.5,1.3c-2.4,1.4-5.1,2.7-7.4,3.9
	c-0.8,0.4-1.4,0.9-1.8,1.5c-0.1,0.1-0.1,0.2-0.1,0.2c0,0-0.1,0.1-0.1,0.1l-0.3,0.6l0.1,1.3c0.3,0.8,0.8,1.3,1.1,1.6
	c1.8,1.7,4.2,3.1,7.1,4c3.4,1.1,7,1.6,10.8,1.6c1.7,0,3.5-0.1,5.3-0.3c5.5-0.7,9.7-2.4,12.8-5.1c0.3-0.3,1.1-1.7,1.3-2.5l2.1,0.5
	c-3.4,4.1-11.5,10.6-22,10.6c-14.1,0-23.6-11.2-23.6-13.6C111.8,215.8,117.6,212.3,129.9,211.4z M157.3,220l-2.1-0.5l-0.2-1.1
	c-0.5-1.1-1.6-1.6-2.2-1.9l-1-0.5c-2-1-4.1-2-5.9-3.1c-1.1-0.6-2.1-1.1-3.2-1.4c11,1.1,16.3,4.3,16.3,5.5
	C158.9,217.6,158.4,218.7,157.3,220z"/>
<path class="st1" d="M173.7,62.1c0.6-0.5,1.4-0.8,2.3-0.8c0.1,0,0.3,0,0.4,0c1,0.1,1.9,0.6,2.4,1.4c1.8,2.5,3.5,4.9,4.8,6.1
	c1.2-1.3,3-3.7,4.8-6.1c0.6-0.8,1.5-1.3,2.4-1.4c1-0.1,2,0.2,2.7,0.8c3.6,3.1,7.8,3.3,14.2,0.6c0.1-0.1,0.2-0.3,0.3-0.4
	c-0.5-4.5-2.2-8.2-4.9-10.8c-3.5-0.7-6.8-1.7-9.9-3c1.1,4,0.7,7.9-1.3,11.3c-0.4,0.6-1,1.1-1.7,1.2c-0.1,0-0.4,0.1-0.6,0.1
	c-0.5,0-1-0.1-1.4-0.4c-1.7-1.1-3.2-2.3-4.5-3.6c-1.3,1.3-2.8,2.5-4.5,3.6c-0.6,0.4-1.4,0.5-2.1,0.3c-0.7-0.2-1.3-0.6-1.6-1.2
	c-2-3.4-2.4-7.3-1.3-11.3c-2.1,0.9-4.3,1.7-6.5,2.3l-0.2,0.1c-1,0.3-2,0.5-3.1,0.7c-2.9,2.7-4.5,6.4-5.1,10.9
	c0.1,0.1,0.2,0.3,0.3,0.4C165.9,65.4,170.1,65.2,173.7,62.1z"/>
<path class="st1" d="M188,39.6C188,39.6,188.1,39.6,188,39.6c4.6,3.1,10,5.4,15.8,6.5c6.4-2.5,8.7-8.1,10.4-16.4
	c0-0.1,0-0.2,0.1-0.3c-0.1,0-0.2-0.1-0.3-0.1h0c-5.7-2-11-3.4-16.5-1.1l-7.1,7.8C189.3,37.2,188.2,38.6,188,39.6z"/>
<path class="st1" d="M180.6,32.5c0.9,1.1,2.2,2.6,2.9,4.4c0.8-1.9,2.2-3.4,3.2-4.6l5.7-6.2l0,0l0.3-0.3c-0.6-5-3.6-9.9-9-14.8
	c-5.3,4.8-8.1,9.1-8.8,13.9l0.1,0.7L180.6,32.5z"/>
<path class="st1" d="M174.6,92.2c-0.9-0.1-1.8-0.2-2.6-0.3c-1.8-0.2-3.5-0.4-4.9-0.6l-2.6-0.2c-11.6-0.9-23.6-1.9-35.5-1.9
	c-17.3,0.1-30.9,2.4-41.5,7.1c-11.3,13.1-17.2,31.3-17.2,52.7c0,58.9,35.1,104.6,65.4,104.6s65.4-45.7,65.4-104.6
	c0-19.7-5.1-36.9-14.8-49.8C182.7,96.7,178.8,94.3,174.6,92.2z M135.5,161.6c4.2,0,8.2,1.6,11.2,4.6c1.1,1.1,1.1,3,0,4.1
	c-0.6,0.6-1.3,0.9-2.1,0.9c-0.8,0-1.5-0.3-2.1-0.8c-1.8-1.8-4.4-2.8-7.1-2.8s-5.3,1-7.1,2.8c-1.1,1.1-3,1.1-4.1,0l0,0
	c-1.1-1.1-1.1-3,0-4.1C127.3,163.3,131.3,161.6,135.5,161.6z M79.7,134.2c0-13.4,10.9-24.2,24.2-24.2s24.2,10.9,24.2,24.2
	c0,13.4-10.9,24.2-24.2,24.2S79.7,147.6,79.7,134.2z M135.5,236.4c-15.2,0-29.4-12.1-29.4-19.4c0-8,15.2-11.6,29.4-11.6
	c14.2,0,29.4,3.6,29.4,11.6C165,224.3,150.7,236.4,135.5,236.4z M164.5,158.5c-13.4,0-24.2-10.9-24.2-24.2
	c0-13.4,10.9-24.2,24.2-24.2s24.2,10.9,24.2,24.2C188.7,147.6,177.9,158.5,164.5,158.5z"/>
<path class="st1" d="M170.2,28.3c-5.3-2.2-10.7-1.2-17.1,1c-0.1,0-0.2,0.1-0.3,0.1c0,0.1,0,0.2,0.1,0.3c1.5,7.3,3.6,12.8,8.9,15.6
	l2,0.7c5.5-1,10.7-3.2,15.1-6.4c0,0,0,0,0,0c-0.1-1.1-1.1-2.3-2.2-3.6L170.2,28.3z"/>
</svg>
