<?xml version="1.0" encoding="utf-8"?>
<!-- Generator: Adobe Illustrator 21.0.0, SVG Export Plug-In . SVG Version: 6.00 Build 0)  -->
<svg version="1.1" id="Layer_1" xmlns="http://www.w3.org/2000/svg" xmlns:xlink="http://www.w3.org/1999/xlink" x="0px" y="0px"
	 viewBox="0 0 302.2 302.2" style="enable-background:new 0 0 302.2 302.2;" xml:space="preserve">
<style type="text/css">
	.st0{fill:#211F1E;}
	.st1{fill:#FF8400;}
</style>
<g>
	<path class="st0" d="M144.5,70.5c-3.9,0-7.1,3.2-7.1,7.1s3.2,7.1,7.1,7.1c3.9,0,7.1-3.2,7.1-7.1S148.4,70.5,144.5,70.5z
		 M144.5,75.8c1,0,1.8,0.8,1.8,1.8c0,1-0.8,1.8-1.8,1.8c-1,0-1.8-0.8-1.8-1.8C142.7,76.6,143.5,75.8,144.5,75.8z"/>
	<path class="st0" d="M128.5,78.5c-3.9,0-7.1,3.2-7.1,7.1s3.2,7.1,7.1,7.1c3.9,0,7.1-3.2,7.1-7.1S132.4,78.5,128.5,78.5z
		 M128.5,83.8c1,0,1.8,0.8,1.8,1.8c0,1-0.8,1.8-1.8,1.8c-1,0-1.8-0.8-1.8-1.8C126.7,84.6,127.5,83.8,128.5,83.8z"/>
</g>
<path class="st0" d="M293.7,190.4c-0.6-0.3-15.7-8-32.4-5c-4.6,0.8-9.2,2.5-13.7,4.9c0.3-1.2,0.6-2.4,0.7-3.5
	c1.3-10.3-5.3-18.7-6-19.6l-1.9-2.3l-2.3,2c-0.8,0.7-6.5,6-9.2,13.5c-2.5-5.4-5.7-10.5-9.5-14.9c1-1.4,1.6-2.9,1.7-4.4
	c0.2-2.9-1.2-5.9-3.9-8.9c-5.1-5.5-16.2-7.4-17.5-7.6c-0.9-0.1-1.8,0.1-2.4,0.7c-0.7,0.6-1,1.4-1,2.3c0,0.5,0.6,12,5.8,17.6
	c4.1,4.4,8.6,5.8,12.8,3.9c17.8,20.7,16.6,49.1,13,70.7c-2.4-4.9-6.3-8.7-10.2-12c-1.2-1-2.2-1.6-3.4-2c-0.3-0.1-0.7-0.1-1.1-0.1
	c0.4-4,0.7-8,0.7-12.3c0-2.2-0.1-4.7-0.2-7.6c0-0.1,0-0.3,0-0.4c0-15.4-34.8-20.8-50.1-22.4c-5.2-2.3-13.1-4-21.7-4.5
	c-0.2,0-0.4,0-0.6,0c0.4-0.2,0.9-0.4,1.3-0.6c6.3-3.6,10.6-12.2,11-21.8c0.5-13.4-12.1-28.8-13.5-30.5c-1-1.1-2.6-1.4-3.9-0.5
	c-1.2,0.8-1.6,2.5-0.9,3.8c2.7,5.1-1.3,12-6.9,21.6l-1.9,3.3c-7.9,13.8,3.9,24,4,24.1c0.2,0.1,0.3,0.2,0.5,0.3
	c0.2,0.1,0.3,0.2,0.5,0.3c0,0,0,0-0.1,0l-0.6,0c-9.4,0.5-17.1,2.2-21.9,4.7c-1.4,0.2-2.9,0.4-4.6,0.6l-0.7-1.9l0,2
	c-15.2,2.2-40,7.6-42.3,19.7c-0.3,0.5-0.5,1.1-0.5,1.6c-0.2,3-0.3,5.7-0.3,8.2c0,4.3,0.2,8.5,0.7,12.5c-27-4.3-48-33.7-48-68
	c0-34.5,20.3-63.4,47.5-67.9c2.3,28.7,39,31.1,76.6,31.1c38.8,0,76.7-2.6,76.7-34c0-1.3-0.1-2.7-0.2-3.8l-0.7-6.6l-0.8,2.4
	c-8-12.3-47.7-16.9-75.3-16.9c-33.4,0-71.1,5.9-75.5,18.9c-0.3,0.5-0.5,1-0.6,1.5c0,0,0,0.1,0,0.1C45.9,84.9,32.3,93.4,22.2,107
	c-10.4,13.9-16.1,32-16.1,50.8c0,38.8,24.5,71.6,56,75.2c4,20.6,14.9,33.7,33.5,39.9c-0.5,1-0.8,2.1-0.8,3.2c0,13.3,35.3,14,42.3,14
	c7.1,0,42.3-0.7,42.3-14c0-1.1-0.3-2.2-0.8-3.3c0.3-0.1,0.6-0.2,0.9-0.3c1.2,1.2,2.6,2.2,4,3c-2.8,3.5-4.4,7.9-4.9,13.3
	c-0.3,2.7,2.1,5.9,4.4,6.8c6,2.4,13.7,4.5,21.1,0.1c3.3,4.3,5.6,7,8.4,7.9c0.3,0.1,0.6,0.1,0.9,0.1c0.3,0,0.6-0.1,0.9-0.1
	c2.8-0.9,5.1-3.6,8.4-7.9c7.4,4.5,15.1,2.3,21.1-0.1c2.2-0.9,4.6-4.1,4.4-6.8c-0.5-5.3-2.2-9.7-4.9-13.3c8-4.5,10.4-12.7,12.1-20.7
	c0.9-4-0.8-6.8-4.8-8.2c-5.4-1.8-11.2-3.5-17.5-2.7c2.5-14.1,3.3-26.3,2.4-37c3.8,1.6,12.3,4.8,22.3,4.8c2.7,0,5.4-0.2,8-0.7
	c2.2-0.4,4.3-1,6.6-1.8c0.1,0,0.1,0,0.2,0c0.6,0,1.3-0.3,1.7-0.7c11.7-4.6,19.3-12.7,20.2-13.6l2.5-2.8L293.7,190.4z M213.8,162.8
	c-1.6,1.4-3.7,2.2-7.4-1.8c-2.2-2.4-3.3-7-3.8-10.1c3.2,0.9,8,2.5,10.3,5c1.6,1.8,2.5,3.3,2.4,4.6
	C215.1,161.3,214.7,162.1,213.8,162.8z M279.9,199.1l-1.7-1.2l4.7-0.9C282.1,197.8,281.1,198.5,279.9,199.1z M260.4,205.8l-5.2-3.6
	l5.1-0.9c0,0,0.1,0,0.1,0.1l5.4,3.8c-0.3,0.1-0.7,0.1-1,0.2C263.4,205.5,262,205.7,260.4,205.8z M242.5,186
	c-0.4,3.4-2.1,7.1-4.8,10.7c-0.6,0.5-1.2,1-1.7,1.4c-1.5-2.8-3.3-7.2-2.7-12c0.6-5.3,4-9.9,6.2-12.6
	C241.1,176.3,243.1,181,242.5,186z M245,204.1l3.6-0.6l2.8,2C249,205,246.9,204.6,245,204.1z M244,199.3c4.6-3.3,11-6.9,18.4-8.3
	c7.4-1.3,14.6-0.2,20,1.3L244,199.3z M271.6,199.2l3.7,2.5c-1.2,0.6-2.4,1.1-3.6,1.5L267,200L271.6,199.2z M248.7,252.2L248.7,252.2
	c0.8,0.3,1,0.4,1,0.4l0,0c0,0,0.1,0.2-0.1,1c-1.7,7.8-3.6,14.5-11,17.6c-0.1,0-0.2-0.1-0.4-0.1c-7-1-13.7-3.4-19.3-7
	c0,0-0.1-0.1-0.2-0.1c0.1-1.1,1.4-2.5,2.7-3.8l6.9-7.2l0.1,0.3l0.1-0.4l2.4-2.5C237,248.7,242.8,250.3,248.7,252.2z M241.6,290.2
	c-7.9,3.2-13.1,3-17.7-0.8c-0.5-0.4-1.2-0.7-1.9-0.7c-0.1,0-0.2,0-0.3,0c-0.8,0.1-1.5,0.5-2,1.1c-2.5,3.4-4.8,6.3-6.4,7.5
	c-1.6-1.2-3.8-4.2-6.4-7.5c-0.5-0.6-1.2-1-2-1.1c-0.1,0-0.2,0-0.3,0c-0.7,0-1.3,0.2-1.9,0.7c-4.6,3.8-9.7,4-17.6,0.8
	c-0.2-0.1-0.7-0.8-0.8-1.1c0.6-5.4,2.5-9.4,6-12.4c0.2-0.1,0.3-0.3,0.4-0.4c4.8-0.8,9.3-2,13.6-3.8c-1.7,4.8-1.4,9.7,1,13.8
	c0.4,0.6,1,1.1,1.7,1.2c0.7,0.2,1.4,0,2-0.3c2-1.3,3.9-2.7,5.3-4.3c1.5,1.5,3.3,3,5.3,4.3c0.6,0.4,1.3,0.5,2,0.3
	c0.7-0.2,1.3-0.6,1.7-1.2c2.3-4,2.7-8.7,1.1-13.4c3.5,1.4,7.2,2.5,11.1,3.1c0.2,0.3,0.4,0.5,0.6,0.7c3.5,3,5.4,7,6,12.4
	C242.2,289.5,241.8,290.1,241.6,290.2z M124.3,184.8c2.3-0.3,4.7-0.5,7.2-0.6c0.1,0.4,0.2,0.8,0.3,1.2c0,0.1,0.1,0.2,0.1,0.4
	C128.7,185.5,126.2,185.2,124.3,184.8z M131.5,156.6l1.9-3.3c3.4-5.9,6.5-11.2,7.9-16.1c3.1,5.1,6.7,12.3,6.5,18.5
	c-0.1,2.9-0.7,5.8-1.6,8.3c-0.4-6.5-4.7-13.5-5.2-14.3c-0.7-1-2-1.4-3-0.8c-1.1,0.5-1.6,1.8-1.1,2.9c0.9,2.4-1.5,5.5-4.8,9.8
	l-1.2,1.5c-0.4,0.6-0.8,1.1-1.1,1.7C129.3,162.1,129.9,159.3,131.5,156.6z M134.4,165.9l1.2-1.5c1.7-2.2,3.2-4.2,4.3-6.1
	c1,2.5,1.8,5.5,1.4,7.9c-0.6,3.5-2.5,6.5-4.6,7.4c0,0-0.1,0-0.1,0c-0.8,0-1.6-0.1-2.3-0.4C133.7,172.5,131.6,169.6,134.4,165.9z
	 M137.5,184.1c3.5,0.1,6.8,0.3,10,0.7c-2.3,0.5-5.8,0.9-10.3,1C137.5,185.3,137.6,184.7,137.5,184.1z M136.1,191.1
	c6.7,0,17.3-0.7,19.7-4.7c7.2,1.9,9.5,4.2,9.5,4.9c0,0.2-0.7,1.4-4,2.8c-0.7,0.3-1.3,0.9-1.6,1.6c-0.3,0.7-0.3,1.5,0,2.2
	c0.3,0.7,0.9,1.3,1.6,1.6c0.7,0.3,1.5,0.3,2.2,0c0.6-0.3,1.2-0.5,1.7-0.8l-0.1,4.4c0,0.3-0.3,0.7-0.8,1.2c-3.7,3.6-15.2,6-27.4,5.7
	c-17.4-0.3-28-5.3-27.9-7.9l0.1-4.3c7,3.8,19,5.4,27.9,5.5c3.7,0,7.3-0.1,10.8-0.4c0.8-0.1,1.5-0.4,2-1c0.5-0.6,0.7-1.4,0.7-2.1
	c-0.1-0.8-0.5-1.6-1.1-2c-0.6-0.5-1.4-0.7-2.1-0.6c-3.3,0.3-6.7,0.4-10.1,0.4c-19.3-0.3-28-5.6-27.9-7.1c0-0.1,0.1-0.3,0.5-0.8
	c1.2-1.1,3.5-2.2,6.7-3.1C118.7,190.4,129.4,191.1,136.1,191.1z M177.1,252.7c0,0,0.2-0.2,1-0.5c6.1-2,12.1-3.7,18.4-1.6l10.3,9.8
	c1,1,2.7,2.6,2.9,3.7c-0.1,0-0.1,0.1-0.2,0.1c-6.1,3.6-13.4,6.1-21.1,7.1c-7.6-3.1-9.6-9.9-11.3-17.8v0
	C177.1,252.9,177.1,252.7,177.1,252.7z M102.9,274.9c11.2,2.5,23.6,2.9,34.3,2.9c10.6,0,23-0.3,34.2-2.9c0.8,0.7,1.1,1.1,1.1,1.2
	c-0.1,1.4-9.5,7-35.3,7c-25.9,0-35.3-5.5-35.3-6.9C101.8,276,102,275.6,102.9,274.9z M136.9,215.8c0.6,0,1.1,0,1.7,0
	c13.7,0,25.1-2.8,29.8-7.4c1.6-1.6,2.5-3.4,2.5-5.3l0.2-11.8c0-0.1,0-0.3,0-0.4c23.1,3.5,35.6,9.9,35.6,14.4
	c0,6.8-27.2,16.8-69.7,16.8c-42.1,0-69-9.9-69-16.8c0-4.5,12.4-11,35.4-14.4l-0.2,11.1C103.1,210.7,120,215.6,136.9,215.8z
	 M136.7,235.5c-38,0-65.4-9.5-69.3-18.4c0-0.5,0-1,0-1.5c13,9.3,43.5,13.5,69.5,13.5c25.9,0,56.6-4.1,69.9-13.3c0,0.4,0,0.9,0,1.3
	C202.8,226,175.1,235.5,136.7,235.5z M136.7,240.8c30.8,0,57.7-6,69.4-15.1c-0.2,1.9-0.5,3.7-0.8,5.5c-3,2.9-6.7,7.2-8.2,13.5
	c-7.4-2-14.1-0.2-20.8,2.1c-4,1.3-5.6,4.1-4.8,8.2c0.8,3.9,1.8,8,3.7,11.6c-9.5,2.9-21.7,4.3-38.1,4.3c-40.4,0-64.9-7.5-69.1-45.1
	C79.6,234.8,106.3,240.8,136.7,240.8z M216.1,268.6c0.1,0,0.1,0.1,0.2,0.1l0,0c3.5,4.2,4.8,8.5,3.8,12.3c-1.5-1.2-2.6-2.4-3.4-3.6
	c-0.1-0.2-0.3-0.3-0.4-0.4c-0.1-0.1-0.2-0.2-0.4-0.4c-0.2-0.2-0.5-0.2-0.7-0.2c-0.3-0.1-0.6-0.1-0.8-0.1c-0.2,0-0.5,0-0.8,0.1
	c-0.2,0-0.4,0.1-0.7,0.3c-0.2,0.1-0.3,0.2-0.4,0.4c-0.1,0.1-0.3,0.2-0.4,0.4c-0.7,1.1-1.9,2.4-3.4,3.5c-1-3.8,0.4-8.1,3.8-12.3
	c0.1-0.1,0.2-0.2,0.2-0.4c0.5-0.3,0.9-0.7,1.3-1.2c0,0,0.1-0.1,0.1-0.1C214.9,267.7,215.5,268.2,216.1,268.6z M217.6,256.6
	c-1.1,1.1-2.5,2.6-3.4,4.5c-1-1.9-2.5-3.4-3.7-4.5l-8.2-7.8c0,0,0,0,0-0.1c0.6-6.8,4.7-11.6,10.6-16.6c0.2-0.1,0.3-0.2,0.4-0.4
	c0.1,0.1,0.3,0.2,0.4,0.4c5.9,5,10,9.8,10.6,16.6c0,0.2,0.1,0.4,0.1,0.6L217.6,256.6z M85.5,74.6c13.5-3.5,31.7-5.4,51.2-5.4
	c19.8,0,38.2,1.9,51.8,5.4c13.2,3.4,17.9,7.3,17.9,9s-4.8,5.7-17.9,9c-13.6,3.5-32,5.4-51.8,5.4c-19.5,0-37.7-1.9-51.2-5.4
	c-14-3.6-17.7-7.5-17.7-9S71.5,78.3,85.5,74.6z M68.5,93.8c13.6,7.8,43.2,11.4,68.3,11.4c25.3,0,55.3-3.5,69-11.4
	c-5.2,16.7-31.3,20.3-68.6,20.3C99.8,114,73.6,110.5,68.5,93.8z"/>
<path class="st0" d="M127.5,0.3l-18-3.6l17.9,10l0.4,0.2c0.9,0.5,1.8,1,2.6,1.5c5.4,3.6,8.6,8.3,8.8,13c0.2,4.2-2.1,8.2-6.4,11.5
	c-9.4,7.3-11.4,16.1-5.5,25.5c0.2,0.3,0.5,0.7,0.8,1.1l5.5,7.1l0-8.5c0-5.7,4.9-10.5,14.9-14.7c2.2-0.9,4.1-2,6.2-3.1
	c5.3-2.9,8.3-6.7,8.9-11.4C165.1,15.8,151.7,5.1,127.5,0.3z M145,21.2c-0.1-3.8-1.6-7.6-4.2-11c8.5,3.3,18,9.1,17,18
	c-0.3,2.7-2.3,5-6.1,7.1c-1.7,1-3.5,1.9-5.5,2.7c-8.1,3.4-13.5,7.4-16.3,12.1c-0.9-4.5,1.2-8.5,6.4-12.5
	C142.2,33,145.2,27.3,145,21.2z"/>
<path class="st1" d="M136.7,151.8c-0.4-1.1,0.1-2.4,1.1-2.9c1.1-0.5,2.4-0.2,3,0.8c0.6,0.9,4.9,7.8,5.2,14.3
	c0.9-2.5,1.5-5.4,1.6-8.3c0.2-6.2-3.4-13.4-6.5-18.5c-1.3,4.9-4.4,10.2-7.9,16.1l-1.9,3.3c-1.6,2.8-2.2,5.5-1.9,8.2
	c0.3-0.6,0.7-1.2,1.1-1.7l1.2-1.5C135.2,157.2,137.6,154.1,136.7,151.8z"/>
<path class="st1" d="M137,223c42.6,0,69.7-9.9,69.7-16.8c0-4.5-12.5-10.9-35.6-14.4c0,0.1,0,0.3,0,0.4L171,204
	c0,1.9-0.9,3.7-2.5,5.3c-4.7,4.6-16.2,7.4-29.8,7.4c-0.6,0-1.1,0-1.7,0c-16.8-0.3-33.8-5.1-33.7-13.8l0.2-11.1
	c-23,3.5-35.4,9.9-35.4,14.4C68.1,213.1,94.9,223,137,223z"/>
<path class="st1" d="M146,38.2c1.9-0.8,3.7-1.8,5.5-2.7c3.8-2.1,5.7-4.3,6.1-7.1c1.1-8.9-8.4-14.6-17-18c2.6,3.4,4,7.2,4.2,11
	c0.2,6.1-2.8,11.8-8.7,16.3c-5.2,4-7.3,8-6.4,12.5C132.5,45.6,137.8,41.7,146,38.2z"/>
<path class="st1" d="M202.8,249l8.2,7.8c1.2,1.1,2.8,2.6,3.7,4.5c0.9-1.9,2.3-3.4,3.4-4.5l6.9-7.2c-0.1-0.2-0.1-0.4-0.1-0.6
	c-0.6-6.8-4.7-11.6-10.6-16.6c-0.2-0.1-0.3-0.3-0.4-0.4c-0.1,0.1-0.3,0.2-0.4,0.4C207.5,237.4,203.4,242.1,202.8,249
	C202.8,249,202.8,249,202.8,249z"/>
<path class="st1" d="M203,151.2c0.5,3.1,1.6,7.7,3.8,10.1c3.7,4,5.8,3.1,7.4,1.8c0.9-0.8,1.4-1.6,1.4-2.3c0.1-1.2-0.8-2.8-2.4-4.6
	C211,153.7,206.2,152.1,203,151.2z"/>
<path class="st1" d="M210.1,264.5c0.1,0,0.1-0.1,0.2-0.1c-0.2-1.2-1.9-2.8-2.9-3.7l-10.3-9.8c-6.3-2-12.4-0.4-18.4,1.6
	c-0.8,0.3-1,0.4-1,0.5c0,0,0,0.2,0.1,0.9v0c1.7,7.9,3.7,14.7,11.3,17.8C196.7,270.6,204,268.1,210.1,264.5z"/>
<path class="st1" d="M233.9,186.4c-0.6,4.7,1.1,9.1,2.7,12c0.6-0.5,1.1-1,1.7-1.4c2.7-3.6,4.3-7.3,4.8-10.7c0.6-5-1.4-9.6-2.9-12.4
	C237.8,176.5,234.5,181.2,233.9,186.4z"/>
<path class="st1" d="M236.8,277c-0.2-0.2-0.4-0.4-0.6-0.7c-3.9-0.7-7.6-1.7-11.1-3.1c1.6,4.7,1.2,9.4-1.1,13.4
	c-0.4,0.6-1,1.1-1.7,1.2c-0.7,0.2-1.4,0-2-0.3c-2-1.3-3.9-2.7-5.3-4.3c-1.5,1.5-3.3,3-5.3,4.3c-0.6,0.4-1.3,0.5-2,0.3
	c-0.7-0.2-1.3-0.6-1.7-1.2c-2.4-4.1-2.7-9-1-13.8c-4.3,1.7-8.9,3-13.6,3.8c-0.1,0.2-0.3,0.3-0.4,0.4c-3.5,3-5.4,7-6,12.4
	c0.1,0.3,0.6,0.9,0.8,1.1c7.9,3.2,13,3,17.6-0.8c0.5-0.4,1.2-0.7,1.9-0.7c0.1,0,0.2,0,0.3,0c0.8,0.1,1.5,0.5,2,1.1
	c2.6,3.4,4.8,6.3,6.4,7.5c1.6-1.2,3.8-4.2,6.4-7.5c0.5-0.6,1.2-1,2-1.1c0.2,0,0.2,0,0.3,0c0.7,0,1.3,0.2,1.9,0.7
	c4.6,3.8,9.7,4,17.7,0.8c0.2-0.1,0.6-0.7,0.7-1.1C242.3,284,240.4,280,236.8,277z"/>
<path class="st1" d="M229,253.1l-0.1,0.4l-0.1-0.3l-6.9,7.2c-1.3,1.3-2.5,2.7-2.7,3.8c0.1,0,0.1,0.1,0.2,0.1c5.6,3.6,12.2,6,19.3,7
	c0.1,0,0.3,0.1,0.4,0.1c7.4-3.1,9.3-9.9,11-17.6c0.2-0.7,0.1-0.9,0.1-1l0,0c0,0-0.2-0.2-1-0.4l0,0c-5.9-1.9-11.7-3.5-17.8-1.8
	L229,253.1z"/>
</svg>
