<?xml version="1.0" encoding="utf-8"?>
<!-- Generator: Adobe Illustrator 21.0.0, SVG Export Plug-In . SVG Version: 6.00 Build 0)  -->
<svg version="1.1" id="Layer_1" xmlns="http://www.w3.org/2000/svg" xmlns:xlink="http://www.w3.org/1999/xlink" x="0px" y="0px"
	 viewBox="0 0 232.6 232.6" style="enable-background:new 0 0 232.6 232.6;" xml:space="preserve">
<style type="text/css">
	.st0{fill:#211F1E;}
	.st1{fill:#FF8400;}
</style>
<path class="st0" d="M84.1,167.4c-1.2-9.5-3.1-20.9-4.7-31l-0.1-0.8c-0.9-5.4-1.9-11.6-2.6-16.7c1.8-4,3.9-12.2,0.4-25.1l-0.1-0.2
	c0-0.1-0.2-0.4-0.3-0.7c-0.1-1.7,0-3.6,0.2-5c2.5-20.8,4.5-38.4,4-43.4c-0.1-0.6-0.1-1.3-0.1-2.2l0-0.1c-0.4-6.4-1.1-18.3-9.9-25.2
	c-6.1-4.8-14.9-6.2-26.1-4.2C28.1,15.8,14.2,24.4,5.9,37c-6.2,9.3-8.7,20.2-6.7,29.1c1,4.5,2.6,11.1,4.4,18.7l0.1,0.6
	c1.4,5.8,2.9,12.2,4.4,18.7c-0.2,10.4,2.6,16.7,4.5,19.6c2.5,11.4,4.3,20,5.4,26.4c0.6,3.4,1.1,6.9,1.6,10.9
	c2.7,20.4,5.8,43.5,26,43.5c0.9,0,1.9-0.1,2.9-0.2c15.8-1.7,25.3-5.5,30.8-12.5C83.9,185.9,85.5,177.9,84.1,167.4z M40.3,72.4
	c0.2-0.3,0.4-0.6,0.5-0.9c0.2,0.2,0.3,0.4,0.5,0.6L40.3,72.4z M31.6,88.2c1.8-3.6,3.8-7.3,5.9-10.9l6.9-1.6c2.2,2.7,4.3,5.4,6.3,8.2
	L31.6,88.2z M23.1,107.8c1.7-4.7,3.7-9.7,6.1-14.8l24.1-5.4c4.1,5.8,7.7,11.5,10.6,17c0,0.2-0.1,0.5-0.1,0.8l-38.2,8.8
	C24.3,111.4,23.5,108.9,23.1,107.8z M63.9,129.6c-1.7-1.5-1.6-3.8-1.5-4.9c2.6-3.4,4.3-8.2,5.4-12.5c0.5,1.1,1,2.2,1.4,3.3
	c0.3,0.7,0.5,1.3,0.7,1.8l0,0.1c0.2,0.6,0.5,1.3,0.7,1.9C68.4,123.9,65.5,127.7,63.9,129.6z M62.9,109.8c-1.3,5.4-3.1,9.6-5.1,12.2
	c-0.2,0.3-0.4,0.6-0.5,1c-0.1,0.3-0.1,0.5-0.2,0.9l-23.7,5c0-1.9-0.5-3.6-1.1-4.7l0,0c-0.2-0.3-0.4-0.6-0.7-0.9
	c-1.4-1.2-2.8-2.9-4.2-5.2L62.9,109.8z M27.9,126.8c0.4,1,0.9,3.2-0.5,5.1c-2-1.6-5.5-4.7-8.5-8.5c0.4-2.4,1-4.9,1.6-7.4
	C22.3,119.7,24.7,123.9,27.9,126.8z M23.1,135.1c1.7,1.5,2.9,2.3,2.9,2.3c0.9,0.6,2.1,0.6,3,0c1.7-1.1,2.9-2.6,3.7-4.3l24.6-5.2
	c0.5,2.5,2,5.7,6.2,7.4c1,0.4,2.2,0.1,2.9-0.6c0.1-0.1,2.3-2.5,4.8-6.1c0.4,2.6,0.8,5.2,1.3,8.1c0.6,3.9,1.3,8,1.9,12.1l-48.1,9.7
	c-0.4-3.2-0.9-6.5-1.4-9.5c-0.6-3.7-1.5-8.2-2.6-13.7L23.1,135.1z M76.4,162.2l-48.2,9.7c-0.5-2.6-0.9-5.6-1.4-9.2L75,153
	C75.5,156.2,76,159.3,76.4,162.2z M73.8,187.5c-4.3,5.4-12.3,8.5-26.1,9.9c-10.1,1-15.3-4.8-18.7-21.5l48-9.6c0.1,0.7,0.2,1.4,0.3,2
	C78.3,176.9,77.2,183.2,73.8,187.5z M13.4,82.7c-0.7,1.8-1.3,3.7-1.9,5.6c-0.4-1.5-0.7-3.1-1.1-4.5l0,0c0-0.1-0.1-0.2-0.1-0.4
	L13.4,82.7z M15.2,36.3c7.4-8.5,18.2-14.4,30.8-16.6c9.1-1.7,16.1-0.7,20.5,2.8c0.6,0.5,1.2,1,1.7,1.6L15.2,36.3z M44.7,47.6l29-6.7
	c0,0.6,0.1,1.2,0.1,1.8l0,0.4c0.1,0.8,0.1,1.6,0.2,2.2c0.2,2.2-0.3,8.9-1.5,20l-9.5,2.1C56.9,58.1,50.8,51.5,44.7,47.6z M72.1,69.6
	c-0.3,2.9-0.6,5.8-1,8.6l-1.4,0.3c-1.4-2.5-2.8-5-4.3-7.4L72.1,69.6z M6.6,52.1c1-3.7,2.6-7.3,4.7-10.7l59.4-13.7
	c1.2,2.4,2.1,5.3,2.5,9L6.6,52.1z M31,50.7c-7,7.5-12.3,18.5-15.8,27.3l-5.8,1.3C8,73.2,6.8,68.2,6,64.5c-0.5-2.4-0.6-5.1-0.3-8
	L31,50.7z M13.6,100.1c0.6-2.6,9.8-38.6,25.6-49.7c16.9,8.4,31.3,41.2,32.9,45.1c1.9,7.1,1.8,12.5,1.2,16.3c-1.2-3-2.7-6.3-4.3-9
	l-0.2-0.3l0,0C58.4,83,42.7,65.5,42.1,65.1c-0.6-0.4-1.3-0.6-2-0.5c-0.7,0.1-1.4,0.5-1.8,1.2c-1.4,2.1-13.6,20.9-20.5,41.2
	c-1.2,3-2.2,6.3-2.8,9.1C13.8,112.5,12.9,107.2,13.6,100.1z"/>
<path class="st0" d="M231.4,174.3L231.4,174.3c-1.5-0.5-15.2-5.1-28.9-0.4l-4.3,1.5c0.8-2.6,1.4-5.2,1.8-7.4c1-4.7-0.9-7.9-5.4-9.5
	c-7.1-2.5-14.7-4.7-22.9-2.5c-2.1-8.9-8-14.7-13.3-19.4c-1.1-1-2.2-1.7-3.2-2.1c0.9-4.4,2-9.4,3.2-14.8c1.9-3,4.7-9.3,4.5-19.6
	c1.5-6.6,3.1-12.9,4.4-18.7l0.2-0.9c1.8-7.5,3.3-14,4.3-18.4c2-8.9-0.5-19.7-6.7-29.1c-8.3-12.6-22.1-21.1-38.9-24.2
	c-11.2-2-20-0.6-26.1,4.2c-8.8,6.9-9.5,18.9-9.9,25.3l0,0.1c0,0.8-0.1,1.6-0.1,2.2c-0.5,5,1.5,22.6,4,43.4l0.5,4.3
	c-0.4,0.9-0.6,1.5-0.7,1.6L93.7,90c-3.4,12.8-1.3,21,0.5,24.9c-0.8,5.2-1.8,11.4-2.6,16.7l-0.1,0.9c-1.6,10.1-3.4,21.4-4.7,30.9
	c-1.4,10.5,0.2,18.5,4.9,24.4c4.7,6,12.6,9.7,24.7,11.7c-0.8,2.4-1.3,4.9-1.6,7.8c-0.3,2.9,2.1,6.8,4.9,8c6.6,2.8,15.1,5.3,23.4,0.3
	c3.6,4.9,6.1,7.9,9.3,8.9c0.4,0.1,0.7,0.2,1.1,0.2c0.4,0,0.7-0.1,1.1-0.2c3.1-1,5.7-4.1,9.3-8.9c8.3,5,16.8,2.5,23.4-0.3
	c0.4-0.2,0.9-0.5,1.3-0.8c5.6,4.8,12.5,6.4,12.8,6.5l3.1,0.7l0.5-3.1c0.1-0.4,1.5-10.2-4.3-18.1c-0.5-0.7-1-1.3-1.6-1.9
	c4.1-0.1,8.1-0.8,11.6-2.1c13.7-4.7,21.4-16.6,22.2-17.9l1.9-3.1L231.4,174.3z M189.7,207.3c-2.4-3.3-3.2-7.3-3.3-10.2
	c3,1.2,7,3.4,9.5,6.9c2.4,3.3,3.1,7.3,3.3,10.2C196.4,213,192.3,210.8,189.7,207.3z M218.1,178.7l0.4-0.9c0.6,0,1.2,0.1,1.8,0.1
	L218.1,178.7z M211.9,180.9l-3.3,1.1l1.8-3.9c1-0.1,2-0.2,2.9-0.3L211.9,180.9z M199,185.3l2-4.4c1.2-0.6,2.3-1,3.4-1.4c0,0,0,0,0,0
	l-2.1,4.7L199,185.3z M106.9,168c1.9,9.3,4.5,18.7,13.3,24c-0.2,0.3-0.5,0.7-0.7,1c-11.5-1.6-18.6-4.6-22.5-9.5
	c-3.5-4.4-4.6-10.6-3.5-19.2c0.1-0.7,0.2-1.3,0.3-2l12.8,2.6C106.6,165.8,106.7,166.9,106.9,168z M129.5,68.2
	c0.2-0.2,0.4-0.4,0.5-0.6c0.2,0.3,0.3,0.6,0.5,0.9L129.5,68.2z M120.2,79.9c2.1-2.8,4.2-5.5,6.3-8.2l6.9,1.6
	c2.1,3.6,4.1,7.3,5.9,10.9L120.2,79.9z M192.3,165.1c0.8,0.3,1,0.4,1,0.4c0,0,0.1,0.3-0.1,1.1c-2,9.9-4.3,17.6-13.4,20.9
	c-0.1,0-0.3,0.1-0.4,0.2c-8-1.3-15.6-4.2-21.9-8.3c-0.1-0.1-0.3-0.2-0.4-0.3c0-1.5,1.6-3.4,3.3-5.1l9.6-10c0.1,0,0.2-0.1,0.3-0.1
	l0,0C177.8,160.5,185,162.5,192.3,165.1z M114.6,165.1c7.3-2.5,14.5-4.5,22-1.2c0.1,0,0.2,0.1,0.3,0.1l8.3,9.4
	c1.7,1.9,3.2,3.8,3.2,5.4c0,0,0,0,0,0.1c-0.1,0.1-0.2,0.2-0.4,0.3l0,0c-5.9,4.2-13.1,7.1-20.6,8.5c0,0-0.1,0-0.2-0.1
	c-9.2-3.3-11.4-11.1-13.4-20.9c-0.2-0.8-0.1-1.1-0.1-1.1C113.6,165.5,113.8,165.4,114.6,165.1z M154.6,183.8
	c3.7,4.9,5.1,10.6,3.9,15.1c-1.8-1.4-3.2-2.9-4.1-4.3c-0.1-0.2-0.3-0.3-0.4-0.4c-0.1-0.1-0.2-0.2-0.4-0.4l-0.1-0.1
	c-0.2-0.1-0.4-0.2-0.6-0.2c-0.6-0.2-1-0.1-1.4,0l-0.3,0l-0.4,0.2c-0.2,0.1-0.3,0.3-0.4,0.4c-0.1,0.1-0.3,0.3-0.4,0.5
	c-0.9,1.4-2.3,2.9-4.1,4.4c-1.3-4.6,0.1-9.7,4.1-14.8c0.1,0,0.1-0.1,0.2-0.1c0.3-0.1,0.5-0.3,0.7-0.5c0.6-0.4,1.2-0.9,1.7-1.6
	c0,0,0,0,0,0C153.2,182.9,153.9,183.4,154.6,183.8z M156.7,170.3c-1.2,1.2-2.7,2.9-3.7,4.8c-0.9-2.2-2.6-4-3.8-5.4l-7.7-8.7
	c0,0,0,0,0-0.1c0.7-7.9,5.2-13.4,11.7-19.2c0.1-0.1,0.2-0.2,0.3-0.2c0.1,0.1,0.2,0.1,0.3,0.2c6.5,5.8,11,11.3,11.7,19.2
	c0,0,0,0.1,0,0.1L156.7,170.3z M106.9,100.5c2.9-5.4,6.5-11.1,10.6-17l24.1,5.4c2.4,5.1,4.5,10.1,6.2,14.8c-0.4,1.2-1.2,3.6-2.5,6.4
	l-38.2-8.8C107,101,106.9,100.8,106.9,100.5z M143.3,114c-1.3,2.3-2.7,4-4.2,5.2c-0.3,0.2-0.5,0.6-0.7,0.9c-0.6,1.1-1,2.8-1.1,4.7
	l-23.7-5c0-0.3-0.1-0.6-0.2-0.9c-0.1-0.4-0.3-0.7-0.5-1c-2-2.5-3.8-6.8-5.1-12.1L143.3,114z M107,125.6c-1.7-2-4.5-5.7-6.7-10.2
	c0.2-0.7,0.5-1.4,0.7-2.1c0.2-0.5,0.4-1.1,0.6-1.7c0.4-1.1,0.9-2.3,1.4-3.4c1.1,4.3,2.8,9,5.4,12.5
	C108.6,121.8,108.7,124.1,107,125.6z M143.5,127.8c-1.4-1.8-0.9-4.1-0.5-5.1c3.2-2.8,5.6-7,7.3-10.9c0.7,2.6,1.2,5.1,1.6,7.4
	C149,123.2,145.5,126.2,143.5,127.8z M99.7,124.7c2.5,3.6,4.7,6,4.8,6.1c0.7,0.8,1.9,1,2.9,0.6c4.2-1.7,5.7-4.9,6.2-7.4l24.6,5.2
	c0.8,1.7,2,3.2,3.7,4.3c0.9,0.6,2.1,0.6,3,0c0,0,1.2-0.8,2.9-2.3l0.9,0.1c-0.5,2.3-0.9,4.4-1.3,6.4c-4.5,4-8.8,8.7-11.2,15.2
	l-39.7-8c0.6-4.1,1.3-8.2,1.9-12.1C98.9,129.9,99.3,127.2,99.7,124.7z M112.4,158.5c-1.7,0.6-3,1.4-4,2.5l-13.9-2.8
	c0.4-2.9,0.9-6,1.4-9.3l31,6.2C121.8,155.4,117,156.9,112.4,158.5z M122.6,208.9c-0.2-0.2,0.3-1,0.2-1.3c0.6-6.3,1.7-10.7,5.6-14.2
	c0.2-0.2,0.4-0.4,0.5-0.6c4.4-0.8,8.7-3,12.6-4.7c-1.9,5.4-1.6,11.6,1,16.1c0.4,0.6,1,1.1,1.7,1.3c0.7,0.2,1.4,0,2-0.4
	c2.3-1.5,4.4-3.2,6-5c1.6,1.8,3.7,3.5,6,5c0.6,0.4,1.3,0.5,2,0.3c0.7-0.2,1.3-0.6,1.7-1.3c2.7-4.8,3-11.3,0.8-16.9
	c4.8,2.2,10,4.6,15.3,5.5c0.1,0.2,0.3,0.4,0.5,0.5c0.6,0.6,1.2,1.2,1.9,2.1c0,2.8-1.5,8,1.4,13c-8.3,3.4-11.7,3.7-16.5-0.5
	c-0.7-0.6-1.7-0.9-2.7-0.8c-1,0.1-1.8,0.6-2.4,1.4c-2.7,3.7-5.1,7-6.8,8.5c-1.7-1.5-4.1-4.8-6.8-8.5c-0.6-0.8-1.5-1.3-2.4-1.4
	c-0.1,0-0.2,0-0.4,0c-0.8,0-1.6,0.3-2.3,0.8C136.7,212.3,131.1,212.6,122.6,208.9z M191.1,188c0.7-0.7,1.6-1.5,2.4-2.2l-0.7,1.6
	L191.1,188z M152.9,102.4L152.9,102.4c-7.3-20.7-19.8-39.8-20.3-40.6c-0.4-0.6-1-1-1.7-1.1c-0.7-0.1-1.5,0.1-2.1,0.5
	c-0.6,0.4-16.4,18-26.7,37.4l-0.1,0.2c-1.6,2.7-3.2,6.1-4.4,9.1c-0.6-3.7-0.7-9.1,1.2-16.2c1-2.4,15.6-36.6,33-45.2
	c15.7,11.1,24.9,47.1,25.6,49.7c0.7,7.1-0.1,12.4-1.3,16c-0.7-3-1.7-6.4-3-9.4L152.9,102.4z M124.9,15.6
	c12.6,2.3,23.4,8.1,30.8,16.6l-53-12.2c0.5-0.6,1.1-1.1,1.7-1.6C108.8,14.9,115.7,14,124.9,15.6z M160.5,79.4l-0.2,1
	c-0.3,1.3-0.6,2.6-0.9,3.9c-0.6-1.9-1.2-3.8-1.9-5.6L160.5,79.4z M139.9,46.7l25.3,5.8c0.3,2.9,0.3,5.5-0.3,8
	c-0.8,3.8-2.1,9.1-3.5,14.8l-5.8-1.3C152.2,65.2,146.9,54.2,139.9,46.7z M105.5,67.1c-1.5,2.4-2.9,4.9-4.3,7.4l-1.4-0.3
	c-0.3-2.8-0.7-5.7-1-8.6L105.5,67.1z M107.8,63.4l-9.5-2.1c-1.2-11.1-1.7-17.8-1.5-20C97,40.6,97,39.8,97,39l0-0.3
	c0-0.6,0.1-1.1,0.1-1.8l29,6.7C120.1,47.5,113.9,54.1,107.8,63.4z M97.6,32.7c0.5-3.7,1.3-6.6,2.5-9l59.4,13.7
	c2.2,3.4,3.8,7,4.7,10.7L97.6,32.7z M208.8,191c-5.6,1.9-11.4,2-16.1,1.5l29.5-10C218.9,185.6,214.4,189.1,208.8,191L208.8,191z"/>
<path class="st1" d="M70.7,119.1c-0.2-0.6-0.4-1.3-0.7-1.9l0-0.1c-0.2-0.6-0.4-1.2-0.7-1.8c-0.4-1.1-0.9-2.2-1.4-3.3
	c-1.1,4.3-2.8,9-5.4,12.5c-0.2,1.1-0.2,3.4,1.5,4.9C65.6,127.4,68.5,123.6,70.7,119.1z"/>
<path class="st1" d="M27.5,131.6c1.4-1.8,0.9-4.1,0.5-5.1c-3.2-2.8-5.6-7-7.3-10.9c-0.7,2.6-1.2,5.1-1.6,7.4
	C22,126.9,25.5,129.9,27.5,131.6z"/>
<path class="st1" d="M156.9,179.4c0.1,0.1,0.3,0.2,0.4,0.3c6.3,4.2,13.9,7.1,22,8.5c0.1-0.1,0.2-0.1,0.4-0.2
	c9.2-3.3,11.5-11.3,13.5-21.3c0.2-0.9,0.1-1.1,0.1-1.1c0,0-0.2-0.1-1-0.4c-7.3-2.6-14.6-4.6-22.1-1.2l0,0c-0.1,0-0.2,0.1-0.3,0.1
	l-9.6,10.2C158.5,175.9,156.9,177.8,156.9,179.4z"/>
<path class="st1" d="M40.2,64.3c0.8-0.1,1.5,0.1,2,0.5c0.6,0.4,16.3,18,26.7,37.3l0,0l0.2,0.3c1.6,2.7,3.1,6,4.3,9
	c0.6-3.8,0.7-9.2-1.2-16.3c-1.7-3.9-16-36.7-32.9-45.1C23.5,61.2,14.4,97.2,13.7,99.8c-0.7,7.1,0.1,12.4,1.3,16
	c0.7-2.8,1.6-6.1,2.8-9.1c7-20.3,19.2-39.1,20.5-41.2C38.8,64.9,39.4,64.4,40.2,64.3z"/>
<path class="st1" d="M127.5,188.1c7.6-1.4,14.8-4.4,20.8-8.7l0,0c0.2-0.1,0.3-0.2,0.4-0.3c0,0,0,0,0-0.1c0-1.7-1.5-3.6-3.2-5.5
	l-8.3-9.6c-0.1,0-0.2-0.1-0.3-0.1c-7.5-3.4-14.8-1.4-22.2,1.2c-0.8,0.3-1,0.5-1,0.5c0,0,0,0.2,0.1,1.1c2,10.1,4.3,18.1,13.5,21.4
	C127.4,188.1,127.5,188.1,127.5,188.1z"/>
<path class="st1" d="M185.5,196.4c0.2,3.1,0.9,7.4,3.5,11c2.8,3.8,7.2,6.2,10.3,7.5c-0.2-3.1-0.9-7.4-3.5-11
	C193,200.1,188.7,197.7,185.5,196.4z"/>
<path class="st1" d="M178.6,192.9c-0.2-0.2-0.3-0.3-0.5-0.6c-5.3-1-10.5-2.6-15.3-4.9c2.1,5.9,1.9,11.9-0.8,17
	c-0.4,0.7-1,1.1-1.7,1.3c-0.7,0.2-1.4,0-2-0.4c-2.3-1.6-4.4-3.4-6-5.3c-1.6,1.9-3.7,3.7-6,5.3c-0.6,0.4-1.3,0.5-2,0.4
	c-0.7-0.2-1.3-0.7-1.7-1.3c-2.6-4.8-2.9-10.5-1-16.2c-3.9,1.8-8.1,3.2-12.5,4.1c-0.1,0.2-0.3,0.4-0.5,0.6c-3.8,3.7-5.9,8.5-6.6,15.2
	c0.1,0.3,0.6,1,0.8,1.2c8.6,3.9,14.1,3.6,19-0.9c0.6-0.6,1.4-0.9,2.3-0.9c0.1,0,0.2,0,0.4,0c1,0.1,1.9,0.7,2.4,1.5
	c2.7,4,5.1,7.4,6.8,9c1.7-1.6,4.1-5.1,6.8-9c0.6-0.8,1.5-1.4,2.4-1.5c1-0.1,1.9,0.2,2.7,0.9c4.9,4.4,10.3,4.8,18.6,1.1
	c-2.9-5.3-3.4-11.4-3.4-14.4C179.8,194.2,179.2,193.5,178.6,192.9z"/>
<path class="st1" d="M101.8,111.4c-0.2,0.6-0.4,1.2-0.6,1.7c-0.3,0.7-0.5,1.4-0.7,2.1c2.2,4.4,5,8.1,6.7,10.2
	c1.7-1.5,1.6-3.8,1.5-4.9c-2.6-3.5-4.3-8.2-5.4-12.5C102.7,109.1,102.2,110.2,101.8,111.4z"/>
<path class="st1" d="M152.1,119c-0.4-2.4-1-4.9-1.6-7.4c-1.7,3.9-4.2,8.1-7.3,10.9c-0.4,1-0.9,3.2,0.5,5.1
	C145.6,125.9,149.1,122.9,152.1,119z"/>
<path class="st1" d="M153.6,141.2c-0.1,0.1-0.2,0.1-0.3,0.2c-6.6,5.9-11.2,11.4-11.8,19.4c0,0,0,0,0,0.1l7.8,8.8
	c1.2,1.4,2.8,3.2,3.8,5.5c1-2,2.6-3.6,3.8-4.9l8.9-9.3c0,0,0-0.1,0-0.1c-0.7-8-5.2-13.5-11.8-19.4
	C153.8,141.4,153.7,141.3,153.6,141.2z"/>
<path class="st1" d="M131.8,46.1c-17.3,8.6-31.9,42.8-33,45.2c-1.9,7.1-1.8,12.5-1.2,16.2c1.2-3,2.7-6.4,4.4-9.1l0.1-0.2
	c10.4-19.4,26.1-37,26.7-37.4c0.6-0.4,1.3-0.6,2.1-0.5c0.7,0.1,1.3,0.5,1.7,1.1c0.6,0.8,13.1,20,20.3,40.6l0,0l0.1,0.3
	c1.3,3,2.2,6.4,3,9.4c1.2-3.6,2-8.9,1.3-16C156.7,93.2,147.5,57.2,131.8,46.1z"/>
</svg>
