<?xml version="1.0" encoding="utf-8"?>
<!-- Generator: Adobe Illustrator 21.0.0, SVG Export Plug-In . SVG Version: 6.00 Build 0)  -->
<svg version="1.1" id="Capa_1" xmlns="http://www.w3.org/2000/svg" xmlns:xlink="http://www.w3.org/1999/xlink" x="0px" y="0px"
	 viewBox="0 0 430.7 430.7" style="enable-background:new 0 0 430.7 430.7;" xml:space="preserve">
<style type="text/css">
	.st0{fill:#211F1E;}
	.st1{fill:#FF8400;}
</style>
<g>
	<g>
		<g>
			<path class="st0" d="M119.1,25.5c-2.3-1.5-5.4-0.8-6.9,1.5c-2.8,4.3-5,8.9-6.5,13.8c-0.8,2.6,0.6,5.4,3.2,6.3
				c0.5,0.2,1,0.2,1.5,0.2c2.1,0,4.1-1.4,4.8-3.5c1.3-4,3.1-7.9,5.4-11.4C122.1,30.1,121.4,27,119.1,25.5z"/>
			<path class="st0" d="M128.8,22.7c3.1-2.9,6.6-5.3,10.4-7.3c2.4-1.3,3.4-4.3,2.1-6.7c-1.3-2.4-4.3-3.4-6.7-2.1
				c-4.5,2.4-8.7,5.3-12.5,8.7c-2,1.9-2.2,5-0.3,7.1c1,1.1,2.3,1.6,3.7,1.6C126.6,24,127.8,23.6,128.8,22.7z"/>
			<path class="st0" d="M150,11.3c0.4,0,0.7,0,1.1-0.1c3.4-0.8,7-1.1,10.6-1.1c0,0,0,0,0,0c0.7,0,1.4,0,2,0c2.8,0.1,5.1-2,5.2-4.8
				c0.1-2.8-2-5.1-4.8-5.2c-0.8,0-1.6-0.1-2.5-0.1c-4.3,0-8.6,0.5-12.7,1.4c-2.7,0.6-4.4,3.3-3.8,6C145.6,9.7,147.7,11.3,150,11.3z"
				/>
			<path class="st0" d="M176.1,12.2c4,1.3,7.9,3,11.5,5.3c0.8,0.5,1.8,0.8,2.7,0.8c1.7,0,3.3-0.8,4.2-2.3c1.5-2.3,0.8-5.4-1.6-6.9
				c-4.3-2.7-9-4.9-13.9-6.4c-2.6-0.8-5.4,0.6-6.3,3.3C172,8.6,173.5,11.4,176.1,12.2z"/>
			<path class="st0" d="M204.7,35.9c0.9,1.7,2.6,2.7,4.4,2.7c0.8,0,1.6-0.2,2.3-0.6c2.4-1.3,3.4-4.3,2.1-6.8
				c-2.4-4.5-5.4-8.7-8.8-12.4c-1.9-2-5-2.1-7.1-0.3c-2,1.9-2.1,5-0.3,7.1C200.2,28.7,202.7,32.2,204.7,35.9z"/>
			<path class="st0" d="M107.9,163.1c-2.8,0-5,2.2-5,5v14c0,2.8,2.2,5,5,5s5-2.2,5-5v-14C112.9,165.3,110.7,163.1,107.9,163.1z"/>
			<path class="st0" d="M108.2,51.1c-2.8-0.1-5.1,2-5.2,4.8c0,1-0.1,1.9-0.1,2.9v11.3c0,2.8,2.2,5,5,5s5-2.2,5-5V58.7
				c0-0.8,0-1.6,0.1-2.4C113.1,53.6,111,51.2,108.2,51.1z"/>
			<path class="st0" d="M107.9,135.1c-2.8,0-5,2.2-5,5v14c0,2.8,2.2,5,5,5s5-2.2,5-5v-14C112.9,137.3,110.7,135.1,107.9,135.1z"/>
			<path class="st0" d="M107.9,107.1c-2.8,0-5,2.2-5,5v14c0,2.8,2.2,5,5,5s5-2.2,5-5v-14C112.9,109.3,110.7,107.1,107.9,107.1z"/>
			<path class="st0" d="M107.9,79.1c-2.8,0-5,2.2-5,5v14c0,2.8,2.2,5,5,5s5-2.2,5-5v-14C112.9,81.3,110.7,79.1,107.9,79.1z"/>
			<path class="st0" d="M219.2,38c0.7,0.4,1.5,0.6,2.3,0.6c1.8,0,3.5-1,4.4-2.7c2-3.7,4.4-7.2,7.3-10.3c1.9-2,1.8-5.2-0.3-7.1
				c-2-1.9-5.2-1.8-7.1,0.3c-3.5,3.7-6.4,7.9-8.8,12.4C215.9,33.7,216.8,36.7,219.2,38z"/>
			<path class="st0" d="M322.8,135.1c-2.8,0-5,2.2-5,5v14c0,2.8,2.2,5,5,5s5-2.2,5-5v-14C327.8,137.3,325.5,135.1,322.8,135.1z"/>
			<path class="st0" d="M322.8,163.1c-2.8,0-5,2.2-5,5v14c0,2.8,2.2,5,5,5s5-2.2,5-5v-14C327.8,165.3,325.5,163.1,322.8,163.1z"/>
			<path class="st0" d="M322.8,107.1c-2.8,0-5,2.2-5,5v14c0,2.8,2.2,5,5,5s5-2.2,5-5v-14C327.8,109.3,325.5,107.1,322.8,107.1z"/>
			<path class="st0" d="M327.7,55.8c-0.1-2.8-2.5-4.9-5.2-4.8c-2.8,0.1-4.9,2.5-4.8,5.2c0,0.8,0.1,1.6,0.1,2.4v11.3c0,2.8,2.2,5,5,5
				s5-2.2,5-5V58.7C327.8,57.8,327.8,56.8,327.7,55.8z"/>
			<path class="st0" d="M322.8,79.1c-2.8,0-5,2.2-5,5v14c0,2.8,2.2,5,5,5s5-2.2,5-5v-14C327.8,81.3,325.5,79.1,322.8,79.1z"/>
			<path class="st0" d="M240.4,18.3c0.9,0,1.8-0.3,2.7-0.8c3.6-2.3,7.5-4.1,11.5-5.3c2.6-0.8,4.1-3.6,3.3-6.3
				c-0.8-2.6-3.6-4.1-6.3-3.3c-4.9,1.5-9.5,3.7-13.9,6.4c-2.3,1.5-3,4.6-1.6,6.9C237.1,17.5,238.7,18.3,240.4,18.3z"/>
			<path class="st0" d="M321.8,47.1c2.6-0.8,4.1-3.7,3.2-6.3c-1.6-4.9-3.7-9.5-6.5-13.8c-1.5-2.3-4.6-3-6.9-1.5
				c-2.3,1.5-3,4.6-1.5,6.9c2.3,3.6,4.1,7.4,5.4,11.4c0.7,2.1,2.6,3.5,4.8,3.5C320.7,47.3,321.3,47.3,321.8,47.1z"/>
			<path class="st0" d="M209.1,47.8c0.8,3.6,1.2,7.2,1.2,10.9v1.8c0,2.8,2.2,5,5,5c2.8,0,5-2.2,5-5v-1.8c0,0,0,0,0,0
				c0-3.7,0.4-7.4,1.2-10.9c0.6-2.7-1.1-5.4-3.8-6c-0.8-0.2-1.7-0.1-2.5,0.1c-0.8-0.2-1.6-0.3-2.5-0.1
				C210.2,42.4,208.5,45.1,209.1,47.8z"/>
			<path class="st0" d="M267,10c0.7,0,1.4,0,2,0c0,0,0,0,0,0c3.6,0,7.1,0.4,10.6,1.1c0.4,0.1,0.7,0.1,1.1,0.1c2.3,0,4.4-1.6,4.9-3.9
				c0.6-2.7-1.1-5.4-3.8-6c-4.2-0.9-8.4-1.4-12.7-1.4c0,0,0,0,0,0c-0.8,0-1.6,0-2.4,0.1c-2.8,0.1-4.9,2.4-4.8,5.2
				C261.9,8,264.3,10.2,267,10z"/>
			<path class="st0" d="M308.6,15.3c-3.8-3.4-8-6.4-12.5-8.7c-2.5-1.3-5.5-0.3-6.7,2.1c-1.3,2.4-0.3,5.5,2.1,6.7
				c3.8,2,7.2,4.4,10.4,7.3c1,0.9,2.2,1.3,3.4,1.3c1.4,0,2.7-0.5,3.7-1.6C310.8,20.4,310.7,17.2,308.6,15.3z"/>
		</g>
		<path class="st0" d="M338.3,199.6h-98.6v-47.9c23.3-7.2,42.7-24.6,52.1-47.8h10.6c2.8,0,5-2.2,5-5c0-12.7-10.4-23.1-23.1-23.1h-64
			v-1.3c0-2.8-2.2-5-5-5c-2.8,0-5,2.2-5,5v1.3h-64c-12.7,0-23.1,10.4-23.1,23.1c0,2.8,2.2,5,5,5h10.6c9.4,23.2,28.8,40.5,52.1,47.8
			v47.9H92.4c-16.4,0-29.7,13.3-29.7,29.7c0,2.8,2.2,5,5,5h24.4c15.1,38.9,47.6,67.8,86.5,79.1v70.2c-15.9,8.9-28,23.1-34.2,40.4
			c-0.5,1.5-0.3,3.2,0.6,4.6c0.9,1.3,2.5,2.1,4.1,2.1h132.4c1.6,0,3.2-0.8,4.1-2.1c0.9-1.3,1.2-3,0.6-4.6
			c-6.2-17.2-18.2-31.5-34.2-40.4v-70.2c39-11.3,71.4-40.2,86.5-79.1H363c2.8,0,5-2.2,5-5C368,213,354.7,199.6,338.3,199.6z
			 M134.2,94c2-4.8,6.7-8.1,12.1-8.1h138c5.5,0,10.2,3.4,12.1,8.1H134.2z M149.8,104h131.1c-11.9,25.1-37.4,41.4-65.6,41.4
			C187.2,145.5,161.7,129.1,149.8,104z M229.7,154.2v45.5H201v-45.5c4.7,0.8,9.5,1.3,14.4,1.3C220.2,155.5,225,155,229.7,154.2z
			 M156.7,420.7c1-2.1,2.2-4.2,3.4-6.1h110.5c1.2,2,2.4,4,3.4,6.1H156.7z M262.9,404.6h-95c4.9-5.2,10.6-9.5,17-12.9h61
			C252.3,395,258,399.4,262.9,404.6z M188.6,381.6v-65.7c8.7,1.8,17.6,2.8,26.7,2.8c9.1,0,18-1,26.7-2.8v65.7H188.6z M215.4,308.7
			c-49.1,0-93.4-29.6-112.5-74.3h224.9C308.8,279.1,264.4,308.7,215.4,308.7z M73.3,224.4c2.2-8.5,9.9-14.7,19.1-14.7h245.9
			c9.1,0,16.8,6.3,19.1,14.7H73.3z"/>
	</g>
</g>
<path class="st1" d="M284.7,85.6h-138c-5.5,0-10.2,3.4-12.1,8.1h162.3C294.9,89,290.2,85.6,284.7,85.6z"/>
<path class="st1" d="M339.6,209.4H93.8c-9.1,0-16.8,6.3-19.1,14.7h284C356.5,215.6,348.8,209.4,339.6,209.4z"/>
</svg>
