<?xml version="1.0" encoding="utf-8"?>
<!-- Generator: Adobe Illustrator 21.0.0, SVG Export Plug-In . SVG Version: 6.00 Build 0)  -->
<svg version="1.1" id="Capa_1" xmlns="http://www.w3.org/2000/svg" xmlns:xlink="http://www.w3.org/1999/xlink" x="0px" y="0px"
	 viewBox="0 0 512.1 512.1" style="enable-background:new 0 0 512.1 512.1;" xml:space="preserve">
<style type="text/css">
	.st0{fill:#211F1E;}
	.st1{fill:#FF8400;}
</style>
<g>
	<path class="st0" d="M135.8,207.8c0,35.8,12.7,72.1,34.9,99.6c23.3,28.8,53.6,44.7,85.5,44.7c31.8,0,62.1-15.9,85.4-44.7
		c22.1-27.4,34.8-63.7,34.8-99.5v-32.1c23.5-74.6,14.8-137.6,7.1-155c0,0,0-0.1,0-0.1c-0.1-0.2-0.2-0.3-0.2-0.5
		c0-0.1-0.1-0.2-0.1-0.3c-0.1-0.1-0.2-0.3-0.3-0.4c-0.1-0.1-0.1-0.2-0.2-0.3c-0.1-0.1-0.2-0.2-0.2-0.3c-0.1-0.1-0.2-0.2-0.3-0.3
		c-0.1-0.1-0.1-0.1-0.2-0.2c-0.1-0.1-0.2-0.2-0.4-0.4c-0.1-0.1-0.1-0.1-0.2-0.1c-0.1-0.1-0.3-0.2-0.4-0.3c-0.1,0-0.1-0.1-0.2-0.1
		c-0.1-0.1-0.3-0.2-0.4-0.3c-0.1,0-0.2-0.1-0.2-0.1c-0.1-0.1-0.3-0.2-0.4-0.2c-0.1,0-0.2-0.1-0.3-0.1c-0.1-0.1-0.3-0.1-0.4-0.2
		c-0.1,0-0.2-0.1-0.4-0.1c-0.1,0-0.2-0.1-0.4-0.1c-0.1,0-0.2-0.1-0.4-0.1c-0.1,0-0.3-0.1-0.4-0.1c-0.1,0-0.2,0-0.3,0
		c-0.2,0-0.3,0-0.5-0.1c-0.1,0-0.2,0-0.3,0c-0.2,0-0.3,0-0.5,0c-0.1,0-0.2,0-0.3,0c-0.2,0-0.4,0-0.5,0c0,0-0.1,0-0.1,0
		c-20.1,2.9-44.4-2-70.1-7.2c-43.1-8.7-87.7-17.6-122.5,7.3c-0.5-0.1-1.1-0.2-1.6-0.2C145,16,120,45.6,120,88
		c0,32.8,13.8,93.9,15.7,102.4V207.8z M329,297.3c-20.1,25-46,38.7-72.9,38.7c-26.9,0-52.8-13.8-73-38.7
		c-19.9-24.7-31.3-57.3-31.3-89.5v-9.1c0-28.5,16.2-67,21.7-79.2c55.3-6.5,99.3,0,126.8,6.7c24.1,5.9,39.9,12.9,45.6,15.7l14.4,34.3
		v31.7C360.2,240.1,348.8,272.7,329,297.3z M180.7,32c0.8,0,1.5-0.1,2.2-0.3c2.3,0.7,5,0.3,7-1.3c29.4-22.3,71.2-13.9,111.7-5.8
		c21.2,4.3,41.5,8.3,60.3,8.3c2.9,0,5.7-0.1,8.6-0.3c4.9,17.8,9.6,62.5-3.8,117.7l-7.3-17.4c-0.7-1.7-1.9-3-3.5-3.9
		c-3-1.6-73.6-39.8-188.9-24.9c0,0,0,0-0.1,0c-0.1,0-0.3,0.1-0.4,0.1c-0.1,0-0.2,0-0.3,0.1c-0.1,0-0.2,0.1-0.3,0.1
		c-1,0.3-1.9,0.8-2.7,1.4c-0.5,0.4-1,0.9-1.4,1.4c0,0,0,0,0,0c-0.1,0.1-0.2,0.2-0.2,0.3c-0.1,0.1-0.1,0.2-0.2,0.3
		c-0.1,0.1-0.1,0.2-0.1,0.3c-0.1,0.1-0.2,0.3-0.2,0.5c0,0,0,0,0,0c-0.6,1.3-9.7,20.2-16.7,43.3c-4-21.1-8.1-47-8.1-63.8
		C136,49.4,158.5,32,180.7,32z"/>
	<path class="st0" d="M480.7,414.1c-10.8-15.8-25.8-26.8-43.5-31.7c-0.2,0-0.3-0.1-0.5-0.1l-63.8-13.3l-17.2-26
		c-0.1-0.1-0.2-0.3-0.3-0.4c-2.6-3.5-6.6-5.8-10.9-6.3c-4.3-0.5-8.7,0.8-12.1,3.5c-0.1,0-0.1,0.1-0.2,0.1L256,405.5l-76.3-65.7
		c-0.1,0-0.1-0.1-0.2-0.1c-3.4-2.7-7.8-4-12.1-3.5c-4.3,0.5-8.3,2.8-10.9,6.3c-0.1,0.1-0.2,0.3-0.3,0.4l-17.2,26l-63.8,13.3
		c-0.2,0-0.3,0.1-0.5,0.1c-17.7,5-32.7,15.9-43.5,31.7C21.5,428.5,16,446,16,463.2V483c0,16,14.4,29,32,29h184c0,0,0,0,0,0
		c0,0,0,0,0,0H280c0,0,0,0,0,0c0,0,0,0,0,0h184c17.6,0,32-13,32-29v-19.8C496,446,490.6,428.5,480.7,414.1z M342.6,352.1l15.7,23.8
		l-55.2,75.9l-17.4-17.4c0,0,0,0,0,0l-17.9-17.9L342.6,352.1z M248,472.1h16c0.5,0,1,0,1.4,0l4.8,24h-28.5l4.8-24
		C247.1,472,247.5,472.1,248,472.1z M272,448.1c0,4.4-3.6,8-8,8h-16c-4.4,0-8-3.6-8-8v-4.7l16-16l16,16L272,448.1L272,448.1z
		 M169.4,352.1l74.8,64.4l-17.9,17.9c0,0,0,0,0,0L209,451.8l-55.2-75.9L169.4,352.1z M32,483v-19.8c0-25.9,16.1-56.6,46.9-65.3
		l61.7-12.9l61,83.8c1.4,1.9,3.5,3.1,5.8,3.3c0.2,0,0.4,0,0.6,0c2.1,0,4.1-0.8,5.7-2.3l12.3-12.3c1.3,3.1,3.2,5.8,5.6,8.1l-6.1,30.5
		H48C39.2,496.1,32,490.2,32,483z M480,483c0,7.2-7.2,13-16,13H286.6l-6.1-30.5c2.4-2.3,4.3-5,5.6-8.1l12.3,12.3
		c1.5,1.5,3.5,2.3,5.7,2.3c0.2,0,0.4,0,0.6,0c2.3-0.2,4.5-1.4,5.8-3.3l61-83.8l61.7,12.9c30.8,8.8,46.9,39.5,46.9,65.3V483z"/>
</g>
<path class="st1" d="M264,472.3h-16c-0.5,0-1,0-1.4,0l-4.8,24h28.5l-4.8-24C265,472.2,264.5,472.3,264,472.3z"/>
<path class="st1" d="M161.1,109.2C161.1,109.2,161.1,109.2,161.1,109.2c0.1-0.2,0.2-0.3,0.3-0.5c0-0.1,0.1-0.2,0.1-0.3
	c0.1-0.1,0.1-0.2,0.2-0.3c0.1-0.1,0.2-0.2,0.2-0.3c0,0,0,0,0,0c0.4-0.5,0.9-1,1.4-1.4c0.8-0.6,1.7-1.1,2.7-1.4
	c0.1,0,0.2-0.1,0.3-0.1c0.1,0,0.2,0,0.3-0.1c0.1,0,0.3-0.1,0.4-0.1c0,0,0,0,0.1,0c115.3-14.8,185.9,23.3,188.9,24.9
	c1.6,0.9,2.8,2.2,3.5,3.9L367,151c13.4-55.2,8.8-99.9,3.8-117.7c-2.8,0.2-5.7,0.3-8.6,0.3c-18.8,0-39.1-4.1-60.3-8.3
	c-40.5-8.1-82.3-16.5-111.7,5.8c-2.1,1.6-4.7,2-7,1.3c-0.7,0.2-1.5,0.3-2.2,0.3c-22.2,0-44.7,17.3-44.7,56c0,16.9,4.1,42.7,8.1,63.8
	C151.4,129.4,160.5,110.5,161.1,109.2z"/>
<path class="st1" d="M240,443.6v4.7c0,4.4,3.6,8,8,8h16c4.4,0,8-3.6,8-8h0v-4.7l-16-16L240,443.6z"/>
<g>
	<g>
		<path class="st0" d="M204.4,182.8c-5.6,0-10.2,4.6-10.2,10.2v11.7c0,5.6,4.6,10.2,10.2,10.2s10.2-4.6,10.2-10.2V193
			C214.6,187.3,210,182.8,204.4,182.8z"/>
	</g>
</g>
<g>
	<g>
		<path class="st0" d="M297.6,182.8c-5.6,0-10.2,4.6-10.2,10.2v11.7c0,5.6,4.6,10.2,10.2,10.2s10.2-4.6,10.2-10.2V193
			C307.8,187.3,303.3,182.8,297.6,182.8z"/>
	</g>
</g>
<rect x="177.5" y="315.5" class="st0" width="17" height="41"/>
<rect x="313" y="315.5" class="st0" width="17" height="41"/>
</svg>
