<?xml version="1.0" encoding="utf-8"?>
<!-- Generator: Adobe Illustrator 21.0.0, SVG Export Plug-In . SVG Version: 6.00 Build 0)  -->
<svg version="1.1" id="Capa_1" xmlns="http://www.w3.org/2000/svg" xmlns:xlink="http://www.w3.org/1999/xlink" x="0px" y="0px"
	 viewBox="0 0 294.8 294.8" style="enable-background:new 0 0 294.8 294.8;" xml:space="preserve">
<style type="text/css">
	.st0{fill:#FF7000;}
	.st1{fill:#FFFFFF;}
</style>
<circle class="st0" cx="148" cy="147.2" r="147.4"/>
<g>
	<path class="st1" d="M219.7,75.5c-7.8-7.8-16.5-14.1-25.8-18.8c-1.3-0.6-2.8-0.8-4.1-0.3c-1.4,0.5-2.5,1.4-3.1,2.7
		c-0.6,1.3-0.8,2.8-0.3,4.1c0.5,1.4,1.4,2.5,2.7,3.1c8.3,4.2,16.1,9.8,23,16.7c17.1,17.1,26.5,39.8,26.5,64s-9.4,46.9-26.5,64
		c-35.3,35.3-92.7,35.3-128,0c-35.3-35.3-35.3-92.7,0-128c17.1-17.1,39.8-26.5,64-26.5c3,0,5.4-2.4,5.4-5.4c0-3-2.4-5.4-5.4-5.4
		c-27.1,0-52.5,10.5-71.7,29.7c-39.5,39.5-39.5,103.8,0,143.4c19.1,19.1,44.6,29.6,71.7,29.6c27.1,0,52.6-10.5,71.7-29.6
		s29.6-44.6,29.6-71.7S238.8,94.6,219.7,75.5z"/>
	<path class="st1" d="M148,81.1c-3,0-5.4,2.4-5.4,5.4v121.3c0,3,2.4,5.4,5.4,5.4c3,0,5.4-2.4,5.4-5.4V86.5
		C153.5,83.5,151,81.1,148,81.1z"/>
	<path class="st1" d="M208.7,141.8h-44.4c-3,0-5.4,2.4-5.4,5.4c0,3,2.4,5.4,5.4,5.4h44.4c3,0,5.4-2.4,5.4-5.4
		C214.1,144.2,211.7,141.8,208.7,141.8z"/>
	<path class="st1" d="M130.4,141.8h-43c-3,0-5.4,2.4-5.4,5.4c0,3,2.4,5.4,5.4,5.4h43c3,0,5.4-2.4,5.4-5.4
		C135.8,144.2,133.4,141.8,130.4,141.8z"/>
</g>
</svg>
