<?xml version="1.0" encoding="utf-8"?>
<!-- Generator: Adobe Illustrator 21.0.0, SVG Export Plug-In . SVG Version: 6.00 Build 0)  -->
<svg version="1.1" id="Layer_1" xmlns="http://www.w3.org/2000/svg" xmlns:xlink="http://www.w3.org/1999/xlink" x="0px" y="0px"
	 viewBox="0 0 512 512" style="enable-background:new 0 0 512 512;" xml:space="preserve">
<style type="text/css">
	.st0{fill:#564A46;}
</style>
<g>
	<path class="st0" d="M257.4,94c-70.3,0-127.6,57.2-127.6,127.6c0,26.3,6.6,52.4,19.7,77.6c10.4,20,24.8,39.5,42.9,57.9
		c30.7,31.2,60.9,48.4,62.2,49.1c0.9,0.5,1.9,0.7,2.9,0.7c1,0,2-0.3,2.9-0.8c1.3-0.7,31.5-18.2,62.1-49.6
		c18.1-18.5,32.5-38,42.8-57.9c13.1-25.1,19.7-51,19.7-77C385,151.2,327.7,94,257.4,94z M373.3,221.5c0,24-6.2,48-18.3,71.4
		c-9.8,18.9-23.5,37.4-40.7,55.1c-24.3,24.9-49.1,41.3-56.9,46.1c-7.8-4.7-32.6-20.8-56.9-45.5c-17.2-17.6-30.9-36.1-40.7-55
		c-12.1-23.5-18.3-47.7-18.3-72.1c0-63.9,52-115.9,115.9-115.9C321.3,105.6,373.3,157.6,373.3,221.5z"/>
	<path class="st0" d="M341.8,176.3l-0.1-0.1c-0.7-1.2-1.3-2.4-2.1-3.7c-1.6-2.8-5.2-3.7-8-2c-1.3,0.8-2.3,2.1-2.7,3.6
		c-0.4,1.5-0.2,3.1,0.6,4.4c0.6,1.1,1.2,2.2,1.8,3.3l0.1,0.1c6.4,12.1,9.8,25.7,9.8,39.4c0,46.3-37.7,84-84,84
		c-46.3,0-84-37.7-84-84s37.7-84,84-84c10.2,0,20.2,1.8,29.6,5.4c1.5,0.6,3,0.5,4.5-0.1c1.4-0.6,2.5-1.8,3.1-3.3
		c1.1-3-0.4-6.4-3.4-7.5c-10.8-4.1-22.1-6.1-33.8-6.1c-52.7,0-95.7,42.9-95.7,95.7c0,52.7,42.9,95.7,95.7,95.7
		c52.8,0,95.7-42.9,95.7-95.7C353.1,205.7,349.2,190.1,341.8,176.3z"/>
	<path class="st0" d="M325,153.6c-3.5-3.5-7.3-6.7-11.3-9.6c-2.6-1.9-6.3-1.3-8.2,1.3c-1.9,2.6-1.3,6.3,1.3,8.2
		c3.5,2.6,6.8,5.4,9.9,8.5c1.1,1.1,2.6,1.7,4.1,1.7c1.6,0,3-0.6,4.1-1.7c1.1-1.1,1.7-2.6,1.7-4.1C326.7,156.2,326.1,154.7,325,153.6
		z"/>
</g>
</svg>
