<?xml version="1.0" encoding="utf-8"?>
<!-- Generator: Adobe Illustrator 21.0.0, SVG Export Plug-In . SVG Version: 6.00 Build 0)  -->
<svg version="1.1" id="Layer_1" xmlns="http://www.w3.org/2000/svg" xmlns:xlink="http://www.w3.org/1999/xlink" x="0px" y="0px"
	 viewBox="0 0 64 64" style="enable-background:new 0 0 64 64;" xml:space="preserve">
<style type="text/css">
	.st0{fill:#564A46;}
</style>
<path class="st0" d="M42.9,22.8c-0.6-0.6-1.5-0.6-2.1-0.1l-7.4,6.9V19.2c0-0.8-0.7-1.5-1.5-1.5s-1.5,0.7-1.5,1.5V33
	c0,0.6,0.3,1.1,0.9,1.4c0.2,0.1,0.4,0.1,0.6,0.1c0.4,0,0.7-0.1,1-0.4l9.8-9.2C43.4,24.3,43.5,23.4,42.9,22.8z"/>
<path class="st0" d="M32,8.9c-0.8,0-1.5,0.7-1.5,1.5v2c0,0.8,0.7,1.5,1.5,1.5s1.5-0.7,1.5-1.5v-2C33.5,9.6,32.8,8.9,32,8.9z"/>
<path class="st0" d="M19.5,17l-2-1.7c-0.3-0.3-0.7-0.4-1.1-0.4c-0.4,0-0.8,0.2-1,0.5c-0.3,0.3-0.4,0.7-0.4,1.1c0,0.4,0.2,0.8,0.5,1
	l2,1.7c0.3,0.2,0.6,0.4,1,0.4c0.4,0,0.8-0.2,1.1-0.5c0.3-0.3,0.4-0.7,0.4-1.1C19.9,17.6,19.8,17.2,19.5,17z"/>
<path class="st0" d="M12.4,30.5h-2c-0.8,0-1.5,0.7-1.5,1.5s0.7,1.5,1.5,1.5h2c0.8,0,1.5-0.7,1.5-1.5S13.2,30.5,12.4,30.5z"/>
<path class="st0" d="M19.4,44.5c-0.6-0.6-1.5-0.6-2.1,0l-1.7,1.7c-0.6,0.6-0.6,1.5,0,2.1c0.3,0.3,0.6,0.4,1,0.4c0.4,0,0.8-0.2,1-0.4
	l1.7-1.7C20,46,20,45,19.4,44.5z"/>
<path class="st0" d="M32,49.9c-0.8,0-1.5,0.7-1.5,1.5v2c0,0.8,0.7,1.5,1.5,1.5s1.5-0.7,1.5-1.5v-2C33.5,50.6,32.8,49.9,32,49.9z"/>
<path class="st0" d="M48.3,45.9l-1.4-1.4c-0.6-0.6-1.5-0.6-2.1,0c-0.3,0.3-0.4,0.6-0.4,1c0,0.4,0.2,0.8,0.4,1l1.4,1.4
	c0.3,0.3,0.7,0.4,1,0.4c0.4,0,0.8-0.2,1-0.4c0.3-0.3,0.4-0.6,0.4-1C48.7,46.5,48.5,46.2,48.3,45.9z"/>
<path class="st0" d="M53.4,30.5h-2c-0.8,0-1.5,0.7-1.5,1.5s0.7,1.5,1.5,1.5h2c0.8,0,1.5-0.7,1.5-1.5S54.2,30.5,53.4,30.5z"/>
<path class="st0" d="M48.3,15.6c-0.6-0.6-1.5-0.6-2.1,0L44.8,17c-0.3,0.3-0.4,0.7-0.4,1c0,0.4,0.2,0.8,0.4,1c0.3,0.3,0.7,0.4,1,0.4
	s0.8-0.2,1-0.4l1.4-1.4c0.3-0.3,0.4-0.7,0.4-1C48.7,16.3,48.5,15.9,48.3,15.6z"/>
<path class="st0" d="M32,0C14.4,0,0,14.4,0,32s14.4,32,32,32c17.6,0,32-14.4,32-32S49.6,0,32,0z M32,61C16,61,3,48,3,32
	C3,16,16,3,32,3s29,13,29,29C61,48,48,61,32,61z"/>
</svg>
