<?xml version="1.0" encoding="utf-8"?>
<!-- Generator: Adobe Illustrator 21.0.0, SVG Export Plug-In . SVG Version: 6.00 Build 0)  -->
<svg version="1.1" id="Capa_1" xmlns="http://www.w3.org/2000/svg" xmlns:xlink="http://www.w3.org/1999/xlink" x="0px" y="0px"
	 viewBox="0 0 512 512" style="enable-background:new 0 0 512 512;" xml:space="preserve">
<style type="text/css">
	.st0{fill:#564A46;}
</style>
<path class="st0" d="M496.5,138.8c6.1,0,11-4.9,11-11V39.6c0-6.1-4.9-11-11-11h-21v-21c0-6.1-4.9-11-11-11h-48.1
	c-6.1,0-11,4.9-11,11v21h-66.1v-21c0-6.1-4.9-11-11-11H280c-6.1,0-11,4.9-11,11v21h-66.1v-21c0-6.1-4.9-11-11-11h-48.1
	c-6.1,0-11,4.9-11,11v21h-21c-6.1,0-11,4.9-11,11v292l-31-20.6c-3.7-2.5-8.5-2.5-12.2,0L9.4,343c-3.1,2-4.9,5.5-4.9,9.2v24
	c0,32.6,26.5,59.1,59.1,59.1h96.2c13.5,0,26.6-4.7,37.1-13.1v34.2c0,2.9,1.2,5.7,3.2,7.8l48.1,48.1c2.1,2.1,4.8,3.2,7.8,3.2
	s5.7-1.1,7.8-3.2l40.3-40.3l40.3,40.3c2.1,2.1,4.8,3.2,7.8,3.2c3,0,5.7-1.1,7.8-3.2l40.3-40.3l40.3,40.3c2.1,2.1,5,3.2,7.8,3.2
	c2.8,0,5.6-1.1,7.8-3.2l48.1-48.1c2.1-2.1,3.2-4.8,3.2-7.8V164.2c0-6.1-4.9-11-11-11c-6.1,0-11,4.9-11,11v128.9H122.7V50.6h10v29.1
	c0,3.5,1.7,6.8,4.6,8.9c2.9,2.1,6.6,2.7,9.9,1.6l20.6-6.9l20.6,6.9c3.3,1.1,7,0.5,9.9-1.6c2.9-2.1,4.6-5.4,4.6-8.9V50.6H269v29.1
	c0,3.5,1.7,6.8,4.6,8.9c2.9,2.1,6.6,2.7,9.9,1.6l20.6-6.9l20.6,6.9c3.3,1.1,7,0.5,9.9-1.6c2.9-2.1,4.6-5.4,4.6-8.9V50.6h66.1v29.1
	c0,3.5,1.7,6.8,4.6,8.9s6.6,2.7,9.9,1.6l20.6-6.9l20.6,6.9c3.3,1.1,7,0.5,9.9-1.6s4.6-5.4,4.6-8.9V50.6h10v77.2
	C485.5,133.8,490.4,138.8,496.5,138.8z M453.4,18.5l0,45.8l-9.6-3.2c-1.1-0.4-2.3-0.6-3.5-0.6c-1.2,0-2.4,0.2-3.5,0.6l-9.5,3.2V18.5
	H453.4z M317.1,18.5l0,45.8l-9.6-3.2c-1.1-0.4-2.3-0.6-3.5-0.6c-1.2,0-2.4,0.2-3.5,0.6l-9.5,3.2V18.5H317.1z M180.9,18.5l0,45.8
	l-9.6-3.2c-1.1-0.4-2.3-0.6-3.5-0.6c-1.2,0-2.4,0.2-3.5,0.6l-9.5,3.2V18.5H180.9z M113.8,413.3H63.6c-20.4,0-37.1-16.6-37.1-37.1
	v-18.2l37.1-24.7l37.1,24.7v18.2C100.7,389.8,105.4,402.9,113.8,413.3z M122.7,376.3l0-61.1h74.2v61.1c0,20.4-16.6,37.1-37.1,37.1
	S122.7,396.7,122.7,376.3z M218.9,451.9l0-136.7h74.2v136.7L256,488.9L218.9,451.9z M315.1,451.9l0-136.7h74.2v136.7l-37.1,37.1
	L315.1,451.9z M411.3,451.9l0-136.7h74.2v136.7l-37.1,37.1L411.3,451.9z"/>
</svg>
