<?xml version="1.0" encoding="utf-8"?>
<!-- Generator: Adobe Illustrator 21.0.0, SVG Export Plug-In . SVG Version: 6.00 Build 0)  -->
<svg version="1.1" id="Capa_1" xmlns="http://www.w3.org/2000/svg" xmlns:xlink="http://www.w3.org/1999/xlink" x="0px" y="0px"
	 viewBox="0 0 512 512" style="enable-background:new 0 0 512 512;" xml:space="preserve">
<style type="text/css">
	.st0{fill:#564A46;}
</style>
<g>
	<g>
		<path class="st0" d="M405.1,302c-0.1-0.6-0.3-1.3-0.6-1.9c-0.3-0.6-0.6-1.2-0.9-1.7c-0.4-0.5-0.8-1.1-1.3-1.5
			c-0.5-0.5-1-0.9-1.5-1.3c-0.5-0.4-1.1-0.7-1.7-0.9c-0.6-0.3-1.2-0.5-1.9-0.6c-1.3-0.3-2.6-0.3-3.9,0c-0.6,0.1-1.3,0.3-1.9,0.6
			c-0.6,0.3-1.2,0.6-1.7,0.9c-0.5,0.4-1.1,0.8-1.5,1.3s-0.9,1-1.2,1.5c-0.4,0.5-0.7,1.1-0.9,1.7c-0.3,0.6-0.4,1.2-0.6,1.9
			c-0.1,0.6-0.2,1.3-0.2,2c0,0.6,0.1,1.3,0.2,1.9c0.1,0.6,0.3,1.3,0.6,1.9c0.3,0.6,0.6,1.2,0.9,1.7c0.4,0.5,0.8,1.1,1.2,1.5
			s1,0.9,1.5,1.2c0.5,0.4,1.1,0.7,1.7,0.9c0.6,0.3,1.2,0.4,1.9,0.6s1.3,0.2,2,0.2c2.6,0,5.2-1.1,7.1-2.9c1.9-1.9,2.9-4.4,2.9-7.1
			C405.3,303.3,405.2,302.7,405.1,302z"/>
	</g>
</g>
<g>
	<g>
		<path class="st0" d="M502,369.5h-10.2v-65.1c0-12.9-4.2-24.8-11.3-34.5v-138c0-50.2-40.8-91-91-91h-38.3
			c-24.3-17.3-52.9-26.4-82.9-26.4h-24.6c-30,0-58.6,9.1-82.9,26.4h-38.3c-50.2,0-91,40.8-91,91v138c-7.1,9.7-11.3,21.6-11.3,34.5
			v65.1H10c-5.5,0-10,4.5-10,10v57.6c0,5.5,4.5,10,10,10h39l11.9,43.1c1.2,4.3,5.1,7.3,9.6,7.3h38c5.5,0,10-4.5,10-10v-40.4h274.9
			v40.4c0,5.5,4.5,10,10,10h38c4.5,0,8.4-3,9.6-7.3l11.9-43.1h39c5.5,0,10-4.5,10-10v-57.6C512,374,507.5,369.5,502,369.5z
			 M51.4,131.9L51.4,131.9c0-39.1,31.9-71,71-71H164c2.2,0,4.3-0.7,6-2c21.4-16,46.9-24.5,73.7-24.5h24.6c26.8,0,52.3,8.5,73.7,24.5
			c1.7,1.3,3.8,2,6,2h41.6c39.1,0,71,31.9,71,71v120.6c-5.4-2.8-11.2-4.8-17.3-5.9c0,0-0.1,0-0.1,0c-0.1,0-0.2,0-0.3,0
			c-0.1,0-0.1,0-0.2,0c-0.1,0-0.1,0-0.2,0c-0.1,0-0.2,0-0.3-0.1c0,0,0,0,0,0c-0.3,0-0.6-0.1-0.9-0.1c0,0,0,0,0,0
			c-0.6-0.1-1.2-0.2-1.9-0.2V131.9c0-27.5-22.4-49.8-49.8-49.8h-51.9l-8.3-6.2c-17.7-13.2-38.8-20.2-61-20.2h-24.6
			c-22.2,0-43.3,7-61,20.2l-8.3,6.2h-51.9c-27.5,0-49.8,22.4-49.8,49.8v114.2c-0.5,0.1-0.9,0.1-1.4,0.2c0,0,0,0,0,0
			c-0.1,0-0.3,0-0.4,0.1c0,0,0,0,0,0c-0.3,0-0.6,0.1-0.9,0.1c0,0,0,0-0.1,0c-0.1,0-0.2,0-0.3,0.1c-0.1,0-0.1,0-0.2,0
			c-0.1,0-0.1,0-0.2,0c-0.1,0-0.2,0-0.3,0c0,0-0.1,0-0.1,0c-6.1,1.1-11.9,3-17.3,5.9L51.4,131.9L51.4,131.9z M378.9,164.9h-80.5
			c-17.4,0-31.6,14.2-31.6,31.6v49.2h-21.4v-49.2c0-17.4-14.2-31.6-31.6-31.6h-80.5c-17.4,0-31.6,14.2-31.6,31.6v49.2h-8.9V131.9
			c0-16.5,13.4-29.8,29.8-29.8h55.2c2.2,0,4.3-0.7,6-2l11-8.2c14.2-10.6,31.2-16.3,49.1-16.3h24.6c17.9,0,34.8,5.6,49.1,16.3l11,8.2
			c1.7,1.3,3.8,2,6,2h55.2c16.5,0,29.8,13.4,29.8,29.8v113.9h-8.9v-49.2C410.5,179.1,396.3,164.9,378.9,164.9z M390.5,196.6v49.2
			H286.7v-49.2c0-6.4,5.2-11.6,11.6-11.6h80.5C385.3,184.9,390.5,190.2,390.5,196.6z M225.3,196.6v49.2H121.5v-49.2
			c0-6.4,5.2-11.6,11.6-11.6h80.5C220.1,184.9,225.3,190.2,225.3,196.6z M40.2,314h315c5.5,0,10-4.5,10-10s-4.5-10-10-10H41.6
			c3.8-13.6,15-24.2,28.9-27.3c0,0,0,0,0.1,0c0.1,0,0.3-0.1,0.4-0.1c0.1,0,0.1,0,0.2,0c0.1,0,0.2,0,0.3-0.1c0.1,0,0.2,0,0.2,0
			c0.1,0,0.2,0,0.2,0c0.2,0,0.3-0.1,0.5-0.1c0,0,0,0,0,0c0.3-0.1,0.7-0.1,1-0.2c0,0,0,0,0,0c0.2,0,0.3,0,0.5-0.1c0,0,0.1,0,0.1,0
			c0.1,0,0.3,0,0.4,0c0,0,0.1,0,0.1,0c0.1,0,0.3,0,0.4,0c0,0,0.1,0,0.1,0c0.1,0,0.3,0,0.4,0c0,0,0.1,0,0.1,0c0.1,0,0.3,0,0.4,0
			c0,0,0.1,0,0.1,0c0.1,0,0.2,0,0.4,0c0.1,0,0.1,0,0.2,0c0.1,0,0.2,0,0.4,0c0.1,0,0.1,0,0.2,0c0.1,0,0.2,0,0.4,0c0.1,0,0.1,0,0.2,0
			c0.1,0,0.3,0,0.4,0c0,0,0.1,0,0.1,0c0.2,0,0.3,0,0.5,0h354.4c0.2,0,0.3,0,0.5,0c0,0,0.1,0,0.1,0c0.1,0,0.3,0,0.4,0
			c0.1,0,0.1,0,0.2,0c0.1,0,0.2,0,0.4,0c0.1,0,0.1,0,0.2,0c0.1,0,0.2,0,0.4,0c0.1,0,0.1,0,0.2,0c0.1,0,0.2,0,0.4,0c0,0,0.1,0,0.1,0
			c0.1,0,0.3,0,0.4,0c0,0,0.1,0,0.1,0c0.1,0,0.3,0,0.4,0c0,0,0.1,0,0.1,0c0.1,0,0.3,0,0.4,0c0,0,0.1,0,0.1,0c0.1,0,0.3,0,0.4,0
			c0,0,0.1,0,0.1,0c0.2,0,0.3,0,0.5,0.1c0,0,0,0,0,0c0.3,0,0.7,0.1,1,0.2c0,0,0,0,0,0c0.2,0,0.3,0.1,0.5,0.1c0.1,0,0.2,0,0.2,0
			c0.1,0,0.2,0,0.3,0c0.1,0,0.2,0,0.3,0.1c0.1,0,0.1,0,0.2,0c0.1,0,0.3,0.1,0.4,0.1c0,0,0,0,0.1,0c17.3,3.8,30.4,19.3,30.4,37.7
			v65.1H40.2V314z M98.6,477.5H78.2l-8.4-30.4h28.8V477.5z M433.9,477.5h-20.4v-30.4h28.8L433.9,477.5z M492,427.1H20v-37.6h472
			V427.1z"/>
	</g>
</g>
</svg>
