<?xml version="1.0" encoding="utf-8"?>
<!-- Generator: Adobe Illustrator 21.0.0, SVG Export Plug-In . SVG Version: 6.00 Build 0)  -->
<svg version="1.1" id="Layer_1" xmlns="http://www.w3.org/2000/svg" xmlns:xlink="http://www.w3.org/1999/xlink" x="0px" y="0px"
	 viewBox="0 0 64 64" style="enable-background:new 0 0 64 64;" xml:space="preserve">
<style type="text/css">
	.st0{fill:#564A46;}
</style>
<path class="st0" d="M62.8,60.9h-1.7c-1.5,0-3,0-4.6,0c-0.2,0-0.4,0-0.6,0l0-0.9l0-2.6c0-6.1-3.2-10.6-8.9-12.7l-2.2-0.8
	c-1.7-0.6-3.5-1.3-5.2-1.9c-0.5-0.2-0.7-0.4-0.8-1.1c-0.4-2.2,0.4-3.5,2.4-4.2c0.2-0.1,0.3-0.2,0.5-0.2l0.1-0.1
	c2.3-1.3,3.6-3.4,3.7-6.2c0-0.6,0-1.2,0-1.8c0-0.7,0-1.3,0-2c0-0.1,0.2-0.4,0.3-0.5c2.3-1.3,3.7-3.3,4.1-5.7
	c0.3-2.3-0.5-4.7-2.3-6.5c-1-1-2-2-3-3c-1.4-1.4-2.9-2.9-4.3-4.3c-0.3-0.3-0.5-0.6-0.7-1C39.4,5,39.2,4.7,39,4.5
	c-0.2-0.3-0.4-0.6-0.6-0.9c-0.5-0.8-1.1-1.6-1.9-2.2c-3.3-2.7-7.9-2.3-11.2,1c-2.2,2.1-4.3,4.3-6.5,6.5l-0.5,0.5
	c-2.5,2.5-3.8,5.5-3.8,8.7c0,3.1,1.3,6,3.8,8.5c0.9,0.9,1.2,1.6,1.1,2.7c-0.2,3.6,1.3,6.1,4.3,7.4c2,0.9,2.7,2,2.4,4.1
	c-0.1,0.8-0.3,1.1-0.9,1.3c-2.6,0.9-5.3,1.9-8.1,3c-5.1,2-8.2,6.6-8.2,12c0,1,0,1.9,0,3l0,0.9l-1.7,0c-1.6,0-3.2,0-4.7,0
	c-1.7,0-2.5,0.6-2.5,1.7c0,0.5,0.1,0.9,0.4,1.2c0.4,0.4,1.1,0.6,2.2,0.6l51.8,0c1,0,1.9,0,2.9,0c1.8,0,3.6,0,5.3,0
	c0.7,0,1.3-0.2,1.7-0.6c0.3-0.3,0.4-0.7,0.4-1.2C64.8,62,64.4,60.9,62.8,60.9z M24.4,26.1c2-1.8,3.9-3.8,5.8-5.7
	c0.8-0.8,1.6-1.6,2.4-2.4c0.1-0.1,0.2-0.2,0.4-0.4l1.5,1.6c1.6,1.6,3.2,3.2,4.8,4.8c0.4,0.4,0.9,0.8,1.4,1.1
	c0.3,0.2,0.6,0.4,0.9,0.7c0.2,0.2,0.3,0.4,0.3,0.4c0.1,1.4,0.1,2.6,0,3.7c-0.1,1.5-0.7,2.6-1.9,3.3l-1.5,0.8
	c-1.6,0.9-3.1,1.8-4.7,2.7c-1,0.6-1.8,0.6-2.8,0c-2.1-1.3-4.3-2.5-6.1-3.5c-1.2-0.7-1.8-1.7-1.9-3.3c0-0.1,0-0.2,0-0.3
	C22.8,28.4,23.2,27.3,24.4,26.1z M35.5,15.1c0.2-0.2,0.5-0.5,0.7-0.7c1.2-1.2,2.4-2.4,3.1-4.2c0.1,0.1,0.1,0.1,0.2,0.2l1.4,1.4
	c1.4,1.4,2.8,2.8,4.1,4.2c0.9,1,1.4,2.1,1.4,3.2c-0.1,1.1-0.6,2.2-1.7,3.1c-0.6,0.5-1.4,0.8-2,0.2c-1.8-1.8-3.6-3.6-5.4-5.5
	L35.5,15.1z M31.4,7c-0.6,0.6-1.1,1.2-1.7,1.7c-0.4,0.4-0.9,0.9-1.3,1.3c-0.5,0.5-0.8,1.1-0.8,1.6c0,0.4,0.2,0.8,0.6,1.2
	c0.8,0.7,1.7,0.6,2.7-0.3c0.2-0.2,0.4-0.4,0.6-0.6c0.2-0.2,0.4-0.4,0.6-0.6l0.1-0.1c1.5-1.5,3.1-3,3.7-5.3c0.5,1,0.5,2.4,0,3.5
	c-0.3,0.5-0.6,1-1,1.4c-3.7,3.7-7.4,7.4-11.1,11.2l-2.4,2.4c0,0,0,0,0,0c-1.8-1.4-2.9-3.4-3.2-5.7c-0.3-2.3,0.4-4.4,1.9-6.1
	c2-2.2,4.2-4.3,6.3-6.4c0.6-0.6,1.3-1.2,1.9-1.9c0.9-0.9,2-1.3,3.6-1.3c0,0,0.1,0,0.1,0c0.6,0,0.7,0.1,0.7,0.7
	C32.6,5.1,32.2,6.2,31.4,7z M48.1,56.1c0-3.4-2.1-5.5-5.5-5.5c-0.7,0-1.4,0-2.1,0l-3,0c-1.2,0-1.9,0.6-1.9,1.7
	c0,1.1,0.7,1.8,1.9,1.8c1.1,0,2.2,0,3.2,0c0.6,0,1.2,0,1.7,0c1.7,0,2.2,0.5,2.2,2.2l0,3.3l0,1.2H20.3c0-0.4,0-0.9,0-1.3
	c0-1.4,0-2.8,0-4.2c0-0.9,0.8-1.2,1.5-1.2c1.1,0,2.2,0,3.2,0l1.8,0c0.3,0,0.5,0,0.8,0c1-0.2,1.6-0.8,1.5-1.8c0-1-0.7-1.6-1.7-1.7
	l-1.2,0c-1.7,0-3.4,0-5,0c-2.4,0.1-4.4,2.2-4.5,4.7c0,1.1,0,2.2,0,3.3c0,0.5,0,0.9,0,1.4l0,0.7h-4.2l0-0.3c-0.1-3.5-0.2-6.9,2.2-9.7
	c1.1-1.3,2.5-2.2,4.3-2.9l7.3-2.7c2.6-0.9,3.3-1.9,3.3-4.7l0-0.6c1.9,0.9,3.7,0.9,5.6,0c0,0.4,0,0.7,0,1c0,2.3,0.9,3.4,3,4.2
	c1.1,0.4,2.3,0.8,3.4,1.2c1.4,0.5,2.8,1,4.2,1.5c4.3,1.6,6.5,4.7,6.6,9.3c0,0.9,0,1.8,0,2.7l0,0.8h-4.2l0-1.1
	C48.1,58.5,48.2,57.3,48.1,56.1z"/>
<path class="st0" d="M33.8,51.1c-0.4-0.3-0.8-0.5-1.2-0.4c-1,0.1-1.6,0.8-1.6,1.7c0,0.9,0.6,1.5,1.6,1.7l0,0h0c1,0,1.8-0.7,1.8-1.7
	C34.4,51.9,34.2,51.5,33.8,51.1z"/>
<path class="st0" d="M35.3,30.9c-0.4-0.7-1-1-1.7-0.8c-0.8,0.2-1.6,0.2-2.2,0c-0.7-0.2-1.4,0.1-1.8,0.8c-0.5,0.8-0.3,1.8,0.5,2.3
	c0.4,0.2,0.7,0.4,1,0.5c0.4,0.2,0.9,0.3,1.3,0.3c0.4,0,0.8-0.1,1.2-0.2h0c0.3-0.1,0.7-0.3,1.1-0.5c0.4-0.2,0.7-0.6,0.8-1
	C35.7,31.8,35.6,31.3,35.3,30.9z"/>
<path class="st0" d="M26.5,13L26.5,13c-0.6,0-1.1,0.2-1.4,0.5c-0.3,0.3-0.5,0.7-0.5,1.1c0,1,0.6,1.7,1.6,1.8c0.1,0,0.1,0,0.2,0
	c0.4,0,0.8-0.2,1.1-0.4c0.3-0.3,0.5-0.8,0.5-1.3C28,13.7,27.4,13.1,26.5,13z"/>
<path class="st0" d="M14.4,31.2L14.4,31.2c-0.1-0.3-0.5-0.7-1.1-1.6c-0.1-0.1-0.1-0.1-0.2-0.2c-0.1-0.1-0.1-0.2-0.2-0.3L12.8,29
	h-0.1c-0.5-0.9-0.3-1.6,0.5-2.6l0.2-0.2c0.2-0.2,0.4-0.5,0.6-0.8c0.5-0.9,0.4-1.7-0.4-2.3c-0.7-0.6-1.6-0.5-2.3,0.2
	c-2.4,2.4-2.9,4.9-1.7,7.3c0.3,0.7,0.8,1.3,1.4,2c0.9,1.1,1.1,2,0.4,3.1c-0.6,1-0.4,1.9,0.4,2.5c0.3,0.2,0.6,0.3,0.9,0.3
	c0.1,0,0.2,0,0.3,0c0.5-0.1,1-0.4,1.4-1C15.6,35.6,15.7,33.4,14.4,31.2z"/>
<path class="st0" d="M5.3,36.3c-0.1-0.3-0.5-0.7-1.1-1.6c-0.1-0.1-0.1-0.1-0.2-0.2C4,34.4,4,34.3,3.9,34.2L3.8,34l0,0
	c-0.5-0.9-0.4-1.6,0.5-2.7l0.2-0.2c0.2-0.2,0.4-0.5,0.6-0.8c0.5-0.9,0.4-1.7-0.4-2.3c-0.7-0.6-1.6-0.5-2.3,0.2
	c-2.4,2.4-2.9,4.9-1.7,7.3c0.3,0.7,0.8,1.3,1.4,2c0.9,1.1,1.1,2,0.4,3.1c-0.6,1-0.4,1.9,0.4,2.5c0.3,0.2,0.6,0.3,0.9,0.3
	c0.1,0,0.2,0,0.3,0c0.5-0.1,1-0.4,1.4-1C6.6,40.6,6.6,38.4,5.3,36.3z"/>
<path class="st0" d="M64,31.3c-0.1-0.3-0.5-0.7-1.1-1.6c-0.1-0.1-0.1-0.1-0.2-0.2c-0.1-0.1-0.1-0.2-0.2-0.3l-0.1-0.2h0
	c-0.5-0.9-0.3-1.6,0.5-2.6l0.2-0.2c0.2-0.2,0.4-0.5,0.6-0.8c0.5-0.9,0.4-1.7-0.4-2.3c-0.7-0.6-1.6-0.5-2.3,0.2
	c-2.4,2.4-2.9,4.9-1.7,7.3c0.3,0.7,0.8,1.3,1.4,2c0.9,1.1,1.1,2,0.4,3.1c-0.6,1-0.4,1.9,0.4,2.5c0.3,0.2,0.6,0.3,0.9,0.3
	c0.1,0,0.2,0,0.3,0c0.5-0.1,1-0.4,1.4-1C65.3,35.7,65.3,33.5,64,31.3z"/>
<path class="st0" d="M55,36.4c-0.1-0.3-0.5-0.7-1.1-1.6c-0.1-0.1-0.1-0.1-0.2-0.2c-0.1-0.1-0.1-0.2-0.2-0.3l-0.1-0.2l-0.1,0
	c-0.5-0.9-0.3-1.6,0.5-2.6l0.2-0.2c0.2-0.3,0.4-0.5,0.6-0.8c0.5-0.9,0.4-1.7-0.4-2.3c-0.7-0.6-1.6-0.5-2.3,0.2
	c-2.4,2.4-2.9,4.9-1.7,7.3c0.3,0.7,0.8,1.3,1.4,2c0.9,1.1,1.1,2,0.4,3.1c-0.6,1-0.4,1.9,0.4,2.5c0.3,0.2,0.6,0.3,0.9,0.3
	c0.1,0,0.2,0,0.3,0c0.5-0.1,1-0.4,1.4-1C56.3,40.7,56.3,38.5,55,36.4z"/>
</svg>
