<?xml version="1.0" encoding="utf-8"?>
<!-- Generator: Adobe Illustrator 21.0.0, SVG Export Plug-In . SVG Version: 6.00 Build 0)  -->
<svg version="1.1" id="Шар_1" xmlns="http://www.w3.org/2000/svg" xmlns:xlink="http://www.w3.org/1999/xlink" x="0px" y="0px"
	 viewBox="0 0 470 470" style="enable-background:new 0 0 470 470;" xml:space="preserve">
<style type="text/css">
	.st0{fill:#564A46;}
</style>
<path class="st0" d="M430.9,225.1h-73.8c-0.8-34.6-5.5-68.9-13.8-99.6h46.7c5.5,0,9.9-4.4,9.9-9.9c0-5.5-4.4-9.9-9.9-9.9h-52.8
	c-8.1-23.9-18.2-44.4-30-61c-1.5-2.2-3.8-3.6-6.4-4c-2.6-0.4-5.2,0.2-7.4,1.7c-2.2,1.5-3.6,3.8-4,6.4c-0.4,2.6,0.2,5.2,1.7,7.4
	c9.7,13.6,18.2,30.2,25.2,49.5h-71V39.6c0-5.5-4.4-9.9-9.9-9.9c-5.5,0-9.9,4.4-9.9,9.9v66.1h-71c7-19.3,15.5-35.9,25.2-49.5
	c1.5-2.2,2.1-4.8,1.7-7.4c-0.4-2.6-1.9-4.9-4-6.4c-4.4-3.2-10.6-2.1-13.8,2.3c-11.8,16.6-21.9,37.1-30,61H80.9
	c-5.5,0-9.9,4.4-9.9,9.9c0,5.5,4.4,9.9,9.9,9.9h46.7c-8.3,30.7-13,65-13.8,99.6H40.1c-5.5,0-9.9,4.4-9.9,9.9s4.4,9.9,9.9,9.9h73.8
	c0.8,34.6,5.5,68.9,13.8,99.6H80.9c-5.5,0-9.9,4.4-9.9,9.9s4.4,9.9,9.9,9.9h52.8c8.1,23.9,18.2,44.4,30,61c1.9,2.6,4.9,4.1,8.1,4.1
	c2.1,0,4.1-0.6,5.7-1.8c4.4-3.2,5.5-9.4,2.3-13.8c-9.7-13.6-18.2-30.2-25.2-49.5h71v66.1c0,5.5,4.4,9.9,9.9,9.9
	c5.5,0,9.9-4.4,9.9-9.9v-66.1h71c-7,19.3-15.5,35.9-25.2,49.5c-3.2,4.4-2.1,10.6,2.3,13.8c1.7,1.2,3.7,1.8,5.7,1.8
	c3.2,0,6.2-1.5,8.1-4.1c11.8-16.6,21.9-37.1,30-61h52.8c5.5,0,9.9-4.4,9.9-9.9s-4.4-9.9-9.9-9.9h-46.7c8.3-30.7,13-65,13.8-99.6
	h73.8c5.5,0,9.9-4.4,9.9-9.9C440.8,229.5,436.4,225.1,430.9,225.1z M337.3,244.9c-0.8,35-5.8,69.3-14.5,99.6h-77.4v-99.6H337.3z
	 M245.4,225.1v-99.6h77.4c8.7,30.3,13.7,64.6,14.5,99.6H245.4z M225.6,244.9v99.6h-77.4c-8.7-30.3-13.7-64.6-14.5-99.6H225.6z
	 M133.7,225.1c0.8-35,5.8-69.3,14.5-99.6h77.4v99.6H133.7z"/>
<path class="st0" d="M401.7,68.8C357.3,24.4,298.3,0,235.5,0S113.7,24.4,69.3,68.8S0.5,172.2,0.5,235c0,45.8,13.2,90.1,38.1,128.3
	l-28,84.1c-1.2,3.6-0.3,7.5,2.4,10.1c2.7,2.7,6.5,3.6,10.1,2.4l84.1-28c38.2,24.9,82.5,38.1,128.3,38.1
	c62.8,0,121.8-24.4,166.2-68.8c44.4-44.4,68.8-103.4,68.8-166.2C470.5,172.2,446.1,113.2,401.7,68.8z M235.5,450.2
	c-43.5,0-85.5-12.9-121.3-37.4c-1.7-1.1-3.6-1.7-5.6-1.7c-1.1,0-2.1,0.2-3.1,0.5l-69.9,23.3L58.9,365c1-2.9,0.5-6.2-1.2-8.7
	C33.2,320.5,20.3,278.5,20.3,235c0-118.7,96.5-215.2,215.2-215.2c118.7,0,215.2,96.5,215.2,215.2
	C450.7,353.7,354.2,450.2,235.5,450.2z"/>
</svg>
