<?xml version="1.0" encoding="utf-8"?>
<!-- Generator: Adobe Illustrator 21.0.0, SVG Export Plug-In . SVG Version: 6.00 Build 0)  -->
<svg version="1.1" id="Шар_1" xmlns="http://www.w3.org/2000/svg" xmlns:xlink="http://www.w3.org/1999/xlink" x="0px" y="0px"
	 viewBox="0 0 470 470" style="enable-background:new 0 0 470 470;" xml:space="preserve">
<style type="text/css">
	.st0{fill:#FF7000;}
</style>
<g>
	<path class="st0" d="M472,310.7h-2H472V159.2c0-4.2-2.8-7.9-6.8-9.1l-68-20.2c5.4-13.7,8.1-26.3,8.1-37.4
		c0-52.1-42.4-94.5-94.5-94.5s-94.5,42.4-94.5,94.5c0,11.1,2.7,23.7,8.1,37.4l-65.3,19.4l-149-44.2c-2.9-0.8-6-0.3-8.4,1.5
		s-3.8,4.6-3.8,7.6v303.3c0,4.2,2.8,7.9,6.8,9.1l151.6,45l0.3,0.1c0.3,0.1,0.6,0.2,1,0.2c0.1,0,0.2,0,0.3,0c0.9,0.1,1.6,0.1,2.4,0
		c0.1,0,0.2,0,0.3,0c0.3-0.1,0.7-0.1,1-0.2c0.1,0,0.1,0,0.2-0.1c0,0,0.1,0,145.8-43.3c2,0.7,4.2,0.7,6.3,0l145.8,43.3
		c0.9,0.3,1.8,0.4,2.7,0.4c2,0,4.1-0.7,5.7-1.9c2.4-1.8,3.8-4.6,3.8-7.6L472,310.7z M310.8,348.1c-5.2,0-9.5,4.3-9.5,9.5v52.8
		l-132.7,39.4V317.9l132.7-39.4v49c0,5.2,4.3,9.5,9.5,9.5s9.5-4.3,9.5-9.5v-49L453,317.9v131.8l-132.7-39.4v-52.8
		C320.3,352.4,316.1,348.1,310.8,348.1z M245.5,131c-6.7-14.6-10.1-27.6-10.1-38.5c0-41.6,33.9-75.5,75.5-75.5s75.5,33.9,75.5,75.5
		c0,10.9-3.4,23.9-10.2,38.5c-0.3,0.6-0.6,1.2-0.9,1.8c-17.3,36.4-49.8,73.4-64.5,89.2c-14.7-15.8-47.2-52.8-64.4-89.1
		C246.2,132.3,245.9,131.6,245.5,131z M168.7,298.1V166.3l63.8-18.9c21.3,41.5,57.4,80.4,68.9,92.4v19L168.7,298.1z M453,166.3
		v131.8l-132.7-39.4v-19c11.5-11.9,47.6-50.9,68.9-92.4L453,166.3z M78.1,286.8c0.7-2.4,0.5-5-0.8-7.2c-1.2-2.2-3.2-3.9-5.6-4.6
		L17,258.7V126.9l132.7,39.4v131.8l-49.2-14.6c-2.4-0.7-5-0.5-7.2,0.8c-2.2,1.2-3.9,3.2-4.6,5.6s-0.5,5,0.8,7.2s3.2,3.9,5.6,4.6
		l54.7,16.2v131.8L17,410.4V278.6l49.2,14.6c0.9,0.3,1.8,0.4,2.7,0.4C73.1,293.6,76.9,290.8,78.1,286.8z"/>
	<path class="st0" d="M365.3,92.5c0-30.1-24.4-54.5-54.5-54.5s-54.5,24.4-54.5,54.5s24.4,54.5,54.5,54.5S365.3,122.6,365.3,92.5z
		 M346.3,92.5c0,19.6-15.9,35.5-35.5,35.5s-35.5-15.9-35.5-35.5s16-35.5,35.5-35.5S346.3,72.9,346.3,92.5z"/>
</g>
</svg>
