<?xml version="1.0" encoding="utf-8"?>
<!-- Generator: Adobe Illustrator 21.0.0, SVG Export Plug-In . SVG Version: 6.00 Build 0)  -->
<svg version="1.1" id="Capa_1" xmlns="http://www.w3.org/2000/svg" xmlns:xlink="http://www.w3.org/1999/xlink" x="0px" y="0px"
	 viewBox="0 0 294.8 294.8" style="enable-background:new 0 0 294.8 294.8;" xml:space="preserve">
<style type="text/css">
	.st0{fill:#C9C9C9;}
</style>
<g>
	<path class="st0" d="M31.2,56.7c-50,64.1-38.6,156.9,25.5,206.9s156.9,38.6,206.9-25.5c34-43.6,40.8-101.9,17.8-152.3
		c-1.4-3-4.9-4.3-8-3c-3,1.4-4.3,4.9-3,8c21.2,46.2,14.9,99.8-16.3,139.9c-45.9,58.9-131.2,69.4-190.1,23.5S-5.3,123,40.7,64.1
		S171.9-5.3,230.7,40.7c2.6,2,6.4,1.6,8.4-1c2-2.6,1.6-6.4-1-8.4C174-18.8,81.2-7.4,31.2,56.7z"/>
	<path class="st0" d="M91.6,70c-2.7,1.9-3.3,5.7-1.4,8.4c1.9,2.7,5.7,3.3,8.4,1.4c29.9-21.6,71.1-20.8,100.1,1.9
		c36.3,28.3,42.8,80.8,14.5,117.1s-80.8,42.8-117.1,14.5c-17.6-13.7-28.7-33.4-31.5-55.6c-0.4-3.3-3.4-5.6-6.7-5.2
		c-3.3,0.4-5.6,3.4-5.2,6.7c3.1,25.3,15.9,47.9,36,63.5c41.5,32.4,101.6,25,133.9-16.5s25-101.6-16.5-133.9
		c-16.6-13-36.5-20-57.5-20.2C128.2,51.8,108,58.2,91.6,70z"/>
	<path class="st0" d="M77.4,93l-3.2-25.7c-0.4-3.3-3.4-5.6-6.7-5.2c-3.3,0.4-5.6,3.4-5.2,6.7l3.9,31.7c0.2,1.6,1,3,2.3,4
		c1.3,1,2.8,1.4,4.4,1.2l31.7-3.9c3.3-0.4,5.6-3.4,5.2-6.7c-0.4-3.3-3.4-5.6-6.7-5.2L77.4,93z"/>
</g>
</svg>
