<svg xmlns="http://www.w3.org/2000/svg" viewBox="0 0 512 512"><defs><style>.cls-1{fill:#fff;}</style></defs><title>text cloud</title><g id="Шар_2" data-name="Шар 2"><g id="Capa_1" data-name="Capa 1"><path class="cls-1" d="M256.54,0C135.25,0,29,85.87,5.37,205c-1.07,7.51-2.15,14-3.22,20.39A283.56,283.56,0,0,0,0,256.54c0,62.17,21.79,119.79,61.17,166.22A132.69,132.69,0,0,1,15,457.26c-8.59,4.29-11.81,12.88-8.59,21.47,2.39,4.77,6,7.77,10.26,9a164.14,164.14,0,0,0,77.76,20,158.15,158.15,0,0,0,65.2-13.53C189.94,506.35,221.22,512,254.39,512,395,512,509.85,397.15,512,255.46,512,114.85,397.15,0,256.54,0Z"/></g></g></svg>