<?xml version="1.0" standalone="no"?>
<!DOCTYPE svg PUBLIC "-//W3C//DTD SVG 20010904//EN"
 "http://www.w3.org/TR/2001/REC-SVG-20010904/DTD/svg10.dtd">
<svg version="1.0" xmlns="http://www.w3.org/2000/svg"
 width="70.000000pt" height="70.000000pt" viewBox="0 0 70.000000 70.000000"
 preserveAspectRatio="xMidYMid meet">
<metadata>
Created by potrace 1.11, written by Peter Selinger 2001-2013
</metadata>
<g transform="translate(0.000000,70.000000) scale(0.100000,-0.100000)"
fill="#000000" stroke="none">
<path d="M258 614 c-37 -39 -69 -70 -71 -68 -2 2 -4 -2 -4 -10 0 -8 3 -14 6
-13 3 1 6 0 6 -3 0 -10 30 -38 37 -34 4 2 9 -5 13 -16 3 -11 13 -20 21 -20 8
0 13 -4 10 -8 -3 -5 6 -15 19 -22 13 -7 22 -16 20 -20 -3 -4 4 -10 15 -13 11
-3 20 -1 20 5 0 5 5 6 10 3 6 -3 10 -1 10 6 0 7 27 39 60 71 l60 60 -22 26
c-12 15 -46 47 -74 72 -28 25 -49 48 -48 51 2 3 -2 5 -9 5 -7 0 -42 -33 -79
-72z m112 -44 c16 -16 30 -33 30 -37 0 -5 -13 -20 -30 -35 -16 -14 -26 -29
-22 -34 4 -4 -6 2 -22 15 -56 41 -59 54 -24 90 17 17 32 31 34 31 2 0 17 -13
34 -30z"/>
<path d="M176 513 c-11 -3 -55 -41 -98 -85 -61 -61 -78 -84 -73 -99 4 -10 12
-19 20 -19 8 0 17 -9 20 -20 3 -11 12 -20 18 -20 7 -1 25 -18 42 -38 26 -34
65 -51 65 -29 0 5 22 30 48 55 41 40 46 50 38 67 -15 28 -36 25 -75 -12 l-33
-32 -29 27 c-16 15 -29 33 -29 40 0 14 69 82 83 82 15 0 87 -81 88 -98 0 -11
2 -12 6 -4 2 6 9 10 14 6 17 -10 9 -35 -23 -67 -18 -17 -32 -36 -30 -42 2 -5
0 -7 -4 -3 -7 8 -56 -42 -51 -54 3 -9 158 -168 164 -168 3 0 32 28 66 62 34
35 65 62 69 60 5 -1 8 3 8 9 0 7 8 17 17 24 15 12 14 15 -14 44 -17 17 -29 31
-25 31 3 0 -14 18 -38 40 -39 35 -43 42 -30 53 8 6 30 29 48 50 17 21 32 34
32 30 0 -4 5 0 11 10 14 24 30 21 63 -13 16 -17 33 -30 37 -30 22 0 -17 -65
-55 -92 -2 -2 -17 12 -33 30 -39 44 -66 48 -80 11 -11 -28 -7 -34 20 -30 4 0
7 -3 7 -8 0 -14 57 -71 64 -64 3 3 6 -1 6 -10 0 -29 17 -19 95 57 47 47 73 79
69 88 -4 7 -44 48 -89 91 -81 77 -82 77 -103 58 -12 -10 -22 -23 -22 -29 0 -6
-6 -9 -14 -6 -8 3 -17 0 -22 -7 -5 -8 -3 -10 5 -4 10 5 10 3 0 -13 -7 -11 -18
-18 -25 -15 -6 2 -14 -6 -18 -19 -8 -29 -56 -67 -56 -44 0 8 -9 18 -20 21 -11
3 -20 14 -20 22 0 9 -3 13 -6 10 -9 -9 -95 84 -88 94 3 5 4 8 2 8 -2 -1 -12
-4 -22 -6z m202 -290 c20 -21 37 -43 37 -49 0 -12 -65 -84 -75 -84 -3 0 -25
18 -49 40 l-43 40 44 44 c24 25 44 45 46 45 1 1 19 -16 40 -36z"/>
</g>
</svg>
