<svg xmlns="http://www.w3.org/2000/svg" xmlns:xlink="http://www.w3.org/1999/xlink" viewBox="0 0 86 104.1"><defs><style>.cls-1,.cls-6{fill:#ff9100;}.cls-2,.cls-7{fill:#ff6c00;}.cls-3{fill:#d8dada;}.cls-4{fill:#c6c8ca;}.cls-5{fill:#fff;}.cls-6,.cls-7{opacity:0.4;isolation:isolate;}.cls-8{fill:url(#Градієнт_без_назви_85);}</style><linearGradient id="Градієнт_без_назви_85" x1="43.05" y1="58.09" x2="42.96" y2="28.24" gradientUnits="userSpaceOnUse"><stop offset="0" stop-color="#792c08"/><stop offset="1" stop-color="#a43a00"/></linearGradient></defs><title>1</title><g id="Шар_2" data-name="Шар 2"><g id="Шар_1-2" data-name="Шар 1"><path class="cls-1" d="M43,0A43.06,43.06,0,0,0,0,43C0,54.8,8.1,67.9,17.3,79L74.9,14.2A43,43,0,0,0,43,0Z"/><path class="cls-2" d="M17.3,78.9A190.41,190.41,0,0,0,43,104S86,70.2,86,42.9A43.23,43.23,0,0,0,74.9,14.1Z"/><path class="cls-3" d="M27.2,67.8A29.5,29.5,0,0,0,65.9,24.3Z"/><path class="cls-4" d="M43,13.4A29.49,29.49,0,0,0,27.2,67.8L65.9,24.3A29.32,29.32,0,0,0,43,13.4Z"/><circle class="cls-5" cx="43" cy="42.9" r="27"/><path class="cls-6" d="M74.9,14.2l-2.3,2.5A39.1,39.1,0,0,1,82.5,43c0,10.3-7.1,23.6-20.5,38.4A205.28,205.28,0,0,1,43,99.7,199.87,199.87,0,0,1,19.9,76.8l-.3-.4L17.3,79A190.41,190.41,0,0,0,43,104.1S86,70.3,86,43A42.55,42.55,0,0,0,74.9,14.2Z"/><path class="cls-7" d="M3.4,43a39.58,39.58,0,0,1,69-26.5l.2.3,2.3-2.5A43,43,0,0,0,0,43C0,54.8,8.1,67.9,17.3,79l2.3-2.6C9,63.6,3.4,52,3.4,43Z"/><circle class="cls-8" cx="43" cy="42.9" r="14.92"/></g></g></svg>