<?xml version="1.0" encoding="utf-8"?>
<!-- Generator: Adobe Illustrator 21.0.0, SVG Export Plug-In . SVG Version: 6.00 Build 0)  -->
<svg version="1.1" id="Шар_1" xmlns="http://www.w3.org/2000/svg" xmlns:xlink="http://www.w3.org/1999/xlink" x="0px" y="0px"
	 viewBox="0 0 86 104.1" style="enable-background:new 0 0 86 104.1;" xml:space="preserve">
<style type="text/css">
	.st0{fill:url(#SVGID_1_);}
	.st1{fill:url(#SVGID_2_);}
	.st2{fill:#D8DADA;}
	.st3{fill:#C6C8CA;}
	.st4{fill:#FFFFFF;}
	.st5{opacity:0.4;fill:#591804;enable-background:new    ;}
	.st6{fill:url(#SVGID_3_);}
</style>
<title>1</title>
<linearGradient id="SVGID_1_" gradientUnits="userSpaceOnUse" x1="52.6402" y1="53.1704" x2="-6.553295e-02" y2="-4.719279e-02">
	<stop  offset="0" style="stop-color:#792C08"/>
	<stop  offset="1" style="stop-color:#A43A00"/>
</linearGradient>
<path class="st0" d="M43,0C19.3,0,0,19.3,0,43c0,11.8,8.1,24.9,17.3,36l57.6-64.8C66.8,5.2,55.2,0,43,0z"/>
<linearGradient id="SVGID_2_" gradientUnits="userSpaceOnUse" x1="17.3" y1="59.05" x2="86" y2="59.05">
	<stop  offset="0" style="stop-color:#792C08"/>
	<stop  offset="1" style="stop-color:#A43A00"/>
</linearGradient>
<path class="st1" d="M17.3,78.9C25.1,88.1,33.7,96.5,43,104c0,0,43-33.8,43-61.1c0-10.6-4-20.9-11.1-28.8L17.3,78.9z"/>
<path class="st2" d="M27.2,67.8c13.8,8.7,32,4.6,40.7-9.1c6.8-10.7,6-24.5-2-34.4L27.2,67.8z"/>
<path class="st3" d="M43,13.4c-16.3,0-29.5,13.2-29.5,29.5c0,10.1,5.2,19.5,13.7,24.9l38.7-43.5C60.3,17.4,51.9,13.4,43,13.4z"/>
<circle class="st4" cx="43" cy="42.9" r="27"/>
<path class="st5" d="M74.9,14.2l-2.3,2.5c6.4,7.2,10,16.6,9.9,26.3c0,10.3-7.1,23.6-20.5,38.4C56.1,87.9,49.7,94,43,99.7
	c-8.3-7-16-14.7-23.1-22.9l-0.3-0.4L17.3,79c7.8,9.2,16.4,17.6,25.7,25.1c0,0,43-33.8,43-61.1C86,32.3,82.1,22.1,74.9,14.2z"/>
<path class="st5" d="M3.4,43C3.4,21.1,21.1,3.4,43,3.4c11.2,0,21.9,4.8,29.4,13.1l0.2,0.3l2.3-2.5C59-3.3,31.8-4.7,14.2,11.2
	C5.2,19.4,0,30.9,0,43c0,11.8,8.1,24.9,17.3,36l2.3-2.6C9,63.6,3.4,52,3.4,43z"/>
<linearGradient id="SVGID_3_" gradientUnits="userSpaceOnUse" x1="43.0458" y1="47.91" x2="42.9558" y2="77.7499" gradientTransform="matrix(1 0 0 -1 0 106)">
	<stop  offset="0" style="stop-color:#792C08"/>
	<stop  offset="1" style="stop-color:#A43A00"/>
</linearGradient>
<circle class="st6" cx="43" cy="42.9" r="14.9"/>
</svg>
