<?xml version="1.0" encoding="utf-8"?>
<!-- Generator: Adobe Illustrator 21.0.0, SVG Export Plug-In . SVG Version: 6.00 Build 0)  -->
<svg version="1.1" id="Layer_1" xmlns="http://www.w3.org/2000/svg" xmlns:xlink="http://www.w3.org/1999/xlink" x="0px" y="0px"
	 viewBox="0 0 512 512" style="enable-background:new 0 0 512 512;" xml:space="preserve">
<style type="text/css">
	.st0{fill:#564A46;}
</style>
<g>
	<g>
		<g>
			<circle class="st0" cx="382.6" cy="300" r="6.8"/>
		</g>
	</g>
	<g>
		<g>
			<circle class="st0" cx="123" cy="300" r="6.8"/>
		</g>
	</g>
	<g>
		<g>
			<path class="st0" d="M418.5,405H360l-0.4-167.6c0-3.8-3.1-6.8-6.8-6.8l0,0c-3.8,0-6.8,3.1-6.8,6.8l0.4,167.6h-19.8l-0.2-74.6
				c0-3.8-3.1-6.8-6.8-6.8l0,0c-3.8,0-6.8,3.1-6.8,6.8l0.2,74.5h-16.6v-90.3c19.3-1.7,34.5-17.6,34.5-36.8v-66.1
				c0-10.5-2.2-20.8-6.5-30.3c13.5,0.9,26,6.4,35.7,15.7c10.6,10.2,16.4,23.7,16.4,38.2l0.1,38.8c0,3.8,3.1,6.8,6.8,6.8l0,0
				c3.8,0,6.8-3.1,6.8-6.8l-0.1-38.8c0-18.1-7.3-35.2-20.6-48c-7.6-7.3-16.5-12.7-26.3-16c6.9-6.6,11.3-15.9,11.2-26.2
				c0-19.9-16.2-36-36.1-36h-0.1c-5.8,0-11.5,1.4-16.6,4.1c-3.3,1.7-4.6,5.9-2.9,9.2c1.7,3.3,5.9,4.6,9.2,2.9
				c3.2-1.7,6.7-2.5,10.3-2.5c12.4,0,22.5,10,22.5,22.4s-10,22.5-22.4,22.5c-0.3,0-0.6,0-0.9,0.1c-0.4,0-0.7,0-1.1,0
				c-9.9-13.5-23.7-23.3-39.4-28.2c8.4-7.3,13.7-18.1,13.7-30.1c0-22.1-18-40-40-40c-22.1,0-40,18-40,40c0,12.6,5.8,23.8,14.9,31.1
				c-14.5,5.2-27.1,14.6-36.3,27.2c-1.1,0-2.2-0.1-3.2-0.1c-0.5,0-1,0-1.5,0c-0.1,0-0.2,0-0.4,0c-12.4,0-22.4-10.1-22.4-22.4
				c0-12.4,10.1-22.4,22.4-22.4c3.7,0,7.4,0.9,10.7,2.7c3.3,1.8,7.5,0.6,9.3-2.7c1.8-3.3,0.6-7.5-2.7-9.3
				c-5.3-2.9-11.2-4.4-17.2-4.4c-19.9,0-36.1,16.2-36.1,36.1c0,10.8,4.8,20.6,12.4,27.2c-25.8,9.9-44.1,34.5-44.1,63v38.7
				c0,3.8,3.1,6.8,6.8,6.8s6.8-3.1,6.8-6.8v-38.7c0-28.3,22.6-51.6,51.2-53.9c-4.2,9.5-6.5,19.8-6.5,30.3V278
				c0,19.6,15.8,35.8,35.6,36.9V405h-18.6v-74.6c0-3.8-3.1-6.8-6.8-6.8c-3.8,0-6.8,3.1-6.8,6.8V405h-16.8V237.4
				c0-3.8-3.1-6.8-6.8-6.8c-3.8,0-6.8,3.1-6.8,6.8V405H93.5c-3.8,0-6.8,3.1-6.8,6.8c0,3.8,3.1,6.8,6.8,6.8h325
				c3.8,0,6.8-3.1,6.8-6.8C425.3,408,422.3,405,418.5,405z M224.2,109.4c0-14.5,11.8-26.4,26.4-26.4c14.5,0,26.4,11.8,26.4,26.4
				s-11.8,26.4-26.4,26.4S224.2,124,224.2,109.4z M289.5,207.2c-3.8,0-6.8,3.1-6.8,6.8v191h-24.3v-94.9c0-3.8-3.1-6.8-6.8-6.8
				s-6.8,3.1-6.8,6.8V405H224V214c0-3.8-3.1-6.8-6.8-6.8s-6.8,3.1-6.8,6.8v87.1c-12.3-1.1-22-11.1-22-23.2v-66.1
				c0-11.8,3.4-23.3,9.9-33.2c11.9-18.2,32.3-29.1,54.5-29.1c22.3,0,42.7,10.9,54.6,29.1c6.5,9.9,9.9,21.4,9.9,33.2v66.1
				c0,11.8-9.1,21.5-20.8,23.1v-87C296.3,210.3,293.2,207.2,289.5,207.2z"/>
		</g>
	</g>
</g>
</svg>
