<?xml version="1.0" encoding="utf-8"?>
<!-- Generator: Adobe Illustrator 21.0.0, SVG Export Plug-In . SVG Version: 6.00 Build 0)  -->
<svg version="1.1" id="Layer_1" xmlns="http://www.w3.org/2000/svg" xmlns:xlink="http://www.w3.org/1999/xlink" x="0px" y="0px"
	 viewBox="0 0 271.1 271.1" style="enable-background:new 0 0 271.1 271.1;" xml:space="preserve">
<style type="text/css">
	.st0{fill:#211F1E;}
	.st1{fill:#FF8400;}
</style>
<g transform="translate(-1)">
	<g>
		<g>
			<path class="st0" d="M182.5,101.4c-23.6,0-42.7,19.1-42.7,42.7s19.1,42.7,42.7,42.7s42.7-19.1,42.7-42.7
				C225.1,120.5,206,101.4,182.5,101.4z M182.5,178.2c-18.9,0-34.1-15.3-34.1-34.1s15.3-34.1,34.1-34.1s34.1,15.3,34.1,34.1
				C216.6,162.9,201.3,178.2,182.5,178.2z"/>
			<path class="st0" d="M191.1,123.5L191.1,123.5c-4.7-1.7-10.1-0.5-13.6,3.1c-3.5,3.6-4.5,9-2.6,13.7c-6.1,3.2-8.6,10.7-5.5,16.9
				c3,6.2,10.4,8.9,16.7,6.1c6.3-2.8,9.2-10.1,6.6-16.5c4.5-2.4,7.1-7.1,6.8-12.2C199.2,129.6,195.9,125.2,191.1,123.5z M184.9,153
				L184.9,153c-0.7,1.8-2.5,3-4.4,2.8c-1.9-0.2-3.5-1.6-3.8-3.5s0.6-3.8,2.4-4.6c0.6-0.3,1.2-0.4,1.8-0.4c1.4,0,2.7,0.7,3.5,1.8
				S185.4,151.7,184.9,153z M190.8,137c-0.8,2.2-3.3,3.4-5.5,2.6c-2.2-0.8-3.4-3.3-2.6-5.5c0.8-2.2,3.3-3.4,5.5-2.5
				C190.4,132.3,191.6,134.8,190.8,137z"/>
			<path class="st0" d="M252.8,120.8c13.9-23,14.4-51.8,1.1-75.3s-38.1-38-65-38c-27.6,0-53,15.3-66,39.7
				c-10.9-8-23.9-12.8-37.4-13.8c-0.1,0-0.2,0-0.2,0c-1.7-0.1-3.5-0.2-5.2-0.2c-36.8,0.1-67.7,27.6-72,64.2c0,0.1,0,0.2-0.1,0.4
				c-4.4,38.2,22,73.2,60,79.5c4.7,38.9,32.1,71.4,69.7,82.5c37.6,11.1,78.2-1.3,103.3-31.5C266,197.9,270.6,155.7,252.8,120.8z
				 M128.4,55.5c9.7-22,30.6-37.1,54.6-39.3c24-2.2,47.2,8.9,60.7,28.8c13.5,19.9,15.1,45.6,4.1,67.1c-3.5-5.4-7.5-10.4-12-15.1
				c7.6-10.2,8.5-23.9,2.2-35c-6.3-11.1-18.5-17.4-31.2-16s-23.3,10.1-27.1,22.2c-19.3-2.9-39.1,0.1-56.7,8.6
				C123.6,69.5,125.4,62.3,128.4,55.5z M222.6,67.5c-3.1-5.4-9.5-7.8-15.4-5.7c-2.2,0.8-3.4,3.2-2.6,5.4s3.2,3.4,5.4,2.6
				c1.8-0.6,3.8,0,4.9,1.6c1.1,1.6,1,3.7-0.2,5.2c-1.2,1.5-3.3,2-5,1.2c-0.1,0-0.3-0.1-0.4-0.1c-6.7-3.4-13.8-6-21.2-7.7
				c3.1-8.6,10.8-14.6,19.9-15.4s17.8,3.6,22.4,11.5s4.2,17.7-0.9,25.2l0,0c-3.1-2.7-6.4-5.2-9.9-7.5
				C224.4,79.7,225.6,72.9,222.6,67.5z M78.4,41.7c-5.6,9.9-12.6,18.8-20.9,26.6c-11.3,11-25,19.2-40,24.2
				C23.6,63.5,48.8,42.6,78.4,41.7z M67.3,165.4c0,1,0,2,0.1,3c-29.8-6.1-51.3-32.3-51.3-62.7c0-1.4,0.1-2.7,0.2-4
				c17.7-4.9,33.9-14.3,47-27.1c10-9.3,18.2-20.2,24.5-32.4c11.5,1.4,22.4,5.9,31.6,13.1c-3.3,8.4-5,17.4-5.1,26.5
				c-1.2,0.7-2.4,1.5-3.5,2.3c-9.8-8.3-23.4-10.5-35.2-5.6s-19.9,16.1-20.9,28.9c-1,12.8,5.3,25.1,16.3,31.7
				C68.5,147.6,67.3,156.5,67.3,165.4z M63.2,107.3c0.9-9.1,6.7-17,15-20.7s18.1-2.7,25.5,2.7c-2.5,2-4.9,4.1-7.1,6.4
				c-3.6-2.8-8.4-3.5-12.7-1.8s-7.3,5.6-7.9,10.1s1.2,9.1,4.9,11.8c-2.8,4.8-5.2,9.7-7.2,14.9C66.2,125.3,62.2,116.4,63.2,107.3z
				 M90.6,101.9c-1.8,2.1-3.5,4.3-5.1,6.6c-1.4-1.5-1.6-3.9-0.3-5.5S88.8,100.9,90.6,101.9z M165.4,255c-49.5,0-89.6-40.1-89.6-89.6
				s40.1-89.6,89.6-89.6s89.6,40.1,89.6,89.6C255,214.8,214.9,254.9,165.4,255z"/>
		</g>
	</g>
</g>
<path class="st1" d="M75.3,104c0.6-4.5,3.6-8.4,7.9-10.1c4.2-1.7,9.1-1,12.7,1.8c2.3-2.2,4.7-4.4,7.1-6.4
	c-7.4-5.4-17.1-6.4-25.5-2.7c-8.4,3.7-14.1,11.6-15,20.7c-0.9,9.1,3.1,18,10.5,23.3c2-5.2,4.4-10.1,7.2-14.9
	C76.5,113,74.6,108.5,75.3,104z"/>
<path class="st1" d="M84.5,103.1c-1.3,1.7-1.2,4,0.3,5.5c1.6-2.3,3.3-4.5,5.1-6.6C88.1,101,85.8,101.4,84.5,103.1z"/>
<path class="st1" d="M180.2,147.4c-0.6,0-1.2,0.1-1.8,0.4c-1.8,0.8-2.7,2.7-2.4,4.6c0.3,1.9,1.9,3.3,3.8,3.5c1.9,0.2,3.7-1,4.4-2.8
	c0.5-1.3,0.3-2.8-0.5-3.9S181.6,147.4,180.2,147.4z"/>
<path class="st1" d="M219,83.7c3.5,2.3,6.8,4.8,9.9,7.5c5.2-7.5,5.5-17.3,0.9-25.2c-4.6-7.9-13.3-12.3-22.4-11.5
	c-9.1,0.8-16.8,6.8-19.9,15.4c7.3,1.7,14.4,4.3,21.2,7.7c0.1,0,0.3,0.1,0.4,0.1c1.8,0.8,3.8,0.3,5-1.2c1.2-1.5,1.3-3.6,0.2-5.2
	c-1.1-1.6-3.1-2.2-4.9-1.6c-2.2,0.8-4.6-0.4-5.4-2.6s0.4-4.7,2.6-5.4c5.8-2.1,12.3,0.4,15.4,5.7C225,73,223.7,79.8,219,83.7z"/>
<path class="st1" d="M181.8,109.6c-18.9,0-34.1,15.3-34.1,34.1s15.3,34.1,34.1,34.1c18.8,0,34.1-15.3,34.1-34.1
	C215.9,124.9,200.7,109.6,181.8,109.6z M192.1,146.5c2.6,6.4-0.3,13.7-6.6,16.5c-6.3,2.8-13.7,0.1-16.7-6.1
	c-3-6.2-0.6-13.7,5.5-16.9c-1.9-4.7-0.9-10,2.6-13.7c3.5-3.6,8.8-4.9,13.6-3.1c4.7,1.7,8,6.1,8.4,11.1
	C199.2,139.4,196.5,144.1,192.1,146.5z"/>
<ellipse transform="matrix(0.3419 -0.9397 0.9397 0.3419 -4.9769 264.0797)" class="st1" cx="186.1" cy="135.6" rx="4.3" ry="4.3"/>
</svg>
