<?xml version="1.0" encoding="utf-8"?>
<!-- Generator: Adobe Illustrator 21.0.0, SVG Export Plug-In . SVG Version: 6.00 Build 0)  -->
<svg version="1.1" id="Layer_1" xmlns="http://www.w3.org/2000/svg" xmlns:xlink="http://www.w3.org/1999/xlink" x="0px" y="0px"
	 viewBox="0 0 271.1 271.1" style="enable-background:new 0 0 271.1 271.1;" xml:space="preserve">
<style type="text/css">
	.st0{fill:#211F1E;}
	.st1{fill:#FF8400;}
</style>
<g>
	<g>
		<g>
			<path class="st0" d="M259.8,102.1h-19.4c-2.4,0-4.3,1.9-4.3,4.3v2.7h-4.5c0-0.8,0.1-1.7,0.1-2.5c0,0,0,0,0-0.1c0-0.1,0-0.2,0-0.3
				c0-19.3-48.2-29.4-95.8-29.4S40,86.9,40,106.2c0,0.1,0,0.2,0,0.3c0,0,0,0,0,0.1c0,0.8,0,1.7,0.1,2.5h-4.6v-2.7
				c0-2.4-1.9-4.3-4.3-4.3H11.8c-8.5,0-11.5,5.4-11.5,10.4v1.8c0,5,3,10.4,11.5,10.4h19.4c2.4,0,4.3-1.9,4.3-4.3v-2.7h5.2
				c2.6,21.2,12.2,40.8,27.6,56.1c8.6,8.5,18.5,15.2,29.4,19.9l-24.1,51.2c-1,2.1-0.1,4.7,2.1,5.7c0.6,0.3,1.2,0.4,1.8,0.4
				c1.6,0,3.1-0.9,3.9-2.5l24.4-51.8c8.5,2.8,17.5,4.4,26.7,4.7v64.8c0,2.4,1.9,4.3,4.3,4.3c2.4,0,4.3-1.9,4.3-4.3v-64.9
				c9.1-0.5,18-2.3,26.4-5.2l24.7,52.4c0.7,1.6,2.3,2.5,3.9,2.5c0.6,0,1.2-0.1,1.8-0.4c2.1-1,3.1-3.6,2.1-5.7L175.4,193
				c12.6-5.7,23.9-14.1,33.1-24.9c1.5-1.8,1.3-4.5-0.5-6c-1.8-1.5-4.5-1.3-6,0.5c-15.5,18-37.5,28.9-61,30.3v-19.1
				c0-2.4-1.9-4.3-4.3-4.3c-2.4,0-4.3,1.9-4.3,4.3v19.2c-41.6-1.6-76.1-32.7-82.7-73c1.5,0.9,3.1,1.8,4.9,2.7
				c0.2,0.1,0.4,0.2,0.6,0.3c18,8.4,49.4,12.8,80.6,12.8c34.6,0,69.6-5.4,86.1-15.7c-1.8,11.2-5.8,21.9-11.8,31.5
				c-1.2,2-0.6,4.7,1.4,5.9c2,1.2,4.7,0.6,5.9-1.4c7.2-11.7,11.8-24.7,13.5-38.3h5.2v2.7c0,2.4,1.9,4.3,4.3,4.3h19.4
				c8.5,0,11.5-5.4,11.5-10.4v-1.8C271.3,107.5,268.2,102.1,259.8,102.1z M27,116.1L27,116.1H11.8c-2.9,0-2.9-0.8-2.9-1.8v-1.8
				c0-1.1,0-1.8,2.9-1.8H27V116.1z M201.7,93.3c4.6,1.4,8.4,2.8,11.4,4.2l-4.9,4.8h-15.8L201.7,93.3z M192,90.8l-11.9,11.5h-15.8
				l14.4-14C183.4,89,187.8,89.8,192,90.8z M167.8,87L152,102.3h-15.8l17-16.5C158.2,86.1,163.1,86.5,167.8,87z M135.8,85.4
				c1.8,0,3.7,0,5.5,0l-17.4,16.9h-15.8l17.3-16.8C128.8,85.4,132.3,85.4,135.8,85.4z M94.7,88.1c5.6-0.8,11.6-1.4,17.7-1.9
				l-16.6,16.1H80L94.7,88.1z M72.2,92.6c2.3-0.6,4.8-1.2,7.3-1.8l-11.9,11.5H50.9C54.2,99.2,61.1,95.6,72.2,92.6z M56,113.7
				c-1.7-1-3.2-1.9-4.3-2.8h7.2L56,113.7z M72.2,119.9c-2.9-0.8-5.5-1.6-7.8-2.5l6.7-6.5H87L76.5,121
				C75.1,120.6,73.6,120.3,72.2,119.9z M100.6,125.1c-4.8-0.6-9.5-1.2-13.9-2l12.6-12.2h15.8l-13.7,13.3
				C101,124.5,100.8,124.8,100.6,125.1z M126.6,127c-5.1-0.1-10.1-0.4-15-0.8l15.8-15.3h15.8L126.6,127z M138.8,127.1l16.7-16.2
				h15.8l-16.1,15.6C149.8,126.8,144.3,127,138.8,127.1z M188.8,121.2c-0.4,0.4-0.7,0.9-1,1.4c-6,1.2-12.4,2.1-19.2,2.8l15-14.5
				h15.8L188.8,121.2z M203.7,118.6l8-7.7h8.3C216.9,113.4,211.6,116.1,203.7,118.6z M220.5,102.3l0.1-0.1c0,0,0.1,0.1,0.1,0.1
				H220.5z M262.7,114.3c0,1.1,0,1.8-2.9,1.8h-15.1v-5.4h15.1c2.9,0,2.9,0.8,2.9,1.8V114.3z"/>
			<path class="st0" d="M84.8,64c-1.7,1.6-1.8,4.3-0.1,6.1c0.8,0.9,2,1.3,3.1,1.3c1.1,0,2.1-0.4,3-1.2c5.2-4.9,11.9-17.9,0.3-31.5
				c-3.8-4.5-5.1-8.9-3.8-13c1-3.2,3.3-5.2,3.4-5.3c1.8-1.5,2-4.2,0.5-6c-1.5-1.8-4.2-2-6-0.5c-0.6,0.5-6.2,5.4-6.8,13.5
				c-0.5,5.7,1.7,11.4,6.3,16.8C93.5,54.8,85.7,63.1,84.8,64z"/>
			<path class="st0" d="M117.5,51.2c-1.7,1.6-1.8,4.3-0.1,6.1c0.8,0.9,2,1.3,3.1,1.3c1.1,0,2.1-0.4,3-1.2
				c5.2-4.9,11.9-17.9,0.3-31.5c-3.8-4.5-5.1-8.9-3.8-13c1-3.2,3.3-5.2,3.4-5.3c1.8-1.5,2-4.2,0.5-6c-1.5-1.8-4.2-2-6-0.5
				c-0.6,0.5-6.2,5.4-6.8,13.5c-0.5,5.7,1.7,11.4,6.3,16.8C126.2,42.1,118.4,50.4,117.5,51.2z"/>
			<path class="st0" d="M150.1,51.2c-1.7,1.6-1.8,4.3-0.1,6.1c0.8,0.9,2,1.3,3.1,1.3c1.1,0,2.1-0.4,3-1.2
				c5.2-4.9,11.9-17.9,0.3-31.5c-3.8-4.5-5.1-8.9-3.8-13c1-3.2,3.3-5.2,3.4-5.3c1.8-1.5,2-4.2,0.5-6c-1.5-1.8-4.2-2-6-0.5
				c-0.6,0.5-6.2,5.4-6.8,13.5c-0.5,5.7,1.7,11.4,6.3,16.8C158.8,42.1,151,50.4,150.1,51.2z"/>
			<path class="st0" d="M182.7,64c-1.7,1.6-1.8,4.3-0.1,6.1c0.8,0.9,2,1.3,3.1,1.3c1.1,0,2.1-0.4,3-1.2c5.2-4.9,11.9-17.9,0.3-31.5
				c-3.8-4.5-5.1-8.9-3.8-13c1-3.2,3.3-5.2,3.4-5.3c1.8-1.5,2-4.2,0.5-6c-1.5-1.8-4.2-2-6-0.5c-0.6,0.5-6.2,5.4-6.8,13.5
				c-0.5,5.7,1.7,11.4,6.3,16.8C191.5,54.8,183.6,63.1,182.7,64z"/>
		</g>
	</g>
</g>
<path class="st1" d="M123.7,102.3l17.4-16.9c-1.8,0-3.6,0-5.5,0c-3.5,0-7,0.1-10.4,0.2l-17.3,16.8H123.7z"/>
<path class="st1" d="M112.2,86.2c-6.2,0.5-12.1,1.1-17.7,1.9l-14.6,14.2h15.8L112.2,86.2z"/>
<path class="st1" d="M79.4,90.8c-2.5,0.6-5,1.2-7.3,1.8c-11.1,3.1-18.1,6.6-21.4,9.7h16.8L79.4,90.8z"/>
<path class="st1" d="M55.8,113.7l2.9-2.8h-7.2C52.6,111.8,54,112.7,55.8,113.7z"/>
<path class="st1" d="M71,110.9l-6.7,6.5c2.3,0.8,4.9,1.7,7.8,2.5c1.4,0.4,2.8,0.8,4.3,1.1l10.4-10.1H71z"/>
<path class="st1" d="M213,97.5c-3.1-1.4-6.8-2.9-11.4-4.2l-9.3,9H208L213,97.5z"/>
<path class="st1" d="M179.9,102.3l11.9-11.5c-4.2-0.9-8.6-1.7-13.3-2.4l-14.4,14H179.9z"/>
<path class="st1" d="M151.8,102.3L167.6,87c-4.7-0.5-9.6-0.9-14.6-1.1l-17,16.5H151.8z"/>
<path class="st1" d="M99.1,110.9l-12.6,12.2c4.4,0.8,9.1,1.5,13.9,2c0.2-0.3,0.4-0.6,0.7-0.9l13.7-13.3H99.1z"/>
<path class="st1" d="M203.5,118.6c7.9-2.5,13.2-5.2,16.2-7.7h-8.3L203.5,118.6z"/>
<path class="st1" d="M222.3,102.3h0.2c0,0-0.1-0.1-0.1-0.1L222.3,102.3z"/>
<path class="st1" d="M127.2,110.9l-15.8,15.3c4.9,0.4,9.9,0.6,15,0.8l16.6-16.1H127.2z"/>
<path class="st1" d="M155.3,110.9l-16.7,16.2c5.6,0,11-0.2,16.4-0.6l16.1-15.6H155.3z"/>
<path class="st1" d="M168.4,125.4c6.8-0.7,13.2-1.7,19.2-2.8c0.2-0.5,0.5-1,1-1.4l10.6-10.3h-15.8L168.4,125.4z"/>
</svg>
