<?xml version="1.0" encoding="utf-8"?>
<!-- Generator: Adobe Illustrator 21.0.0, SVG Export Plug-In . SVG Version: 6.00 Build 0)  -->
<svg version="1.1" id="Layer_1" xmlns="http://www.w3.org/2000/svg" xmlns:xlink="http://www.w3.org/1999/xlink" x="0px" y="0px"
	 viewBox="0 0 271.1 271.1" style="enable-background:new 0 0 271.1 271.1;" xml:space="preserve">
<style type="text/css">
	.st0{fill:#211F1E;}
	.st1{fill:#FF8400;}
</style>
<g>
	<g>
		<path class="st0" d="M136.2,3.1C63,3.1,3.5,62.7,3.5,135.9S63,268.6,136.2,268.6S269,209.1,269,135.9S209.4,3.1,136.2,3.1z
			 M136.2,256C70,256,16.1,202.1,16.1,135.9S70,15.7,136.2,15.7s120.1,53.9,120.1,120.1S202.5,256,136.2,256z"/>
	</g>
</g>
<g>
	<g>
		<path class="st0" d="M204.5,55.6c-0.1-1.8-1-3.5-2.4-4.6c-19-14.8-41.8-22.6-65.9-22.6C77,28.4,28.7,76.6,28.7,135.9
			c0,24.1,7.8,46.9,22.6,65.9c1.1,1.4,2.8,2.3,4.6,2.4c0.1,0,0.3,0,0.4,0c1.7,0,3.3-0.7,4.5-1.9L202.7,60.5
			C204,59.2,204.6,57.4,204.5,55.6z M57.1,188.1c-10.3-15.5-15.7-33.4-15.7-52.3c0-52.3,42.5-94.8,94.8-94.8
			c18.8,0,36.8,5.4,52.3,15.7L57.1,188.1z"/>
	</g>
</g>
<g>
	<g>
		<path class="st0" d="M221.1,70c-1.1-1.4-2.8-2.3-4.6-2.4c-1.8-0.1-3.6,0.6-4.9,1.8L69.8,211.3c-1.3,1.3-2,3.1-1.8,4.9
			c0.1,1.8,1,3.5,2.4,4.6c19,14.8,41.8,22.6,65.9,22.6c59.3,0,107.5-48.2,107.5-107.5C243.7,111.8,235.9,89,221.1,70z M136.2,230.7
			c-18.8,0-36.8-5.4-52.3-15.7L215.3,83.6c10.3,15.5,15.7,33.4,15.7,52.3C231.1,188.2,188.5,230.7,136.2,230.7z"/>
	</g>
</g>
<path class="st1" d="M41.4,135.9c0,18.8,5.4,36.8,15.7,52.3L188.5,56.8C173,46.5,155.1,41,136.2,41C83.9,41,41.4,83.6,41.4,135.9z"
	/>
<path class="st1" d="M84,215c15.5,10.3,33.4,15.7,52.3,15.7c52.3,0,94.8-42.5,94.8-94.8c0-18.8-5.4-36.8-15.7-52.3L84,215z"/>
</svg>
