<?xml version="1.0" encoding="utf-8"?>
<!-- Generator: Adobe Illustrator 21.0.0, SVG Export Plug-In . SVG Version: 6.00 Build 0)  -->
<svg version="1.1" id="Layer_1" xmlns="http://www.w3.org/2000/svg" xmlns:xlink="http://www.w3.org/1999/xlink" x="0px" y="0px"
	 viewBox="0 0 512 512" style="enable-background:new 0 0 512 512;" xml:space="preserve">
<style type="text/css">
	.st0{fill:#564A46;}
</style>
<g>
	<g>
		<path class="st0" d="M415.8,370.8c5.8,11.1,6.9,22.4,2.9,34.2c-1.9,5.5-5.1,8-11,8c-12.4,0.1-22.8-4.4-31.7-13.5
			c-8.5,8.8-18.5,13.5-30.5,13.5c-8,0-9.8-1.3-12.4-8.9c-2.9-8.7-2.5-17.5,0-27.2c-2.7,0-4.9,0-7.1,0c-55.7,0-111.4,0-167,0
			c-9.6,0-10.2-0.5-12.4-10.1c-16-70.7-32-141.4-48-212.2c-1.9-8.3,0.4-11.1,9-11.1c15.3,0,30.6,0,45.9,0c1.9,0,3.8-0.2,6.5-0.3
			c-1.9-11.3-3.7-22.1-5.4-32.9c-2.7-17.1,7.8-33.2,24.3-37.7c16.5-4.4,34.3,4.2,39.7,20.5c3.2,9.7,4.2,20.1,6,30.3
			c0.9,4.9,1.9,9.8,2.3,14.7c0.3,4.4,2.3,5.5,6.5,5.5c30.1-0.1,60.1-0.1,90.2-0.1c23.3,0,46.6,0,69.9,0c8.6,0,10.8,2.9,9,11.3
			c-5.7,25.1-11.4,50.3-17,75.4c-0.3,1.5-0.5,3.1-0.8,5.1c3.4,0.3,6.6,0.4,9.6,1c15.8,3.1,26.5,13.2,34.2,26.6
			c7.3,12.7,10.6,26.7,10.9,41.3c0.1,5.5-2.3,8.6-6.6,8.5c-5-0.2-6.6-3.5-6.8-7.9c-0.3-12.1-2.8-23.6-8.7-34.3
			c-7.8-14.2-18.9-22.7-36.1-21.7c-8.8,0.5-17.7,0.1-27.1,0.1c3.8,5.7,7.9,10.4,10.4,15.9c3.3,7.2,5.4,15,8.1,22.5
			c0.5,1.5,1.2,3.8,2.3,4.2c14.8,4.3,21.5,15.3,24.9,29.2c0.2,0.7,0.3,1.4,0.5,2.1c0.1,0.3,0.4,0.6,0.9,1.1
			c12.1-1.8,23.4,0.5,33.4,8.4c4.2,3.3,5.4,6.9,3.8,12.1c-3.3,10.4-9.3,18.7-18.8,24.2C418.4,369.2,417.2,369.9,415.8,370.8z
			 M192.2,326.3c0.3,0.2,0.6,0.4,0.8,0.5c0-0.3,0.2-0.7,0.1-1c-6.1-36.4-12.2-72.9-18.1-109.3c-0.5-3-1.9-3.7-4.6-3.7
			c-13.9,0.1-27.7,0-41.6,0.1c-1,0-1.9,0.4-3.2,0.7c11.4,50.1,22.6,100,33.9,149.8c13.4,0,26.3,0,39.9,0c-1.1-7-2.1-13.6-3.4-20.2
			c-0.2-1-2.1-2.1-3.4-2.4c-3.9-1-6.4-3.4-5.4-7.2C187.9,330.9,190.5,328.7,192.2,326.3z M310.1,307.1c-0.4-16.5-3.8-31.6-14-44.5
			c-14.3-18.2-35.3-18.2-49.7-0.1c-18.6,23.3-18.5,64.6,0.2,87.8c14.2,17.6,34.9,17.6,49.1,0.1C306.1,337.6,309.4,322.5,310.1,307.1
			z M220.6,327.1c-0.4-9-1.5-17.8-1.1-26.6c0.9-20,7.4-37.8,21.9-52.3c1.4-1.4,2.3-4,2.4-6c0.3-8.2-0.1-16.4,0.2-24.5
			c0.1-3.7-1.1-4.9-4.8-4.9c-15.6,0.1-31.3,0-46.9,0c-1.2,0-2.4,0.3-3.8,0.5c0.1,1.7,0,3.1,0.3,4.4c5.5,32.8,10.9,65.5,16.5,98.2
			c2.2,12.7,2.3,12.6,14.8,11.4C220.4,327.3,220.7,327.1,220.6,327.1z M329,199.2c2.9,0.2,5.2,0.1,7.5,0.4c3.6,0.6,5.8,2.7,5.8,6.5
			c0,3.8-2.1,6-5.7,6.5c-2.3,0.3-4.6,0-6.9,0.3c-1.2,0.2-3,1.1-3.2,1.9c-1.4,6.7-2.4,13.5-3.6,20.8c15.5,0,30.2,0.1,44.9-0.2
			c1.2,0,3-2.2,3.3-3.6c3.3-13.6,6.3-27.3,9.4-41c2.5-11.2,5-22.4,7.6-33.7c-17.8,0-34.9,0-52.2,0C333.6,171.2,331.4,185,329,199.2z
			 M257.7,199c19.3,0,38.4,0,57.7,0c2.4-14.1,4.7-27.9,7-41.9c-22.1,0-43.5,0-65.2,0c0,13.2,0,26,0,38.7
			C257.2,196.9,257.5,197.9,257.7,199z M320.7,329.9c10.2-6.4,20.2-7.7,30.1-6.1c2.4-6,3.6-12,6.9-16.7c3.3-4.8,3.7-9.3,2.7-14.5
			c-0.7-3.3-1.2-6.7-2.3-9.8c-11.9-33.8-29.1-36.4-54.9-33.2C322.7,272.9,326.4,299.8,320.7,329.9z M178.6,157
			c2.2,13.1,4.4,25.5,6.3,37.9c0.5,3.6,2,4.6,5.5,4.5c16.4-0.2,32.7,0,49.1-0.1c1.4,0,2.7-0.3,4.1-0.4c0-14.2,0-27.9,0-42
			C222,157,200.7,157,178.6,157z M112.9,156.9c3.3,14.6,6.5,28.5,9.6,42.2c17,0,33.1,0,49.7,0c-2.4-14.3-4.8-28.2-7.1-42.2
			C147.4,156.9,130.6,156.9,112.9,156.9z M214.5,143.4c-2.8-15.8-4.9-30.8-8.4-45.4c-2.3-9.6-12.7-14.7-22.4-12.8
			c-9.6,1.9-17,10.7-16,20.3c1.3,11.6,3.5,23.2,5.5,34.7c0.2,1.2,2.1,3,3.3,3C188.9,143.4,201.1,143.4,214.5,143.4z M313,212.8
			c-18.2,0-35.6,0-53,0.1c-1,0-2.7,1.5-2.7,2.3c-0.2,7.4-0.1,14.7-0.1,21.4c9.2-0.4,17.7-0.8,26.2-1c7.3-0.2,14.6,0.1,21.9-0.2
			c1.6-0.1,4.2-1.6,4.5-2.8C311.1,226.4,311.9,220.1,313,212.8z M372.3,370.1c-6.7,1.3-13.1,2.5-19.4,3.9c-1.4,0.3-3.1,1.1-3.9,2.2
			c-4.1,5.7-5.4,12.2-4.4,19.1c0.5,3.3,2.1,4.3,5.5,3.9C363.7,397.5,374.3,383.5,372.3,370.1z M377.3,305.4
			c-14.5,11.2-16.3,32-5,40.1c3.3-4,5.9-8.8,9.9-11.6c5.7-4,5.9-8.7,3.7-13.8C383.7,315.1,380.4,310.5,377.3,305.4z M386.9,365.3
			c-1,6.8-2,13.6-2.9,20.4c-0.1,0.9,0.3,2.1,0.9,2.9c4.6,6.2,10.6,9.9,18.3,10.5c1.3,0.1,3.4-1.2,3.8-2.4
			C411.6,384,399.9,366.4,386.9,365.3z M386.5,349.8c6.2,3,12.3,6,18.5,8.9c1,0.4,2.4,0.4,3.5,0.1c7-2.4,12.4-6.9,15.3-13.9
			c0.5-1.2-0.2-3.9-1.2-4.7C411.5,332.1,391.7,337.8,386.5,349.8z M363,358c-3.4-6.2-6.5-12.1-9.7-17.9c-0.5-1-1.7-1.9-2.7-2.2
			c-7.3-2.2-14.4-1.8-20.9,2.3c-1,0.7-1.8,3.3-1.4,4.5C333.2,357.8,350.8,364.3,363,358z M239,363.5c-4.3-7.2-8.3-14-12.5-20.6
			c-0.6-0.9-1.9-1.8-2.9-1.8c-4.5-0.2-9.1-0.1-14.3-0.1c1.4,8.1,2.6,15.3,3.9,22.5C222.2,363.5,230.5,363.5,239,363.5z M324.2,363.3
			c-3.5-5.4-6.8-10.5-10.2-15.7c-3.7,5.3-7.3,10.3-11.1,15.7C310.4,363.3,317.2,363.3,324.2,363.3z"/>
		<path class="st0" d="M177.9,334.4c-0.5,3.9-2.6,6.1-6.6,6.3c-3.7,0.1-6.9-3.2-6.5-6.9c0.4-3.9,2.8-6.3,6.8-6.1
			C175.5,327.9,177.7,330.4,177.9,334.4z"/>
		<path class="st0" d="M300.6,307.7c-0.3,9.6-3,19.4-9.9,27.6c-5.1,6.1-11.7,9.7-20,9.4c-4.2-0.1-6.9-2.3-7-6.5
			c-0.1-3.9,2.3-6.4,6.3-6.6c6.9-0.4,11.2-4.3,13.8-10.2c5.2-11.6,5-23.2-2.1-34c-5.8-8.8-15.3-9-20.7,0c-3,5-3.9,11.2-5.6,16.9
			c-0.4,1.5,0,3.2-0.2,4.8c-0.4,3.8-2.2,6.5-6.3,6.6c-4.3,0.1-6.7-2.5-6.9-6.5c-0.5-11.5,1.8-22.3,9.3-31.5
			c11.8-14.5,31.1-13.4,41.5,2.1C298.2,288,300.6,297,300.6,307.7z"/>
		<path class="st0" d="M255.1,335.6c-3.6-0.1-6.9-3.5-6.4-7c0.5-3.8,2.8-6.3,6.7-6.1c3.8,0.2,6.1,2.6,6.4,6.5
			C262.2,332.5,258.7,335.7,255.1,335.6z"/>
		<path class="st0" d="M367.2,206.2c-0.5,3.8-2.6,6.2-6.5,6.4c-3.7,0.2-7-3.2-6.6-6.8c0.4-3.9,2.8-6.3,6.7-6.2
			C364.7,199.7,366.9,202.2,367.2,206.2z"/>
		<path class="st0" d="M188.9,114.5c-3.9-0.5-6.2-2.6-6.2-6.6c0-4,2.6-6.1,6.4-6.4c3.5-0.3,6.9,3.3,6.5,6.8
			C195.2,112.2,192.9,114.3,188.9,114.5z"/>
	</g>
</g>
</svg>
