<?xml version="1.0" encoding="utf-8"?>
<!-- Generator: Adobe Illustrator 21.0.0, SVG Export Plug-In . SVG Version: 6.00 Build 0)  -->
<svg version="1.1" id="Layer_1" xmlns="http://www.w3.org/2000/svg" xmlns:xlink="http://www.w3.org/1999/xlink" x="0px" y="0px"
	 viewBox="0 0 271.1 271.1" style="enable-background:new 0 0 271.1 271.1;" xml:space="preserve">
<style type="text/css">
	.st0{fill:#FF8400;}
	.st1{fill:#211F1E;}
</style>
<path class="st0" d="M171,84.9l4-4l-2-11.7l15.3-14l6.3-15l0.8-11.3c0,0-30.5-21.3-52.5-21.7S81.7,20.6,81.7,20.6l-6.3,10.7l7.3,23
	l15.7,16.3l19-18l3.7-0.3L171,84.9z"/>
<polygon class="st0" points="206.3,96.9 176.7,86.6 182,79.4 205,64.9 212.7,74.6 209.3,90.9 "/>
<polygon class="st0" points="63.3,93.9 68.3,85.2 86.4,80.2 66.7,64.9 59.7,69.6 57.3,80.9 "/>
<g>
	<g>
		<path class="st1" d="M143.4,122.9c-2.2,0-4,1.8-4,4v4.6c0,2.2-1.8,4-4,4c-2.2,0-4-1.8-4-4v-4.6c0-2.2-1.8-4-4-4s-4,1.8-4,4v4.6
			c0,6.6,5.3,11.9,11.9,11.9s11.9-5.3,11.9-11.9v-4.6C147.3,124.7,145.6,122.9,143.4,122.9z"/>
	</g>
</g>
<g>
	<g>
		<path class="st1" d="M183.5,109.5c-1.4-1.7-3.9-1.9-5.6-0.5c-6.2,5.2-15.4,5.2-21.6,0c-1.7-1.4-4.2-1.2-5.6,0.5
			c-1.4,1.7-1.2,4.2,0.5,5.6c9.2,7.7,22.6,7.7,31.7,0C184.7,113.6,184.9,111.1,183.5,109.5z"/>
	</g>
</g>
<g>
	<g>
		<path class="st1" d="M120.1,109.5c-1.4-1.7-3.9-1.9-5.6-0.5c-6.2,5.2-15.4,5.2-21.6,0c-1.7-1.4-4.2-1.2-5.6,0.5
			c-1.4,1.7-1.2,4.2,0.5,5.6c4.4,3.7,10.1,5.8,15.9,5.8c5.8,0,11.4-2,15.9-5.8C121.2,113.6,121.5,111.1,120.1,109.5z"/>
	</g>
</g>
<g>
	<g>
		<path class="st1" d="M135.7,149.5c-5.4,0-9.9,4.4-9.9,9.9v4.2c0,5.4,4.4,9.9,9.9,9.9c5.4,0,9.9-4.4,9.9-9.9v-4.2
			C145.5,153.9,141.1,149.5,135.7,149.5z M137.6,163.5c0,1.1-0.9,2-2,2c-1.1,0-2-0.9-2-2v-4.2c0-1.1,0.9-2,2-2c1.1,0,2,0.9,2,2
			V163.5z"/>
	</g>
</g>
<g>
	<g>
		<path class="st1" d="M234.3,231.7c-2.3-8.3-8-15.3-15.6-19.4c-3-1.6-6-3-9.1-4.4c13.7-31.3,24.9-74,22.4-108
			c4-8.6,9.6-14.1,9.1-24.5c0-0.1-1.2-25-1.2-25.1c-0.2-5.3-2-10.4-5.2-14.7c-0.9-1.2-1.4-2.7-1.4-4.3V9.8c0-5-4.1-9.1-9.1-9.1
			h-21.7c-5.7,0-10.3,4.6-10.3,10.3v9.7c-4.3-3.4-8.9-6.5-13.7-9c-1.9-1-4.3-0.3-5.4,1.6c-1,1.9-0.3,4.3,1.6,5.4
			c6.3,3.4,12.1,7.6,17.4,12.5v7.1c-4.2,5.7-3.7,9.4-4.9,11.7c-2.8,5.5-9.2,10.4-13.8,13.7c-7.6,5.5-6.6,13.9-1.4,18.7
			c-18-8-38.1-20.9-51.6-35.5c-2.3-2.5-6.5-2.1-8.2,1c-1.7,3-6.1,10.1-13.5,17c-2.2-2-14.7-9.7-16.1-17.6c-0.6-3.2-2.2-6.4-4.1-9V31
			c22.4-20.6,52.6-27,79.7-19.2c2.1,0.6,4.3-0.6,4.9-2.7c0.6-2.1-0.6-4.3-2.7-4.9c-27.7-8-58.1-2.5-81.9,16.4V11
			c0-5.7-4.6-10.3-10.3-10.3H46.6c-5,0-9.1,4.1-9.1,9.1c-0.4,20.7,1,22.8-1.4,26c-3.2,4.3-5,9.4-5.2,14.8c-0.1,2.2,1.6,4,3.8,4.1
			c2.2,0.1,4-1.6,4.1-3.8c0.4-9.9,6.6-10.4,6.6-19.4V9.8c0-0.7,0.5-1.2,1.2-1.2h21.7c1.3,0,2.4,1.1,2.4,2.4
			c0,35.7-0.9,27.5,2.4,33.1c2.6,4.3,1.3,5.2,3.4,9.4c4.1,7.9,13.5,14.7,16.3,16.5c0.3,0.2,1.4,0.9,1.9,2.1c0.8,1.6-0.4,3.3-0.4,3.2
			c-0.5,0.9-1.2,1.5-2.1,1.8c-2.3,1-4.4,0-6.5-1.1c-7.6-4.2-11.1-8.5-15.6-13c-4.3-4.3-11.6-2.4-13.3,2.7l-3,8.9
			c-2.9,6.6,0.2,10.2,7.3,31.4c0.8,2.3-0.3,4.9-2.5,5.9c-2,0.9-4.4,0.1-5.4-1.8l-6.9-12.7v0c-5-10.3-9.1-13.9-8.7-21.3l0.3-6.1
			c0.1-2.2-1.6-4-3.8-4.1c-2.2-0.1-4,1.6-4.1,3.8l-0.3,6.1c-0.5,10.4,5.1,15.8,9.1,24.5c-2.6,33.9,8.7,76.6,22.4,108
			c-3.1,1.4-6.1,2.8-9.1,4.4c-7.6,4-13.3,11.1-15.6,19.4L30.3,254c-1.1,3.9-0.3,8,2.2,11.3c2.5,3.2,6.2,5.1,10.3,5.1h124.3
			c2.2,0,4-1.8,4-4c0-2.2-1.8-4-4-4H71.5v-19.4c0-2.2-1.8-4-4-4s-4,1.8-4,4v19.4H42.8c-3.3,0-5.7-3.2-4.9-6.4l6.2-22.3
			c1.7-6.2,6-11.4,11.7-14.5c18.1-9.6,39.3-15.2,48.6-17.4c0,0.1,0,3.3,0,3.3c0,2.5,0.6,4.9,1.7,7c2.1,4.1,10.9,14.6,20.6,21.5
			c5.2,3.7,12.3,3.7,17.5,0c7.4-5.3,14.2-12.3,19.4-19.5c2.9-4,3-7.6,2.9-12.3c15.8,3.7,34.1,9.7,48.6,17.4c5.7,3,10,8.3,11.7,14.5
			l6.2,22.3c0.9,3.2-1.5,6.4-4.9,6.4h-20.8v-19.4c0-2.2-1.8-4-4-4c-2.2,0-4,1.8-4,4v19.4h-13.8c-2.2,0-4,1.8-4,4c0,2.2,1.8,4,4,4
			H228c8.6,0,14.8-8.1,12.5-16.4L234.3,231.7z M178.1,69.9c7.1-4.7,16.1-12.6,17.8-21c1.2-6,4.3-6.7,4.3-9.5V11
			c0-1.3,1.1-2.4,2.4-2.4h21.7c0.7,0,1.2,0.5,1.2,1.2v21.6c0,9.3,5.9,8.6,6.6,19.6c0,0.5,0,0.5,0,0.3c0.1,1.2,0.3,6.4,1.2,24.6
			c0.2,3.1-0.6,6.3-2.1,9l-13.5,25c-1.1,1.9-3.4,2.7-5.4,1.8c-2.2-1-3.3-3.6-2.5-5.9l7.7-22c1.1-3.2,0.9-6.5-0.4-9.4
			c0-0.1-3-9-3.2-9.3c-2.4-5.1-9.2-6.3-13.2-2.3c-3,3-2.8,2.9-2.9,3c-6.5,7.2-14.1,10.7-14.4,10.9c-2.5,1.2-5.7,0.8-7.1-2.2
			C175.6,73.3,177.9,70.2,178.1,69.9z M205.7,93.5c-1.8-1.3-9.2-1.6-26-8.2c2.4,0.2,4.8-0.3,6.9-1.3c1-0.4,9.5-4.5,17-12.7
			c2.2-2.1,2.7-3.1,3.1-2.8l3,8.7c0.2,0.5,1.1,2,0.3,4.1L205.7,93.5z M61.2,77.2l3-8.7c0.6-0.6,3.6,4.4,11,10c-4.8,1.4-7,1.4-8,1.9
			c-4.8,2.1-3.4,7.5-3.6,8.7C60.1,79.1,60.2,80.4,61.2,77.2z M104.4,193.9c-6.3,1.4-20.7,4.9-35.9,11c-13.1-29.9-21.3-64-22.1-90.9
			c3.3,5.8,11,8.1,17.2,4c0.7,4.1-4.6,33.2,21,57.9c5.9,5.6,12.5,10.2,19.8,13.5L104.4,193.9L104.4,193.9z M155.4,212
			c-4.5,5.7-9.9,11.1-15.8,15.4c-2.3,1.7-5.4,1.8-7.9,0.3c-5.8-3.5-16.4-14.7-18.6-18.8c-1.2-2.2-0.9-2.6-0.9-16.3
			c14.6,4.8,31.2,4.9,46.3,0C158.5,208.5,159.3,207,155.4,212z M134,188.2C134,188.2,134,188.2,134,188.2L134,188.2
			c-0.1,0-0.1,0-0.1,0v0c-34-0.7-62.4-27.2-62.4-61.1c0-45.9,0-38.7,0-39.7c4.2-0.8,8.3-2.1,12.3-3.7c11.2,5.4,20.1-4,19-12.1
			c7-6.2,11.7-12.7,14.5-16.9c17.4,17.9,48.1,36.7,82.1,45l0,27.4C199.3,162.2,168.7,189.3,134,188.2z M166.5,193.9v-4.5
			c7.3-3.3,13.9-7.9,19.8-13.5c25.6-24.7,20.3-53.7,21-57.9c6.1,4,13.9,1.8,17.2-4c-0.7,26.9-9,61-22.1,90.9
			C187.1,198.8,172.7,195.3,166.5,193.9z"/>
	</g>
</g>
<path class="st0" d="M63.6,117.6c-6.2,4.1-13.9,1.7-17.2-4c0.7,26.9,9,61,22.1,90.9c15.3-6.1,29.7-9.6,35.9-11h0V189
	c-7.3-3.3-13.9-7.9-19.8-13.5C59,150.8,64.3,121.7,63.6,117.6z"/>
<path class="st0" d="M207.2,117.6c-0.7,4.2,4.7,33.2-21,57.9c-5.9,5.6-12.5,10.2-19.8,13.5v4.5c6.2,1.4,20.6,4.9,35.9,11
	c13.1-29.9,21.3-64,22.1-90.9C221.1,119.4,213.4,121.7,207.2,117.6z"/>
</svg>
