<?xml version="1.0" encoding="utf-8"?>
<!-- Generator: Adobe Illustrator 21.0.0, SVG Export Plug-In . SVG Version: 6.00 Build 0)  -->
<svg version="1.1" id="Capa_1" xmlns="http://www.w3.org/2000/svg" xmlns:xlink="http://www.w3.org/1999/xlink" x="0px" y="0px"
	 viewBox="0 0 512 512" style="enable-background:new 0 0 512 512;" xml:space="preserve">
<style type="text/css">
	.st0{fill:#564A46;}
</style>
<g>
	<g>
		<path class="st0" d="M333,164.3c-3.2-2.7-7.9-2.3-10.6,0.9c-2.7,3.2-2.3,7.9,0.9,10.6c23.8,20,37.4,49.2,37.4,80.2
			c0,57.7-47,104.7-104.7,104.7c-57.7,0-104.7-47-104.7-104.7s47-104.7,104.7-104.7c13.5,0,26.6,2.5,38.9,7.5
			c3.8,1.5,8.2-0.4,9.8-4.2c1.5-3.8-0.4-8.2-4.2-9.8c-14.2-5.7-29.1-8.6-44.5-8.6c-66,0-119.7,53.7-119.7,119.7S190,375.7,256,375.7
			S375.7,322,375.7,256C375.7,220.5,360.1,187.1,333,164.3z"/>
	</g>
</g>
<g>
	<g>
		<path class="st0" d="M256,248.5h-8c-9.1,0-16.5-7.4-16.5-16.5s7.4-16.5,16.5-16.5H280c4.1,0,7.5-3.4,7.5-7.5s-3.4-7.5-7.5-7.5
			h-16.5v-8.5c0-4.2-3.4-7.5-7.5-7.5c-4.1,0-7.5,3.4-7.5,7.5v8.5H248c-17.4,0-31.6,14.2-31.6,31.6s14.2,31.6,31.6,31.6h8
			c9.1,0,16.5,7.4,16.5,16.5s-7.4,16.5-16.5,16.5h-32.1c-4.1,0-7.5,3.4-7.5,7.5s3.4,7.5,7.5,7.5h24.5v8.5c0,4.2,3.4,7.5,7.5,7.5
			c4.2,0,7.5-3.4,7.5-7.5v-9.4c13.8-3.4,24-15.8,24-30.7C287.6,262.6,273.4,248.5,256,248.5z"/>
	</g>
</g>
</svg>
