<?xml version="1.0" encoding="utf-8"?>
<!-- Generator: Adobe Illustrator 21.0.0, SVG Export Plug-In . SVG Version: 6.00 Build 0)  -->
<svg version="1.1" id="Layer_1" xmlns="http://www.w3.org/2000/svg" xmlns:xlink="http://www.w3.org/1999/xlink" x="0px" y="0px"
	 viewBox="0 0 271.1 271.1" style="enable-background:new 0 0 271.1 271.1;" xml:space="preserve">
<style type="text/css">
	.st0{fill:#FF8400;}
	.st1{fill:#211F1E;}
</style>
<rect x="5" y="86.2" class="st0" width="259.3" height="24.7"/>
<g>
	<path class="st1" d="M266,116H6.1c-2.2,0-4.1-1.8-4.1-4.1V84C2,81.8,3.8,80,6.1,80h260c2.2,0,4.1,1.8,4.1,4.1v27.9
		C270.1,114.2,268.3,116,266,116z M10.1,107.8H262V88.1H10.1V107.8z"/>
	<path class="st1" d="M27.5,251.6H15.6c-1.2,0-2.3-0.5-3.1-1.5c-0.8-0.9-1.1-2.1-0.9-3.3l23.9-135.6c0.3-1.9,2-3.4,4-3.4h27.8
		c1.3,0,2.5,0.6,3.2,1.6c0.8,1,1,2.3,0.6,3.6L31.4,248.7C30.9,250.4,29.3,251.6,27.5,251.6z M20.4,243.5h4L61.8,116h-19L20.4,243.5z
		"/>
	<path class="st1" d="M249.6,251.6h-11.9c-1.8,0-3.4-1.2-3.9-2.9L194,113c-0.4-1.2-0.1-2.6,0.6-3.6c0.8-1,2-1.6,3.2-1.6h27.8
		c2,0,3.7,1.4,4,3.4l23.9,135.6c0.2,1.2-0.1,2.4-0.9,3.3C251.9,251.1,250.7,251.6,249.6,251.6z M240.7,243.5h4.1L222.3,116h-19
		L240.7,243.5z"/>
	<path class="st1" d="M205.7,142.6H59.4c-2.2,0-4.1-1.8-4.1-4.1s1.8-4.1,4.1-4.1h146.2c2.2,0,4.1,1.8,4.1,4.1
		S207.9,142.6,205.7,142.6z"/>
</g>
</svg>
