<?xml version="1.0" encoding="utf-8"?>
<!-- Generator: Adobe Illustrator 21.0.0, SVG Export Plug-In . SVG Version: 6.00 Build 0)  -->
<svg version="1.1" id="Capa_1" xmlns="http://www.w3.org/2000/svg" xmlns:xlink="http://www.w3.org/1999/xlink" x="0px" y="0px"
	 viewBox="0 0 512 512" style="enable-background:new 0 0 512 512;" xml:space="preserve">
<style type="text/css">
	.st0{fill:#211F1E;}
	.st1{fill:#FF8400;}
</style>
<g>
	<g>
		<path class="st0" d="M504.4,411.5c-31.3,0-47.2,6.5-62.6,12.7l-2,0.8c-3.9,1.6-5.8,6-4.2,9.9c1.2,3,4,4.7,7,4.7
			c1,0,1.9-0.2,2.9-0.6l2-0.8c14.6-6,28.5-11.6,56.8-11.6c4.2,0,7.6-3.4,7.6-7.6C512,414.9,508.6,411.5,504.4,411.5z"/>
	</g>
</g>
<g>
	<g>
		<path class="st0" d="M504.4,380.4c-2.7,0-5.2,0-7.6-0.1v-68.5c8.8-3.1,15.2-11.6,15.2-21.5c0-12.6-10.2-22.8-22.8-22.8H315
			l24.7-24.7l17.1,4.8c3.3,0.9,6.6,1.4,9.9,1.4c6.1,0,12.2-1.6,17.7-4.6c8.7-4.9,14.8-12.8,17.4-22.4c3.1-12-0.3-24.3-8.1-33.1
			l17.9-17.9c3-3,3-7.8,0-10.8c-3-3-7.8-3-10.8,0l-19.5,19.4c-1.7-0.8-3.6-1.5-5.4-2l-89.7-25.3c28.2-10.6,48.4-37.8,48.4-69.7
			c0-41-33.4-74.4-74.4-74.4s-74.4,33.4-74.4,74.4c0,17.7,6.2,33.9,16.5,46.7c-30.9-1.9-59.1,18-67.6,48.1L109,267.4H22.8
			C10.2,267.4,0,277.6,0,290.2c0,12.5,10,22.6,22.4,22.8c10.1,23.4,24.9,44.7,43.3,62.3c-9.9,3-21.8,5.1-39,5.1
			c-6.6,0-12.6-0.3-18.3-0.9C4.2,379,0.5,382,0,386.2c-0.4,4.2,2.6,7.9,6.7,8.4c6.3,0.7,12.8,1,19.9,1c31.3,0,47.2-6.5,62.6-12.8
			c14.6-6,28.5-11.6,56.8-11.6c4.5,0,8.8,0.2,12.8,0.4l-57.7,57.2c-4.1-1.5-8-3-12-4.7c-15.4-6.3-31.2-12.7-62.6-12.7
			c-7.1,0-13.6,0.3-19.9,1c-4.2,0.4-7.2,4.2-6.7,8.4s4.2,7.2,8.4,6.7c5.8-0.6,11.7-0.9,18.3-0.9c28.4,0,42.2,5.6,56.8,11.6
			c15.4,6.3,31.2,12.7,62.6,12.7c31.3,0,47.2-6.5,62.6-12.7c14.6-6,28.5-11.6,56.8-11.6c28.4,0,42.2,5.6,56.8,11.6
			c15.4,6.3,31.2,12.7,62.6,12.7c10.7,0,20.1-0.7,28.9-2.3c4.1-0.7,6.9-4.7,6.2-8.8c-0.7-4.1-4.7-6.9-8.8-6.2
			c-7.9,1.4-16.5,2-26.3,2c-28.4,0-42.2-5.6-56.8-11.6c-15.4-6.3-31.2-12.7-62.6-12.7c-31.3,0-47.2,6.5-62.6,12.7
			c-7.2,3-14.3,5.8-23,8l39.8-39.6c0.9-0.9,1.7-1.8,2.4-2.7c9.8,2.9,23.3,5.7,43.3,5.7c31.4,0,47.2-6.5,62.6-12.8
			c14.6-6,28.5-11.6,56.8-11.6s42.2,5.6,56.8,11.6c15.4,6.3,31.2,12.8,62.6,12.8c4.2,0,7.6-3.4,7.6-7.6S508.6,380.4,504.4,380.4z
			 M293.5,267.4H259l12.1-44.1l51.9,14.6L293.5,267.4z M371.7,192.1c11.3,3.2,18.2,14.8,15.3,25.8c-1.5,5.6-5.1,10.2-10.1,13
			c-4.9,2.7-10.6,3.4-16,1.9l-124.8-35.2l11.4-40.5L371.7,192.1z M315.5,61.7c2.4,6.5,3.8,13.5,3.8,20.8c0,32.7-26.6,59.2-59.2,59.2
			c-21.7,0-40.7-11.7-51-29.1c17.7-7.5,31.1-22.6,36.2-41.2c13.3,3.3,29.7,3.5,44.8,0.4C297.2,70.4,307.7,67.4,315.5,61.7z
			 M200.8,82.5c0-32.7,26.6-59.2,59.2-59.2c19.8,0,37.4,9.8,48.2,24.8c-3.4,3.2-10.5,6.7-21.1,8.9c-14,2.9-29.2,2.5-40.7-1
			c-1.8-0.5-3.6-1-5.4-1.4c-2.1-0.4-4.2,0-5.9,1.2c-1.7,1.2-2.9,3.1-3.1,5.2c-2.4,17-13.4,31.1-28.9,37.7
			C201.6,93.5,200.8,88.1,200.8,82.5z M149.2,181.4c6.7-23.7,29.2-39.2,53.7-37l30.1,8.5l-11.4,40.5l-30.8-8.7
			c-4-1.1-8.2,1.2-9.4,5.3c-1.1,4,1.2,8.2,5.3,9.4l69.8,19.7l-13.2,48.2H124.8L149.2,181.4z M209.1,381.9l-54.2,53.8
			c-2.8,0.1-5.7,0.2-8.8,0.2c-11.3,0-20.3-0.9-27.9-2.3l71.5-71c5.3-5.3,14-5.3,19.4,0c2.6,2.6,4,6,4,9.7
			C213.1,375.9,211.7,379.3,209.1,381.9z M213.7,347.1c-11-6.3-25.4-4.8-34.7,4.6l-6.2,6.1c-8.1-1.3-16.9-1.9-26.7-1.9
			c-32.5,0-48.4,7-64.3,13.4c-17.9-15.7-32.5-35-42.7-56.4h52.1c4.2,0,7.6-3.4,7.6-7.6s-3.4-7.6-7.6-7.6H23.1
			c-3.9,0-7.3-2.8-7.8-6.6c-0.6-4.6,3-8.6,7.5-8.6h255.5l-15.2,15.2H126.7c-4.2,0-7.6,3.4-7.6,7.6s3.4,7.6,7.6,7.6h121.1
			L213.7,347.1z M481.6,378.9c-14.3-2.1-24-6-34-10.1c-15.4-6.3-31.2-12.8-62.6-12.8c-31.3,0-47.2,6.5-62.6,12.7
			c-14.6,6-28.5,11.6-56.8,11.6c-17.2,0-28.7-2.1-37.5-4.6c0.1-1.2,0.2-2.4,0.2-3.5c0-5.1-1.3-10-3.8-14.3l44.9-44.9h212.2V378.9z
			 M489.2,297.8H284.6l15.2-15.2h189.4c4.2,0,7.6,3.4,7.6,7.6C496.8,294.4,493.4,297.8,489.2,297.8z"/>
	</g>
</g>
<g>
	<g>
		<path class="st0" d="M504.4,488.8c-28.4,0-42.2-5.6-56.8-11.6c-15.4-6.3-31.2-12.8-62.6-12.8c-31.3,0-47.2,6.5-62.6,12.7
			c-14.6,6-28.5,11.6-56.8,11.6c-28.4,0-42.2-5.6-56.8-11.6c-15.4-6.3-31.2-12.8-62.6-12.8s-47.2,6.5-62.6,12.8
			c-14.6,6-28.5,11.6-56.8,11.6c-6.6,0-12.6-0.3-18.3-0.9c-4.2-0.4-7.9,2.6-8.4,6.7s2.6,7.9,6.7,8.4c6.3,0.7,12.8,1,19.9,1
			c31.3,0,47.2-6.5,62.6-12.8c14.6-6,28.5-11.6,56.8-11.6c28.4,0,42.2,5.6,56.8,11.6c15.4,6.3,31.2,12.8,62.6,12.8
			c31.4,0,47.2-6.5,62.6-12.8c14.6-6,28.5-11.6,56.8-11.6c28.4,0,42.2,5.6,56.8,11.6c15.4,6.3,31.2,12.8,62.6,12.8
			c4.2,0,7.6-3.4,7.6-7.6S508.6,488.8,504.4,488.8z"/>
	</g>
</g>
<g>
	<g>
		<path class="st0" d="M270.5,80c-4.2,0-7.6,3.4-7.6,7.6v9.4c0,4.2,3.4,7.6,7.6,7.6s7.6-3.4,7.6-7.6v-9.4
			C278.1,83.5,274.7,80,270.5,80z"/>
	</g>
</g>
<g>
	<g>
		<path class="st0" d="M305.5,74.6c-4.2,0-7.6,3.4-7.6,7.6v9.4c0,4.2,3.4,7.6,7.6,7.6s7.6-3.4,7.6-7.6v-9.4
			C313.1,78,309.7,74.6,305.5,74.6z"/>
	</g>
</g>
<path class="st1" d="M284.6,297.6h204.6c4.2,0,7.6-3.4,7.6-7.6c0-4.2-3.4-7.6-7.6-7.6H299.8L284.6,297.6z"/>
<path class="st1" d="M223.5,357.7c2.5,4.3,3.8,9.2,3.8,14.3c0,1.2-0.1,2.4-0.2,3.5c8.8,2.5,20.3,4.6,37.5,4.6
	c28.4,0,42.2-5.6,56.8-11.6c15.4-6.3,31.2-12.7,62.6-12.7c31.3,0,47.2,6.5,62.6,12.8c10.1,4.1,19.7,8.1,34,10.1v-65.9H268.4
	L223.5,357.7z"/>
<path class="st1" d="M232.5,60.6c0.3-2.1,1.4-4,3.1-5.2c1.7-1.2,3.9-1.7,5.9-1.2c1.8,0.4,3.6,0.8,5.4,1.4c11.5,3.5,26.7,3.9,40.7,1
	c10.7-2.2,17.8-5.7,21.1-8.9c-10.8-15-28.3-24.8-48.2-24.8c-32.7,0-59.2,26.6-59.2,59.2c0,5.6,0.8,11,2.3,16.1
	C219,91.7,230.1,77.6,232.5,60.6z"/>
<path class="st1" d="M179,351.6c9.4-9.4,23.7-10.9,34.7-4.6l34.1-34.1H126.7c-4.2,0-7.6-3.4-7.6-7.6c0-4.2,3.4-7.6,7.6-7.6h136.3
	l15.2-15.2H22.8c-4.5,0-8.1,4-7.5,8.6c0.5,3.8,3.9,6.6,7.8,6.6h68.2c4.2,0,7.6,3.4,7.6,7.6c0,4.2-3.4,7.6-7.6,7.6H39.2
	c10.2,21.4,24.8,40.7,42.7,56.4c15.9-6.5,31.8-13.4,64.3-13.4c9.8,0,18.5,0.6,26.7,1.9L179,351.6z"/>
</svg>
