<?xml version="1.0" encoding="utf-8"?>
<!-- Generator: Adobe Illustrator 21.0.0, SVG Export Plug-In . SVG Version: 6.00 Build 0)  -->
<svg version="1.1" id="Layer_1" xmlns="http://www.w3.org/2000/svg" xmlns:xlink="http://www.w3.org/1999/xlink" x="0px" y="0px"
	 viewBox="0 0 271.1 271.1" style="enable-background:new 0 0 271.1 271.1;" xml:space="preserve">
<style type="text/css">
	.st0{fill:#211F1E;}
	.st1{fill:#FF8400;}
</style>
<g>
	<g>
		<path class="st0" d="M200,101.7c0-1.8-1.4-3.2-3.2-3.6c-14.4-1.4-22.6,12.9-26.6,21.9c-15.8-20.8-40.9-21.9-42.4-21.9
			c0,0,0,0-0.4,0c-32,0-39.9,28.7-39.9,29.1c0,0.7,0,1.4,0,2.2c8.6,26.2,29.4,29.1,37.3,29.1c1.4,0,2.5,0,2.9,0
			c2.5,0,26.6-1.8,42-21.9c3.9,9,12.2,23.3,26.6,21.9c1.8-0.4,3.2-1.8,3.2-3.6c0-0.7,0.4-17.2-7.5-26.6C200,119,200,102.5,200,101.7
			z M127.8,150.9h-0.4c-1.1,0-23,2.9-32.3-23c1.4-4.3,9.3-22.6,32.3-22.6c0.7,0,25.9,1.1,39.5,22.6
			C153.3,149.5,128.2,150.9,127.8,150.9z M192.8,150.6c-10.8-1.8-16.5-18.3-18-22.6c1.4-4.3,7.2-20.8,17.6-22.6
			c-0.4,6.1-2.2,16.2-7.2,19.7c-1.1,0.7-1.4,1.8-1.4,2.9c0,1.1,0.4,2.2,1.4,2.9C190.3,134.8,192.1,144.5,192.8,150.6z"/>
	</g>
</g>
<g>
	<g>
		<circle class="st0" cx="109.2" cy="122.9" r="3.6"/>
	</g>
</g>
<g>
	<g>
		<path class="st0" d="M75.8,90.6c-6.1,0-11.1,5-11.1,11.1s5,11.1,11.1,11.1s11.1-5,11.1-11.1C86.5,95.6,81.5,90.6,75.8,90.6z
			 M75.8,105.3c-2.2,0-3.9-1.8-3.9-3.9c0-2.2,1.8-3.9,3.9-3.9c2.2,0,3.9,1.8,3.9,3.9C79.7,103.5,77.6,105.3,75.8,105.3z"/>
	</g>
</g>
<g>
	<g>
		<path class="st0" d="M82.9,57.6c-8.3,0-14.7,6.8-14.7,14.7c0,8.3,6.5,14.7,14.7,14.7S98,80.2,98,72.3C98,64,91.2,57.6,82.9,57.6z
			 M82.9,79.5c-4.3,0-7.5-3.6-7.5-7.5c0-3.9,3.2-7.5,7.5-7.5s7.9,3.6,7.9,7.5C90.8,76.3,87.3,79.5,82.9,79.5z"/>
	</g>
</g>
<g>
	<g>
		<path class="st0" d="M250.3,40c-0.7-1.1-1.8-1.8-3.2-1.8H24.4c-1.4,0-2.5,0.7-3.2,1.8C7.5,63.7,0,91.3,0,119.3
			c0,59.6,32.3,113.1,82.6,136.4c0.4,0.4,1.1,0.4,1.4,0.4h103c0.4,0,1.1,0,1.4-0.4c50.3-23.3,82.6-76.8,82.6-136.4
			C271.4,91.3,263.9,64,250.3,40z M186.4,249.3H85.1c-21.5-10.1-39.1-26.2-52.4-45.6h206.5C225.8,223.1,207.9,239.3,186.4,249.3z
			 M243.4,197.3h-21.2v-0.7c7.2-6.8,9.3-15.1,9.7-15.4c0.7-1.8-0.7-3.9-2.5-4.3c-1.8-0.7-3.9,0.7-4.3,2.5c0,0-2.5,7.9-9,13.6v-26.6
			c0-2.2-1.4-3.6-3.6-3.6c-2.2,0-3.6,1.4-3.6,3.6v27.3c-7.2-5.7-9.7-14-9.7-14c-0.7-1.8-2.5-2.9-4.3-2.5c-1.8,0.7-2.9,2.5-2.5,4.3
			c0,0.4,2.5,8.6,9.7,15.4H68.6c7.2-6.8,9.3-15.1,9.7-15.4c0.7-1.8-0.7-3.9-2.5-4.3c-1.8-0.7-3.9,0.7-4.3,2.5c0,0-2.5,7.9-9,13.6
			v-26.6c0-2.2-1.4-3.6-3.6-3.6c-2.2,0-3.6,1.4-3.6,3.6V194c-7.2-5.7-9.7-14-9.7-14c-0.7-1.8-2.5-2.9-4.3-2.5
			c-1.8,0.7-2.9,2.5-2.5,4.3c0,0.4,2.5,8.6,9.7,15.4H28.4C15.1,175,7.5,148.4,7.5,120.4c0-26.2,6.5-51.7,19-74h218.7
			c12.6,22.3,19,47.8,19,74C264.3,148.4,256.7,175,243.4,197.3z"/>
	</g>
</g>
<g>
	<g>
		<circle class="st0" cx="86.2" cy="215.2" r="5"/>
	</g>
</g>
<g>
	<g>
		<circle class="st0" cx="188.9" cy="236.8" r="5"/>
	</g>
</g>
<g>
	<g>
		<circle class="st0" cx="141.5" cy="222.7" r="5"/>
	</g>
</g>
<g>
	<g>
		<circle class="st0" cx="81.1" cy="235.3" r="5"/>
	</g>
</g>
<g>
	<g>
		<circle class="st0" cx="123.9" cy="237.8" r="5"/>
	</g>
</g>
<g>
	<g>
		<circle class="st0" cx="168" cy="217.7" r="5"/>
	</g>
</g>
<g>
	<g>
		<circle class="st0" cx="216.9" cy="215.2" r="5"/>
	</g>
</g>
<g>
	<g>
		<circle class="st0" cx="58.5" cy="215.2" r="3.9"/>
	</g>
</g>
<g>
	<g>
		<circle class="st0" cx="104.8" cy="230.3" r="3.9"/>
	</g>
</g>
<g>
	<g>
		<circle class="st0" cx="155.5" cy="236.8" r="3.9"/>
	</g>
</g>
<g>
	<g>
		<circle class="st0" cx="192.5" cy="215.9" r="3.9"/>
	</g>
</g>
<g>
	<g>
		<circle class="st0" cx="118.8" cy="213.8" r="3.9"/>
	</g>
</g>
<path class="st1" d="M128.1,105c-23,0-30.9,18.3-32.3,22.6c9.3,25.9,31.2,23,32.3,23h0.4c0.4,0,25.5-1.4,39.1-23
	C154,106,128.8,105,128.1,105z M109.8,126.1c-2,0-3.6-1.6-3.6-3.6c0-2,1.6-3.6,3.6-3.6c2,0,3.6,1.6,3.6,3.6
	C113.4,124.5,111.8,126.1,109.8,126.1z"/>
<path class="st1" d="M175.5,127.6c1.4,4.3,7.2,20.8,18,22.6c-0.7-6.1-2.5-15.8-7.5-19.7c-1.1-0.7-1.4-1.8-1.4-2.9
	c0-1.1,0.4-2.2,1.4-2.9c5-3.6,6.8-13.6,7.2-19.7C182.7,106.7,176.9,123.3,175.5,127.6z"/>
<path class="st1" d="M85.7,248.9H187c21.5-10.1,39.5-26.2,52.8-45.6H33.3C46.6,222.7,64.2,238.9,85.7,248.9z M217.5,209.8
	c2.8,0,5,2.3,5,5c0,2.8-2.3,5-5,5c-2.8,0-5-2.3-5-5C212.5,212,214.7,209.8,217.5,209.8z M193.1,211.6c2.2,0,3.9,1.8,3.9,3.9
	c0,2.2-1.8,3.9-3.9,3.9c-2.2,0-3.9-1.8-3.9-3.9C189.2,213.4,190.9,211.6,193.1,211.6z M189.5,231.3c2.8,0,5,2.3,5,5c0,2.8-2.3,5-5,5
	c-2.8,0-5-2.3-5-5C184.5,233.6,186.7,231.3,189.5,231.3z M168.7,212.3c2.8,0,5,2.3,5,5c0,2.8-2.3,5-5,5c-2.8,0-5-2.3-5-5
	C163.7,214.6,165.9,212.3,168.7,212.3z M156.1,232.4c2.2,0,3.9,1.8,3.9,3.9c0,2.2-1.8,3.9-3.9,3.9c-2.2,0-3.9-1.8-3.9-3.9
	C152.2,234.2,153.9,232.4,156.1,232.4z M142.1,217.3c2.8,0,5,2.3,5,5c0,2.8-2.3,5-5,5c-2.8,0-5-2.3-5-5
	C137.1,219.6,139.3,217.3,142.1,217.3z M129.5,237.4c0,2.8-2.3,5-5,5c-2.8,0-5-2.3-5-5c0-2.8,2.3-5,5-5
	C127.3,232.4,129.5,234.7,129.5,237.4z M119.5,209.4c2.2,0,3.9,1.8,3.9,3.9s-1.8,3.9-3.9,3.9s-3.9-1.8-3.9-3.9
	S117.3,209.4,119.5,209.4z M105.5,226c2.2,0,3.9,1.8,3.9,3.9c0,2.2-1.8,3.9-3.9,3.9s-3.9-1.8-3.9-3.9
	C101.5,227.7,103.3,226,105.5,226z M86.8,209.8c2.8,0,5,2.3,5,5c0,2.8-2.3,5-5,5c-2.8,0-5-2.3-5-5C81.8,212,84,209.8,86.8,209.8z
	 M81.8,229.9c2.8,0,5,2.3,5,5c0,2.8-2.3,5-5,5c-2.8,0-5-2.3-5-5C76.8,232.2,79,229.9,81.8,229.9z"/>
</svg>
