<?xml version="1.0" encoding="utf-8"?>
<!-- Generator: Adobe Illustrator 21.0.0, SVG Export Plug-In . SVG Version: 6.00 Build 0)  -->
<svg version="1.1" id="Layer_1" xmlns="http://www.w3.org/2000/svg" xmlns:xlink="http://www.w3.org/1999/xlink" x="0px" y="0px"
	 viewBox="0 0 271.1 271.1" style="enable-background:new 0 0 271.1 271.1;" xml:space="preserve">
<style type="text/css">
	.st0{fill:#211F1E;}
	.st1{fill:#FF8400;}
</style>
<g>
	<g>
		<path class="st0" d="M268.8,117.2c-1.1-4.1-3.7-7.5-7.3-9.5l-154.2-89c-4-2.3-8.5-3.5-13-3.5c-9.4,0-18.1,5-22.7,13.1L45.3,73.5
			c-2.1,3.6-2.6,7.9-1.6,11.9c1.1,4.1,3.7,7.5,7.3,9.5l4.5,2.6l-2.6,4.5c-4.3,7.5-1.8,17.1,5.8,21.5l52,30l-10.8,18.7
			c-1-0.1-2-0.1-2.9-0.1c-13.4,0-25.2,7.3-31.6,18c-0.1,0.1-0.1,0.2-0.2,0.3c-0.1,0.1-0.1,0.2-0.2,0.3c-0.4,0.8-0.8,1.5-1.2,2.3
			H32.6v-36.7c0-8.7-7-15.7-15.7-15.7H6.4c-2.9,0-5.2,2.3-5.2,5.2v104.8c0,2.9,2.3,5.2,5.2,5.2h10.5c8.7,0,15.7-7,15.7-15.7v-15.7
			h31.2c5.9,12.4,18.5,21,33.1,21c13.5,0,25.2-7.3,31.6-18.1c0-0.1,0.1-0.1,0.1-0.2c0.1-0.1,0.1-0.2,0.2-0.3c3-5.3,4.7-11.5,4.7-18
			c0-7.7-2.4-14.9-6.5-20.8l10.8-18.7l47.8,27.6c2.4,1.4,5.1,2.1,7.8,2.1c0,0,0,0,0,0c5.6,0,10.8-3,13.6-7.8l2.6-4.5l4.5,2.6
			c2.4,1.4,5.1,2.1,7.8,2.1c5.6,0,10.8-3,13.6-7.8l10.5-18.1c2.1-3.6,2.6-7.9,1.6-11.9c-0.9-3.4-2.9-6.3-5.6-8.4l16.6-4.4
			c1.3-0.4,2.5-1.2,3.2-2.4l5.2-9.1C269.3,125.5,269.9,121.2,268.8,117.2z M22.1,240.3c0,2.9-2.3,5.2-5.2,5.2h-5.2v-94.3h5.2
			c2.9,0,5.2,2.3,5.2,5.2L22.1,240.3L22.1,240.3z M60.7,214.1H32.6v-10.5h28.1c-0.2,1.7-0.4,3.5-0.4,5.2
			C60.3,210.7,60.4,212.4,60.7,214.1z M97,235.1c-14.4,0-26.2-11.7-26.2-26.2c0-2.9,0.5-5.7,1.4-8.3l44.4,25.6
			C111.8,231.6,104.8,235.1,97,235.1z M121.8,217.2l-44.4-25.6c4.8-5.4,11.8-8.8,19.6-8.8c14.4,0,26.2,11.7,26.2,26.2
			C123.2,211.8,122.7,214.6,121.8,217.2z M119.6,180.1c-2.7-2.2-5.8-3.9-9.1-5.3l9.2-16l9.1,5.2L119.6,180.1z M198.1,185.9
			c-0.9,1.6-2.7,2.6-4.6,2.6c0,0,0,0,0,0c-0.9,0-1.8-0.2-2.6-0.7L64,114.5c-2.5-1.4-3.4-4.7-1.9-7.2l2.6-4.5L169,163.1
			c0.2,0.1,0.4,0.2,0.6,0.3c0.1,0,0.1,0,0.2,0.1c0.1,0.1,0.3,0.1,0.4,0.1c0.1,0,0.1,0,0.2,0c0.2,0.1,0.4,0.1,0.6,0.1c0,0,0,0,0,0
			c0.2,0,0.4,0,0.6,0c0,0,0,0,0.1,0c0,0,0.1,0,0.1,0c0.2,0,0.3,0,0.5,0c0.1,0,0.1,0,0.2,0c0.2,0,0.4-0.1,0.6-0.1l45-12.1
			L198.1,185.9z M237.2,160.1l-10.5,18.1c-0.9,1.6-2.7,2.6-4.6,2.6c-0.9,0-1.8-0.2-2.6-0.7l-4.5-2.6l15.7-27.2l4.5,2.6
			c1.2,0.7,2.1,1.8,2.4,3.2C238.1,157.5,237.9,158.9,237.2,160.1z M258.2,123.8L254,131l-81.7,21.9l-116.1-67
			c-1.2-0.7-2.1-1.8-2.4-3.2c-0.4-1.4-0.2-2.8,0.5-4l26.2-45.4c2.8-4.8,8-7.8,13.7-7.8c2.7,0,5.4,0.7,7.8,2.1l154.2,89
			c1.2,0.7,2.1,1.8,2.4,3.2C259.1,121.2,258.9,122.6,258.2,123.8z"/>
	</g>
</g>
<g>
	<g>
		<path class="st0" d="M174.3,132.9l-0.1-0.1c-2.5-1.4-5.7-0.6-7.2,1.9c-1.4,2.5-0.6,5.7,1.9,7.2l0.1,0.1c0.8,0.5,1.7,0.7,2.6,0.7
			c1.8,0,3.6-0.9,4.5-2.6C177.7,137.5,176.9,134.3,174.3,132.9z"/>
	</g>
</g>
<g>
	<g>
		<path class="st0" d="M161.2,125.3l-86.7-50c-2.5-1.4-5.7-0.6-7.2,1.9c-1.4,2.5-0.6,5.7,1.9,7.2l86.7,50c0.8,0.5,1.7,0.7,2.6,0.7
			c1.8,0,3.6-0.9,4.5-2.6C164.6,130,163.7,126.8,161.2,125.3z"/>
	</g>
</g>
<g>
	<g>
		<path class="st0" d="M241.2,117.1l-14.1-8.1c-2.5-1.4-5.7-0.6-7.2,1.9c-1.4,2.5-0.6,5.7,1.9,7.2l14.1,8.1c0.8,0.5,1.7,0.7,2.6,0.7
			c1.8,0,3.6-0.9,4.5-2.6C244.6,121.7,243.7,118.5,241.2,117.1z"/>
	</g>
</g>
<g>
	<g>
		<path class="st0" d="M214.1,101.4l-0.1-0.1c-2.5-1.4-5.7-0.6-7.2,1.9c-1.4,2.5-0.6,5.7,1.9,7.2l0.1,0.1c0.8,0.5,1.7,0.7,2.6,0.7
			c1.8,0,3.6-0.9,4.5-2.6C217.5,106.1,216.6,102.9,214.1,101.4z"/>
	</g>
</g>
<path class="st1" d="M254.2,130.9l4.2-7.2c0.7-1.2,0.9-2.6,0.5-4c-0.4-1.4-1.2-2.5-2.4-3.2l-154.2-89c-2.4-1.4-5.1-2.1-7.8-2.1
	c-5.6,0-10.9,3-13.7,7.8L54.5,78.7c-0.7,1.2-0.9,2.6-0.5,4c0.4,1.4,1.2,2.5,2.4,3.2l116.1,67L254.2,130.9z M220.1,110.8
	c1.4-2.5,4.6-3.4,7.2-1.9l14.1,8.1c2.5,1.4,3.4,4.6,1.9,7.2c-1,1.7-2.7,2.6-4.5,2.6c-0.9,0-1.8-0.2-2.6-0.7l-14.1-8.1
	C219.5,116.5,218.7,113.3,220.1,110.8z M207,103.2c1.4-2.5,4.6-3.4,7.2-1.9l0.1,0.1c2.5,1.4,3.4,4.6,1.9,7.2c-1,1.7-2.7,2.6-4.5,2.6
	c-0.9,0-1.8-0.2-2.6-0.7l-0.1-0.1C206.4,108.9,205.5,105.7,207,103.2z M163.2,132.4c-1,1.7-2.7,2.6-4.5,2.6c-0.9,0-1.8-0.2-2.6-0.7
	l-86.7-50c-2.5-1.4-3.4-4.6-1.9-7.2c1.4-2.5,4.6-3.4,7.2-1.9l86.7,50C163.8,126.7,164.7,129.9,163.2,132.4z M169.2,141.9l-0.1-0.1
	c-2.5-1.4-3.4-4.7-1.9-7.2c1.4-2.5,4.6-3.4,7.2-1.9l0.1,0.1c2.5,1.4,3.4,4.6,1.9,7.2c-1,1.7-2.7,2.6-4.5,2.6
	C171,142.6,170.1,142.4,169.2,141.9z"/>
<path class="st1" d="M124.3,208.7c0-14.4-11.7-26.2-26.2-26.2c-7.8,0-14.8,3.4-19.6,8.8l44.4,25.6
	C123.8,214.4,124.3,211.6,124.3,208.7z"/>
<path class="st1" d="M98.1,234.9c7.8,0,14.8-3.4,19.6-8.8l-44.4-25.6c-0.9,2.6-1.4,5.4-1.4,8.3C71.9,223.2,83.7,234.9,98.1,234.9z"
	/>
</svg>
