<?xml version="1.0" encoding="utf-8"?>
<!-- Generator: Adobe Illustrator 21.0.0, SVG Export Plug-In . SVG Version: 6.00 Build 0)  -->
<svg version="1.1" id="Layer_1" xmlns="http://www.w3.org/2000/svg" xmlns:xlink="http://www.w3.org/1999/xlink" x="0px" y="0px"
	 viewBox="0 0 271.1 271.1" style="enable-background:new 0 0 271.1 271.1;" xml:space="preserve">
<style type="text/css">
	.st0{fill:#FF8400;}
	.st1{fill:#211F1E;}
</style>
<path class="st0" d="M152.4,20.5L152.4,20.5c11.5-16.8,37.8-8.2,37.2,12.1l0,0c-0.4,14.3,13.7,24.6,27.2,19.8l0,0
	c19.2-6.8,35.4,15.5,23,31.6l0,0c-8.7,11.4-3.3,27.9,10.4,32l0,0c19.5,5.7,19.5,33.4,0,39.1l0,0c-13.7,4-19.1,20.6-10.4,32l0,0
	c12.4,16.1-3.8,38.5-23,31.6l0,0c-13.5-4.8-27.6,5.4-27.2,19.8l0,0c0.6,20.3-25.7,28.9-37.2,12.1l0,0c-8.1-11.8-25.5-11.8-33.6,0
	l0,0c-11.5,16.8-37.8,8.2-37.2-12.1l0,0c0.4-14.3-13.7-24.6-27.2-19.8l0,0c-19.2,6.8-35.4-15.5-23-31.6l0,0
	c8.7-11.4,3.3-27.9-10.4-32l0,0c-19.5-5.7-19.5-33.4,0-39.1l0,0c13.7-4,19.1-20.6,10.4-32l0,0c-12.4-16.1,3.8-38.5,23-31.6l0,0
	c13.5,4.8,27.6-5.4,27.2-19.8l0,0C81,12.3,107.2,3.7,118.7,20.5l0,0C126.8,32.3,144.3,32.3,152.4,20.5z"/>
<path class="st1" d="M251.7,110.9c-4.9-1.4-8.5-5-10.1-9.8c-1.6-4.8-0.7-9.9,2.4-13.9c7.1-9.2,7.3-21.3,0.4-30.7
	c-6.9-9.4-18.4-13-29.4-9.1c-4.8,1.7-9.9,1-13.9-2c-4.1-3-6.4-7.6-6.2-12.6c0.3-11.7-6.6-21.5-17.7-25.1C166,4,154.6,7.9,148,17.5
	c-2.9,4.2-7.4,6.6-12.5,6.6c-5.1,0-9.6-2.4-12.5-6.6C116.5,7.9,105.1,4,94,7.6c-11.1,3.6-18,13.5-17.7,25.1
	c0.1,5.1-2.1,9.7-6.2,12.6c-4.1,3-9.2,3.7-13.9,2c-11-3.9-22.5-0.3-29.4,9.1C19.9,65.9,20,78,27.1,87.2c3.1,4,4,9.1,2.4,13.9
	c-1.6,4.8-5.2,8.4-10.1,9.8C8.3,114.2,1,123.9,1,135.6s7.2,21.3,18.4,24.6c4.9,1.4,8.5,5,10.1,9.8c1.6,4.8,0.7,9.9-2.4,13.9
	c-7.1,9.2-7.3,21.3-0.4,30.7c6.9,9.4,18.4,13,29.4,9.1c4.8-1.7,9.9-1,13.9,2c4.1,3,6.4,7.6,6.2,12.6c-0.3,11.7,6.6,21.5,17.7,25.1
	c2.7,0.9,5.5,1.3,8.2,1.3c8.2,0,15.9-4,20.9-11.2c2.9-4.2,7.4-6.6,12.5-6.6s9.6,2.4,12.5,6.6c6.6,9.6,18,13.5,29.1,9.9
	c11.1-3.6,18-13.5,17.7-25.1c-0.1-5.1,2.1-9.7,6.2-12.6c4.1-3,9.2-3.7,13.9-2c11,3.9,22.5,0.3,29.4-9.1c6.9-9.4,6.7-21.5-0.4-30.7
	c-3.1-4-4-9.1-2.4-13.9c1.6-4.8,5.2-8.4,10.1-9.8c11.2-3.3,18.4-13,18.4-24.6S262.8,114.2,251.7,110.9z M248.7,150
	c-8.1,2.4-14.5,8.6-17.2,16.7c-2.6,8.1-1.1,16.9,4.1,23.6c5.1,6.6,3.5,13.7,0.3,18.1c-3.2,4.4-9.4,8.1-17.3,5.4
	c-8-2.8-16.8-1.6-23.7,3.4c-6.9,5-10.8,13-10.6,21.5c0.2,8.3-5.2,13.1-10.4,14.8c-5.2,1.7-12.4,1-17.1-5.8
	c-4.8-7-12.7-11.2-21.2-11.2c-8.5,0-16.4,4.2-21.2,11.2c-4.7,6.9-11.9,7.5-17.1,5.8c-5.2-1.7-10.7-6.5-10.4-14.8
	c0.2-8.5-3.7-16.5-10.6-21.5c-4.4-3.2-9.7-4.9-15.1-4.9c-2.9,0-5.8,0.5-8.6,1.5c-7.9,2.8-14.1-0.9-17.3-5.4
	c-3.2-4.4-4.8-11.5,0.3-18.1c5.2-6.7,6.7-15.5,4.1-23.6c-2.6-8.1-9-14.3-17.2-16.7c-8-2.4-10.8-9-10.8-14.5
	c0-5.5,2.8-12.1,10.8-14.5c8.1-2.4,14.5-8.6,17.2-16.7c2.6-8.1,1.1-16.9-4.1-23.6c-5.1-6.6-3.5-13.7-0.3-18.1
	c3.2-4.4,9.4-8.1,17.3-5.4c8,2.8,16.8,1.6,23.7-3.4c6.9-5,10.8-13,10.6-21.5c-0.2-8.3,5.2-13.1,10.4-14.8c5.2-1.7,12.4-1,17.1,5.8
	c4.8,7,12.7,11.2,21.2,11.2c8.5,0,16.4-4.2,21.2-11.2v0c4.7-6.9,11.9-7.5,17.1-5.8c5.2,1.7,10.7,6.5,10.4,14.8
	c-0.2,8.5,3.7,16.5,10.6,21.5c6.9,5,15.7,6.3,23.7,3.4c7.9-2.8,14.1,0.9,17.3,5.4c3.2,4.4,4.8,11.5-0.3,18.1
	c-5.2,6.7-6.7,15.5-4.1,23.6c2.6,8.1,9,14.3,17.2,16.7c8,2.4,10.8,9,10.8,14.5C259.5,141,256.7,147.7,248.7,150z"/>
<path class="st1" d="M60.7,118.7c2.3,0,4.4-1.5,5.1-3.8c4.4-14.7,13.5-28,25.9-37.4c12.7-9.7,27.9-14.8,43.9-14.8
	c2.9,0,5.3-2.4,5.3-5.3c0-2.9-2.4-5.3-5.3-5.3c-18.3,0-35.7,5.8-50.3,16.9C71.1,79.8,60.6,95,55.6,111.9c-0.8,2.8,0.8,5.7,3.6,6.6
	C59.7,118.6,60.2,118.7,60.7,118.7z"/>
<path class="st1" d="M199.7,180.3c-2.3-1.8-5.6-1.5-7.4,0.8c-13.9,17.3-34.6,27.2-56.7,27.2c-2.9,0-5.3,2.4-5.3,5.3
	c0,2.9,2.4,5.3,5.3,5.3c25.4,0,49-11.4,65-31.1C202.3,185.4,202,182.1,199.7,180.3z"/>
<circle class="st1" cx="206.8" cy="168.3" r="5.4"/>
<path class="st1" d="M59.7,175.5c-1.5-1.5-0.7-3.8,0.9-5.4l19.2-19.2c1.5-1.5,3.8-0.6,5.3,0.9c1.7,1.7,2.4,4,1,5.4l-15.2,15.2l11,11
	l8.4-8.4c1.4-1.4,3.6-0.8,5.1,0.7c1.3,1.3,2.1,3.4,0.6,5l-8.4,8.4l15.1,15.1c1.5,1.5,0.4,4.1-1.3,5.8c-1.8,1.8-4.4,2.8-5.8,1.3
	L59.7,175.5z"/>
<path class="st1" d="M87.6,147.4c-1.2-1.2-1.3-3.1,0.1-4.5L98.6,132c7.2-7.2,15.8-10.3,24.6-1.5c6.3,6.3,6.7,12.8,3.8,18.2l20.6,6.2
	c0.5,0.1,0.9,0.4,1.2,0.6c1.8,1.8,1.4,6.1-0.7,8.2c-1,1-2.5,1.3-4.2,0.8l-23-7.4l-4.6,4.6l14.4,14.4c1.5,1.5,0.5,4-1.3,5.8
	c-1.8,1.8-4.4,2.8-5.8,1.3L87.6,147.4z M98.8,144.4l11.7,11.7l6.1-6.1c3.6-3.6,4.4-7.4,0.1-11.7c-4.4-4.4-8.2-3.6-11.8,0L98.8,144.4
	z"/>
<path class="st1" d="M141.2,124l8.4-8.4c1.4-1.4,3.6-0.9,5.1,0.6c1.3,1.3,2,3.5,0.5,5l-8.4,8.4l11.1,11.1l15.6-15.6
	c1.4-1.4,3.7-0.8,5.5,0.9c1.5,1.5,2.4,3.8,0.8,5.3L160.2,151c-1.6,1.6-3.9,2.4-5.4,0.9L119,116.1c-1.5-1.5-0.7-3.8,0.9-5.4
	l19.6-19.6c1.5-1.5,3.9-0.7,5.3,0.8c1.7,1.7,2.4,4,0.9,5.5L130.2,113L141.2,124z"/>
<path class="st1" d="M170.4,94.8l8.4-8.4c1.4-1.4,3.6-0.9,5.1,0.6c1.3,1.3,2,3.5,0.5,5l-8.4,8.4l11.1,11.1l15.6-15.6
	c1.4-1.4,3.7-0.8,5.5,0.9c1.5,1.5,2.4,3.8,0.8,5.3l-19.6,19.6c-1.6,1.6-3.9,2.4-5.4,0.9l-35.7-35.7c-1.5-1.5-0.7-3.8,0.9-5.4
	l19.6-19.6c1.5-1.5,3.9-0.7,5.3,0.8c1.7,1.7,2.4,4,0.9,5.5l-15.6,15.6L170.4,94.8z"/>
</svg>
