<?xml version="1.0" encoding="utf-8"?>
<!-- Generator: Adobe Illustrator 21.0.0, SVG Export Plug-In . SVG Version: 6.00 Build 0)  -->
<svg version="1.1" id="Layer_1" xmlns="http://www.w3.org/2000/svg" xmlns:xlink="http://www.w3.org/1999/xlink" x="0px" y="0px"
	 viewBox="0 0 271.1 271.1" style="enable-background:new 0 0 271.1 271.1;" xml:space="preserve">
<style type="text/css">
	.st0{fill:#211F1E;}
	.st1{fill:#FF8400;}
</style>
<g>
	<g>
		<g>
			<path class="st0" d="M232.4,0C220,0,210,10,210,22.4v9h-94.2c-14.9,0-26.9,12.1-26.9,26.9v17.9c-5.6,4.2-8.9,10.7-9,17.7
				c-23.1,8.8-38.9,30.2-40.4,54.9c-7,2.5-10.7,10.2-8.2,17.2c1.9,5.4,7,9,12.7,9h116.6c7.4,0,13.5-6,13.5-13.4
				c0-5.7-3.6-10.8-9-12.7c-1.5-24.6-17.3-46.1-40.4-54.9c-0.1-7-3.4-13.5-9-17.7V62.8c0-2.5,2-4.5,4.5-4.5H210v9
				c0,12.4,10,22.4,22.4,22.4c2.5,0,4.5-2,4.5-4.5V4.5C236.9,2,234.9,0,232.4,0z M105.6,81.3c4.8,1.2,8.6,5,9.8,9.8
				c-4.3-0.9-8.7-1.4-13.1-1.4c-4.4,0-8.8,0.5-13.1,1.4C91,83.9,98.4,79.5,105.6,81.3z M165.1,161.5c0,2.5-2,4.5-4.5,4.5H44
				c-2.5,0-4.5-2-4.5-4.5s2-4.5,4.5-4.5h116.6C163.1,157,165.1,159,165.1,161.5z M155.9,148.1H48.7c2.7-29.6,28.9-51.4,58.5-48.7
				C133.1,101.7,153.5,122.2,155.9,148.1z M210,49.4h-89.7c-7.4,0-13.5,6-13.5,13.5v9.4c-3-0.6-6-0.6-9,0V58.3
				c0-9.9,8-17.9,17.9-17.9H210V49.4z M227.9,80c-5.4-1.9-9-7-9-12.7V22.4c0-5.7,3.6-10.8,9-12.7V80z"/>
			<path class="st0" d="M57.4,206.4c2.5,0,4.5-2,4.5-4.5v-13.5c0-2.5-2-4.5-4.5-4.5s-4.5,2-4.5,4.5v13.5
				C52.9,204.4,55,206.4,57.4,206.4z"/>
			<path class="st0" d="M75.4,206.4c2.5,0,4.5-2,4.5-4.5v-13.5c0-2.5-2-4.5-4.5-4.5s-4.5,2-4.5,4.5v13.5
				C70.9,204.4,72.9,206.4,75.4,206.4z"/>
			<path class="st0" d="M93.3,206.4c2.5,0,4.5-2,4.5-4.5v-13.5c0-2.5-2-4.5-4.5-4.5s-4.5,2-4.5,4.5v13.5
				C88.8,204.4,90.8,206.4,93.3,206.4z"/>
			<path class="st0" d="M111.3,206.4c2.5,0,4.5-2,4.5-4.5v-13.5c0-2.5-2-4.5-4.5-4.5c-2.5,0-4.5,2-4.5,4.5v13.5
				C106.8,204.4,108.8,206.4,111.3,206.4z"/>
			<path class="st0" d="M129.2,206.4c2.5,0,4.5-2,4.5-4.5v-13.5c0-2.5-2-4.5-4.5-4.5c-2.5,0-4.5,2-4.5,4.5v13.5
				C124.7,204.4,126.7,206.4,129.2,206.4z"/>
			<path class="st0" d="M147.2,206.4c2.5,0,4.5-2,4.5-4.5v-13.5c0-2.5-2-4.5-4.5-4.5c-2.5,0-4.5,2-4.5,4.5v13.5
				C142.7,204.4,144.7,206.4,147.2,206.4z"/>
			<path class="st0" d="M52.9,219.8c0-2.5-2-4.5-4.5-4.5c-2.5,0-4.5,2-4.5,4.5v13.5c0,2.5,2,4.5,4.5,4.5c2.5,0,4.5-2,4.5-4.5V219.8z
				"/>
			<path class="st0" d="M70.9,219.8c0-2.5-2-4.5-4.5-4.5c-2.5,0-4.5,2-4.5,4.5v13.5c0,2.5,2,4.5,4.5,4.5c2.5,0,4.5-2,4.5-4.5V219.8z
				"/>
			<path class="st0" d="M88.8,219.8c0-2.5-2-4.5-4.5-4.5s-4.5,2-4.5,4.5v13.5c0,2.5,2,4.5,4.5,4.5s4.5-2,4.5-4.5V219.8z"/>
			<path class="st0" d="M106.8,219.8c0-2.5-2-4.5-4.5-4.5s-4.5,2-4.5,4.5v13.5c0,2.5,2,4.5,4.5,4.5s4.5-2,4.5-4.5V219.8z"/>
			<path class="st0" d="M124.7,219.8c0-2.5-2-4.5-4.5-4.5s-4.5,2-4.5,4.5v13.5c0,2.5,2,4.5,4.5,4.5s4.5-2,4.5-4.5V219.8z"/>
			<path class="st0" d="M142.7,219.8c0-2.5-2-4.5-4.5-4.5c-2.5,0-4.5,2-4.5,4.5v13.5c0,2.5,2,4.5,4.5,4.5c2.5,0,4.5-2,4.5-4.5V219.8
				z"/>
			<path class="st0" d="M160.6,219.8c0-2.5-2-4.5-4.5-4.5c-2.5,0-4.5,2-4.5,4.5v13.5c0,2.5,2,4.5,4.5,4.5c2.5,0,4.5-2,4.5-4.5V219.8
				z"/>
			<path class="st0" d="M39.5,246.8c-2.5,0-4.5,2-4.5,4.5v13.5c0,2.5,2,4.5,4.5,4.5s4.5-2,4.5-4.5v-13.5
				C44,248.8,42,246.8,39.5,246.8z"/>
			<path class="st0" d="M57.4,246.8c-2.5,0-4.5,2-4.5,4.5v13.5c0,2.5,2,4.5,4.5,4.5s4.5-2,4.5-4.5v-13.5
				C61.9,248.8,59.9,246.8,57.4,246.8z"/>
			<path class="st0" d="M75.4,246.8c-2.5,0-4.5,2-4.5,4.5v13.5c0,2.5,2,4.5,4.5,4.5s4.5-2,4.5-4.5v-13.5
				C79.9,248.8,77.9,246.8,75.4,246.8z"/>
			<path class="st0" d="M93.3,246.8c-2.5,0-4.5,2-4.5,4.5v13.5c0,2.5,2,4.5,4.5,4.5s4.5-2,4.5-4.5v-13.5
				C97.8,248.8,95.8,246.8,93.3,246.8z"/>
			<path class="st0" d="M111.3,246.8c-2.5,0-4.5,2-4.5,4.5v13.5c0,2.5,2,4.5,4.5,4.5c2.5,0,4.5-2,4.5-4.5v-13.5
				C115.8,248.8,113.7,246.8,111.3,246.8z"/>
			<path class="st0" d="M129.2,246.8c-2.5,0-4.5,2-4.5,4.5v13.5c0,2.5,2,4.5,4.5,4.5c2.5,0,4.5-2,4.5-4.5v-13.5
				C133.7,248.8,131.7,246.8,129.2,246.8z"/>
			<path class="st0" d="M147.2,246.8c-2.5,0-4.5,2-4.5,4.5v13.5c0,2.5,2,4.5,4.5,4.5s4.5-2,4.5-4.5v-13.5
				C151.6,248.8,149.6,246.8,147.2,246.8z"/>
			<path class="st0" d="M165.1,246.8c-2.5,0-4.5,2-4.5,4.5v13.5c0,2.5,2,4.5,4.5,4.5s4.5-2,4.5-4.5v-13.5
				C169.6,248.8,167.6,246.8,165.1,246.8z"/>
		</g>
	</g>
</g>
<path class="st1" d="M39.5,161.5c0,2.5,2,4.5,4.5,4.5h116.6c2.5,0,4.5-2,4.5-4.5s-2-4.5-4.5-4.5H44C41.5,157,39.5,159,39.5,161.5z"
	/>
<path class="st1" d="M115.4,91.1c-1.2-4.8-5-8.6-9.8-9.8c-7.2-1.8-14.5,2.6-16.3,9.8c4.3-0.9,8.7-1.4,13.1-1.4
	C106.7,89.7,111.1,90.2,115.4,91.1z"/>
</svg>
