<?xml version="1.0" encoding="utf-8"?>
<!-- Generator: Adobe Illustrator 21.0.0, SVG Export Plug-In . SVG Version: 6.00 Build 0)  -->
<svg version="1.1" id="Layer_1" xmlns="http://www.w3.org/2000/svg" xmlns:xlink="http://www.w3.org/1999/xlink" x="0px" y="0px"
	 viewBox="0 0 271.1 271.1" style="enable-background:new 0 0 271.1 271.1;" xml:space="preserve">
<style type="text/css">
	.st0{fill:#FF8400;}
	.st1{fill:#211F1E;}
</style>
<rect x="25.4" y="39.9" class="st0" width="220" height="131.5"/>
<g>
	<g>
		<path class="st1" d="M255.8,14.5H15c-8.3,0-15,6.7-15,15v166.1c0,8.3,6.7,15,15,15h94l-6.2,26.3H71.2c-5,0-9.1,4.1-9.1,9.1v7.8
			c0,5,4.1,9.1,9.1,9.1h128.4c5,0,9.1-4.1,9.1-9.1V246c0-5-4.1-9.1-9.1-9.1H168l-6.2-26.3h94c8.3,0,15-6.7,15-15V29.5
			C270.9,21.2,264.1,14.5,255.8,14.5z M199.6,244.8c0.7,0,1.2,0.5,1.2,1.2v7.8c0,0.7-0.5,1.2-1.2,1.2H71.2c-0.7,0-1.2-0.5-1.2-1.2
			V246c0-0.7,0.5-1.2,1.2-1.2H199.6z M111,236.9l6.2-26.3h36.5l6.2,26.3H111z M255.8,202.7H15c-3.9,0-7.1-3.2-7.1-7.1V29.5
			c0-3.9,3.2-7.1,7.1-7.1h240.8c3.9,0,7.1,3.2,7.1,7.1v166.1h0C262.9,199.5,259.7,202.7,255.8,202.7z"/>
	</g>
</g>
<g>
	<g>
		<path class="st1" d="M249.4,119.1c-2.2,0-4,1.8-4,4v48.2h-220v-48.2c0-2.2-1.8-4-4-4s-4,1.8-4,4v48.5c0,4.2,3.4,7.7,7.7,7.7h220.5
			c4.2,0,7.7-3.4,7.7-7.7v-48.5C253.4,120.9,251.6,119.1,249.4,119.1z"/>
	</g>
</g>
<g>
	<g>
		<path class="st1" d="M245.7,31.9H25.2c-4.2,0-7.7,3.4-7.7,7.7v62.3c0,2.2,1.8,4,4,4s4-1.8,4-4V39.9h220v62.1c0,2.2,1.8,4,4,4
			s4-1.8,4-4V39.6C253.4,35.4,249.9,31.9,245.7,31.9z"/>
	</g>
</g>
</svg>
