<?xml version="1.0" encoding="utf-8"?>
<!-- Generator: Adobe Illustrator 21.0.0, SVG Export Plug-In . SVG Version: 6.00 Build 0)  -->
<svg version="1.1" id="Layer_1" xmlns="http://www.w3.org/2000/svg" xmlns:xlink="http://www.w3.org/1999/xlink" x="0px" y="0px"
	 viewBox="0 0 271.1 271.1" style="enable-background:new 0 0 271.1 271.1;" xml:space="preserve">
<style type="text/css">
	.st0{fill:#211F1E;}
	.st1{fill:#FF8400;}
</style>
<g>
	<g>
		<g>
			<path class="st0" d="M135.5,84.9c-0.9,0-1.7-0.3-2.3-1c-0.6-0.6-1-1.5-1-2.3c0-0.9,0.3-1.7,1-2.3c0.6-0.6,1.5-1,2.3-1
				s1.7,0.4,2.3,1c0.6,0.6,1,1.5,1,2.3c0,0.9-0.3,1.7-1,2.3C137.3,84.5,136.4,84.9,135.5,84.9z"/>
		</g>
		<g>
			<path class="st0" d="M196.4,103c-0.9,0-1.7-0.4-2.3-1c-0.6-0.6-1-1.5-1-2.3s0.4-1.7,1-2.3c0.6-0.6,1.5-1,2.3-1
				c0.9,0,1.7,0.3,2.3,1c0.6,0.6,1,1.5,1,2.3c0,0.9-0.4,1.7-1,2.3C198.1,102.6,197.2,103,196.4,103z"/>
		</g>
		<g>
			<path class="st0" d="M179.5,55.2c-0.9,0-1.7-0.4-2.3-1c-0.6-0.6-1-1.5-1-2.3c0-0.9,0.4-1.7,1-2.3c0.6-0.6,1.5-1,2.3-1
				s1.7,0.3,2.3,1c0.6,0.6,1,1.5,1,2.3c0,0.9-0.3,1.7-1,2.3C181.2,54.9,180.3,55.2,179.5,55.2z"/>
		</g>
	</g>
	<g>
		<path class="st0" d="M74.7,103c-0.9,0-1.7-0.4-2.3-1c-0.6-0.6-1-1.5-1-2.3c0-0.9,0.4-1.7,1-2.3c0.6-0.6,1.5-1,2.3-1
			c0.9,0,1.7,0.3,2.3,1c0.6,0.6,1,1.5,1,2.3s-0.3,1.7-1,2.3C76.5,102.6,75.6,103,74.7,103z"/>
	</g>
	<g>
		<path class="st0" d="M91.6,55.2c-0.9,0-1.7-0.4-2.3-1c-0.6-0.6-1-1.5-1-2.3c0-0.9,0.3-1.7,1-2.3c0.6-0.6,1.5-1,2.3-1
			c0.9,0,1.7,0.3,2.3,1c0.6,0.6,1,1.5,1,2.3c0,0.9-0.4,1.7-1,2.3C93.3,54.9,92.5,55.2,91.6,55.2z"/>
	</g>
	<path class="st0" d="M267.8,118.3c-0.4-0.1-5.6-0.8-13.6-1c0.8-0.6,1.7-1.3,2.5-2c9.6-8.3,14.6-19.1,14.4-31.4c0-1.4-1-2.7-2.4-3.1
		c-1.2-0.3-25.6-7.4-46.6,4.2c0-4.1-1.6-7.9-4.8-10.4c-3-2.4-6.5-3.4-10.1-3c-4.6,0.6-8.5,3.4-10.9,5.6c-1.2-1.1-2.7-2.3-4.5-3.4
		c0.5-0.9,1-2,1.3-3c5.7,0.8,11.3-1.4,14.3-6c3.6-5.4,3.5-13.4-4.2-20.1c3.3-6.4,2.2-13.9-3-17.9c-3-2.4-6.5-3.4-10.1-3
		c-4.6,0.6-8.5,3.4-10.9,5.6c-2.4-2.2-6.3-5.1-10.9-5.6c-3.6-0.4-7,0.6-10.1,3c-5.1,4.1-6.2,11.5-3,17.9c-3,2.6-5.1,5.6-6,8.8
		c-1-0.1-2.1-0.1-3.2,0c-4.6,0.6-8.5,3.4-10.9,5.6c-2.4-2.2-6.3-5.1-10.9-5.6c-1.1-0.1-2.1-0.1-3.2,0c-0.9-3.1-3-6.1-6-8.8
		c3.3-6.4,2.2-13.9-3-17.9c-3-2.4-6.5-3.4-10.1-3c-4.6,0.6-8.5,3.4-10.9,5.6c-2.4-2.2-6.3-5.1-10.9-5.6c-3.6-0.4-7,0.6-10.1,3
		c-5.1,4.1-6.2,11.5-3,17.9C60,51.6,59.9,59.7,63.5,65c3.1,4.6,8.7,6.8,14.3,6c0.4,1,0.8,2,1.3,3c-1.8,1-3.3,2.3-4.5,3.4
		c-2.4-2.2-6.3-5.1-10.9-5.6c-3.6-0.4-7,0.6-10.1,3C50.6,77.2,49,81,49,85.1C28,73.5,3.5,80.5,2.4,80.9C1,81.3,0,82.6,0,84
		c-0.2,12.3,4.8,23.1,14.4,31.4c0.8,0.7,1.7,1.4,2.5,2c-8,0.2-13.2,0.9-13.6,1c-0.9,0.1-1.7,0.6-2.2,1.4c-0.5,0.7-0.7,1.7-0.5,2.6
		c6.2,23.9,24.2,32.5,24.2,32.7c0,48.6,16,76.8,29.5,91.8c14.7,16.5,29.5,21.3,30.1,21.5c0.3,0.1,0.7,0.2,1,0.2h100.6
		c0.3,0,0.7-0.1,1-0.2c0.6-0.2,15.3-5,30.1-21.5c13.4-15.1,29.5-43.2,29.5-91.8c0-0.2,24.2-8.8,24.2-32.7c0-0.9,0-1.8-0.5-2.6
		C269.5,119,268.7,118.5,267.8,118.3z M264.5,86.6c-1.1,21.5-21.1,30-24.2,31.1c-3.1,0.2-6.3,0.6-9.6,1.1
		c-9.9,1.5-18.7,4.1-26.4,7.7c2.6-1.8,4.7-4.5,5.9-7.8c5.7,0.8,11.3-1.4,14.3-6c3.5-5.2,3.5-12.8-3.3-19.3
		C237.1,82.1,257.6,85.2,264.5,86.6z M193.7,84.2L193.7,84.2c0.2,0.2,0.4,0.4,0.6,0.6c1.4,1.1,3.5,0.8,4.6-0.6
		c1.1-1.4,5-5.4,9.1-5.9c1.8-0.2,3.5,0.3,5.1,1.6c3,2.4,3.1,7.6,0.1,11.6c-0.5,0.7-0.8,1.6-0.6,2.5c0.1,0.9,0.6,1.7,1.4,2.2
		c5.8,4,7.7,8.9,5,12.9c-2,3-6.2,4.1-10.1,2.6c-0.9-0.3-2-0.2-2.8,0.3c-0.9,0.5-1.4,1.4-1.6,2.4c-0.6,4.6-4.1,8.1-8.1,8.1
		c-4,0-7.5-3.5-8.1-8.1c-0.1-1-0.7-1.9-1.6-2.4c-0.9-0.5-1.9-0.6-2.8-0.3c-4,1.5-8.1,0.4-10.1-2.6c-2.7-4-0.8-9,5-12.9
		c0.7-0.5,1.2-1.3,1.4-2.2c0.1-0.9-0.1-1.8-0.6-2.5c-3-4-3-9.2,0.1-11.6c1.6-1.3,3.3-1.8,5.2-1.6C188.8,78.8,192.7,82.9,193.7,84.2z
		 M238.9,173.8H32.2c-0.5-4.9-0.8-10.1-0.9-15.5h206c0,0,0,0,0,0c0,0,0,0,0,0h2.4C239.7,163.8,239.4,168.9,238.9,173.8z M98.6,92.7
		c2.3-4.5,2.4-9.6,0.5-13.6c1.6-1.1,3.1-2.5,4.2-4.2c1,2.1,2,4.4,2.9,6.7c-2,4.7-1.2,9.5,1.2,13c1.2,1.7,2.7,3.1,4.4,4.1
		c5.9,22.5,6.7,44.8,6.8,52.9H112c-0.1-3.1-0.5-7.8-2.1-13.1c-2.5-8.4-7-15.4-13.3-20.8c2.5-1,4.7-2.7,6.2-5
		C106.5,107.4,106.4,99.4,98.6,92.7z M108.9,71.1c0.5,0,1-0.1,1.5-0.2c0.3,1.2,0.8,2.4,1.3,3.6c-0.3,0.3-0.6,0.5-0.9,0.8
		C110.2,73.9,109.5,72.5,108.9,71.1z M105.4,151.7H95.2c-5.6-9.8-13.9-17.6-24.6-23.3c1.3,0.4,2.7,0.7,4.1,0.7
		c5.8,0,11-3.8,13.4-9.3C103.1,129.2,105.2,145.1,105.4,151.7z M119.2,100.8c0.9,0,1.7,0,2.6-0.1c1.8,4.9,5.7,8.7,10.4,9.9v41.2
		h-6.9C125.2,143.8,124.5,123,119.2,100.8z M138.8,151.7v-41.2c4.7-1.2,8.7-4.9,10.4-9.9c0.9,0.1,1.8,0.2,2.6,0.1
		c-5.3,22.1-6.1,43-6.1,50.9L138.8,151.7L138.8,151.7z M163.6,94.7c2.4-3.6,3.2-8.3,1.2-13.1c0.9-2.3,1.9-4.6,2.9-6.7
		c1.2,1.7,2.6,3.1,4.2,4.2c-1.9,4-1.8,9,0.5,13.6c-7.7,6.7-7.8,14.7-4.2,20.1c1.5,2.3,3.7,4,6.2,5c-6.3,5.3-10.8,12.4-13.3,20.8
		c-1.6,5.3-2,10.1-2.1,13.1h-6.8c0.1-8.1,1-30.4,6.8-52.9C161,97.8,162.5,96.4,163.6,94.7z M159.4,74.5c0.6-1.2,1-2.4,1.3-3.6
		c0.5,0.1,1,0.1,1.5,0.2c-0.7,1.4-1.3,2.8-2,4.2C160,75.1,159.7,74.8,159.4,74.5z M165.7,151.7c0.2-6.6,2.2-22.6,17.3-32
		c2.4,5.6,7.5,9.4,13.4,9.4c1.4,0,2.8-0.2,4.1-0.7c-10.7,5.7-19,13.5-24.6,23.3L165.7,151.7L165.7,151.7z M161.8,48.4
		c0.7-0.5,1.2-1.3,1.4-2.2c0.1-0.9-0.1-1.8-0.6-2.5c-3-4-3-9.2,0.1-11.6c1.6-1.3,3.3-1.8,5.2-1.6c4.1,0.5,9.4,6.4,9.7,6.5
		c1.4,1.1,3.5,0.8,4.6-0.6c1.1-1.4,5-5.4,9.1-5.9c1.8-0.2,3.5,0.3,5.1,1.6c3,2.4,3.1,7.6,0.1,11.6c-0.5,0.7-0.8,1.6-0.6,2.5
		c0.1,0.9,0.6,1.7,1.4,2.2c5.8,4,7.7,8.9,5,12.9c-2,3-6.2,4.1-10.1,2.6c-0.9-0.3-2-0.2-2.8,0.3c-0.9,0.5-1.4,1.4-1.6,2.4
		c-0.2,1.8-1,3.7-2,5.1c0,0,0,0-0.1,0c-3.2-0.4-6.3,0.4-9.1,2.3c-2.6-1.3-4.6-4.1-5-7.4c-0.1-1-0.7-1.9-1.6-2.4
		c-0.9-0.5-1.9-0.6-2.8-0.3c-2,0.7-4.1,0.8-6,0.3c-0.6-3-2.1-5.7-4.5-7.6c-0.2-0.2-0.5-0.3-0.7-0.5
		C156.3,53.5,158.4,50.8,161.8,48.4z M118.7,73.4c-3-4-3-9.2,0.1-11.6c1.6-1.3,3.3-1.8,5.1-1.6c4.1,0.5,8,4.5,9.1,5.9
		c1.1,1.4,3.2,1.7,4.6,0.6c0.2-0.2,0.4-0.4,0.6-0.6l0,0c1.1-1.4,5-5.4,9.1-5.9c1.8-0.2,3.5,0.3,5.1,1.6c3,2.4,3,7.6,0.1,11.6
		c-0.5,0.7-0.8,1.6-0.6,2.5c0.1,0.9,0.6,1.7,1.4,2.2c5.8,4,7.7,8.9,5,12.9c-0.7,1.1-1.7,1.9-2.9,2.4c-0.1,0-0.2,0.1-0.3,0.1
		c-2,0.9-4.5,0.9-7,0c-0.9-0.3-2-0.2-2.8,0.3c-0.9,0.5-1.4,1.4-1.6,2.4c-0.6,4.6-4.1,8.1-8.1,8.1c-4,0-7.5-3.5-8.1-8.1
		c-0.1-1-0.7-1.9-1.6-2.4c-0.9-0.5-1.9-0.6-2.8-0.3c-2.4,0.9-4.9,0.8-6.9,0c-0.1-0.1-0.2-0.1-0.3-0.2c-1.2-0.6-2.1-1.4-2.9-2.4
		c-2.7-4-0.8-9,5-12.9c0.7-0.5,1.2-1.3,1.4-2.2C119.4,75,119.2,74.1,118.7,73.4z M79.2,64c-4,1.5-8.1,0.4-10.1-2.6
		c-2.7-4-0.8-9,5-12.9c0.7-0.5,1.2-1.3,1.4-2.2c0.1-0.9-0.1-1.8-0.6-2.5c-3-4-3-9.2,0.1-11.6c1.6-1.3,3.3-1.8,5.1-1.6
		c4.1,0.5,9.4,6.4,9.7,6.5c1.4,1.1,3.5,0.8,4.6-0.6c1.1-1.4,5-5.4,9.1-5.9c1.8-0.2,3.5,0.3,5.2,1.6c3,2.4,3,7.6,0.1,11.6
		c-0.5,0.7-0.8,1.6-0.6,2.5c0.1,0.9,0.6,1.7,1.4,2.2c3.4,2.4,5.5,5,6.1,7.7c-0.2,0.2-0.5,0.3-0.7,0.5c-2.5,1.9-4,4.6-4.5,7.6
		c-1.9,0.5-4,0.5-6-0.3c-0.9-0.3-2-0.2-2.8,0.3c-0.9,0.5-1.4,1.4-1.6,2.4c-0.4,3.3-2.4,6.2-5,7.4c-2.8-1.9-5.9-2.7-9.1-2.3
		c0,0,0,0-0.1,0c-1-1.5-1.7-3.4-2-5.1c-0.1-1-0.7-1.9-1.6-2.4C81.1,63.7,80.1,63.6,79.2,64z M57.1,96.2c0.7-0.5,1.2-1.3,1.4-2.2
		c0.1-0.9-0.1-1.8-0.6-2.5c-3-4-3-9.2,0.1-11.6c1.6-1.3,3.3-1.8,5.1-1.6c4.1,0.5,8,4.5,9.1,5.9l0,0c0.2,0.2,0.4,0.4,0.6,0.6
		c1.4,1.1,3.5,0.8,4.6-0.6c1.1-1.4,5-5.4,9.1-5.9c1.8-0.2,3.5,0.3,5.2,1.6c3,2.4,3,7.6,0.1,11.6c-0.5,0.7-0.8,1.6-0.6,2.5
		c0.1,0.9,0.6,1.7,1.4,2.2c5.8,4,7.7,8.9,5,12.9c-2,3-6.2,4.1-10.1,2.6c-0.9-0.3-2-0.2-2.8,0.3c-0.9,0.5-1.4,1.4-1.6,2.4
		c-0.6,4.6-4.1,8.1-8.1,8.1c-4,0-7.5-3.5-8.1-8.1c-0.1-1-0.7-1.9-1.6-2.4c-0.9-0.5-1.9-0.6-2.8-0.3c-4,1.5-8.1,0.4-10.1-2.6
		C49.4,105.1,51.3,100.1,57.1,96.2z M6.6,86.6c6.9-1.5,27.3-4.5,43.3,6.9c-6.8,6.5-6.8,14.1-3.3,19.3c3.1,4.6,8.7,6.8,14.3,6
		c1.2,3.2,3.2,5.9,5.9,7.8c-7.7-3.6-16.6-6.2-26.4-7.7c-3.3-0.5-6.5-0.8-9.6-1.1C27.7,116.6,7.7,108.2,6.6,86.6z M8,124.5
		c13.3-1.2,59-2.7,79.5,27.2H34.3C29.4,150.7,15.3,143.1,8,124.5z M212.3,242.2c-12.2,13.8-24.5,18.9-27,19.8H85.8
		c-2.5-0.9-14.8-6-27-19.8c-10-11.4-21.6-30.7-25.8-61.7h205.1C233.9,211.4,222.3,230.8,212.3,242.2z M236.8,151.7h-53.2
		c9.5-14.1,25.6-22.9,47.9-26.3c13.5-2.1,25.8-1.5,31.6-0.9C261,143.3,239.9,150.6,236.8,151.7z"/>
</g>
<path class="st1" d="M118.4,77.8c-5.8,4-7.7,8.9-5,12.9c0.7,1.1,1.7,1.9,2.9,2.4c0.1,0,0.2,0.1,0.3,0.2c2,0.9,4.5,0.9,6.9,0
	c0.9-0.3,2-0.2,2.8,0.3c0.9,0.5,1.4,1.4,1.6,2.4c0.6,4.6,4.1,8.1,8.1,8.1c4,0,7.5-3.5,8.1-8.1c0.1-1,0.7-1.9,1.6-2.4
	c0.9-0.5,1.9-0.6,2.8-0.3c2.4,0.9,4.9,0.8,7,0c0.1,0,0.2-0.1,0.3-0.1c1.2-0.6,2.2-1.4,2.9-2.4c2.7-4,0.8-9-5-12.9
	c-0.7-0.5-1.2-1.3-1.4-2.2c-0.1-0.9,0.1-1.8,0.6-2.5c3-4,3-9.2-0.1-11.6c-1.6-1.3-3.3-1.8-5.2-1.6c-4.1,0.5-8,4.5-9.1,5.9l0,0
	c-0.2,0.2-0.4,0.4-0.6,0.6c-1.4,1.1-3.5,0.8-4.6-0.6c-1.1-1.4-5-5.4-9.1-5.9c-1.8-0.2-3.5,0.3-5.1,1.6c-3,2.4-3.1,7.6-0.1,11.6
	c0.5,0.7,0.8,1.6,0.6,2.5C119.6,76.5,119.1,77.3,118.4,77.8z M133.7,79c0.6-0.6,1.5-1,2.3-1s1.7,0.4,2.3,1c0.6,0.6,1,1.5,1,2.3
	c0,0.9-0.3,1.7-1,2.3c-0.6,0.6-1.5,1-2.3,1s-1.7-0.3-2.3-1c-0.6-0.6-1-1.5-1-2.3C132.7,80.5,133.1,79.6,133.7,79z"/>
<path class="st1" d="M179.5,79.7c-3,2.4-3,7.6-0.1,11.6c0.5,0.7,0.8,1.6,0.6,2.5c-0.1,0.9-0.6,1.7-1.4,2.2c-5.8,4-7.7,8.9-5,12.9
	c2,3,6.2,4.1,10.1,2.6c0.9-0.3,2-0.2,2.8,0.3c0.9,0.5,1.4,1.4,1.6,2.4c0.6,4.6,4.1,8.1,8.1,8.1c4,0,7.5-3.5,8.1-8.1
	c0.1-1,0.7-1.9,1.6-2.4c0.9-0.5,1.9-0.6,2.8-0.3c4,1.5,8.1,0.4,10.1-2.6c2.7-4,0.8-9-5-12.9c-0.7-0.5-1.2-1.3-1.4-2.2
	c-0.1-0.9,0.1-1.8,0.6-2.5c3-4,3-9.2-0.1-11.6c-1.6-1.3-3.3-1.8-5.1-1.6c-4.1,0.5-8,4.5-9.1,5.9c-1.1,1.4-3.2,1.7-4.6,0.6
	c-0.2-0.2-0.4-0.4-0.6-0.6l0,0c-1.1-1.4-5-5.4-9.1-5.9C182.9,77.9,181.2,78.4,179.5,79.7z M194,97.1c0.6-0.6,1.5-1,2.3-1
	c0.9,0,1.7,0.3,2.3,1c0.6,0.6,1,1.5,1,2.3c0,0.9-0.4,1.7-1,2.3c-0.6,0.6-1.5,1-2.3,1c-0.9,0-1.7-0.4-2.3-1c-0.6-0.6-1-1.5-1-2.3
	C193.1,98.6,193.4,97.8,194,97.1z"/>
<path class="st1" d="M161.5,64c1.9,0.5,4,0.5,6-0.3c0.9-0.3,2-0.2,2.8,0.3c0.9,0.5,1.4,1.4,1.6,2.4c0.4,3.3,2.4,6.2,5,7.4
	c2.8-1.9,5.9-2.7,9.1-2.3c0,0,0,0,0.1,0c1-1.5,1.7-3.4,2-5.1c0.1-1,0.7-1.9,1.6-2.4c0.9-0.5,1.9-0.6,2.8-0.3
	c3.9,1.5,8.1,0.4,10.1-2.6c2.7-4,0.8-9-5-12.9c-0.7-0.5-1.2-1.3-1.4-2.2c-0.1-0.9,0.1-1.8,0.6-2.5c3-4,3-9.2-0.1-11.6
	c-1.6-1.3-3.3-1.8-5.1-1.6c-4.1,0.5-8,4.5-9.1,5.9c-1.1,1.4-3.2,1.7-4.6,0.6c-0.2-0.2-5.6-6-9.7-6.5c-1.8-0.2-3.5,0.3-5.2,1.6
	c-3,2.4-3,7.6-0.1,11.6c0.5,0.7,0.8,1.6,0.6,2.5c-0.1,0.9-0.6,1.7-1.4,2.2c-3.4,2.4-5.5,5-6.1,7.7c0.2,0.2,0.5,0.3,0.7,0.5
	C159.4,58.3,160.9,61,161.5,64z M177.6,49.4c0.6-0.6,1.5-1,2.3-1s1.7,0.3,2.3,1c0.6,0.6,1,1.5,1,2.3s-0.3,1.7-1,2.3
	c-0.6,0.6-1.5,1-2.3,1s-1.7-0.4-2.3-1c-0.6-0.6-1-1.5-1-2.3S177,50,177.6,49.4z"/>
<path class="st1" d="M82.5,64c0.9,0.5,1.4,1.4,1.6,2.4c0.2,1.8,1,3.7,2,5.1c0,0,0,0,0.1,0c3.2-0.4,6.3,0.4,9.1,2.3
	c2.6-1.3,4.6-4.1,5-7.4c0.1-1,0.7-1.9,1.6-2.4c0.9-0.5,1.9-0.6,2.8-0.3c2,0.7,4.1,0.8,6,0.3c0.6-3,2.1-5.7,4.5-7.6
	c0.2-0.2,0.5-0.3,0.7-0.5c-0.6-2.7-2.6-5.3-6.1-7.7c-0.7-0.5-1.2-1.3-1.4-2.2s0.1-1.8,0.6-2.5c3-4,3-9.2-0.1-11.6
	c-1.6-1.3-3.3-1.8-5.2-1.6c-4.1,0.5-8,4.5-9.1,5.9c-1.1,1.4-3.2,1.7-4.6,0.6c-0.2-0.2-5.6-6-9.7-6.5c-1.8-0.2-3.5,0.3-5.1,1.6
	c-3,2.4-3.1,7.6-0.1,11.6c0.5,0.7,0.8,1.6,0.6,2.5c-0.1,0.9-0.6,1.7-1.4,2.2c-5.8,4-7.7,8.9-5,12.9c2,3,6.2,4.1,10.1,2.6
	C80.6,63.4,81.6,63.5,82.5,64z M89.8,49.4c0.6-0.6,1.5-1,2.3-1c0.9,0,1.7,0.3,2.3,1c0.6,0.6,1,1.5,1,2.3s-0.4,1.7-1,2.3
	c-0.6,0.6-1.5,1-2.3,1c-0.9,0-1.7-0.4-2.3-1c-0.6-0.6-1-1.5-1-2.3C88.8,50.9,89.2,50,89.8,49.4z"/>
<path class="st1" d="M61.7,111.5c0.9-0.3,2-0.2,2.8,0.3c0.9,0.5,1.4,1.4,1.6,2.4c0.6,4.6,4.1,8.1,8.1,8.1c4,0,7.5-3.5,8.1-8.1
	c0.1-1,0.7-1.9,1.6-2.4c0.9-0.5,1.9-0.6,2.8-0.3c3.9,1.5,8.1,0.4,10.1-2.6c2.7-4,0.8-9-5-12.9c-0.7-0.5-1.2-1.3-1.4-2.2
	c-0.1-0.9,0.1-1.8,0.6-2.5c3-4,3-9.2-0.1-11.6c-1.6-1.3-3.3-1.8-5.2-1.6c-4.1,0.5-8,4.5-9.1,5.9c-1.1,1.4-3.2,1.7-4.6,0.6
	c-0.2-0.2-0.4-0.4-0.6-0.6l0,0c-1.1-1.4-5-5.4-9.1-5.9c-1.8-0.2-3.5,0.3-5.1,1.6c-3,2.4-3.1,7.6-0.1,11.6c0.5,0.7,0.8,1.6,0.6,2.5
	c-0.1,0.9-0.6,1.7-1.4,2.2c-5.8,4-7.7,8.9-5,12.9C53.6,111.9,57.8,112.9,61.7,111.5z M71.9,97.1c0.6-0.6,1.5-1,2.3-1
	c0.9,0,1.7,0.3,2.3,1s1,1.5,1,2.3c0,0.9-0.3,1.7-1,2.3c-0.6,0.6-1.5,1-2.3,1c-0.9,0-1.7-0.4-2.3-1c-0.6-0.6-1-1.5-1-2.3
	C70.9,98.6,71.3,97.8,71.9,97.1z"/>
</svg>
