<?xml version="1.0" encoding="utf-8"?>
<!-- Generator: Adobe Illustrator 21.0.0, SVG Export Plug-In . SVG Version: 6.00 Build 0)  -->
<svg version="1.1" id="Layer_1" xmlns="http://www.w3.org/2000/svg" xmlns:xlink="http://www.w3.org/1999/xlink" x="0px" y="0px"
	 viewBox="0 0 271.1 271.1" style="enable-background:new 0 0 271.1 271.1;" xml:space="preserve">
<style type="text/css">
	.st0{fill:#211F1E;}
	.st1{fill:#FF8400;}
</style>
<g>
	<g>
		<path class="st0" d="M261.3,98.5c-5.9-4.6-12.6-7.8-20.1-8.6c-2.7-14.8-9.9-27.9-20.7-37.3c-11.5-10.2-26.6-16.4-43-16.4H92.6
			c-16.4,0-31.4,6.2-43,16.4C38.9,62.3,31.4,75.2,29,90c-7.5,0.8-14.5,4-19.6,9.1C3.5,105,0,113.1,0,121.9c0,5.9,1.6,11.3,4.3,16.1
			c2.4,4,5.9,7.5,9.7,10.2c-1.1,3-1.6,6.2-1.6,9.4c0,8.3,3.5,16.1,9.1,21.8c0.5,0.5,1.1,1.1,1.9,1.3c-2.4,0.5-4.6,1.6-6.2,3.2
			l-0.3,0.3c-2.7,2.7-4.3,6.4-4.3,10.5c0,4,1.6,7.8,4.3,10.5c2.7,2.7,6.4,4.3,10.5,4.3h1.9v20.4c0,2.4,1.9,4,4,4H44
			c1.9,0,3.5-1.1,4-3l6.4-21.5h163l6.4,21.5c0.5,1.9,2.1,3,4,3h10.7c2.4,0,4-1.9,4-4v-20.4h1.9c4,0,7.8-1.6,10.5-4.3
			c2.7-2.7,4.3-6.4,4.3-10.5c0-4-1.6-7.8-4.3-10.5c-1.9-1.9-4-3-6.4-3.5c0.5-0.5,1.3-0.8,1.9-1.6c5.6-5.6,9.1-13.2,9.1-21.8
			c0-3.8-0.8-7.3-1.9-10.5c3.5-2.7,6.4-5.6,8.6-9.4c2.7-4.8,4.3-10.2,4.3-16.1C270.7,112.5,267.2,104.5,261.3,98.5z M55.3,58.8
			c9.9-8.9,23.1-14.2,37.3-14.2h84.6c14.2,0,27.4,5.4,37.3,14.2c9.1,8.1,15.6,18.8,18,31.1c-0.3,0-0.5,0.3-0.8,0.3
			c-0.8,0.3-1.6,0.3-2.4,0.5c-1.1,0.3-2.1,0.5-3.2,1.1c-0.8,0.3-1.6,0.5-2.1,0.8c-1.1,0.5-2.1,1.1-3.2,1.6c-0.5,0.3-1.3,0.8-1.9,1.1
			c-1.3,0.8-2.7,1.9-3.8,3c-0.3,0.3-0.5,0.3-0.5,0.5c-4.3,4.3-7.5,9.9-8.9,16.4c-0.5,2.1-0.5,4.3-0.5,6.4c0,1.6,0.3,3.5,0.5,5.1
			H64.4c0.3-1.6,0.5-3.5,0.5-5.1c0-8.9-3.5-16.9-9.4-22.8c-0.3-0.3-0.5-0.3-0.5-0.5c-1.1-1.1-2.4-2.1-3.8-3
			c-0.5-0.5-1.3-0.8-1.9-1.1c-1.1-0.5-2.1-1.1-3.2-1.6c-0.8-0.3-1.3-0.5-2.1-0.8c-1.1-0.5-2.1-0.8-3.2-1.1c-0.8-0.3-1.6-0.5-2.4-0.5
			c-0.3,0-0.5-0.3-0.8-0.3C39.7,77.6,46.2,66.9,55.3,58.8z M11.3,133.7c-1.9-3.5-3-7.5-3-11.8c0-6.7,2.7-12.6,7-16.9s10.5-7,16.9-7
			c6.7,0,12.6,2.7,16.9,7c4.3,4.3,7,10.5,7,16.9c0,1.3,0,2.7-0.3,4c0,0.3-0.3,0.8-0.3,1.1H43h-1.1c-0.8,0-1.6,0.3-2.7,0.3
			c-1.1,0-2.1,0.3-3.2,0.5c-3.8,0.8-7.3,1.9-10.5,3.8c-3.5,2.1-6.4,5.1-8.9,8.6C14.5,138.3,12.6,136.1,11.3,133.7z M40.8,225.6h-3.5
			v-16.1h8.3L40.8,225.6z M234.4,225.6h-3.5l-4.8-16.1h8.3L234.4,225.6L234.4,225.6z M248.9,190.4c1.1,1.1,1.9,2.7,1.9,4.6
			c0,1.6-0.8,3.2-1.9,4.6c-1.1,1.1-2.7,1.9-4.6,1.9h-5.9h-18.3H51H33h-5.9c-1.9,0-3.2-0.8-4.6-1.9c-1.1-1.1-1.9-2.7-1.9-4.6
			c0-1.6,0.8-3.2,1.9-4.6l0.3-0.3c1.1-1.1,2.7-1.6,4.3-1.6h16.1h185.3h15.8C246,188.5,247.6,189.3,248.9,190.4z M244.4,173.5
			c-4,4-9.7,6.4-15.8,6.4H43.2c-6.2,0-11.8-2.4-15.8-6.4c-4-4-6.7-9.7-6.7-15.8s2.4-11.8,6.7-15.8c3-3,7-5.1,11.3-6.2
			c0.3,0,0.5,0,0.8,0c1.3-0.3,2.4-0.3,3.8-0.3h15.8h152.3h16.9c2.1,0,4.3,0.3,6.2,0.8h0.3c1.9,0.5,3.8,1.3,5.4,2.4
			c3.5,2.1,6.4,5.4,8.3,9.1c0,0,0,0.3,0.3,0.3c0,0,0.3,0,0.3,0.3c1.3,3,2.1,5.9,2.1,9.1C250.8,163.8,248.4,169.4,244.4,173.5z
			 M258.6,133.7c-1.3,2.4-3.2,4.6-5.1,6.2c-1.1-1.3-2.1-2.7-3.2-4c-3.5-3.5-8.1-6.2-13.2-7.5c-0.3,0-0.5-0.3-0.5-0.3
			c-2.7-0.8-5.1-1.1-8.1-1.1h-14.2c0-0.3-0.3-0.8-0.3-1.1c-0.3-1.3-0.3-2.7-0.3-4c0-6.7,2.7-12.6,7-16.9c2.1-2.1,4.8-4,7.5-5.1h0.3
			c1.3-0.5,2.7-1.1,4.3-1.3c0.3,0,0.5,0,0.8,0c1.3-0.3,2.7-0.5,4-0.5c6.7,0,12.6,2.7,16.9,7c4.3,4.3,7,10.5,7,16.9
			C261.8,126.2,260.5,130.2,258.6,133.7z"/>
	</g>
</g>
<g>
	<g>
		<path class="st0" d="M141.8,85.9l3.2-3.2c1.6-1.6,1.6-4.3,0-5.9c-1.6-1.6-4.3-1.6-5.9,0l-3.2,3.2l-3.5-3.5c-1.6-1.6-4.3-1.6-5.9,0
			c-1.6,1.6-1.6,4.3,0,5.9l3.2,3.2l-3.2,3.2c-1.6,1.9-1.6,4.3,0.3,6.2c1.6,1.6,4.3,1.6,5.9,0l3.2-3.2l3.2,3.2c1.6,1.6,4.3,1.6,5.9,0
			c1.6-1.6,1.6-4.3,0-5.9L141.8,85.9z"/>
	</g>
</g>
<g>
	<g>
		<path class="st0" d="M97.7,85.9l3.2-3.2c1.6-1.6,1.6-4.3,0-5.9c-1.6-1.6-4.3-1.6-5.9,0L91.8,80l-3.2-3.2c-1.6-1.6-4.3-1.6-5.9,0
			c-1.6,1.6-1.6,4.3,0,5.9l3.2,3.2l-3.2,3.2c-1.6,1.6-1.6,4,0,5.9c1.6,1.6,4.3,1.6,5.9,0l3.2-3.2l3.2,3.2c1.6,1.6,4.3,1.6,5.9,0
			c1.6-1.6,1.6-4.3,0-5.9L97.7,85.9z"/>
	</g>
</g>
<g>
	<g>
		<path class="st0" d="M185.6,85.9l3.2-3.2c1.6-1.6,1.6-4.3,0-5.9s-4.3-1.6-5.9,0l-3.2,3.2l-3.2-3.2c-1.6-1.6-4.3-1.6-5.9,0
			s-1.6,4.3,0,5.9l3.2,3.2l-3.2,3.2c-1.6,1.6-1.6,4,0,5.9c1.6,1.6,4.3,1.6,5.9,0l3.2-3.2l3.2,3.2c1.6,1.6,4.3,1.6,5.9,0
			c1.6-1.6,1.6-4.3,0-5.9L185.6,85.9z"/>
	</g>
</g>
<polygon class="st1" points="37.3,225.3 40.8,225.3 45.7,209.2 37.3,209.2 "/>
<path class="st1" d="M228.5,188.7H43.2H27.1c-1.6,0-3.2,0.5-4.3,1.6l-0.3,0.3c-1.1,1.3-1.9,3-1.9,4.6c0,1.9,0.8,3.5,1.9,4.6
	c1.3,1.1,2.7,1.9,4.6,1.9H33h18h169.2h18.3h5.9c1.9,0,3.5-0.8,4.6-1.9c1.1-1.3,1.9-3,1.9-4.6c0-1.9-0.8-3.5-1.9-4.6
	c-1.3-1.1-3-1.9-4.6-1.9H228.5z"/>
<polygon class="st1" points="231,225.3 234.5,225.3 234.5,209.2 226.2,209.2 "/>
</svg>
