<?xml version="1.0" encoding="utf-8"?>
<!-- Generator: Adobe Illustrator 21.0.0, SVG Export Plug-In . SVG Version: 6.00 Build 0)  -->
<svg version="1.1" id="Layer_1" xmlns="http://www.w3.org/2000/svg" xmlns:xlink="http://www.w3.org/1999/xlink" x="0px" y="0px"
	 viewBox="0 0 271.1 271.1" style="enable-background:new 0 0 271.1 271.1;" xml:space="preserve">
<style type="text/css">
	.st0{fill:#FF8400;}
	.st1{fill:#211F1E;}
</style>
<rect x="43.5" y="34.2" class="st0" width="190.9" height="9.1"/>
<rect x="43.5" y="228.6" class="st0" width="190.9" height="9.1"/>
<g>
	<g>
		<path class="st1" d="M230.2,12.5C226.6,5.4,219.5,1,211.5,1H66.4c-8,0-15.1,4.4-18.7,11.5C30.4,47.1,20.8,91,20.8,136.1
			s9.6,88.9,26.9,123.6c3.5,7.1,10.7,11.5,18.7,11.5h145.1c8,0,15.1-4.4,18.7-11.5c17.4-34.7,26.9-78.5,26.9-123.6
			S247.5,47.1,230.2,12.5z M211.5,8.9c5,0,9.4,2.7,11.6,7.1c1.7,3.4,3.3,6.8,4.8,10.4h-15.7c-1.4-4.6-3-9.2-4.6-13.5
			c-0.5-1.4-1.2-2.7-1.9-3.9H211.5z M116.9,14.8c0.5-3.3,1.2-5.1,1.6-5.9h40.9v0c0.4,0.8,1.1,2.6,1.6,5.9c0.6,3.7,1.1,7.6,1.6,11.6
			h-47.3C115.8,22.4,116.3,18.5,116.9,14.8z M77.7,15.6c1.5-4.1,4.4-6.7,7.5-6.7h24.9c-0.4,1.4-0.7,2.9-1,4.7
			c-0.6,4.1-1.2,8.4-1.7,12.7H74C75.2,22.7,76.4,19.1,77.7,15.6z M54.8,16c2.2-4.4,6.6-7.1,11.6-7.1h5.8c-0.8,1.2-1.4,2.5-1.9,3.9
			c-1.6,4.3-3.1,8.9-4.6,13.5H50C51.5,22.8,53.1,19.4,54.8,16z M46.8,34.3h138.7c2.2,0,4-1.8,4-4s-1.8-4-4-4h-14.9
			c-0.5-4.4-1.1-8.6-1.7-12.7c-0.3-1.8-0.6-3.4-1-4.7h24.9c3,0,6,2.6,7.5,6.7c1.3,3.5,2.5,7.1,3.7,10.8h-1.5c-2.2,0-4,1.8-4,4
			s1.8,4,4,4h28.8c1.1,3,2.2,6,3.3,9h-191C44.5,40.2,45.6,37.2,46.8,34.3z M175.3,80.9c-0.1-2.2-2-3.9-4.2-3.7
			c-2.2,0.1-3.9,2-3.7,4.2c0.9,17.7,1.4,36.1,1.4,54.8c0,29.5-1.2,58.7-3.6,84.8h-52.6c-2.3-26.2-3.6-55.4-3.6-84.8
			c0-29.5,1.2-58.7,3.6-84.8h52.6c0.4,4.3,0.7,8.8,1.1,13.2c0.2,2.1,1.9,3.7,3.9,3.7c0.1,0,0.2,0,0.3,0c2.2-0.2,3.8-2.1,3.7-4.2
			c-0.3-4.3-0.7-8.5-1-12.7h37.4c5.9,26.1,9,55.4,9,84.8c0,29.5-3.1,58.7-9,84.8h-37.4v0c2.3-26.2,3.5-55.4,3.5-84.8
			C176.8,117.3,176.3,98.7,175.3,80.9z M28.7,136.1c0-29.6,4.2-58.7,12.2-84.8h18.3c-5.7,26.2-8.8,55.5-8.8,84.8
			c0,29.4,3,58.6,8.8,84.8H40.9C33,194.8,28.7,165.7,28.7,136.1z M66.4,263.2c-5,0-9.4-2.7-11.6-7.1c-1.7-3.4-3.3-6.8-4.8-10.4h15.7
			c1.4,4.6,3,9.2,4.6,13.5c0.5,1.4,1.2,2.7,1.9,3.9H66.4z M85.2,263.2c-3,0-6-2.6-7.5-6.7c-1.3-3.5-2.5-7.1-3.7-10.8h33.3
			c0.5,4.4,1.1,8.6,1.7,12.7c0.3,1.8,0.6,3.4,1,4.7H85.2z M161,257.3c-0.5,3.3-1.2,5.1-1.6,5.9h-40.9c-0.4-0.8-1.1-2.6-1.6-5.9
			c-0.6-3.7-1.1-7.6-1.6-11.6h47.3C162.1,249.7,161.6,253.6,161,257.3z M200.2,256.5c-1.5,4.1-4.4,6.7-7.5,6.7h-24.9
			c0.4-1.4,0.7-2.9,1-4.7c0.6-4.1,1.2-8.4,1.7-12.7h33.3C202.7,249.4,201.5,253,200.2,256.5z M223.1,256.1
			c-2.2,4.4-6.6,7.1-11.6,7.1h-5.8c0.8-1.2,1.4-2.5,1.9-3.9c1.6-4.3,3.1-8.9,4.6-13.5h15.7C226.4,249.3,224.8,252.7,223.1,256.1z
			 M231.2,237.8H46.8c-1.1-3-2.2-6-3.3-9h27.8c2.2,0,4-1.8,4-4c0-2.2-1.8-4-4-4h-4c-5.9-26.1-9-55.4-9-84.8c0-29.5,3.1-58.7,9-84.8
			h37.4c-2.3,26.2-3.5,55.4-3.5,84.8c0,29.4,1.2,58.6,3.5,84.8H88.2c-2.2,0-4,1.8-4,4c0,2.2,1.8,4,4,4h146.2
			C233.4,231.9,232.3,234.9,231.2,237.8z M218.7,220.9c5.7-26.2,8.8-55.4,8.8-84.8c0-29.4-3-58.6-8.8-84.8H237
			c7.9,26.1,12.2,55.2,12.2,84.8c0,29.6-4.2,58.7-12.2,84.8H218.7z"/>
	</g>
</g>
</svg>
