<?xml version="1.0" encoding="utf-8"?>
<!-- Generator: Adobe Illustrator 21.0.0, SVG Export Plug-In . SVG Version: 6.00 Build 0)  -->
<svg version="1.1" id="Layer_1" xmlns="http://www.w3.org/2000/svg" xmlns:xlink="http://www.w3.org/1999/xlink" x="0px" y="0px"
	 viewBox="0 0 271.1 271.1" style="enable-background:new 0 0 271.1 271.1;" xml:space="preserve">
<style type="text/css">
	.st0{fill:#FF8400;}
	.st1{fill:#211F1E;}
</style>
<rect x="104.9" y="195" class="st0" width="56.8" height="47.5"/>
<g>
	<g>
		<path class="st1" d="M193.6,5.2h-9.8c-1.4-2.5-4.1-4.2-7.2-4.2h-63.3c-3.7,0-7.3,1.2-10.2,3.5L73.4,27.6c-4.1,3.2-6.4,8-6.4,13.1
			V43c0,4.5,3.7,8.2,8.2,8.2h16.9c0.2,0,0.3,0.1,0.3,0.3v17.8c-4.9,1.7-8.5,6.3-8.5,11.8v169.2c0,11.5,9.4,20.9,20.9,20.9H164
			c11.5,0,20.9-9.4,20.9-20.9v-60.6c0-8.3-3.5-16.3-9.7-21.8l-25.5-22.9c-4.5-4.1-7.1-9.9-7.1-15.9V93.1c0-0.1,0-0.2,0.1-0.3
			c5.8-2,9.2-7.8,8.2-13.8c-1-5.9-6.4-10.4-12.7-10.4h-4V55.4c0.1,0,0.2,0,0.3,0c1.7,0,3.4-0.2,5-0.6c5.3,8.7,13.9,19.7,26.9,26.9
			c0.6,0.3,1.3,0.5,1.9,0.5c1.4,0,2.7-0.7,3.5-2c1.1-1.9,0.4-4.3-1.5-5.4c-11.1-6.2-18.8-15.6-23.5-23.3c5.2-3.8,8.6-10,8.6-16.9
			c0-0.1,0-0.2,0-0.3h21.4c3.1,0,5.8-1.7,7.2-4.2h9.8c4.5,0,8.2-3.7,8.2-8.2v-8.5C201.8,8.9,198.2,5.2,193.6,5.2z M138.2,76.6
			c2.4,0,4.6,1.6,4.9,3.7c0.4,2.5-1.2,4.5-3,5.1c-3.2,1.1-5.4,4.2-5.4,7.7V129c0,8.3,3.5,16.3,9.7,21.8l25.5,22.9
			c4.5,4.1,7.1,9.9,7.1,15.9v60.6c0,7.1-5.8,13-13,13h-59.2c-7.1,0-13-5.8-13-13V81.1c0-2.5,2-4.5,4.5-4.5H109c2.2,0,4-1.8,4-4
			c0-2.2-1.8-4-4-4h-8.7v-9h25.9v9H126c-2.2,0-4,1.8-4,4c0,2.2,1.8,4,4,4H138.2z M134.4,47.5c-0.1,0-0.2,0-0.3,0v-0.3
			c0-7.1,5.8-13,13-13h0.3c0,0.1,0,0.2,0,0.3C147.4,41.7,141.6,47.5,134.4,47.5z M177,26.1c0,0.2-0.1,0.3-0.3,0.3h-29.6
			c-11.5,0-20.9,9.4-20.9,20.9v4.5h-25.9v-0.3c0-4.5-3.7-8.2-8.2-8.2H75.2c-0.2,0-0.3-0.1-0.3-0.3v-2.3c0-2.7,1.2-5.2,3.4-6.9
			L108,10.8c1.5-1.2,3.4-1.8,5.4-1.8h63.3c0.2,0,0.3,0.1,0.3,0.3L177,26.1L177,26.1z M193.9,21.9c0,0.2-0.1,0.3-0.3,0.3h-8.7v-9h8.7
			c0.2,0,0.3,0.1,0.3,0.3V21.9z"/>
	</g>
</g>
<g>
	<g>
		<path class="st1" d="M155.6,187.1h-4.2c-2.2,0-4,1.8-4,4s1.8,4,4,4h4.2c2.5,0,4.5,2,4.5,4.5v33.8c0,2.5-2,4.5-4.5,4.5h-42.3
			c-2.5,0-4.5-2-4.5-4.5v-33.8c0-2.5,2-4.5,4.5-4.5h21.2c2.2,0,4-1.8,4-4s-1.8-4-4-4h-21.2c-6.8,0-12.4,5.6-12.4,12.4v33.8
			c0,6.8,5.6,12.4,12.4,12.4h42.3c6.8,0,12.4-5.6,12.4-12.4v-33.8C168,192.7,162.4,187.1,155.6,187.1z"/>
	</g>
</g>
<g>
	<g>
		<path class="st1" d="M121.7,85.6h-16.9c-2.2,0-4,1.8-4,4c0,2.2,1.8,4,4,4h16.9c2.2,0,4-1.8,4-4C125.7,87.4,123.9,85.6,121.7,85.6z
			"/>
	</g>
</g>
<path class="st0" d="M176.4,8.6h-63.3c-1.9,0-3.8,0.7-5.4,1.8L78,33.5c-2.1,1.7-3.4,4.2-3.4,6.9v2.3c0,0.2,0.1,0.3,0.3,0.3h16.9
	c4.5,0,8.2,3.7,8.2,8.2v0.3H126v-4.5c0-11.5,9.4-20.9,20.9-20.9h29.6c0.2,0,0.3-0.1,0.3-0.3V8.9C176.7,8.7,176.6,8.6,176.4,8.6z"/>
</svg>
