<?xml version="1.0" encoding="utf-8"?>
<!-- Generator: Adobe Illustrator 21.0.0, SVG Export Plug-In . SVG Version: 6.00 Build 0)  -->
<svg version="1.1" id="Layer_1" xmlns="http://www.w3.org/2000/svg" xmlns:xlink="http://www.w3.org/1999/xlink" x="0px" y="0px"
	 viewBox="0 0 227.2 227.2" style="enable-background:new 0 0 227.2 227.2;" xml:space="preserve">
<style type="text/css">
	.st0{fill:#211F1E;}
	.st1{fill:#FF8400;}
</style>
<path class="st0" d="M219.8,117.2c-1.6-5.9-6.4-10.7-12.9-12.9c-0.7-0.2-1.3-0.5-2-0.7l-1.9-0.7l-2.9,0.6l-0.3,0.3
	c-0.8,0.8-1.9,1.2-3.1,1.2c-1.2,0-2.3-0.5-3.1-1.2c-0.7-0.7-1.1-1.6-1-2.5l0-0.4l-1.7-2.7l-1.3-0.6c-0.3-0.1-0.5-0.2-0.8-0.3
	c-5.7-2.6-10.7-6.6-14.7-11.7c-1-1.3-2-2.6-3-3.8l-0.5-0.7c-4-5.2-8.1-10.5-12.7-15.5c-11.1-12.1-22.6-18.8-35.9-21.2
	c0-1.5,0.1-3.1-0.1-4.6c0,0,0,0,0-0.1c0.1-0.1,0.3-0.1,0.5-0.2c8.3-3.5,13.1-9.7,13.7-18.2c0.6-8-2.9-14.5-10-19
	c-7.3-4.5-15.3-4.9-23.2-1.2C95.7,4.6,91.7,10.6,90.9,19c-0.4,4.5,3,8.6,7.7,9.1c4.3,0.5,8.3-2.6,9.2-7.1c0.1-0.6,0.2-1.2,0.3-1.8
	c0.5-2.7,3-4.5,6-4.3c2.9,0.2,5,2.3,5.1,4.9c0,2.8-2,4.8-5.2,5.1c-5.7,0.4-8.8,3.7-8.8,9.2c0,3.3,0,6.7,0,10.2
	c-10.7,1.8-20.4,6.8-30.2,15.6c-7.4,6.5-14,14.1-20.2,23.2c-4.3,6.3-10.2,11.2-17.3,14.5l-1.3,0.5l-1.6,2.7v0.4c0,2-1.9,3.6-4.2,3.6
	c-1.2,0-2.3-0.4-3.1-1.2l-0.3-0.3l-2.9-0.6l-4.9,1.7c-8.6,3-13.7,11.3-12.1,19.7c1.5,8.2,9.1,14.2,17.9,14.3
	c6.7,0.1,13.3,0.2,19.6,0.2l10.4,0v86.3c0,1.9,1.6,3.5,3.5,3.5s3.5-1.6,3.5-3.5v-17h3v17c0,1.9,1.6,3.5,3.5,3.5s3.5-1.6,3.5-3.5v-17
	h3v17c0,1.9,1.6,3.5,3.5,3.5s3.5-1.6,3.5-3.5v-17h3v17c0,1.9,1.6,3.5,3.5,3.5s3.5-1.6,3.5-3.5v-17h3v17c0,1.9,1.6,3.5,3.5,3.5
	s3.5-1.6,3.5-3.5v-17h3v17c0,1.9,1.6,3.5,3.5,3.5s3.5-1.6,3.5-3.5v-17h3v17c0,1.9,1.6,3.5,3.5,3.5s3.5-1.6,3.5-3.5v-17h3v17
	c0,1.9,1.6,3.5,3.5,3.5s3.5-1.6,3.5-3.5v-17h3v17c0,1.9,1.6,3.5,3.5,3.5s3.5-1.6,3.5-3.5v-17h3v17c0,1.9,1.6,3.5,3.5,3.5
	s3.5-1.6,3.5-3.5v-17h3v17c0,1.9,1.6,3.5,3.5,3.5s3.5-1.6,3.5-3.5v-17h3v17c0,1.9,1.6,3.5,3.5,3.5s3.5-1.6,3.5-3.5v-86.4l0.7,0
	c0.2,0,0.5,0,0.7-0.1l11,0.1c1.5,0,3.1,0,4.6,0l1,0c3.2,0,6.1,0,9,0c4.7,0,11.6-0.5,16.6-6.2C219.8,128.3,221.3,122.6,219.8,117.2z
	 M172.2,126.8c0.1,0,0.2,0,0.3,0l20.3,0l10.8,4.8c-1.3,0.2-2.6,0.3-4.2,0.3c-3-0.1-5.9,0-9.2,0l-0.4,0c-1.7,0-3.5,0-5.2,0l-11.2-0.1
	l-0.1,0l-1.3,0.1V126.8z M165.2,137v64.2H62v-74.4c0-4.1,3.3-7.4,7.4-7.4h88.4c4.1,0,7.4,3.3,7.4,7.4v8.9V137z M157.8,112.4H69.4
	c-5.2,0-10,2.9-12.6,7.4l-8.4,0c7.3-5.1,13.8-12.2,20.1-19.2c3.1-3.4,6.3-7,9.4-10c1.8-1.7,3.5-3.6,5.1-5.3c1.7-1.9,3.5-3.8,5.3-5.5
	c7-6.5,15.6-9.7,25.6-9.5c10.5,0.1,19.2,3.8,26.5,11.3l2.8,2.8c4.4,4.5,8.9,9.1,13.7,13.3c2.8,2.5,5.7,5.5,8.8,8.6l0.1,0.1
	c4.3,4.4,9.1,9.3,14.3,13.3l-7.2,0c-0.3,0-0.6,0-0.8,0c-0.3,0-0.8,0-1.5,0h-0.6C167.8,115.2,162.9,112.4,157.8,112.4z M211.2,127.3
	l-17-7.5c-0.2-0.1-0.4-0.1-0.5-0.1c-8.3-3.3-15.7-10.9-22.8-18.2c-3.2-3.3-6.2-6.4-9.3-9.1c-4.7-4.1-9.1-8.6-13.3-13l-2.8-2.8
	c-8.8-8.9-19-13.3-31.5-13.4C102.3,63,92,66.9,83.7,74.7c-2,1.9-3.8,3.9-5.6,5.8l-0.3,0.3c-1.5,1.6-3,3.3-4.6,4.8
	c-3.2,3.1-6.4,6.6-9.8,10.3c-7.6,8.4-15.5,17.1-24.3,21.3c-1.3,0.6-2.6,1.1-4.2,1.7c-0.2,0-0.4,0.1-0.7,0.2l-18.3,8
	c-1-1.3-1.6-2.7-1.9-4.1c-0.9-5.1,2.2-9.9,7.6-11.8l2.8-1c1.8,1.1,3.9,1.7,6.1,1.7c5.2,0,9.8-3.6,10.9-8.4
	c7.9-3.8,14.3-9.4,19.2-16.5c5.9-8.6,12.1-15.8,19.1-22c9.3-8.2,18.2-12.7,28.1-14.1c0.2,0,0.4-0.1,0.6-0.1
	c3.6,1.6,7.6,1.7,11.3,0.1c0,0,0.1,0,0.1,0c12.3,1.8,22.9,7.9,33.4,19.3c4.3,4.7,8.3,9.9,12.2,14.9l0.6,0.8c1,1.3,2,2.6,3,3.9
	c4.7,6,10.5,10.6,17.2,13.8c1.1,4.9,5.6,8.5,10.9,8.5c2.2,0,4.3-0.6,6.1-1.7c0.6,0.2,1.2,0.4,1.8,0.6c4.2,1.4,7.4,4.4,8.3,8.1
	C213.8,121.9,213.2,124.8,211.2,127.3z M126.1,19.7c-0.1-6.4-5-11.4-11.6-11.8c-6.7-0.4-12.3,3.9-13.4,10.1c-0.1,0.5-0.2,1-0.3,1.5
	l0,0.1c-0.2,0.9-1,1.5-1.6,1.4c-0.9-0.1-1.5-0.9-1.4-1.5c0.5-5.9,3.1-9.8,8.2-12.2c5.7-2.7,11.2-2.5,16.4,0.8
	c4.9,3.1,7.1,7.2,6.8,12.6c-0.4,5.8-3.5,9.8-9.4,12.2c-1.3,0.5-5.2,2.2-4.8,7.4c0.1,1.3,0.1,2.7,0.1,4.1l0,1.4c0,0.3,0,0.6,0.1,1
	c-1,0.2-2.1,0.1-3.1-0.1c0-0.3,0.1-0.6,0.1-1c0-3.9,0-7.7,0-11.6c0-1.5,0-2,2.4-2.2C121.4,31.3,126.2,26.3,126.1,19.7z M55,126.8
	v5.1l-10.4,0c-6.7,0-13.3-0.1-19.5-0.2c-0.6,0-1.1-0.1-1.7-0.2l10.9-4.8L55,126.8z"/>
<path class="st0" d="M160.8,187.4H66.4c-1.5,0-2.6,1.2-2.6,2.6c0,1.5,1.2,2.6,2.6,2.6h94.4c1.5,0,2.6-1.2,2.6-2.6
	C163.4,188.6,162.2,187.4,160.8,187.4z"/>
<path class="st0" d="M113.6,130.4c-14.3,0-26,11.6-26,26c0,14.3,11.7,26,26,26c14.3,0,26-11.6,26-26
	C139.6,142,127.9,130.4,113.6,130.4z M113.6,177.1c-11.4,0-20.7-9.3-20.7-20.7s9.3-20.7,20.7-20.7s20.7,9.3,20.7,20.7
	S125,177.1,113.6,177.1z"/>
<path class="st0" d="M125.9,147.7c-1.8-0.6-3.8-1.2-6-1c-0.9-2.1-2.4-3.7-3.8-4.9c-0.6-0.5-1.1-0.8-1.7-1c-0.5-0.2-1.1-0.2-1.6,0
	c-0.6,0.2-1.1,0.5-1.7,1c-1.4,1.3-3,2.8-3.9,5c-2.2-0.2-4.2,0.4-6,1c-0.2,0.1-0.3,0.1-0.5,0.2l-0.7,0.4c-1.3,0.9-1.8,2.3-1.5,4
	c0.4,1.9,1,4.9,3.3,7c-0.5,1.1-0.9,2.4-1,3.8c-0.1,1.5,1,3.3,2.4,3.9c1.7,0.7,4.2,1.5,6.8,0.6c0.8,1,1.6,1.7,2.6,2.1
	c0.3,0.1,0.6,0.1,0.8,0.1c0.3,0,0.6,0,0.8-0.1c1.1-0.3,1.8-1.1,2.6-2.1c2.6,0.9,5.1,0.1,6.8-0.6c1.4-0.6,2.6-2.4,2.4-4
	c-0.1-1.5-0.5-2.7-1-3.8c2.3-2.1,2.9-5.1,3.3-7C129,150.1,128,148.4,125.9,147.7z M113.7,163.4C113.6,163.4,113.6,163.5,113.7,163.4
	C113.6,163.5,113.6,163.5,113.7,163.4C113.6,163.4,113.6,163.4,113.7,163.4z M120.8,155.9c-1.2-0.3-2.3-0.7-3.3-1.3c0,0,0,0,0,0
	l2-2.4c0.9-0.1,2.3,0.1,3.5,0.4C122.6,154.4,122.1,155.4,120.8,155.9z M114.2,151.7c-0.1,0.1-0.2,0.2-0.3,0.4
	c-0.1-0.2-0.3-0.3-0.4-0.4l-1.6-1.7c0.4-1,1-2.1,1.6-3.1c0.8,1.1,1.4,2.6,1.8,3.4L114.2,151.7z M110.2,154.6c-1.4,0.6-3.2,1.1-4,1.3
	c-1.1-0.5-1.7-1.6-2.1-3.3c1.6-0.4,3.1-0.6,3.8-0.4L110.2,154.6z M106.5,162.6c0.2-0.7,0.5-1.6,0.8-2c0.2-0.1,0.6-0.2,1-0.4
	c0.2-0.1,0.4-0.2,0.7-0.3c0,0.7,0.1,1.4,0.3,2.1c-0.1,0.1-0.2,0.1-0.3,0.2C108.6,162.7,108,163,106.5,162.6z M118.8,160.1
	c0.4,0.2,0.7,0.3,0.9,0.4c0.3,0.4,0.6,1.2,0.9,2.1c-1.2,0.3-1.8,0.2-2.3-0.2C118.6,161.7,118.8,160.9,118.8,160.1z"/>
<path class="st1" d="M157.8,119.1H69.4c-4.1,0-7.4,3.3-7.4,7.4V201h103.2v-64.2v-1.3v-8.9C165.2,122.4,161.8,119.1,157.8,119.1z
	 M113.6,130.2c14.3,0,26,11.6,26,26c0,14.3-11.7,26-26,26c-14.3,0-26-11.6-26-26C87.6,141.8,99.2,130.2,113.6,130.2z M160.8,192.4
	H66.4c-1.5,0-2.6-1.2-2.6-2.6c0-1.5,1.2-2.6,2.6-2.6h94.4c1.5,0,2.6,1.2,2.6,2.6C163.4,191.3,162.2,192.4,160.8,192.4z"/>
</svg>
