<?xml version="1.0" encoding="utf-8"?>
<!-- Generator: Adobe Illustrator 21.0.0, SVG Export Plug-In . SVG Version: 6.00 Build 0)  -->
<svg version="1.1" id="Layer_1" xmlns="http://www.w3.org/2000/svg" xmlns:xlink="http://www.w3.org/1999/xlink" x="0px" y="0px"
	 viewBox="0 0 271.1 271.1" style="enable-background:new 0 0 271.1 271.1;" xml:space="preserve">
<style type="text/css">
	.st0{fill:#211F1E;}
	.st1{fill:#FF8400;}
</style>
<g transform="translate(1 1)">
	<g>
		<g>
			<path class="st0" d="M86,229c24.7,0,45-20.2,45-45s-20.2-45-45-45s-45,20.2-45,45S61.2,229,86,229z M81.5,148.3v4.2
				c0,2.7,1.8,4.5,4.5,4.5s4.5-1.8,4.5-4.5v-4.2c17.7,2.2,31.5,17.4,31.5,35.7s-13.8,33.5-31.5,35.7v-4.2c0-2.7-1.8-4.5-4.5-4.5
				s-4.5,1.8-4.5,4.5v4.2C63.8,217.5,50,202.3,50,184S63.8,150.6,81.5,148.3z"/>
			<path class="st0" d="M72.5,193c4.9,0,9-4,9-9s-4-9-9-9c-4.9,0-9,4-9,9C63.5,189,67.5,193,72.5,193z"/>
			<path class="st0" d="M99.5,193c4.9,0,9-4,9-9s-4-9-9-9c-4.9,0-9,4-9,9S94.5,193,99.5,193z"/>
			<path class="st0" d="M225.4,98.6h-63c-2.7,0-4.5,1.8-4.5,4.5s1.8,4.5,4.5,4.5h63c2.7,0,4.5-1.8,4.5-4.5S228.1,98.6,225.4,98.6z"
				/>
			<path class="st0" d="M225.4,116.6h-63c-2.7,0-4.5,1.8-4.5,4.5c0,2.7,1.8,4.5,4.5,4.5h63c2.7,0,4.5-1.8,4.5-4.5
				C229.9,118.4,228.1,116.6,225.4,116.6z"/>
			<path class="st0" d="M265.9,58.1h-13.5v-45c0-7.6-5.8-13.5-13.5-13.5s-13.5,5.8-13.5,13.5v45h-63v-45c0-7.6-5.8-13.5-13.5-13.5
				c-7.6,0-13.5,5.8-13.5,13.5v45H122c-2.7,0-4.5,1.8-4.5,4.5v33.7c0,0.8,0,1.5,0,2.2h-90c-14.8,0-27,12.1-27,27v117
				c0,14.8,12.1,27,27,27h117c14.7,0,26.8-11.9,27.4-26.6c3.7,2.6,8.2,4.1,13.1,4.1h4.5v18c0,2.7,1.8,4.5,4.5,4.5
				c2.7,0,4.5-1.8,4.5-4.5v-18h4.5c12.6,0,22.5-9.9,22.5-22.5v-11.2c0-20.7,7.2-40,21.1-55.3c15.3-16.6,23.8-38.7,23.8-61.2V62.6
				C270.4,59.9,268.6,58.1,265.9,58.1z M234.4,13.1c0-2.7,1.8-4.5,4.5-4.5c2.7,0,4.5,1.8,4.5,4.5v45h-9L234.4,13.1L234.4,13.1z
				 M144.4,13.1c0-2.7,1.8-4.5,4.5-4.5c2.7,0,4.5,1.8,4.5,4.5v45h-9V13.1z M124.6,131.4c4,9.8,9.6,18.7,16.7,26.6
				c0.9,1.3,2.2,2.7,3.1,4v73.8c0,3.6-3.1,6.7-6.7,6.7H34.2c-3.6,0-6.7-3.1-6.7-6.7V132.3c0-3.6,3.1-6.7,6.7-6.7l0,0h88.1
				C123,127.5,123.8,129.4,124.6,131.4z M162.4,242.5c0,9.9-8.1,18-18,18h-117c-9.9,0-18-8.1-18-18v-117c0-9.9,8.1-18,18-18v-0.4
				h90.6c0.4,3.2,0.9,6.3,1.7,9.4H34.2c-8.5,0-15.7,7.2-15.7,15.7v103.5c0,8.5,7.2,15.7,15.7,15.7h103.5c8.5,0,15.7-7.2,16.2-15.7
				v-59.4c5.6,11.3,8.5,23.8,8.5,36.5v11.7V242.5z M261.4,96.3c0,20.7-7.2,40-21.1,55.3c-15.3,16.6-23.8,38.7-23.8,61.2v11.7
				c0,7.6-5.8,13.5-13.5,13.5h-18c-6.4,0-11.5-4.1-13-9.9v-15.3c0-19.9-6.7-39.5-18.8-55.2c0,0,0-0.1,0-0.1c-1.8-2.2-3.1-4-4.9-5.8
				c-0.5-0.5-0.9-1.1-1.4-1.6c-0.1-0.1-0.1-0.2-0.2-0.3c-5.8-6.8-10.5-14.8-13.9-23.2c-0.1-0.3-0.2-0.5-0.3-0.8
				c0-0.1-0.1-0.2-0.1-0.2c-2.8-7.4-4.6-15.1-5.2-22.9c0-0.5-0.1-1-0.3-1.4c-0.1-1.5-0.1-2.9-0.1-4.4V67.1h13.5h18h72h18h13.5
				L261.4,96.3L261.4,96.3z"/>
		</g>
	</g>
</g>
<path class="st1" d="M28.9,133.8v103.5c0,3.6,3.1,6.7,6.7,6.7h103.5c3.6,0,6.7-3.1,6.7-6.7v-73.8c-0.9-1.3-2.2-2.7-3.1-4
	c-7.2-7.9-12.7-16.8-16.7-26.6c-0.8-1.9-1.5-3.8-2.2-5.8H35.7C32.1,127.1,28.9,130.2,28.9,133.8z M87.4,140.6c24.7,0,45,20.2,45,45
	c0,24.7-20.2,45-45,45c-24.7,0-45-20.2-45-45C42.4,160.8,62.7,140.6,87.4,140.6z"/>
<path class="st1" d="M231.4,67.6h-72h-18h-13.5v29.7c0,1.5,0,2.9,0.1,4.4c0.2,0.4,0.3,0.9,0.3,1.4c0.6,7.8,2.4,15.6,5.2,22.9
	c0,0.1,0.1,0.2,0.1,0.2c0.1,0.3,0.2,0.5,0.3,0.8c3.4,8.4,8.2,16.4,13.9,23.2c0.1,0.1,0.1,0.2,0.2,0.3c0.5,0.5,0.9,1.1,1.4,1.6
	c1.8,1.8,3.1,3.6,4.9,5.8c0,0,0,0.1,0,0.1c12.1,15.8,18.8,35.3,18.8,55.2v15.3c1.5,5.8,6.6,9.9,13,9.9h18c7.6,0,13.5-5.8,13.5-13.5
	v-11.7c0-22.5,8.5-44.5,23.8-61.2c13.9-15.3,21.1-34.6,21.1-55.3h0V67.6h-13.5H231.4z M226.9,126.1h-63c-2.7,0-4.5-1.8-4.5-4.5
	s1.8-4.5,4.5-4.5h63c2.7,0,4.5,1.8,4.5,4.5C231.4,124.3,229.6,126.1,226.9,126.1z M226.9,108.1h-63c-2.7,0-4.5-1.8-4.5-4.5
	s1.8-4.5,4.5-4.5h63c2.7,0,4.5,1.8,4.5,4.5S229.6,108.1,226.9,108.1z"/>
</svg>
