<?xml version="1.0" encoding="utf-8"?>
<!-- Generator: Adobe Illustrator 21.0.0, SVG Export Plug-In . SVG Version: 6.00 Build 0)  -->
<svg version="1.1" id="Layer_1" xmlns="http://www.w3.org/2000/svg" xmlns:xlink="http://www.w3.org/1999/xlink" x="0px" y="0px"
	 viewBox="0 0 261.3 261.3" style="enable-background:new 0 0 261.3 261.3;" xml:space="preserve">
<style type="text/css">
	.st0{fill:#211F1E;}
	.st1{fill:#FF8400;}
</style>
<path class="st0" d="M21.7,81.7c-1.4-1.9-3.5-3.1-5.8-3.4c-2.3-0.3-4.6,0.3-6.5,1.7c-1.9,1.4-3.1,3.5-3.4,5.8
	c-0.3,2.3,0.3,4.6,1.7,6.5c1.7,2.2,4.2,3.4,7,3.4c1.9,0,3.8-0.6,5.3-1.8C23.9,91.1,24.7,85.6,21.7,81.7z M11.9,86.6L11.9,86.6
	c0.1-0.8,0.5-1.5,1.1-1.9c0.5-0.4,1.1-0.6,1.7-0.6c0.1,0,0.3,0,0.4,0c0.8,0.1,1.5,0.5,1.9,1.1c0.5,0.6,0.7,1.4,0.6,2.1
	c-0.1,0.8-0.5,1.5-1.1,1.9c-0.6,0.5-1.4,0.7-2.1,0.6c-0.8-0.1-1.5-0.5-1.9-1.1C12,88.2,11.8,87.4,11.9,86.6z"/>
<path class="st0" d="M262.7,192.6c-0.8-11.7-5.3-22.6-12.4-30.1c-1.5-2.7-3.1-5.1-4.9-7.1c-6.4-7.5-14.7-11.3-23.2-10.7
	c-1.2,0.1-2.5,0.3-3.9,0.6l-0.7,0.2c-4.3,1.1-8.3,3.4-11.7,6.7c-4,1.3-8.6,2.1-13.3,2.5c-5.4,0.4-10.7,0-15.2-0.9
	c-3.1-2.1-6.4-3.6-9.8-4.3c-0.3-0.1-0.9-0.2-2-0.3c-1.8-0.2-3.3-0.3-4.8-0.2c-8.5,0.6-16.2,5.5-21.6,13.8c-3.5,5.4-5.8,12-6.6,19.1
	c-1.1-0.1-2.1-0.2-3.1-0.2c-3.6,0-7.2,0.7-10.6,2.2v-41.2c2.1,2.7,5.3,4.4,8.9,4.4c6.2,0,11.2-5,11.2-11.2c0-3.7-1.9-7.2-5-9.3
	c0.1-0.7,0.1-1.3,0.1-2c0-9-7.3-16.3-16.3-16.3c-3.1,0-6.1,0.9-8.8,2.6c-4.7-7.2-12.6-16.2-25-21.1V48.6l-1.1,1.5
	c-1.5-2-4.5-3.5-8.9-4.4c-0.1-3.3-0.2-8,1.6-9.9c0.6-0.6,1.5-0.9,2.9-1c1.5,0,4.8-0.3,9.8-0.8c4.7-0.5,7.6-3.6,7.6-8
	c0-4.4-2.9-7.5-7.6-8c-1.1-0.1-2.1-0.1-3-0.1l-1,0c-2.8,0-5.7,0-8.5,0c-1.7,0-3.5,0-5.2,0l-0.4,0c-10.8,0-22,0.1-32.9-0.1
	c-6.8-0.1-13,1.2-18.7,3.9c-2.5,1.2-5.2,2.3-7.4,3.2c-2.3,1-4.7,2-7.1,3.1c-4.2,2-5.9,6.2-4.1,10.4c1.7,4,5.7,5.7,10.1,4.3
	c1.7-0.5,4.1-1.3,6.4-2.6c9.5-5.2,19.8-7.2,30.5-6.1c1,0.1,2,0.1,3,0.1c2.5,0.1,4.1,0.2,4.9,0.5c0.1,0,0.1,0.1,0.2,0.1
	c0.4,0.2,0.5,0.4,0.6,0.6c0.4,1.2,0.6,5.4,0.6,10.3c-3.5,0.7-7.5,2-9.3,4.6l-1,1v38.3c-24.5,9.4-34.7,36.9-34.7,49.7v40.3
	c-2.4,0.5-4.6,1.5-6.5,2.9c-7.1,5.4-8.5,15.7-3.1,22.8c2.4,3.1,5.8,5.3,9.6,6.1v20.3c0,5.2,8.1,8.4,25.5,10.2
	c12.5,1.3,25.8,1.4,28.3,1.4c4.3,0,26.2-0.2,40.6-3.2h64.1c0.1,0,0.3,0,0.4,0c1.2,0.2,2.6,0.3,4,0.2c0.2,0,0.5,0,0.7,0
	c1.5,0.1,5.9-0.9,7.5-1.7l0,0c2.6-1.1,5.1-2.6,7.3-4.5c4.3-1.7,9.5-2.9,15.1-3.3c4.8-0.3,9.6-0.1,13.7,0.8c3.1,2.1,6.5,3.5,9.9,4.2
	c0.4,0.1,1.1,0.3,2.8,0.4c1.1,0.1,2.2,0.1,3.4,0c8.4-0.6,15.9-5.5,21.2-13.9C261,214.2,263.4,203.6,262.7,192.6z M11.4,203.7v1.7
	c-2-0.7-3.7-1.9-4.9-3.5c-3.5-4.6-2.6-11.2,2-14.7c1.8-1.4,4-2.1,6.3-2.1c3.3,0,6.3,1.5,8.3,4.1c3.5,4.6,2.6,11.2-2,14.7
	c-2.1,1.6-4.8,2.4-7.4,2.1L11.4,203.7z M36.2,23.7c0.4,0,0.8,0,1.1,0C48.2,24,59,23.9,70.9,23.9l3.5,0c3.4,0,6.8,0,10.2,0l1.1,0
	c0.8,0,1.5,0,2.3,0c2.2,0.2,2.4,1.2,2.4,2.2c0,1-0.2,2-2.4,2.2c-5.5,0.6-8,0.8-9.1,0.8c-0.7,0-1.3,0-2,0.1h-20
	c-2-0.6-4.4-0.7-6.5-0.7c-0.9,0-1.8,0-2.6-0.1c-11.8-1.2-23.2,1.1-33.8,6.8c-1.8,1-3.8,1.7-5.4,2.1c-2.3,0.7-2.8-0.5-3-1
	c-0.2-0.5-0.8-1.8,1.2-2.8c2.2-1,4.4-2,6.6-2.9l0.3-0.1c2.5-1,5.1-2.1,7.7-3.4C26.1,24.8,30.8,23.7,36.2,23.7z M117.9,114.1
	c5.8,0,10.4,4.7,10.4,10.4c0,0.8-0.1,1.7-0.4,2.8l-0.2,0.6l1.4,2.7l0.5,0.2c2.1,0.8,3.5,2.8,3.5,5c0,3-2.4,5.4-5.4,5.4
	c-2.5,0-4.6-1.7-5.2-4.1l-0.2-0.6l-2.9-1.6l-0.5,0.1c-0.4,0.1-0.8,0.1-1.2,0.1c-5.8,0-10.4-4.7-10.4-10.4
	C107.5,118.8,112.2,114.1,117.9,114.1z M104.1,116c-1.6,2.6-2.4,5.5-2.4,8.5c0,6.7,4.1,12.6,10.3,15.1v38.5
	c-0.8-0.2-1.6-0.3-2.4-0.3c-5.6,0-10.2,4.6-10.2,10.2c0,3.8,2.1,7.2,5.4,8.9c-1.1,2.1-1.9,4.3-2.5,6.6c-7.5,1.3-13,7.8-13,15.5
	c0,2,0.4,3.9,1.1,5.8c-0.8,1.5-1.1,3.1-1.1,4.8c0,2.1,0.6,4.1,1.8,5.9c-7.7,0.8-16.4,1.2-25.9,1.2c0,0,0,0,0,0
	c-29.9,0-44.3-3.9-46.8-5.3v-19.7c2.3-0.5,4.4-1.5,6.3-2.9c7.1-5.4,8.5-15.7,3.1-22.8c-2.3-3.1-5.6-5.2-9.4-6v-40.3
	c0-11.2,9.2-35.4,31.3-43.5c3.3,1.8,9,2.9,15.5,2.9c6.6,0,12.3-1.1,15.6-2.9C92.6,100.2,99.9,109,104.1,116z M169.8,218.7h-2.3
	c-2-3.9-5.9-6.5-10.1-7c0.1-0.7,0.1-1.4,0.1-2.1c0-7.7-3.2-15-8.8-20.3c2.3-14.1,11-24.3,21.1-25c1-0.1,2.1,0,3.5,0.2l0.9,0.1
	c2.7,0.5,5.5,1.8,8,3.7l1,0.5l0.3,0.1c5.1,1.2,11.1,1.7,17.1,1.3c5.4-0.4,10.6-1.4,15.1-3l1.1-0.6l0.3-0.2c2.7-2.7,5.7-4.6,8.9-5.5
	c1-0.2,2.7-0.6,3.3-0.6c4.8-0.4,9.7,1.4,14,5.1c7,6,11.6,16.4,12.4,27.8c0.6,9.3-1.3,18.2-5.5,25.1c-4.1,6.7-9.8,10.7-16.1,11.1h0
	c-0.8,0.1-1.6,0-2.4,0l-1.3-0.2c-2.9-0.5-5.7-1.6-8.4-3.5l-1-0.5l-0.3-0.1c-4.9-1.1-10.5-1.5-16.3-1.1c-6.6,0.5-12.7,1.8-17.8,4
	l-0.8,0.5l-0.2,0.1c-1.7,1.5-3.5,2.6-5.3,3.5c0.2-0.8,0.3-1.7,0.3-2.5C180.6,223.5,175.7,218.7,169.8,218.7z M109.5,192.2
	c-2.4,0-4.3-1.9-4.3-4.3s1.9-4.3,4.3-4.3c2.4,0,4.3,1.9,4.3,4.3S111.9,192.2,109.5,192.2z M97.5,223.2c-0.8-1.4-1.2-2.8-1.2-4.3
	c0-4.7,3.9-8.7,8.5-8.8l1,0.1l2.9-2.6l0.1-0.6c0.4-3.4,1.7-6.5,3.7-9.5c3-0.9,5.3-3.1,6.5-6c3.4-2,6.9-3.1,10.6-3.1
	c11.6,0,21,9.4,21,21c0,1.7-0.2,3.4-0.7,5.2l-0.2,0.9l3.8,3.6l0.8-0.3c0.7-0.2,1.3-0.3,1.8-0.3c2.7,0,5,1.8,5.7,4.4l0.1,0.5l2.7,2.1
	h5.1c2.1,0,3.8,1.7,3.8,3.8c0,2.1-1.7,3.8-3.8,3.8h-69.8c-2.1,0-3.8-1.7-3.8-3.8c0-1.1,0.5-1.9,0.9-2.3l0.3-0.4l0.3-3.2L97.5,223.2z
	 M228.9,153.2c-1.2,0.1-2.5,0.3-3.9,0.6l-0.7,0.2c-4.3,1.1-8.1,3.4-11.6,6.7c-3.8,1.2-8.1,2-12.6,2.3c-5.1,0.3-10.1,0-14.4-0.9
	c-1-0.7-2-1.3-3-1.8c3.3,0.3,6.7,0.3,10.2,0.1c5.5-0.4,10.8-1.4,15.4-2.9l0.9-0.5l0.3-0.2c2.9-2.8,6.1-4.7,9.6-5.7l0.5-0.1
	c1.1-0.3,2-0.4,2.9-0.5c4-0.3,8,0.8,11.8,3C232.6,153.2,230.7,153.1,228.9,153.2z M169.4,157.3c-12.5,0.9-23.1,11.8-26.8,27.5
	c-1.3-0.7-2.7-1.3-4.1-1.8c0.7-6.5,2.7-12.5,5.7-17.2c4.4-6.7,10.4-10.7,17.1-11.2c1.1-0.1,2.3,0,3.8,0.2l0.9,0.1
	c2.2,0.4,4.3,1.2,6.3,2.3C171.3,157.3,170.3,157.3,169.4,157.3z M74.5,51.7c1.9,0.5,3.1,1.2,3.6,1.6c-1,0.7-3.8,2-8.7,2.5
	c2.6-0.6,4.3-1.8,4.9-3.4l0.2,0L74.5,51.7z M68.5,48.4L68.5,48.4c0,0.5,0.1,1.1,0.1,1.6c-0.6,0.2-1.7,0.4-3.2,0.4
	c-1.5,0-2.5-0.2-3.2-0.4c0.2-3.3,0.2-11.1-0.5-15h7.9C68,39,68.3,44.4,68.5,48.4z M52.3,53.3c0.6-0.4,1.9-1.1,4-1.7
	c0.2,2.1,2.2,3.6,5.3,4.2C56.3,55.4,53.3,54.1,52.3,53.3z M65.2,61.9c5.1,0,9.8-0.8,13.2-2.2v30.9c-1.1,0.7-5.5,2.3-13.2,2.3
	c-7.6,0-12.1-1.6-13.2-2.3V59.7C55.4,61.1,60.1,61.9,65.2,61.9z"/>
<path class="st0" d="M136.1,92.9c-5.2,0-9.4,4.2-9.4,9.4c0,5.2,4.2,9.4,9.4,9.4s9.4-4.2,9.4-9.4C145.5,97.1,141.3,92.9,136.1,92.9z
	 M136.1,98.7c2,0,3.5,1.6,3.5,3.5c0,2-1.6,3.5-3.5,3.5s-3.5-1.6-3.5-3.5C132.6,100.3,134.2,98.7,136.1,98.7z"/>
<path class="st0" d="M183.9,111.8c-9,0-16.3,7.3-16.3,16.3c0,9,7.3,16.3,16.3,16.3s16.3-7.3,16.3-16.3
	C200.2,119.1,192.9,111.8,183.9,111.8z M183.9,117.6c5.8,0,10.5,4.7,10.5,10.5c0,5.8-4.7,10.5-10.5,10.5s-10.5-4.7-10.5-10.5
	C173.4,122.3,178.1,117.6,183.9,117.6z"/>
<path class="st0" d="M214.1,101.8c-4.8,0-8.7,3.9-8.7,8.7c0,4.8,3.9,8.7,8.7,8.7c4.8,0,8.7-3.9,8.7-8.7
	C222.9,105.7,219,101.8,214.1,101.8z M214.1,107.6c1.6,0,2.9,1.3,2.9,2.9c0,1.6-1.3,2.9-2.9,2.9c-1.6,0-2.9-1.3-2.9-2.9
	C211.2,108.9,212.5,107.6,214.1,107.6z"/>
<path class="st0" d="M66.9,114.8c-22.2,0-40.2,18-40.2,40.1c0,22.1,18,40.1,40.2,40.1c22.2,0,40.2-18,40.2-40.1
	C107.1,132.8,89.1,114.8,66.9,114.8z M66.9,189.8c-19.3,0-34.9-15.6-34.9-34.9c0-19.2,15.7-34.9,34.9-34.9s34.9,15.6,34.9,34.9
	C101.8,174.1,86.2,189.8,66.9,189.8z"/>
<path class="st0" d="M91.4,149.3c0.6-2.8-0.6-4.9-3.3-5.8c-3.5-1.2-7.2-2.3-11.3-1.5c-1.3-4.3-4.2-7.1-6.8-9.5
	c-0.8-0.7-1.5-1.1-2.2-1.3c-0.5-0.2-1.1-0.2-1.6,0c-0.8,0.2-1.5,0.7-2.2,1.4c-2.8,2.5-5.6,5.4-6.8,9.5c-4.1-0.8-8,0.3-11.3,1.5
	c-2.7,0.9-3.9,3-3.3,5.8c0.9,4.6,2.2,9.3,6.4,12.2c-1.3,2.1-2.1,4.5-2.4,7.4c-0.2,2,1.4,4.3,3,4.9c3.1,1.3,7.6,2.7,11.9,0.5
	c1.7,2.2,3,3.7,4.7,4.2c0.3,0.1,0.5,0.1,0.8,0.1c0.3,0,0.5,0,0.8-0.1c1.7-0.6,3-2,4.7-4.2c4.4,2.3,8.9,0.9,11.9-0.5
	c1.8-0.7,3.2-3.1,3-4.9c-0.3-2.9-1.1-5.4-2.4-7.4C89.2,158.6,90.4,153.9,91.4,149.3z M73,168.4c0.1-0.1,0.2-0.3,0.3-0.5
	c1.2-2.1,1.5-4.5,1-7c1.4,0.5,2.8,0.9,4.3,1.2c0.1,0.2,0.3,0.4,0.4,0.5c1.8,1.6,2.7,3.6,3,6.5c0,0,0,0,0,0c-3.9,1.6-6.4,1.5-8.6-0.4
	C73.3,168.6,73.1,168.5,73,168.4z M57.4,147.6l5.3,5.3c0.6,0.6,1.1,1.1,1.3,1.5c-3.1,1.8-6.7,3.1-10.5,3.7c-3.8-1.6-4.9-5.2-5.8-9.6
	C50.9,147.3,54.1,146.4,57.4,147.6z M68,157.7c1.4,1.7,2.1,3.5,2.1,5.2c-0.3-0.3-0.5-0.6-0.6-0.8c-0.1-0.1-0.2-0.2-0.3-0.3l-0.1-0.2
	l-0.3-0.2c-0.2-0.1-0.4-0.2-0.6-0.2c-0.2-0.1-0.4-0.1-0.6-0.1c-0.1,0-0.4,0-0.6,0.1c-0.3,0.1-0.5,0.2-0.7,0.3l0,0l-0.3,0.2l-0.1,0.1
	c-0.1,0.1-0.2,0.2-0.3,0.3c-0.2,0.3-0.4,0.6-0.6,0.8c0-1.7,0.8-3.5,2.2-5.3c0-0.1,0.1-0.1,0.1-0.2c0.1,0,0.1-0.1,0.2-0.1
	C67.6,157.5,67.8,157.6,68,157.7z M68.7,149.7c-0.4,0.5-0.9,1-1.4,1.6c-0.5-0.6-1-1.2-1.5-1.7l-4.1-4.1c0.3-3.5,2.2-6,5.2-8.7
	c3,2.7,4.9,5.2,5.2,8.7c0,0.1,0,0.2,0,0.3L68.7,149.7z M54.8,162.6c0.1-0.1,0.2-0.2,0.3-0.4c2-0.4,3.9-0.9,5.7-1.6
	c-0.6,2.5-0.2,5.1,1,7.2c0,0.1,0.1,0.1,0.1,0.2c-0.6,0-1.2,0.3-1.6,0.6c-2.2,1.9-4.7,2-8.6,0.4c0,0,0,0,0,0
	C52.1,166.2,53,164.3,54.8,162.6z M65,168.7c0.9-0.6,1.8-1.3,2.5-2c0.7,0.7,1.6,1.4,2.5,2c0,0,0,0,0.1,0c-0.2,0.2-0.4,0.3-0.5,0.5
	c-1,1.4-2,2.7-2.7,3.5c-0.8-0.9-1.8-2.2-2.7-3.6c0,0-0.1-0.1-0.1-0.1C64.4,169,64.7,168.9,65,168.7z M80.6,158
	c-3.5-0.6-6.8-1.8-9.7-3.7c0.3-0.5,0.9-1.2,1.2-1.5l4.9-5.3c3.1-1,6.2-0.1,9.3,1C85.3,152.8,84.3,156.3,80.6,158z"/>
<path class="st0" d="M238.3,180.9c2.6,0,2.6-4,0-4C235.8,176.9,235.8,180.9,238.3,180.9z"/>
<path class="st0" d="M215.4,179.5c-2.6,0-2.6,4,0,4C218,183.5,218,179.5,215.4,179.5z"/>
<path class="st0" d="M197.2,208.9c-2.6,0-2.6,4,0,4C199.8,212.9,199.8,208.9,197.2,208.9z"/>
<path class="st0" d="M203.7,192.1c-2.6,0-2.6,4,0,4C206.2,196.1,206.3,192.1,203.7,192.1z"/>
<path class="st0" d="M218.2,214.6c-2.6,0-2.6,4,0,4C220.7,218.6,220.8,214.6,218.2,214.6z"/>
<path class="st0" d="M223,197.3c-2.6,0-2.6,4,0,4C225.6,201.3,225.6,197.3,223,197.3z"/>
<path class="st0" d="M236.1,207.7c-2.6,0-2.6,4,0,4C238.6,211.7,238.6,207.7,236.1,207.7z"/>
<path class="st0" d="M239.6,193.1c-2.6,0-2.6,4,0,4C242.1,197.1,242.1,193.1,239.6,193.1z"/>
<path class="st0" d="M227.2,167.8c-2.6,0-2.6,4,0,4C229.8,171.8,229.8,167.8,227.2,167.8z"/>
<path class="st0" d="M197.2,176.9c-2.6,0-2.6,4,0,4C199.8,180.9,199.8,176.9,197.2,176.9z"/>
<path class="st0" d="M166.8,174.1c-2.6,0-2.6,4,0,4C169.4,178.1,169.4,174.1,166.8,174.1z"/>
<path class="st0" d="M183.9,185.9c-2.6,0-2.6,4,0,4C186.4,189.9,186.5,185.9,183.9,185.9z"/>
<path class="st0" d="M169.2,185.9c-2.6,0-2.6,4,0,4C171.8,189.9,171.8,185.9,169.2,185.9z"/>
<path class="st0" d="M161.8,202.2c-2.6,0-2.6,4,0,4C164.4,206.2,164.4,202.2,161.8,202.2z"/>
<path class="st0" d="M179.3,202.2c-2.6,0-2.6,4,0,4C181.9,206.2,181.9,202.2,179.3,202.2z"/>
<path class="st1" d="M67.1,120c-19.3,0-34.9,15.6-34.9,34.9c0,19.2,15.7,34.9,34.9,34.9s34.9-15.6,34.9-34.9
	C102,135.7,86.3,120,67.1,120z M91.5,149.3c-0.9,4.6-2.2,9.3-6.4,12.2c1.3,2.1,2.1,4.5,2.4,7.4c0.2,1.8-1.3,4.2-3,4.9
	c-3.1,1.3-7.6,2.7-11.9,0.5c-1.7,2.3-3,3.7-4.7,4.2c-0.3,0.1-0.6,0.1-0.8,0.1c-0.3,0-0.5,0-0.8-0.1c-1.7-0.6-3-2-4.7-4.2
	c-4.4,2.3-8.9,0.9-11.9-0.5c-1.6-0.7-3.2-2.9-3-4.9c0.3-2.9,1.1-5.4,2.4-7.4c-4.2-2.9-5.4-7.6-6.4-12.2c-0.6-2.8,0.6-4.9,3.3-5.8
	c3.3-1.2,7.1-2.3,11.3-1.5c1.2-4.1,4-7,6.8-9.5c0.8-0.7,1.5-1.1,2.2-1.4c0.6-0.2,1.1-0.2,1.6,0c0.7,0.2,1.4,0.7,2.2,1.3
	c2.7,2.4,5.5,5.2,6.8,9.5c4.1-0.8,7.8,0.3,11.3,1.5C90.9,144.4,92.1,146.5,91.5,149.3z"/>
</svg>
