<svg xmlns="http://www.w3.org/2000/svg" viewBox="0 0 286.17 320.07"><defs><style>.cls-1{fill:#727272;}</style></defs><title>Баня_фільтри</title><g id="Шар_2" data-name="Шар 2"><g id="Шар_1-2" data-name="Шар 1"><path class="cls-1" d="M143.13,320.07H9.18c-7.43,0-9.17-1.7-9.17-9q0-59.73,0-119.46c0-7.38,1.65-9,9.2-9,17.49,0,35-.1,52.48.07,3.32,0,4.58-1.11,5.38-4.21,3.69-14.43,12.76-24.2,26.57-29.54,8.06-3.12,16.28-5.86,24.3-9.07,1.63-.65,3.89-2.71,3.83-4-.15-3.45,2.41-7.82-2.45-10.23-2.08-1-4-2.35-6.07-3.46-9.12-4.91-13.55-12.67-13.13-22.87.2-4.77-1.4-8-4.74-11.28-15.28-15.06-15.7-38.26-1-53.87,8.35-8.84,17-17.42,25.78-25.82C135.12-6,157.63-1.18,165.9,17.81a15,15,0,0,0,3.08,4.4c8,8.07,16,16,24,24.07,11.82,11.9,10.23,29.73-3.71,39.22-2.43,1.65-3.32,3.23-3.14,6a87.45,87.45,0,0,1,0,9c-.35,9.14-4.16,16.31-12.24,21-1.44.83-2.87,1.68-4.31,2.51-5.14,3-7.11,7.41-5.26,13.07.4,1.21,2.2,2.28,3.59,2.8,7.61,2.89,15.32,5.55,23,8.38,14.75,5.46,24.66,15.47,28.35,31,.81,3.42,2.88,3.42,5.51,3.41q26-.07,52,0c7.71,0,9.44,1.72,9.44,9.34q0,59.48,0,119c0,7.3-1.87,9.19-9.08,9.19Zm8.48-184.46H134.41c.94,10.09-5.64,14.18-14.36,16.92-8.07,2.54-16,5.52-23.82,8.83-9.05,3.86-14.84,10.73-17.29,20.9H90.86c.4-4.37.52-9,6.21-9.28,6.45-.34,6.17,5.15,7.2,9.31h77.88c.14-4.48.59-9,6.12-9.29,6.38-.37,6.41,4.91,7.18,9.16h11.81c-2.83-10.27-8.65-17.31-18-21.1-7.86-3.17-15.77-6.26-23.85-8.78C156.87,149.64,151,145.29,151.62,135.61Zm-6.35-75.49L116.21,89.19c-6.3,6.31-5.13,17.08,2.48,21.62,6.56,3.91,13.3,7.52,19.87,11.4a7.92,7.92,0,0,0,8.86.06c6.71-4,13.7-7.52,20.2-11.8,2.4-1.58,5-4.6,5.34-7.24.88-7.15,3.26-14.59-5.42-20.06-6-3.8-10.57-10-15.66-15.28C149.59,65.52,147.59,62.87,145.27,60.12Zm-39.19,21c15.32-15.21,30.61-30,45.3-45.35,2.42-2.53,3.15-7.59,3-11.44-.17-5.38-3.93-9.13-9.05-10.79-6.16-2-11.88-.8-16.57,3.83-8.05,7.94-16,16-24,24C92.91,53.24,93.34,69.36,106.08,81.11ZM104,232.87v40.72h32.67V232.87Zm-91.37,0v40.67H45.33V232.92Zm215.08,40.73v-40.7H195.34v40.7Zm45.64-40.73H240.65v40.67h32.72Zm-123.62-.07v40.74H182V232.86ZM91,233H58.5v40.54H91Zm45.76-13.2V195.42H103.93v24.37Zm45.19.06V195.33H149.65v24.53Zm13.3-24.58v24.5h32.41v-24.5Zm78.14.05H240.65v24.49h32.73ZM12.48,219.83H45.35V195.51H12.48Zm46-24.52v24.38H90.92V195.31ZM153.9,52.24c7.46,7.44,14.75,15,22.4,22.09,1.23,1.15,4.59,1.42,6.14.58,6-3.29,8.25-12.24,3.6-17.32-6.46-7.07-14-13.19-20.58-19.3Zm-108.58,255V286.55H12.65v20.73Zm13-.1H90.84V286.61H58.34ZM104,286.53v20.72h32.53V286.53Zm45.62,0v20.66H182V286.52Zm45.67-.11v20.71h32.29V286.42Zm78,.13H240.65v20.69h32.67Z"/><path class="cls-1" d="M48.35,76.42c.09-3.36,3.27-6.53,6.52-6.24,3.63.33,5.81,2.44,6.06,6.11.23,3.26-3,6.51-6.28,6.58A6.47,6.47,0,0,1,48.35,76.42Z"/><path class="cls-1" d="M236.66,166.89a6.18,6.18,0,0,1-6.27-6.35c.23-3.63,2.31-5.85,5.94-6.24a6.37,6.37,0,0,1,6.65,6A6.87,6.87,0,0,1,236.66,166.89Z"/><path class="cls-1" d="M263.25,253.6c-.52,3.54-2.55,5.74-6.27,5.65s-5.79-2.29-5.91-6a6,6,0,0,1,6.42-6.08C261.12,247.59,263,249.84,263.25,253.6Z"/><path class="cls-1" d="M165.49,259.33c-3.54-.35-5.7-2.46-5.66-6.13s2.27-5.85,6-6.08c3.26-.2,6.44,3.23,6.26,6.44A6.32,6.32,0,0,1,165.49,259.33Z"/><path class="cls-1" d="M74.61,259.35c-3.77-.24-5.8-2.45-6.16-6-.33-3.23,3.15-6.56,6.41-6.23,3.66.36,5.93,2.63,5.83,6.24S78.38,259.12,74.61,259.35Z"/><path class="cls-1" d="M275.68,99.48h0c-.35-1-1.73-2.42-3.8-5.52l-.69-.69c-.35-.35-.35-.69-.69-1l-.35-.35h-.35c-1.73-3.11-1-5.52,1.73-9l.69-.69a19.15,19.15,0,0,0,2.07-2.76c1.73-3.11,1.38-5.87-1.38-7.94-2.42-2.07-5.52-1.73-7.94.69-8.29,8.29-10,16.92-5.87,25.2a28,28,0,0,0,4.83,6.9c3.11,3.8,3.8,6.9,1.38,10.7-2.07,3.45-1.38,6.56,1.38,8.63a5.57,5.57,0,0,0,3.11,1h1a7.57,7.57,0,0,0,4.83-3.45C279.82,114.67,280.16,107.08,275.68,99.48Z"/><path class="cls-1" d="M244.26,117.09c-.35-1-1.73-2.42-3.8-5.52l-.69-.69a1.27,1.27,0,0,0-.35-1l-.35-.69h0c-1.73-3.11-1.38-5.52,1.73-9.32l.69-.69a19.15,19.15,0,0,0,2.07-2.76c1.73-3.11,1.38-5.87-1.38-7.94-2.42-2.07-5.52-1.73-7.94.69-8.29,8.29-10,16.92-5.87,25.2a28,28,0,0,0,4.83,6.9c3.11,3.8,3.8,6.9,1.38,10.7-2.07,3.45-1.38,6.56,1.38,8.63a5.57,5.57,0,0,0,3.11,1h1a7.57,7.57,0,0,0,4.83-3.45C248.75,131.93,248.75,124.34,244.26,117.09Z"/><path class="cls-1" d="M57.71,123.55h0c-.35-1-1.73-2.42-3.8-5.52l-.69-.69c-.35-.35-.35-.69-.69-1l-.35-.35h-.35c-1.73-3.11-1-5.52,1.73-9l.69-.69a19.15,19.15,0,0,0,2.07-2.76c1.73-3.11,1.38-5.87-1.38-7.94-2.42-2.07-5.52-1.73-7.94.69-8.29,8.29-10,16.92-5.87,25.2a28,28,0,0,0,4.83,6.9c3.11,3.8,3.8,6.9,1.38,10.7-2.07,3.45-1.38,6.56,1.38,8.63a5.57,5.57,0,0,0,3.11,1h1a7.57,7.57,0,0,0,4.83-3.45C61.85,138.74,62.2,131.15,57.71,123.55Z"/><path class="cls-1" d="M26.29,141.16c-.35-1-1.73-2.42-3.8-5.52l-.69-.69a1.27,1.27,0,0,0-.35-1l-.35-.69h0c-1.73-3.11-1.38-5.52,1.73-9.32l.69-.69a19.15,19.15,0,0,0,2.07-2.76c1.73-3.11,1.38-5.87-1.38-7.94-2.42-2.07-5.52-1.73-7.94.69-8.29,8.29-10,16.92-5.87,25.2a28,28,0,0,0,4.83,6.9c3.11,3.8,3.8,6.9,1.38,10.7-2.07,3.45-1.38,6.56,1.38,8.63a5.57,5.57,0,0,0,3.11,1h1A7.57,7.57,0,0,0,27,162.22C30.78,156,30.78,148.41,26.29,141.16Z"/></g></g></svg>