<?xml version="1.0" encoding="utf-8"?>
<!-- Generator: Adobe Illustrator 21.0.0, SVG Export Plug-In . SVG Version: 6.00 Build 0)  -->
<svg version="1.1" id="Capa_1" xmlns="http://www.w3.org/2000/svg" xmlns:xlink="http://www.w3.org/1999/xlink" x="0px" y="0px"
	 viewBox="0 0 326.7 326.7" style="enable-background:new 0 0 326.7 326.7;" xml:space="preserve">
<style type="text/css">
	.st0{fill:#656464;}
</style>
<g>
	<path class="st0" d="M148.6,184.2c22.5,0,75.5-27.1,75.5-92.1c0-50.9-6.9-92.1-75.5-92.1S73.1,41.2,73.1,92.1
		C73.1,157.1,126.1,184.2,148.6,184.2z"/>
	<path class="st0" d="M181.6,245.8c0-24.9,12.1-46.9,30.8-60.6c-6.3-3.4-12-6.5-16.2-8.7l-0.3-0.2c-1.9-1-4.1-0.8-5.8,0.5
		c-8.5,6.7-17.8,11.2-27.6,13.3c-1.7,0.4-3.2,1.6-3.8,3.3l-10,26.4l-10-26.4c-0.6-1.7-2.1-2.9-3.8-3.3c-9.8-2.2-19.1-6.7-27.6-13.3
		c-1.7-1.3-3.9-1.5-5.8-0.5c-16,8.6-54.4,29.2-65.2,36.5c-18.3,12.4-26.3,57-27.8,65.9c-0.1,0.9-0.1,1.8,0.2,2.6
		c0.7,1.9,17.5,45.4,140,45.4c37.1,0,64.5-4,84.7-9.6C203.3,307.3,181.6,279.1,181.6,245.8z"/>
	<path class="st0" d="M231.1,260.2c11.3,0,26,1.1,43.2,5c-2.6-5.5-4.6-10.8-6.3-16c-4.9-0.9-8.7-5-9.2-10
		c-7.4-3.2-14.1-6.5-19.9-9.6c-1,0.8-2.2,1.5-3.4,1.9c-0.8,3.6-1.7,7.1-2.7,10.6c-1.3,4.6-2.8,9.3-4.5,13.9
		C229.5,257.2,230.5,258.7,231.1,260.2z"/>
	<path class="st0" d="M219.2,252.9c1.5-4.2,3-8.6,4.3-13.4c0.9-3.1,1.6-6.1,2.3-9.1c-3.2-2-5.4-5.6-5.4-9.7c0-0.6,0.1-1.3,0.2-1.9
		c-5.6-3.6-10.3-6.9-13.8-9.5c-7.5,10.2-11.9,22.8-11.9,36.4c0,6.4,1,12.6,2.8,18.5c2.7-0.7,6.6-1.6,11.6-2.4
		C210.2,257.1,214.2,253.4,219.2,252.9z"/>
	<path class="st0" d="M226.1,210.9c1-0.6,2-1,3.1-1.2c0.5-5.4,0.7-10.6,0.4-15.2c-0.1-1.4-0.2-2.8-0.3-4c-6,3-11.5,6.9-16.2,11.6
		C216.5,204.4,220.8,207.5,226.1,210.9z"/>
	<path class="st0" d="M238.8,211.7c2.7,2.1,4.4,5.3,4.4,9c0,0,0,0.1,0,0.1c5.5,3,11.9,6.1,18.9,9.2c0.4-0.4,0.8-0.7,1.2-1
		c-0.7-4.3-1.1-8.3-1.3-12c-0.9-14.3,0.8-25.7,2.2-32.6c-2.5-0.3-5-0.5-7.5-0.5c-6.2,0-12.3,0.9-17.9,2.7
		C239.8,193.9,239.7,202.5,238.8,211.7z"/>
	<path class="st0" d="M300.8,288.9c1.3-1.3,2.5-2.7,3.7-4.1c-3.3-1.3-6.5-2.5-9.6-3.5C296.7,283.8,298.7,286.4,300.8,288.9z"/>
	<path class="st0" d="M273.7,186.4c-1.3,6.2-2.8,17.1-2,30.5c0.2,3.4,0.6,6.8,1.1,10.1c5,1.1,8.7,5.5,8.8,10.8
		c11.1,3.9,23.4,7.4,36.8,9.9c0-0.6,0-1.3,0-1.9C318.4,217.6,299.5,193.8,273.7,186.4z"/>
	<path class="st0" d="M277.4,246.9c2.4,7.4,5.5,14.6,9.4,21.6c7.4,2.1,15.2,4.8,23.4,8.1c3.4-5.9,5.8-12.3,7.1-19.2
		c-14.4-2.7-27.6-6.5-39.6-10.7C277.6,246.8,277.5,246.9,277.4,246.9z"/>
	<path class="st0" d="M230.2,270c-2,3.4-5.6,5.6-9.8,5.6c-0.2,0-0.4,0-0.5,0c-2.4,4.7-5.1,9.1-7.8,12.9c11.2,11.7,27,19,44.6,19
		c13.8,0,26.6-4.5,36.8-12.2c-5.1-6.2-9.4-12.4-13-18.5C260.6,271.4,243.6,269.9,230.2,270z"/>
	<path class="st0" d="M205.6,280.6c1.8-2.7,3.6-5.7,5.4-9.2c-4.1,0.6-7.3,1.3-9.7,1.9C202.6,275.9,204,278.3,205.6,280.6z"/>
</g>
</svg>
