<?xml version="1.0" encoding="utf-8"?>
<!-- Generator: Adobe Illustrator 21.0.0, SVG Export Plug-In . SVG Version: 6.00 Build 0)  -->
<svg version="1.1" id="Capa_1" xmlns="http://www.w3.org/2000/svg" xmlns:xlink="http://www.w3.org/1999/xlink" x="0px" y="0px"
	 viewBox="0 0 349.7 349.7" style="enable-background:new 0 0 349.7 349.7;" xml:space="preserve">
<style type="text/css">
	.st0{fill:none;}
	.st1{fill:#656464;}
</style>
<polygon class="st0" points="213.2,282.8 238.8,290.8 264.5,282.8 264.5,269 213.2,269 "/>
<path class="st0" d="M133.4,165.5c15.9,14.7,33.5,20.1,41.5,20.1s25.6-5.3,41.5-20.1c12.6-11.7,27.6-32.8,27.6-66.8
	c0-6.2-0.1-12.4-0.4-18.5c-77.3,17.2-93.1-21-93.1-21c-26.4-0.6-38.7,12.1-44.4,23.1c-0.2,5.4-0.3,11-0.3,16.5
	C105.8,132.7,120.8,153.8,133.4,165.5z"/>
<path class="st1" d="M174.8,197.3c24.1,0,80.8-29,80.8-98.6c0-54.5-7.4-98.6-80.8-98.6C101.3,0.1,94,44.3,94,98.7
	C94,168.3,150.7,197.3,174.8,197.3z M106.1,82.3c5.7-11,18-23.7,44.4-23.1c0,0,15.7,38.2,93.1,21c0.3,6.1,0.4,12.3,0.4,18.5
	c0,34-15,55.1-27.6,66.8c-15.9,14.7-33.5,20.1-41.5,20.1s-25.6-5.3-41.5-20.1c-12.6-11.7-27.6-32.8-27.6-66.8
	C105.8,93.2,105.8,87.7,106.1,82.3z"/>
<path class="st1" d="M169.5,217.5l-5.4-10.3c-0.1-0.2-0.2-0.5-0.3-0.7l-15.2,19.6l-24.3-37.3c-17.1,9.2-58.2,31.3-69.8,39.1
	c-19.6,13.2-28.2,61.1-29.7,70.5c-0.2,0.9-0.1,1.9,0.3,2.8c0.7,1.9,17.2,44.7,133.8,48.3L169.5,217.5z"/>
<path class="st1" d="M324.9,298.5c-4.1-25.7-12.6-58.7-29.7-70.5c-11.6-8-52.2-29.7-69.6-39l-0.3-0.2c0,0,0,0-0.1,0L201,226.1
	l-15.1-19.6c-0.1,0.2-0.2,0.4-0.3,0.6l-3.6,10.3l12.5,131.9c116.2-3.7,129.5-46.3,130.2-48.2C325,300.3,325.1,299.4,324.9,298.5z"/>
</svg>
