<?xml version="1.0" encoding="utf-8"?>
<!-- Generator: Adobe Illustrator 21.0.0, SVG Export Plug-In . SVG Version: 6.00 Build 0)  -->
<svg version="1.1" id="Capa_1" xmlns="http://www.w3.org/2000/svg" xmlns:xlink="http://www.w3.org/1999/xlink" x="0px" y="0px"
	 viewBox="0 0 349.5 349.5" style="enable-background:new 0 0 349.5 349.5;" xml:space="preserve">
<style type="text/css">
	.st0{fill:#656464;}
</style>
<g>
	<path class="st0" d="M219.7,5.5c-10.5,0-20.6,1-30.4,2.8c8.9,4,16.5,9.2,23,15.7c2.5-0.1,4.9-0.2,7.4-0.2
		c30.6,0,59.2,9.1,80.6,25.5c19.9,15.3,30.9,35.3,30.9,56.2c0,17.2-7.3,33.7-21.2,47.7l-4.2,4.2l-0.9,5.9l-7.4,49.4l-36.6-25.2
		l-6.3-4.3l-7.5,1.4c-8.9,1.7-18.1,2.5-27.3,2.5c-7.4,0-14.7-0.5-21.8-1.6c-0.8,0.1-1.5,0.3-2.3,0.4l-7,6.4
		c8.1,4.3,16.4,8.8,24.1,13c2.3,0.1,4.6,0.1,6.9,0.1c10.6,0,20.9-1,30.7-2.8l50,34.4c1.4,1,3,1.4,4.6,1.4c1.1,0,2.2-0.2,3.3-0.7
		c2.6-1.1,4.4-3.5,4.8-6.3l9.8-65.4c16.6-16.8,26.5-37.8,26.5-60.6C349.5,50.3,291.4,5.5,219.7,5.5z"/>
	<path class="st0" d="M244.9,233.7c-10.5-7.3-47.2-26.9-62.9-35.3l-0.3-0.2c-0.8-0.4-1.6-0.6-2.4-0.6c-1.1,0-2.2,0.4-3.2,1.1
		c-8.2,6.5-17.2,10.8-26.8,12.9c-1.7,0.4-3.1,1.6-3.7,3.2l-9.7,25.6l-9.7-25.6c-0.6-1.6-2-2.8-3.7-3.2c-9.5-2.1-18.5-6.5-26.8-12.9
		c-0.9-0.7-2-1.1-3.2-1.1c-0.8,0-1.7,0.2-2.4,0.6c-15.5,8.3-52.7,28.3-63.2,35.4C9.2,245.7,1.4,289,0.1,297.5
		c-0.1,0.8-0.1,1.7,0.2,2.5c0.6,1.8,16.9,43.9,135.6,43.9c118.7,0,135-42.1,135.6-43.9c0.3-0.8,0.4-1.7,0.2-2.5
		C268,274.3,260.3,244.4,244.9,233.7z"/>
	<path class="st0" d="M37.3,157.6h16.5c6.2,0,11.2-5,11.2-11.2V98.7c0-4.1-2.3-7.8-5.6-9.7c3.7-39,18.7-66,76.5-66
		c33.2,0,53.9,8.5,65.2,26.8c6.6,10.6,9.7,24.4,11.2,39.2c-3.3,2-5.5,5.5-5.5,9.6v47.6c0,5.4,3.7,9.8,8.8,11
		c-7.3,4.7-22.3,9.6-53.4,9.6c-2.5,0-5.2,0-7.9-0.1c-1.6-3.1-4.8-5.2-8.5-5.2H132c-5.3,0-9.6,4.3-9.6,9.6c0,5.3,4.3,9.6,9.6,9.6
		h13.7c3.2,0,6-1.6,7.8-4c2.9,0.1,5.7,0.1,8.5,0.1c35.1,0,57.4-6,66.4-17.9c0.4-0.5,0.7-1,1.1-1.5h5.1c6.2,0,11.2-5,11.2-11.2V98.7
		c0-6.2-5-11.2-11.2-11.2h-6.2c-1.7-18-5.6-33.2-13.6-46.1C200.5,18.2,174.7,7,135.9,7C97.1,7,71.3,18.2,57,41.4
		c-7.9,12.9-11.8,28.1-13.6,46.1h-6.2c-6.2,0-11.2,5-11.2,11.2v47.6C26,152.5,31.1,157.6,37.3,157.6z"/>
	<path class="st0" d="M71,157.1c15.4,34.1,48.5,48.9,64.9,48.9c10.8,0,28.8-6.4,44.2-20.5c-5.6,0.4-11.7,0.6-18.1,0.6
		c-1.5,0-3.1,0-4.8,0c-3.2,2.5-7.3,3.9-11.5,3.9H132c-10.4,0-18.8-8.4-18.8-18.8c0-10.4,8.4-18.8,18.8-18.8h13.7c5,0,9.6,1.9,13,5.3
		c1.1,0,2.3,0,3.4,0c17.7,0,29.4-1.6,37.1-3.6c-1-2.4-1.5-5.1-1.5-7.8V98.7c0-5,1.8-9.7,5-13.4c-1.7-13.2-4.8-23.3-9.4-30.7
		c-9.5-15.3-27.7-22.5-57.4-22.5c-24.7,0-41.7,5.1-52,15.6C75.8,56,71.2,67.6,69,85.2c3.2,3.7,5.1,8.5,5.1,13.5v47.6
		C74.1,150.3,73,154,71,157.1z"/>
</g>
</svg>
