<?xml version="1.0" encoding="utf-8"?>
<!-- Generator: Adobe Illustrator 21.0.0, SVG Export Plug-In . SVG Version: 6.00 Build 0)  -->
<svg version="1.1" id="Capa_1" xmlns="http://www.w3.org/2000/svg" xmlns:xlink="http://www.w3.org/1999/xlink" x="0px" y="0px"
	 viewBox="0 0 367 367" style="enable-background:new 0 0 367 367;" xml:space="preserve">
<style type="text/css">
	.st0{fill:#656464;}
</style>
<g>
	<path class="st0" d="M160.9,197.2c24.1,0,80.8-29,80.8-98.6c0-9.7-0.2-19.1-1-27.9c-1.3-17.4-4.9-32.9-13.8-44.7
		c-11.4-16.1-31.3-26-66-26c-34.7,0-54.6,9.8-66,25.9C86,37.8,82.4,53.2,81.1,70.7c-0.8,8.9-1,18.2-1,27.9
		C80.1,168.2,136.8,197.2,160.9,197.2z"/>
	<path class="st0" d="M232.7,211.8c2.6-2.6,5.4-5,8.3-7.2c-11.2-6.1-22.1-11.9-29.2-15.7l-0.3-0.2c-2-1.1-4.4-0.8-6.2,0.5
		c-9.1,7.1-19,11.9-29.6,14.3c-1.9,0.4-3.4,1.7-4.1,3.5l-10.7,28.3l-10.7-28.3c-0.7-1.8-2.2-3.1-4.1-3.5
		c-10.5-2.3-20.5-7.2-29.6-14.3c-1.8-1.4-4.2-1.6-6.2-0.5c-17.1,9.2-58.3,31.3-69.8,39.1c-19.6,13.2-28.2,61.1-29.7,70.5
		c-0.1,0.9-0.1,1.9,0.3,2.8c0.7,2,18.7,48.5,149.8,48.5c5.9,0,11.6-0.1,17.1-0.3c0.5-6.1,3-12,7.7-16.6l31.5-31.5
		C203.1,271.6,208.8,235.6,232.7,211.8z"/>
	<path class="st0" d="M336.4,219.5c-12.8-12.8-29.8-19.8-48-19.8c-18.1,0-35.2,7-48,19.8c-21.5,21.5-26.1,55-11,81.4l1.3,2.3
		l-37.3,37.3c-6,6-6,15.9,0,21.9c2.9,2.9,6.8,4.5,11,4.5c4.1,0,8-1.6,11-4.5l37.3-37.3l2.3,1.3c10.1,5.7,21.7,8.8,33.5,8.8
		c18.1,0,35.1-7,47.9-19.8c12.8-12.8,19.8-29.8,19.8-48S349.2,232.3,336.4,219.5z M319.8,298.8c-8.4,8.4-19.5,13-31.3,13
		c-11.9,0-23-4.6-31.3-13c-17.3-17.3-17.3-45.4,0-62.7c8.4-8.4,19.5-13,31.3-13s23,4.6,31.3,13c8.4,8.4,13,19.5,13,31.3
		C332.7,279.4,328.1,290.5,319.8,298.8z"/>
</g>
</svg>
