<?xml version="1.0" encoding="utf-8"?>
<!-- Generator: Adobe Illustrator 21.0.0, SVG Export Plug-In . SVG Version: 6.00 Build 0)  -->
<svg version="1.1" id="Capa_1" xmlns="http://www.w3.org/2000/svg" xmlns:xlink="http://www.w3.org/1999/xlink" x="0px" y="0px"
	 viewBox="0 0 326.7 326.7" style="enable-background:new 0 0 326.7 326.7;" xml:space="preserve">
<style type="text/css">
	.st0{fill:#656464;}
</style>
<g>
	<path class="st0" d="M143.8,184.2c22.5,0,75.5-27.1,75.5-92.1c0-50.9-6.9-92.1-75.5-92.1C75.2,0,68.3,41.2,68.3,92.1
		C68.3,157.1,121.3,184.2,143.8,184.2z"/>
	<path class="st0" d="M317.9,199.3h-131c-2.9,0-5.2,2.3-5.2,5.2v84c0,2.9,2.3,5.2,5.2,5.2h44.7l-1.6,6.2c-1.3,5.1-3,9.9-4.9,14.2
		c-0.7,1.6-0.6,3.5,0.4,5c1,1.5,2.6,2.4,4.4,2.4H275c1.8,0,3.4-0.9,4.4-2.4c1-1.5,1.1-3.4,0.4-5c-2-4.3-3.6-9-4.9-14.2l-1.6-6.2
		h44.7c2.9,0,5.2-2.3,5.2-5.2v-84C323.2,201.7,320.8,199.3,317.9,199.3z M309.6,282H303v-1.3c0-1.9-1.5-3.4-3.4-3.4
		c-1.9,0-3.4,1.5-3.4,3.4v1.3h-4.4v-1.3c0-1.9-1.5-3.4-3.4-3.4s-3.4,1.5-3.4,3.4v1.3h-18.6h-27.6h-43.3v-70.8h114.2V282z"/>
	<path class="st0" d="M170.2,288.6v-84c0-9.2,7.5-16.7,16.7-16.7h25.5c-8.2-4.4-15.8-8.5-21.1-11.3l-0.3-0.2c-1.9-1-4.1-0.8-5.8,0.5
		c-8.5,6.7-17.8,11.2-27.6,13.3c-1.7,0.4-3.2,1.6-3.8,3.3l-10,26.4l-10-26.4c-0.6-1.7-2.1-2.9-3.8-3.3c-9.8-2.2-19.1-6.7-27.6-13.3
		c-1.7-1.3-3.9-1.5-5.8-0.5c-16,8.6-54.4,29.2-65.2,36.5C13,225.2,5,269.9,3.6,278.7c-0.1,0.9-0.1,1.8,0.2,2.6
		c0.7,1.9,17.5,45.4,140,45.4c28.7,0,51.6-2.4,69.9-6.1c-1-3.7-0.6-7.6,1-11.2c0.6-1.4,1.2-2.7,1.7-4.1h-29.4
		C177.7,305.3,170.2,297.8,170.2,288.6z"/>
</g>
</svg>
